<?xml version="1.0" encoding="UTF-8"?>
<svg width="724px" height="896px" viewBox="0 0 724 896" version="1.1" xmlns="http://www.w3.org/2000/svg" xmlns:xlink="http://www.w3.org/1999/xlink">
    <!-- Generator: Sketch 59 (86127) - https://sketch.com -->
    <title>Watched Stock Specs</title>
    <desc>Created with Sketch.</desc>
    <defs>
        <path d="M19.7692308,3 L19.7692308,7.90909091 L23,7.90909091 L23,19.3636364 C23,20.267375 22.2767677,21 21.3846154,21 L3.61538462,21 C2.72323233,21 2,20.267375 2,19.3636364 L2,3 L19.7692308,3 Z M21.3838077,9.54545455 L19.7692308,9.54545455 L19.7692308,19.3636364 L21.3846154,19.3636364 L21.3838077,9.54545455 Z M18.1538462,4.63636364 L3.61538462,4.63636364 L3.61538462,19.3636364 L18.1538462,19.3636364 L18.1538462,4.63636364 Z M16.5384615,16.0909091 L16.5384615,17.7272727 L5.23076923,17.7272727 L5.23076923,16.0909091 L16.5384615,16.0909091 Z M16.5384615,12.8181818 L16.5384615,14.4545455 L5.23076923,14.4545455 L5.23076923,12.8181818 L16.5384615,12.8181818 Z M10.0769231,6.27272727 L10.0769231,11.1818182 L5.23076923,11.1818182 L5.23076923,6.27272727 L10.0769231,6.27272727 Z M16.5384615,9.54545455 L16.5384615,11.1818182 L11.6923077,11.1818182 L11.6923077,9.54545455 L16.5384615,9.54545455 Z M16.5384615,6.27272727 L16.5384615,7.90909091 L11.6923077,7.90909091 L11.6923077,6.27272727 L16.5384615,6.27272727 Z" id="path-1"></path>
        <path d="M12,7 C15.3578913,7 18.3978913,8.74166667 21.12,12.225 C18.3978913,15.7083333 15.3578913,17.45 12,17.45 C8.64210872,17.45 5.60210872,15.7083333 2.88,12.225 C5.60210872,8.74166667 8.64210872,7 12,7 Z M12,8.16111111 C9.79638385,8.16111111 8.01,9.98057614 8.01,12.225 C8.01,14.4694239 9.79638385,16.2888889 12,16.2888889 C14.2036162,16.2888889 15.99,14.4694239 15.99,12.225 C15.99,9.98057614 14.2036162,8.16111111 12,8.16111111 Z M12,10.0814103 C13.162347,10.0814103 14.1046154,11.0411281 14.1046154,12.225 C14.1046154,13.4088719 13.162347,14.3685897 12,14.3685897 C10.837653,14.3685897 9.89538462,13.4088719 9.89538462,12.225 C9.89538462,11.0411281 10.837653,10.0814103 12,10.0814103 Z" id="path-3"></path>
        <path d="M4.5,0 L9,7 L0,7 L4.5,0 Z" id="path-5"></path>
        <rect id="path-7" x="0" y="0" width="162" height="60"></rect>
        <linearGradient x1="50%" y1="0%" x2="50%" y2="100%" id="linearGradient-9">
            <stop stop-color="#29E9E3" stop-opacity="0.3" offset="0%"></stop>
            <stop stop-color="#FFFFFF" stop-opacity="0" offset="100%"></stop>
        </linearGradient>
        <polygon id="path-10" points="3.61538462 3 3.61538462 16.1465455 9.5076244 10.0488387 14.5396681 14.6956909 21.2389105 6.83214542 22.5428528 7.79217384 14.686121 17.0978892 9.57801424 12.3295091 3.61538462 18.5847273 3.61538462 19.3636364 23 19.3636364 23 21 2 21 2 3"></polygon>
        <path d="M19.7692308,3 L19.7692308,7.90909091 L23,7.90909091 L23,19.3636364 C23,20.267375 22.2767677,21 21.3846154,21 L3.61538462,21 C2.72323233,21 2,20.267375 2,19.3636364 L2,3 L19.7692308,3 Z M21.3838077,9.54545455 L19.7692308,9.54545455 L19.7692308,19.3636364 L21.3846154,19.3636364 L21.3838077,9.54545455 Z M18.1538462,4.63636364 L3.61538462,4.63636364 L3.61538462,19.3636364 L18.1538462,19.3636364 L18.1538462,4.63636364 Z M16.5384615,16.0909091 L16.5384615,17.7272727 L5.23076923,17.7272727 L5.23076923,16.0909091 L16.5384615,16.0909091 Z M16.5384615,12.8181818 L16.5384615,14.4545455 L5.23076923,14.4545455 L5.23076923,12.8181818 L16.5384615,12.8181818 Z M10.0769231,6.27272727 L10.0769231,11.1818182 L5.23076923,11.1818182 L5.23076923,6.27272727 L10.0769231,6.27272727 Z M16.5384615,9.54545455 L16.5384615,11.1818182 L11.6923077,11.1818182 L11.6923077,9.54545455 L16.5384615,9.54545455 Z M16.5384615,6.27272727 L16.5384615,7.90909091 L11.6923077,7.90909091 L11.6923077,6.27272727 L16.5384615,6.27272727 Z" id="path-12"></path>
        <path d="M12,7 C15.3578913,7 18.3978913,8.74166667 21.12,12.225 C18.3978913,15.7083333 15.3578913,17.45 12,17.45 C8.64210872,17.45 5.60210872,15.7083333 2.88,12.225 C5.60210872,8.74166667 8.64210872,7 12,7 Z M12,8.16111111 C9.79638385,8.16111111 8.01,9.98057614 8.01,12.225 C8.01,14.4694239 9.79638385,16.2888889 12,16.2888889 C14.2036162,16.2888889 15.99,14.4694239 15.99,12.225 C15.99,9.98057614 14.2036162,8.16111111 12,8.16111111 Z M12,10.0814103 C13.162347,10.0814103 14.1046154,11.0411281 14.1046154,12.225 C14.1046154,13.4088719 13.162347,14.3685897 12,14.3685897 C10.837653,14.3685897 9.89538462,13.4088719 9.89538462,12.225 C9.89538462,11.0411281 10.837653,10.0814103 12,10.0814103 Z" id="path-14"></path>
        <path d="M4.5,0 L9,7 L0,7 L4.5,0 Z" id="path-16"></path>
        <rect id="path-18" x="0" y="0" width="162" height="60"></rect>
        <rect id="path-20" x="0" y="0" width="162" height="60"></rect>
        <polygon id="path-21" points="3.61538462 3 3.61538462 16.1465455 9.5076244 10.0488387 14.5396681 14.6956909 21.2389105 6.83214542 22.5428528 7.79217384 14.686121 17.0978892 9.57801424 12.3295091 3.61538462 18.5847273 3.61538462 19.3636364 23 19.3636364 23 21 2 21 2 3"></polygon>
    </defs>
    <g id="Watched-Stock-Specs" stroke="none" stroke-width="1" fill="none" fill-rule="evenodd">
        <text id="Watched-Stock" font-family="Roboto-Medium, Roboto" font-size="21" font-weight="400" fill="#E05505">
            <tspan x="83" y="60">Watched Stock</tspan>
        </text>
        <text id="9px" font-family="Roboto-Regular, Roboto" font-size="18" font-weight="normal" fill="#000000">
            <tspan x="387" y="150">9px</tspan>
        </text>
        <text id="12px" font-family="Roboto-Regular, Roboto" font-size="18" font-weight="normal" fill="#000000">
            <tspan x="377" y="317">12px</tspan>
        </text>
        <text id="6px" font-family="Roboto-Regular, Roboto" font-size="18" font-weight="normal" fill="#000000">
            <tspan x="321" y="150">6px</tspan>
        </text>
        <text id="6px-copy" font-family="Roboto-Regular, Roboto" font-size="18" font-weight="normal" fill="#000000">
            <tspan x="354" y="150">6px</tspan>
        </text>
        <text id="9px" font-family="Roboto-Regular, Roboto" font-size="18" font-weight="normal" fill="#000000">
            <tspan x="422" y="173">9px</tspan>
        </text>
        <text id="8px" font-family="Roboto-Regular, Roboto" font-size="14" font-weight="normal" fill="#000000">
            <tspan x="109" y="194">8px</tspan>
        </text>
        <text id="6px" font-family="Roboto-Regular, Roboto" font-size="14" font-weight="normal" fill="#000000">
            <tspan x="109" y="212">6px</tspan>
        </text>
        <text id="259px" font-family="Roboto-Regular, Roboto" font-size="18" font-weight="normal" fill="#000000">
            <tspan x="248" y="105">259px</tspan>
        </text>
        <text id="48px" font-family="Roboto-Regular, Roboto" font-size="18" font-weight="normal" fill="#000000">
            <tspan x="23" y="392">48px</tspan>
        </text>
        <text id="12px" font-family="Roboto-Regular, Roboto" font-size="18" font-weight="normal" fill="#000000">
            <tspan x="130" y="151">12px</tspan>
        </text>
        <polyline id="Path-3-Copy-15" stroke="#F37126" stroke-width="2" points="140 131 140 116 399 116 399 131"></polyline>
        <polyline id="Path-3-Copy-17" stroke="#F37126" stroke-width="2" transform="translate(78.000000, 385.500000) scale(-1, 1) rotate(90.000000) translate(-78.000000, -385.500000) " points="51 393 51 378 105 378 105 393"></polyline>
        <g id="Stock_Flux/Watchlist_item" transform="translate(141.000000, 164.000000)">
            <g id="Color/Blue-3" fill="#0D2437" fill-rule="evenodd">
                <rect id="Rectangle" x="0" y="0" width="259" height="120"></rect>
            </g>
            <text id="Ticker" font-family="Roboto-Medium, Roboto" font-size="18" font-weight="400" fill="#FFFFFF">
                <tspan x="12" y="22">AAPL</tspan>
            </text>
            <text id="Company-name" font-family="Roboto-Medium, Roboto" font-size="12" font-weight="400" fill="#FFFFFF">
                <tspan x="12" y="39">Aaple, Inc.</tspan>
            </text>
            <g id="Group" stroke-width="1" fill-rule="evenodd" transform="translate(0.000000, 70.000000)"></g>
            <text id="Change-%" font-family="Roboto-Medium, Roboto" font-size="16" font-weight="400" fill="#41D442">
                <tspan x="194.585938" y="90">+0.88%</tspan>
            </text>
            <text id="Price" font-family="Roboto-Medium, Roboto" font-size="18" font-weight="400" fill="#FFFFFF">
                <tspan x="190.820312" y="68">240.87</tspan>
            </text>
            <g id="Glyph/24News" transform="translate(166.000000, 6.000000)">
                <rect id="Bounding_box" fill="#D8D8D8" fill-rule="evenodd" opacity="0" x="0" y="0" width="24" height="24"></rect>
                <mask id="mask-2" fill="white">
                    <use xlink:href="#path-1"></use>
                </mask>
                <use id="News-Copy" fill="#AEB1B5" fill-rule="nonzero" xlink:href="#path-1"></use>
                <g id="Color/Blue-1" mask="url(#mask-2)" fill="#8A96A6" fill-rule="evenodd">
                    <rect id="Rectangle" x="0" y="0" width="24" height="24"></rect>
                </g>
            </g>
            <g id="Glyph/24Watchlist" transform="translate(226.000000, 6.000000)">
                <rect id="Bounding_box" fill="#D8D8D8" fill-rule="evenodd" opacity="0" x="0.96" y="0" width="23.04" height="24"></rect>
                <mask id="mask-4" fill="white">
                    <use xlink:href="#path-3"></use>
                </mask>
                <use id="Watchlist-Copy" fill="#AEB1B5" fill-rule="nonzero" xlink:href="#path-3"></use>
                <g id="Color/Teal" mask="url(#mask-4)" fill="#29E9E3" fill-rule="evenodd">
                    <rect id="Rectangle" x="0" y="0" width="24" height="24"></rect>
                </g>
            </g>
            <g id="Arrow/Up" transform="translate(182.000000, 81.000000)">
                <mask id="mask-6" fill="white">
                    <use xlink:href="#path-5"></use>
                </mask>
                <use id="Triangle-5" fill="#AEB1B5" fill-rule="evenodd" xlink:href="#path-5"></use>
                <g id="Color/Green" mask="url(#mask-6)" fill="#41D442" fill-rule="evenodd">
                    <rect id="Rectangle" x="0" y="0" width="9" height="7"></rect>
                </g>
            </g>
            <g id="Sparkline/1" transform="translate(0.000000, 54.000000)">
                <mask id="mask-8" fill="white">
                    <use xlink:href="#path-7"></use>
                </mask>
                <use id="Chart_binding_box" fill="#D8D8D8" fill-rule="evenodd" opacity="0" xlink:href="#path-7"></use>
                <polygon id="chart_gradient" fill="url(#linearGradient-9)" fill-rule="evenodd" mask="url(#mask-8)" points="0 23.6669836 6.28 31.2226448 12.56 19.2926321 18.84 17.8761484 25.12 9.01065541 31.4 12.03219 37.68 17.6072882 43.96 1 50.24 2.44973641 56.52 17.9094011 62.8 25.3271853 69.08 26.223386 75.36 32.451778 81.64 35.4781788 87.92 42.2613231 94.2 41.1834492 100.48 59 106.76 55.5409086 113.04 38.0889209 119.32 32.6314237 125.6 25.5745529 131.88 36.3601863 138.16 32.5632962 144.44 30.1686966 150.72 27.9091354 156 40.6069329 156 60 0 60"></polygon>
                <polyline id="chart" stroke="#29E9E3" stroke-width="1" mask="url(#mask-8)" points="0 23.6669836 6.28 31.2226448 12.56 19.2926321 18.84 17.8761484 25.12 9.01065541 31.4 12.03219 37.68 17.6072882 43.96 1 50.24 2.44973641 56.52 17.9094011 62.8 25.3271853 69.08 26.223386 75.36 32.451778 81.64 35.4781788 87.92 42.2613231 94.2 41.1834492 100.48 59 106.76 55.5409086 113.04 38.0889209 119.32 32.6314237 125.6 25.5745529 131.88 36.3601863 138.16 32.5632962 144.44 30.1686966 150.72 27.9091354 156 40.6069329"></polyline>
                <circle id="Oval-13" fill="#29E9E3" fill-rule="evenodd" mask="url(#mask-8)" cx="156" cy="41" r="3"></circle>
            </g>
            <g id="Glyph/24Chart" transform="translate(196.000000, 6.000000)">
                <rect id="Bounding_box" fill="#D8D8D8" fill-rule="evenodd" opacity="0" x="0" y="0" width="24" height="24"></rect>
                <mask id="mask-11" fill="white">
                    <use xlink:href="#path-10"></use>
                </mask>
                <use id="Chart-Copy" fill="#AEB1B5" fill-rule="nonzero" xlink:href="#path-10"></use>
                <g id="Color/Blue-1" mask="url(#mask-11)" fill="#8A96A6" fill-rule="evenodd">
                    <rect id="Rectangle" x="0" y="0" width="24" height="24"></rect>
                </g>
            </g>
            <text id="Price-change" font-family="Roboto-Medium, Roboto" font-size="16" font-weight="400" fill="#41D442">
                <tspan x="206.335938" y="111">+2.13</tspan>
            </text>
        </g>
        <line x1="127" y1="284.500542" x2="418" y2="284.499458" id="Path-2-Copy-43" stroke="#F37126" stroke-dasharray="10,5"></line>
        <line x1="127" y1="163.500542" x2="418" y2="163.499458" id="Path-2-Copy-42" stroke="#F37126" stroke-dasharray="10,5"></line>
        <line x1="127" y1="172.500542" x2="418" y2="172.499458" id="Path-2-Copy-48" stroke="#F37126" stroke-dasharray="10,5"></line>
        <line x1="134" y1="186.500542" x2="212" y2="186.499458" id="Path-2-Copy-59" stroke="#F37126" stroke-dasharray="10,5"></line>
        <line x1="134" y1="195.500542" x2="212" y2="195.499458" id="Path-2-Copy-58" stroke="#F37126" stroke-dasharray="10,5"></line>
        <line x1="134" y1="206.500542" x2="212" y2="206.499458" id="Path-2-Copy-61" stroke="#F37126" stroke-dasharray="10,5"></line>
        <line x1="134" y1="212.500542" x2="212" y2="212.499458" id="Path-2-Copy-60" stroke="#F37126" stroke-dasharray="10,5"></line>
        <text id="9px" font-family="Roboto-Regular, Roboto" font-size="14" font-weight="normal" fill="#000000">
            <tspan x="412" y="436">9px</tspan>
        </text>
        <text id="9px-copy" font-family="Roboto-Regular, Roboto" font-size="14" font-weight="normal" fill="#000000">
            <tspan x="412" y="459">9px</tspan>
        </text>
        <line x1="152.5" y1="156" x2="152" y2="295.396552" id="Path-2-Copy-45" stroke="#F37126" stroke-dasharray="10,5"></line>
        <line x1="140.5" y1="156" x2="140.746214" y2="295.5" id="Path-2-Copy-44" stroke="#F37126" stroke-dasharray="10,5"></line>
        <line x1="400.5" y1="157" x2="400" y2="189.857759" id="Path-2-Copy-47" stroke="#F37126" stroke-dasharray="10,5"></line>
        <line x1="390.5" y1="157" x2="390" y2="189.857759" id="Path-2-Copy-46" stroke="#F37126" stroke-dasharray="10,5"></line>
        <text id="3px-copy" font-family="Roboto-Regular, Roboto" font-size="18" font-weight="normal" fill="#000000">
            <tspan x="332" y="508">3px</tspan>
        </text>
        <text id="3px-copy-2" font-family="Roboto-Regular, Roboto" font-size="18" font-weight="normal" fill="#000000">
            <tspan x="99" y="480">3px</tspan>
        </text>
        <text id="Circle,-6px-diameter" font-family="Roboto-Regular, Roboto" font-size="18" font-weight="normal" fill="#000000">
            <tspan x="323" y="541">Circle, 6px diameter</tspan>
        </text>
        <line x1="400.5" y1="216" x2="400" y2="296.650862" id="Path-2-Copy-72" stroke="#F37126" stroke-dasharray="10,5"></line>
        <line x1="387.5" y1="216" x2="387" y2="296.650862" id="Path-2-Copy-71" stroke="#F37126" stroke-dasharray="10,5"></line>
        <line x1="337.5" y1="157" x2="337" y2="195.831897" id="Path-2-Copy-55" stroke="#F37126" stroke-dasharray="10,5"></line>
        <line x1="331.5" y1="157" x2="331" y2="195.831897" id="Path-2-Copy-54" stroke="#F37126" stroke-dasharray="10,5"></line>
        <line x1="368.5" y1="157" x2="368" y2="195.831897" id="Path-2-Copy-57" stroke="#F37126" stroke-dasharray="10,5"></line>
        <line x1="361.5" y1="157" x2="361" y2="195.831897" id="Path-2-Copy-56" stroke="#F37126" stroke-dasharray="10,5"></line>
        <text id="120px-copy" font-family="Roboto-Regular, Roboto" font-size="18" font-weight="normal" fill="#000000">
            <tspan x="459" y="422">120px</tspan>
        </text>
        <text id="162px-copy" font-family="Roboto-Regular, Roboto" font-size="18" font-weight="normal" fill="#000000">
            <tspan x="196" y="534">162px</tspan>
        </text>
        <text id="2px" font-family="Roboto-Regular, Roboto" font-size="18" font-weight="normal" fill="#000000">
            <tspan x="93" y="538">2px</tspan>
        </text>
        <text id="60px-copy-4" font-family="Roboto-Regular, Roboto" font-size="18" font-weight="normal" fill="#000000">
            <tspan x="23" y="455">60px</tspan>
        </text>
        <polyline id="Path-3-Copy-19" stroke="#F37126" stroke-width="2" transform="translate(226.500000, 503.500000) scale(1, -1) translate(-226.500000, -503.500000) " points="145 511 145 496 308 496 308 511"></polyline>
        <polyline id="Path-3-Copy-18" stroke="#F37126" stroke-width="2" transform="translate(78.000000, 442.500000) scale(-1, 1) rotate(90.000000) translate(-78.000000, -442.500000) " points="48 450 48 435 108 435 108 450"></polyline>
        <polyline id="Path-3-Copy-20" stroke="#F37126" stroke-width="2" transform="translate(448.500000, 419.500000) rotate(90.000000) translate(-448.500000, -419.500000) " points="388 427 388 412 509 412 509 427"></polyline>
        <g id="Stock_Flux/Watchlist_item" transform="translate(146.000000, 359.000000)">
            <g id="Color/Blue-3" fill="#0D2437" fill-rule="evenodd">
                <rect id="Rectangle" x="0" y="0" width="259" height="120"></rect>
            </g>
            <g id="State/Top_Medium" fill="#000000" fill-opacity="0.25" fill-rule="evenodd">
                <rect id="Rectangle" x="0" y="0" width="259" height="48"></rect>
            </g>
            <text id="Ticker" font-family="Roboto-Medium, Roboto" font-size="18" font-weight="400" fill="#FFFFFF">
                <tspan x="12" y="22">AAPL</tspan>
            </text>
            <text id="Company-name" font-family="Roboto-Medium, Roboto" font-size="12" font-weight="400" fill="#FFFFFF">
                <tspan x="12" y="39">Aaple, Inc.</tspan>
            </text>
            <g id="Group" stroke-width="1" fill-rule="evenodd" transform="translate(0.000000, 70.000000)"></g>
            <text id="Change-%" font-family="Roboto-Medium, Roboto" font-size="16" font-weight="400" fill="#41D442">
                <tspan x="194.585938" y="90">+0.88%</tspan>
            </text>
            <text id="Price" font-family="Roboto-Medium, Roboto" font-size="18" font-weight="400" fill="#FFFFFF">
                <tspan x="190.820312" y="68">240.87</tspan>
            </text>
            <g id="Glyph/24News" transform="translate(166.000000, 6.000000)">
                <rect id="Bounding_box" fill="#D8D8D8" fill-rule="evenodd" opacity="0" x="0" y="0" width="24" height="24"></rect>
                <mask id="mask-13" fill="white">
                    <use xlink:href="#path-12"></use>
                </mask>
                <use id="News-Copy" fill="#AEB1B5" fill-rule="nonzero" xlink:href="#path-12"></use>
                <g id="Color/Blue-1" mask="url(#mask-13)" fill="#8A96A6" fill-rule="evenodd">
                    <rect id="Rectangle" x="0" y="0" width="24" height="24"></rect>
                </g>
            </g>
            <g id="Glyph/24Watchlist" transform="translate(226.000000, 6.000000)">
                <rect id="Bounding_box" fill="#D8D8D8" fill-rule="evenodd" opacity="0" x="0.96" y="0" width="23.04" height="24"></rect>
                <mask id="mask-15" fill="white">
                    <use xlink:href="#path-14"></use>
                </mask>
                <use id="Watchlist-Copy" fill="#AEB1B5" fill-rule="nonzero" xlink:href="#path-14"></use>
                <g id="Color/Teal" mask="url(#mask-15)" fill="#29E9E3" fill-rule="evenodd">
                    <rect id="Rectangle" x="0" y="0" width="24" height="24"></rect>
                </g>
            </g>
            <g id="Arrow/Up" transform="translate(182.000000, 81.000000)">
                <mask id="mask-17" fill="white">
                    <use xlink:href="#path-16"></use>
                </mask>
                <use id="Triangle-5" fill="#AEB1B5" fill-rule="evenodd" xlink:href="#path-16"></use>
                <g id="Color/Green" mask="url(#mask-17)" fill="#41D442" fill-rule="evenodd">
                    <rect id="Rectangle" x="0" y="0" width="9" height="7"></rect>
                </g>
            </g>
            <g id="Sparkline/1" transform="translate(0.000000, 54.000000)">
                <mask id="mask-19" fill="white">
                    <use xlink:href="#path-18"></use>
                </mask>
                <use id="Chart_binding_box" fill="#D8D8D8" fill-rule="evenodd" opacity="0" xlink:href="#path-18"></use>
                <g id="State/Hover" mask="url(#mask-19)" fill-rule="evenodd">
                    <g id="Rectangle">
                        <use fill-opacity="0.1" fill="#A6FFFC" xlink:href="#path-20"></use>
                        <use fill="#1B3B56" xlink:href="#path-20"></use>
                    </g>
                </g>
                <polygon id="chart_gradient" fill="url(#linearGradient-9)" fill-rule="evenodd" mask="url(#mask-19)" points="0 23.6669836 6.28 31.2226448 12.56 19.2926321 18.84 17.8761484 25.12 9.01065541 31.4 12.03219 37.68 17.6072882 43.96 1 50.24 2.44973641 56.52 17.9094011 62.8 25.3271853 69.08 26.223386 75.36 32.451778 81.64 35.4781788 87.92 42.2613231 94.2 41.1834492 100.48 59 106.76 55.5409086 113.04 38.0889209 119.32 32.6314237 125.6 25.5745529 131.88 36.3601863 138.16 32.5632962 144.44 30.1686966 150.72 27.9091354 156 40.6069329 156 60 0 60"></polygon>
                <polyline id="chart" stroke="#29E9E3" stroke-width="1" mask="url(#mask-19)" points="0 23.6669836 6.28 31.2226448 12.56 19.2926321 18.84 17.8761484 25.12 9.01065541 31.4 12.03219 37.68 17.6072882 43.96 1 50.24 2.44973641 56.52 17.9094011 62.8 25.3271853 69.08 26.223386 75.36 32.451778 81.64 35.4781788 87.92 42.2613231 94.2 41.1834492 100.48 59 106.76 55.5409086 113.04 38.0889209 119.32 32.6314237 125.6 25.5745529 131.88 36.3601863 138.16 32.5632962 144.44 30.1686966 150.72 27.9091354 156 40.6069329"></polyline>
                <circle id="Oval-13" fill="#29E9E3" fill-rule="evenodd" mask="url(#mask-19)" cx="156" cy="41" r="3"></circle>
            </g>
            <g id="Glyph/24Chart" transform="translate(196.000000, 6.000000)">
                <rect id="Bounding_box" fill="#D8D8D8" fill-rule="evenodd" opacity="0" x="0" y="0" width="24" height="24"></rect>
                <mask id="mask-22" fill="white">
                    <use xlink:href="#path-21"></use>
                </mask>
                <use id="Chart-Copy" fill="#AEB1B5" fill-rule="nonzero" xlink:href="#path-21"></use>
                <g id="Color/Blue-1" mask="url(#mask-22)" fill="#8A96A6" fill-rule="evenodd">
                    <rect id="Rectangle" x="0" y="0" width="24" height="24"></rect>
                </g>
            </g>
            <text id="Price-change" font-family="Roboto-Medium, Roboto" font-size="16" font-weight="400" fill="#41D442">
                <tspan x="206.335938" y="111">+2.13</tspan>
            </text>
        </g>
        <line x1="132" y1="479.500542" x2="423" y2="479.499458" id="Path-2-Copy-53" stroke="#F37126" stroke-dasharray="10,5"></line>
        <line x1="132" y1="358.500542" x2="423" y2="358.499458" id="Path-2-Copy-52" stroke="#F37126" stroke-dasharray="10,5"></line>
        <line x1="132" y1="413.500542" x2="308" y2="413.499458" id="Path-2-Copy-62" stroke="#F37126" stroke-dasharray="10,5"></line>
        <line x1="132" y1="473.500542" x2="308" y2="473.499458" id="Path-2-Copy-63" stroke="#F37126" stroke-dasharray="10,5"></line>
        <line x1="157.5" y1="351" x2="157" y2="490.396552" id="Path-2-Copy-51" stroke="#F37126" stroke-dasharray="10,5"></line>
        <line x1="308.25" y1="413.5" x2="308" y2="490.396552" id="Path-2-Copy-64" stroke="#F37126" stroke-dasharray="10,5"></line>
        <line x1="145.5" y1="351" x2="145.746214" y2="490.5" id="Path-2-Copy-50" stroke="#F37126" stroke-dasharray="10,5"></line>
        <line x1="405.5" y1="352" x2="405" y2="491.396552" id="Path-2-Copy-49" stroke="#F37126" stroke-dasharray="10,5"></line>
        <text id="The-48px-tall-strip" font-family="Roboto-Regular, Roboto" font-size="18" font-weight="normal" fill="#000000">
            <tspan x="451" y="323">The 48px tall strip of Blue 4</tspan>
            <tspan x="451" y="344">appears on hover</tspan>
        </text>
        <line x1="328" y1="427.500542" x2="409" y2="427.499458" id="Path-2-Copy-66" stroke="#F37126" stroke-dasharray="10,5"></line>
        <line x1="328" y1="436.500542" x2="409" y2="436.499458" id="Path-2-Copy-65" stroke="#F37126" stroke-dasharray="10,5"></line>
        <line x1="328" y1="449.500542" x2="406" y2="449.499458" id="Path-2-Copy-68" stroke="#F37126" stroke-dasharray="10,5"></line>
        <line x1="328" y1="458.500542" x2="409" y2="458.499458" id="Path-2-Copy-67" stroke="#F37126" stroke-dasharray="10,5"></line>
        <line x1="328" y1="449.500542" x2="409" y2="449.499458" id="Path-2-Copy-70" stroke="#F37126" stroke-dasharray="10,5"></line>
        <line x1="328" y1="471.500542" x2="409" y2="471.499458" id="Path-2-Copy-69" stroke="#F37126" stroke-dasharray="10,5"></line>
        <text id="9px-copy-2" font-family="Roboto-Regular, Roboto" font-size="14" font-weight="normal" fill="#000000">
            <tspan x="412" y="478">9px</tspan>
        </text>
        <text id="The-binding-box-for" font-family="Roboto-Regular, Roboto" font-size="21" font-weight="normal" fill="#000000">
            <tspan x="88" y="691">The binding box for the sparkline chart is W 167px x H 60px</tspan>
            <tspan x="88" y="715"></tspan>
            <tspan x="88" y="739">The box turns 100% opacity Blue 2 upon hover</tspan>
            <tspan x="88" y="763"></tspan>
            <tspan x="88" y="787">When not hovering, the opacity of the box is 0%</tspan>
            <tspan x="88" y="811"></tspan>
            <tspan x="88" y="835">The graph should be constrained by the box and</tspan>
            <tspan x="88" y="859">not bleed through its margins</tspan>
        </text>
        <text id="The-top-48px-of-the" font-family="Roboto-Regular, Roboto" font-size="21" font-weight="normal" fill="#000000">
            <tspan x="88" y="591">The top 48px of the Watched Stock box turn from Blue 3 to</tspan>
            <tspan x="88" y="615">Blue 4 upon hover. This section turns into a handle for the </tspan>
            <tspan x="88" y="639">Watched Stock, allowing the user to grab and move it.</tspan>
        </text>
        <path id="Line-4" d="M450.275399,327.173353 L445.36424,336.530497 L444.47879,336.065762 L448.089,329.185 L394.852371,363.691524 L394.308476,362.852371 L447.546,328.346 L439.791126,328.833366 L439.728484,327.83533 L450.275399,327.173353 Z" fill="#F37126" fill-rule="nonzero"></path>
        <path id="Line-4-Copy" d="M303.791447,456.855749 L326.47,517.005 L327.645981,509.324784 L328.634477,509.476025 L327.036214,519.922133 L318.938935,513.131721 L319.5815,512.36549 L325.535,517.358 L302.855749,457.208553 L303.791447,456.855749 Z" fill="#F37126" fill-rule="nonzero"></path>
        <path id="Line-4-Copy-2" d="M152.796309,444.322866 L153.677134,444.796309 L111.106,523.996 L117.668974,519.834276 L118.204568,520.678752 L109.280431,526.338734 L109.077609,515.773011 L110.077425,515.753819 L110.226,523.521 L152.796309,444.322866 Z" fill="#F37126" fill-rule="nonzero"></path>
        <line x1="340.5" y1="440" x2="340" y2="491.775862" id="Path-2-Copy-74" stroke="#F37126" stroke-dasharray="10,5"></line>
        <line x1="337.5" y1="440" x2="337" y2="491.775862" id="Path-2-Copy-73" stroke="#F37126" stroke-dasharray="10,5"></line>
    </g>
</svg>