<?xml version="1.0" encoding="utf-8"?><svg width="163" height="115" viewBox="0 0 163 115" xmlns="http://www.w3.org/2000/svg" xmlns:xlink="http://www.w3.org/1999/xlink"><svg viewBox="0 0 30 25" width="30" height="25" id="andrews-pitchfork-tool" x="30" y="40"><g transform="rotate(50 8.855 21.078)" fill="none" fill-rule="evenodd"><ellipse stroke="#7B9FA1" cx="7" cy="20.262" rx="2.727" ry="2.738"/><path d="M7.545 7.667V0h-1.09v7.667H1v1.095h5.455v8.762h1.09V8.762H13V7.667H7.545zM1 1.095h1.09v6.572H1V1.095zm10.91 0H13v6.572h-1.09V1.095z" fill="#7B9FA1"/></g></svg><svg viewBox="0 0 30 25" width="30" height="25" id="annotations-tool" x="78" y="25"><g stroke-linecap="square" stroke="#7B9FA1" fill="none" fill-rule="evenodd"><path d="M7.5 21.5h15" stroke-dasharray="2"/><path d="M15.5 5.5v14m-8-15h15"/></g></svg><svg viewBox="0 0 25 25" width="25" height="25" id="area-series" x="138" y="25"><g stroke="#7B9FA1" fill="none" fill-rule="evenodd"><path d="M22.5 19.504h-21v-1.5l6-6.5 5 5 10-10.5z"/><path d="M1.5 19v-5.5l6-7L15 14"/></g></svg><svg viewBox="0 0 30 25" width="30" height="25" id="arrow-line-tool" y="40"><path d="M24.12 6.85l-3.924 8.676-5.592-8.29m2.516 3.73l.56.83-11.52 7.77-.56-.83z" fill="#7B9FA1" fill-rule="evenodd"/></svg><svg viewBox="0 0 25 25" width="25" height="25" id="bar-series" x="138"><path d="M17.5 3.5h6v17h-6zm-16 9h6v8h-6zm8-4h6v12h-6z" stroke="#7B9FA1" fill="none" fill-rule="evenodd"/></svg><svg viewBox="0 0 25 25" width="25" height="25" id="bollinger-bands-indicator" x="100" y="90"><g stroke="#7B9FA1" fill="none" fill-rule="evenodd"><path d="M2 14.714l1.826-.857L6.566 13l2.738.43L12.5 16h6.848L23 19M2 9.857L5 9l3 .43L11.5 12H19l4 3M2 6.714l1.826-.857L6.566 5l2.738.43L12.5 8h6.848L23 11"/></g></svg><svg viewBox="0 0 25 25" width="25" height="25" id="candlestick-series" x="50" y="90"><g stroke="#679A9A" fill="none" fill-rule="evenodd"><path d="M17.5 4.5h6v15h-6zm-8 8h6v8h-6zm-8-6h6v12h-6z"/><path d="M20.5 19.5v2m-8-1v1m-8-3v4m16-19v-1m-8 0v9m-8-6v-3" stroke-linecap="square"/></g></svg><svg viewBox="0 0 16 16" width="16" height="16" id="delete" x="138" y="75"><g transform="translate(1 1)" stroke="#7B9FA1" fill="none" fill-rule="evenodd"><rect width="14" height="14" rx="2"/><path d="M3.5 10.5l7-7m0 7l-7-7" stroke-linecap="square"/></g></svg><svg viewBox="0 0 30 25" width="30" height="25" id="ellipse-tool" x="30" y="65"><circle cx="15.5" cy="12.5" r="10.5" stroke="#7B9FA1" fill="none"/></svg><svg viewBox="0 0 30 25" width="30" height="25" id="fibonacci-arc-tool" x="60" y="65"><g stroke="#7B9FA1" fill="none" fill-rule="evenodd"><path d="M9.884 1.763s-2.787 2.34-4.11 6.422c-1.322 4.084.433 8.063 1.41 9.226 1.41 1.684 3.66 4.365 8.644 4.644 4.983.28 8.7-2.84 8.7-2.84"/><path d="M13.93 3.858S12.258 5.26 11.464 7.71c-.793 2.45.26 4.84.846 5.537.847 1.01 2.197 2.617 5.187 2.785 2.99.167 5.22-1.703 5.22-1.703"/><path d="M17.71 3.917s-.976.82-1.44 2.248c-.462 1.43.152 2.822.494 3.23.494.588 1.28 1.526 3.026 1.624 1.744.095 3.044-.996 3.044-.996"/></g></svg><svg viewBox="0 0 30 25" width="30" height="25" id="fibonnacci-fan-tool" x="108"><g transform="translate(3.377 3)" stroke="#7B9FA1" fill="none" fill-rule="evenodd"><path d="M5.623 17h18m-18-2L22.07 7.69M4.123 13.5L15.623 0" stroke-linecap="square"/><circle cx="3.123" cy="16.5" r="2.5"/></g></svg><svg viewBox="0 0 30 25" width="30" height="25" id="fibonnacci-retracement-tool" y="65"><g stroke-linecap="square" stroke="#7B9FA1" fill="none" fill-rule="evenodd"><path d="M2.5 18.5h25"/><path d="M2.5 14.5h25m-25-5h25" stroke-dasharray="2"/><path d="M2.5 5.5h25"/></g></svg><svg viewBox="0 0 30 25" width="30" height="25" id="freeform-tool" x="48"><path d="M29 2C6.732 48.223 20.37-18.705 1 22" stroke="#7B9FA1" fill="none"/></svg><svg viewBox="0 0 25 25" width="25" height="25" id="line-series" x="108" y="50"><g stroke="#7B9FA1" fill="none" fill-rule="evenodd"><path d="M2 20l5.5-6 5.5 5.5L23 9"/><path d="M2 16l5.5-6 5.5 5.312L23 5"/></g></svg><svg viewBox="0 0 25 25" width="25" height="25" id="macd-indicator" y="90"><g fill="none" fill-rule="evenodd"><path fill="#7B9FA1" d="M18 11h1v3h-1zm2 0h1v3h-1zm2 0h1v3h-1zm-6 1h1v2h-1zm-2 0h1v2h-1zm-2 2h1v2h-1zm-6 0h1v2H6zm-2 0h1v3H4zm4 0h1v3H8zm2 0h1v3h-1z"/><path d="M2 14h1v3H2z" stroke="#979797" stroke-width=".01" fill="#7B9FA1"/><path d="M2 14l3.72-4 5.117 6h1.86l6.047-7 1.86 3H22" stroke="#7B9FA1"/><path d="M3 15.59L9.166 10l6.85 6H22" stroke="#7B9FA1" stroke-width=".5" stroke-dasharray="1"/></g></svg><svg viewBox="0 0 25 25" width="25" height="25" id="moving-average-indicator" x="25" y="90"><path d="M1.72 10.66l1.866-.89 2.795-.887 2.8.444 3.26 2.668h6.994l3.73 3.113" stroke="#7B9FA1" fill="none"/></svg><svg viewBox="0 0 16 16" width="16" height="16" id="navigator-handle" x="138" y="91"><g fill="none" fill-rule="evenodd"><ellipse stroke="#FFF" fill="#263337" cx="8" cy="8" rx="7" ry="7"/><circle fill="#FFF" cx="8" cy="8" r="4"/></g></svg><svg viewBox="0 0 25 25" width="25" height="25" id="ohlc-series" x="108" y="25"><path d="M18.5 9.5h2m-2-4h-2m-4 9h2m-2 4h-2m-4-4h2m-2-10h-2m14 1v11m-6-9v15m-6-20v14" stroke-linecap="square" stroke="#7B9FA1" fill="none" fill-rule="evenodd"/></svg><svg viewBox="0 0 25 25" width="25" height="25" id="point-series" x="75" y="90"><g stroke="#7B9FA1" fill="none" fill-rule="evenodd"><g transform="translate(2 3.5)"><circle cx="19.5" cy="2" r="2"/><circle cx="11.5" cy="12" r="2"/><circle cx="6.5" cy="5" r="2"/><circle cx="1.5" cy="15" r="2"/></g><path d="M15.5 13.5l5.5-7m-8.5 7l-3-4m-5 7l3-6" stroke-linecap="square" stroke-dasharray="1,2"/></g></svg><svg viewBox="0 0 30 25" width="30" height="25" id="rectangle-tool" x="78"><path d="M4 5h22v15H4z" stroke="#7B9FA1" fill="none"/></svg><svg viewBox="0 0 24 40" width="24" height="40" id="reset-active" x="24"><path d="M1.5 1.5h13.438L23 20.218 14.937 38H1.5l9.406-17.782L1.5 1.5z" stroke="#FFF" fill="#FFF" opacity=".199" fill-rule="evenodd"/></svg><svg viewBox="0 0 24 40" width="24" height="40" id="reset-inactive"><path d="M1.5 1.5h13.438L23 20.218 14.937 38H1.5l9.406-17.782L1.5 1.5z" stroke="#FFF" opacity=".199" fill="none"/></svg><svg viewBox="0 0 25 25" width="25" height="25" id="rsi-indicator" x="138" y="50"><g stroke="#7B9FA1" fill="none"><path d="M2 15.5h21m-21-3h21m-21-3h21" stroke-linecap="square" stroke-dasharray="2"/><path d="M2 17l6.462-6.5 2.153 3.5 3.23-7 5.924 11L23 10.5"/></g></svg><svg viewBox="0 0 8 8" width="8" height="8" id="settings" x="154" y="75"><path d="M3.428 1h1.128v.83l.564.204.572-.572.846.846-.556.556.172.564H7v1.128h-.737l-.297.58.548.564-.83.83-.548-.548-.58.188V7H3.428v-.83l-.564-.188-.548.548-.838-.838.564-.564-.212-.556H1V3.444h.83l.204-.564-.564-.564.846-.846.556.556.556-.196V1zM4 5.286a1.286 1.286 0 1 0 0-2.573 1.286 1.286 0 0 0 0 2.573z" fill="#7B9DA1" fill-rule="evenodd"/></svg></svg>