<svg xmlns="http://www.w3.org/2000/svg" xmlns:xlink="http://www.w3.org/1999/xlink" width="1364" height="791" viewBox="0 0 1364 791">
  <defs>
    <rect id="watchlist_v2_updates-from-demo-a" width="271" height="501" x="0" y="0" rx="3"/>
    <filter id="watchlist_v2_updates-from-demo-b" width="105.9%" height="103.2%" x="-3%" y="-1.4%" filterUnits="objectBoundingBox">
      <feMorphology in="SourceAlpha" operator="dilate" radius=".5" result="shadowSpreadOuter1"/>
      <feOffset dy="1" in="shadowSpreadOuter1" result="shadowOffsetOuter1"/>
      <feGaussianBlur in="shadowOffsetOuter1" result="shadowBlurOuter1" stdDeviation="2"/>
      <feColorMatrix in="shadowBlurOuter1" values="0 0 0 0 0   0 0 0 0 0   0 0 0 0 0  0 0 0 0.5 0"/>
    </filter>
    <rect id="watchlist_v2_updates-from-demo-d" width="271" height="501" x="0" y="0" rx="3"/>
    <filter id="watchlist_v2_updates-from-demo-e" width="105.9%" height="103.2%" x="-3%" y="-1.4%" filterUnits="objectBoundingBox">
      <feMorphology in="SourceAlpha" operator="dilate" radius=".5" result="shadowSpreadOuter1"/>
      <feOffset dy="1" in="shadowSpreadOuter1" result="shadowOffsetOuter1"/>
      <feGaussianBlur in="shadowOffsetOuter1" result="shadowBlurOuter1" stdDeviation="2"/>
      <feColorMatrix in="shadowBlurOuter1" values="0 0 0 0 0   0 0 0 0 0   0 0 0 0 0  0 0 0 0.5 0"/>
    </filter>
    <linearGradient id="watchlist_v2_updates-from-demo-g" x1="38.317%" x2="90.753%" y1="26.789%" y2="26.789%">
      <stop offset="0%" stop-color="#071521"/>
      <stop offset="100%" stop-color="#071521" stop-opacity="0"/>
    </linearGradient>
  </defs>
  <g fill="none" fill-rule="evenodd">
    <rect width="1364" height="791" fill="#FFF"/>
    <g transform="translate(177 160)">
      <mask id="watchlist_v2_updates-from-demo-c" fill="#fff">
        <use xlink:href="#watchlist_v2_updates-from-demo-a"/>
      </mask>
      <use fill="#000" filter="url(#watchlist_v2_updates-from-demo-b)" xlink:href="#watchlist_v2_updates-from-demo-a"/>
      <use fill="#010F1B" xlink:href="#watchlist_v2_updates-from-demo-a"/>
      <g mask="url(#watchlist_v2_updates-from-demo-c)">
        <path fill="#010F1B" d="M3,0 L268,0 C269.656854,-3.04359188e-16 271,1.34314575 271,3 L271,30 L271,30 L0,30 L0,3 C-2.02906125e-16,1.34314575 1.34314575,3.04359188e-16 3,0 Z"/>
        <g transform="translate(241)">
          <rect width="30" height="30" rx="3"/>
          <path fill="#C5D2DD" d="M15,9.54931324 C15.3945447,9.54931324 15.7143864,9.86915494 15.7143864,10.2636997 L15.7143864,10.2636997 L15.7139187,13.9143132 L19.3656949,13.9150081 C19.7273609,13.9150081 20.0262556,14.183764 20.0735598,14.5324565 L20.0800813,14.6293945 C20.0800813,15.0239393 19.7602396,15.343781 19.3656949,15.343781 L19.3656949,15.343781 L15.7139187,15.3433132 L15.7143864,18.9950894 C15.7143864,19.3567554 15.4456306,19.6556501 15.096938,19.7029543 L15,19.7094758 C14.6054553,19.7094758 14.2856136,19.3896341 14.2856136,18.9950894 L14.2856136,18.9950894 L14.2849187,15.3433132 L10.6343051,15.343781 C10.2726391,15.343781 9.97374443,15.0750251 9.92644022,14.7263325 L9.91991871,14.6293945 C9.91991871,14.2348498 10.2397604,13.9150081 10.6343051,13.9150081 L10.6343051,13.9150081 L14.2849187,13.9143132 L14.2856136,10.2636997 C14.2856136,9.90203367 14.5543694,9.60313896 14.903062,9.55583475 Z" transform="rotate(45 15 14.63)"/>
        </g>
        <g transform="translate(211)">
          <rect width="30" height="30" rx="3"/>
          <path fill="#C5D2DD" d="M11,18.7695312 L19,18.7695312 C19.2761424,18.7695312 19.5,18.4294819 19.5,18.0100098 C19.5,17.5905376 19.2761424,17.2504883 19,17.2504883 L11,17.2504883 C10.7238576,17.2504883 10.5,17.5905376 10.5,18.0100098 C10.5,18.4294819 10.7238576,18.7695312 11,18.7695312 Z"/>
        </g>
        <text fill="#FFF" font-family="Roboto-Medium, Roboto" font-size="14" font-weight="400">
          <tspan x="8" y="20.5">Watchlist</tspan>
        </text>
      </g>
      <text fill="#FFF" font-family="Roboto-Regular, Roboto" font-size="14" mask="url(#watchlist_v2_updates-from-demo-c)">
        <tspan x="13" y="78">You have no stocks in your Watchlist.</tspan>
      </text>
      <text fill="#FFF" font-family="Roboto-Regular, Roboto" font-size="14" mask="url(#watchlist_v2_updates-from-demo-c)">
        <tspan x="13" y="118">Use the Search to add new stocks to </tspan> <tspan x="13" y="134">the list.</tspan>
      </text>
      <rect width="6" height="122" x="263" y="33" mask="url(#watchlist_v2_updates-from-demo-c)" rx="3"/>
    </g>
    <text fill="#000" font-family="Roboto-Regular, Roboto" font-size="12">
      <tspan x="537" y="219">Text: </tspan> <tspan x="537" y="233">Roboto, regular, 14px, White </tspan>
    </text>
    <text fill="#000" font-family="Roboto-Bold, Roboto" font-size="12" font-weight="bold">
      <tspan x="831.75" y="115.5">Buttons: </tspan>
    </text>
    <text fill="#000" font-family="Roboto-Bold, Roboto" font-size="12" font-weight="bold">
      <tspan x="177" y="115.5">Watchlist - empty </tspan>
    </text>
    <text fill="#000" font-family="Roboto-Regular, Roboto" font-size="12">
      <tspan x="1142.75" y="211.5">This is not fixed</tspan>
    </text>
    <g transform="translate(831.75 161)">
      <mask id="watchlist_v2_updates-from-demo-f" fill="#fff">
        <use xlink:href="#watchlist_v2_updates-from-demo-d"/>
      </mask>
      <use fill="#000" filter="url(#watchlist_v2_updates-from-demo-e)" xlink:href="#watchlist_v2_updates-from-demo-d"/>
      <use fill="#010F1B" xlink:href="#watchlist_v2_updates-from-demo-d"/>
      <g mask="url(#watchlist_v2_updates-from-demo-f)">
        <path fill="#010F1B" d="M3,0 L268,0 C269.656854,-3.04359188e-16 271,1.34314575 271,3 L271,30 L271,30 L0,30 L0,3 C-2.02906125e-16,1.34314575 1.34314575,3.04359188e-16 3,0 Z"/>
        <g transform="translate(241)">
          <rect width="30" height="30" rx="3"/>
          <path fill="#C5D2DD" d="M15,9.54931324 C15.3945447,9.54931324 15.7143864,9.86915494 15.7143864,10.2636997 L15.7143864,10.2636997 L15.7139187,13.9143132 L19.3656949,13.9150081 C19.7273609,13.9150081 20.0262556,14.183764 20.0735598,14.5324565 L20.0800813,14.6293945 C20.0800813,15.0239393 19.7602396,15.343781 19.3656949,15.343781 L19.3656949,15.343781 L15.7139187,15.3433132 L15.7143864,18.9950894 C15.7143864,19.3567554 15.4456306,19.6556501 15.096938,19.7029543 L15,19.7094758 C14.6054553,19.7094758 14.2856136,19.3896341 14.2856136,18.9950894 L14.2856136,18.9950894 L14.2849187,15.3433132 L10.6343051,15.343781 C10.2726391,15.343781 9.97374443,15.0750251 9.92644022,14.7263325 L9.91991871,14.6293945 C9.91991871,14.2348498 10.2397604,13.9150081 10.6343051,13.9150081 L10.6343051,13.9150081 L14.2849187,13.9143132 L14.2856136,10.2636997 C14.2856136,9.90203367 14.5543694,9.60313896 14.903062,9.55583475 Z" transform="rotate(45 15 14.63)"/>
        </g>
        <g transform="translate(211)">
          <rect width="30" height="30" rx="3"/>
          <path fill="#C5D2DD" d="M11,18.7695312 L19,18.7695312 C19.2761424,18.7695312 19.5,18.4294819 19.5,18.0100098 C19.5,17.5905376 19.2761424,17.2504883 19,17.2504883 L11,17.2504883 C10.7238576,17.2504883 10.5,17.5905376 10.5,18.0100098 C10.5,18.4294819 10.7238576,18.7695312 11,18.7695312 Z"/>
        </g>
        <text fill="#FFF" font-family="Roboto-Medium, Roboto" font-size="14" font-weight="400">
          <tspan x="8" y="20.5">Watchlist</tspan>
        </text>
      </g>
      <g mask="url(#watchlist_v2_updates-from-demo-f)">
        <g transform="translate(0 50)">
          <rect width="271" height="82" fill="#071521"/>
          <g transform="translate(16 33.006)">
            <polygon fill="#21B1CA" fill-opacity=".2" points="0 17.347 10.241 23.129 20.481 13.999 30.722 12.915 40.963 6.13 51.203 8.443 61.444 12.709 71.685 0 81.925 1.109 92.166 12.94 102.406 18.617 112.647 19.303 122.888 24.07 133.128 26.386 143.369 31.577 153.61 30.752 163.85 44.386 174.091 41.739 184.332 28.384 194.572 24.207 204.813 18.807 215.054 27.061 225.294 24.155 235.535 22.322 245.776 20.593 255 30.752 255 49 0 49"/>
            <polyline stroke="#21B1CA" points="0 17.347 10.241 23.129 20.481 13.999 30.722 12.915 40.963 6.13 51.203 8.443 61.444 12.709 71.685 0 81.925 1.109 92.166 12.94 102.406 18.617 112.647 19.303 122.888 24.07 133.128 26.386 143.369 31.577 153.61 30.752 163.85 44.386 174.091 41.739 184.332 28.384 194.572 24.207 204.813 18.807 215.054 27.061 225.294 24.155 235.535 22.322 245.776 20.593 254.386 30.311"/>
          </g>
          <rect width="48" height="82" fill="url(#watchlist_v2_updates-from-demo-g)"/>
          <text fill="#FFF" font-family="Roboto-Medium, Roboto" font-size="14" font-weight="400">
            <tspan x="6" y="22">FXE</tspan>
          </text>
          <g font-family="Roboto-Medium, Roboto" font-size="14" font-weight="400" letter-spacing=".1" transform="translate(84.37 9)">
            <text fill="#FFF">
              <tspan x="28.255" y="13">45.66</tspan>
            </text>
            <text fill="#FF6262">
              <tspan x="90.59" y="13">-0.11 (0.05%)</tspan>
            </text>
          </g>
          <path fill="#FF6262" d="M1.30666917,0.302713702 C1.08962691,-0.00822447283 0.647649328,-0.0935782741 0.319484602,0.112070651 C-0.00868012387,0.317719576 -0.0987626838,0.736496163 0.118279573,1.04743434 L3.38212551,5.72327172 L6.64597144,1.04743434 C6.8630137,0.736496163 6.77293114,0.317719576 6.44476641,0.112070651 C6.11660169,-0.0935782741 5.6746241,-0.00822447283 5.45758185,0.302713702 L3.38212551,3.27604533 L1.30666917,0.302713702 Z" transform="translate(78.148 14.443)"/>
          <g transform="translate(6.37 57)">
            <rect width="22" height="22" fill="#1B3B56" rx="3"/>
            <path fill="#C5D2DD" d="M8.05525142,8.45633623 C8.27148086,8.70299796 8.65127282,8.73156351 8.9035405,8.52013917 C9.15580818,8.30871482 9.18502295,7.93736269 8.96879351,7.69070095 L4.45677105,2.54365311 C4.21667395,2.26976457 3.78332605,2.26976457 3.54322895,2.54365311 L-0.968793508,7.69070095 C-1.18502295,7.93736269 -1.15580818,8.30871482 -0.903540501,8.52013917 C-0.651272818,8.73156351 -0.271480858,8.70299796 -0.0552514158,8.45633623 L4,3.83034572 L8.05525142,8.45633623 Z" transform="rotate(90 4.803 11.803)"/>
          </g>
        </g>
      </g>
      <g mask="url(#watchlist_v2_updates-from-demo-f)">
        <g transform="translate(0 136)">
          <rect width="271" height="82" fill="#071521"/>
          <g transform="translate(16 35)">
            <polygon fill="#21B1CA" fill-opacity=".2" points="0 5.527 10.2 19.694 20.4 19.141 30.6 24.206 40.8 13.915 51 25.818 61.2 26.278 71.4 27.218 81.6 15.943 91.8 9.532 102 7.136 112.2 .024 122.4 0 132.6 17.816 142.8 5.037 153 30.717 163.2 17.818 173.4 13.281 183.6 20.874 193.8 14.705 204 33.754 214.2 16.375 224.4 19.248 234.6 31.415 244.8 45.379 255 31.349 255 47 0 47"/>
            <polyline stroke="#21B1CA" points="0 5.724 10.2 20.398 20.4 19.824 30.6 25.071 40.8 14.412 51 25.818 61.2 26.278 71.4 27.217 81.6 16.513 91.8 9.872 102 7.391 112.2 .025 122.4 0 132.6 18.452 142.8 5.217 153 31.814 163.2 18.454 173.4 13.755 183.6 21.62 193.8 15.23 204 34.959 214.2 16.96 224.4 19.935 234.6 32.537 244.8 45.379 255 32.469"/>
          </g>
          <rect width="48" height="82" fill="url(#watchlist_v2_updates-from-demo-g)"/>
          <text fill="#FFF" font-family="Roboto-Medium, Roboto" font-size="14" font-weight="400">
            <tspan x="6" y="22">GLD</tspan>
          </text>
          <g font-family="Roboto-Medium, Roboto" font-size="14" font-weight="400" letter-spacing=".1" transform="translate(84.37 9)">
            <text fill="#FFF">
              <tspan x="20.198" y="13">137.39</tspan>
            </text>
            <text fill="#43C578">
              <tspan x="87.384" y="13">+0.88 (0.64%)</tspan>
            </text>
          </g>
          <g transform="translate(6 57)">
            <rect width="22" height="22" fill="#1B3B56" rx="3"/>
            <path fill="#C5D2DD" d="M8.05525142,8.45633623 C8.27148086,8.70299796 8.65127282,8.73156351 8.9035405,8.52013917 C9.15580818,8.30871482 9.18502295,7.93736269 8.96879351,7.69070095 L4.45677105,2.54365311 C4.21667395,2.26976457 3.78332605,2.26976457 3.54322895,2.54365311 L-0.968793508,7.69070095 C-1.18502295,7.93736269 -1.15580818,8.30871482 -0.903540501,8.52013917 C-0.651272818,8.73156351 -0.271480858,8.70299796 -0.0552514158,8.45633623 L4,3.83034572 L8.05525142,8.45633623 Z" transform="rotate(90 4.803 11.803)"/>
          </g>
          <path fill="#43C578" d="M1.30666917,0.302713702 C1.08962691,-0.00822447283 0.647649328,-0.0935782741 0.319484602,0.112070651 C-0.00868012387,0.317719576 -0.0987626838,0.736496163 0.118279573,1.04743434 L3.38212551,5.72327172 L6.64597144,1.04743434 C6.8630137,0.736496163 6.77293114,0.317719576 6.44476641,0.112070651 C6.11660169,-0.0935782741 5.6746241,-0.00822447283 5.45758185,0.302713702 L3.38212551,3.27604533 L1.30666917,0.302713702 Z" transform="rotate(-180 42.457 9.967)"/>
        </g>
      </g>
      <g mask="url(#watchlist_v2_updates-from-demo-f)">
        <g transform="translate(0 222)">
          <rect width="271" height="82" fill="#071521"/>
          <g transform="translate(16 33.006)">
            <polygon fill="#21B1CA" fill-opacity=".2" points="0 26.192 10.331 26.039 20.662 22.224 30.992 15.927 41.323 18.581 51.654 20.075 61.985 23.496 72.315 30.166 82.646 31.86 92.977 45.925 103.308 38.164 113.638 43.744 123.969 42.694 134.3 47.31 144.631 44.15 154.962 36.613 165.292 29.55 175.623 28.87 185.954 30.093 196.285 19.26 206.615 8.582 216.946 5.43 227.277 3.768 237.608 0 247.938 2.037 255 7.603 255 49 0 49"/>
            <polyline stroke="#21B1CA" points="0 26.192 11.181 25.926 21.381 21.975 31.476 15.873 41.781 18.202 51.981 19.75 62.181 23.293 72.381 30.2 82.581 31.956 92.781 46.523 102.981 38.485 113.181 44.264 123.381 43.176 134.3 47.31 143.781 44.684 153.981 36.879 164.531 30.125 174.381 28.859 186.026 30.125 196.285 19.26 206.894 8.131 216.525 5.77 227.603 3.917 238.119 0 245.781 1.067 255 7.603"/>
          </g>
          <rect width="48" height="82" fill="url(#watchlist_v2_updates-from-demo-g)"/>
          <text fill="#FFF" font-family="Roboto-Medium, Roboto" font-size="14" font-weight="400">
            <tspan x="6" y="22">XAUUSD</tspan>
          </text>
          <g font-family="Roboto-Medium, Roboto" font-size="14" font-weight="400" letter-spacing=".1" transform="translate(84.37 9)">
            <text fill="#FFF">
              <tspan x="12.141" y="13">1461.06</tspan>
            </text>
            <text fill="#FF6262">
              <tspan x="90.59" y="13">-3.89 (0.22%)</tspan>
            </text>
          </g>
          <path fill="#FF6262" d="M1.30666917,0.302713702 C1.08962691,-0.00822447283 0.647649328,-0.0935782741 0.319484602,0.112070651 C-0.00868012387,0.317719576 -0.0987626838,0.736496163 0.118279573,1.04743434 L3.38212551,5.72327172 L6.64597144,1.04743434 C6.8630137,0.736496163 6.77293114,0.317719576 6.44476641,0.112070651 C6.11660169,-0.0935782741 5.6746241,-0.00822447283 5.45758185,0.302713702 L3.38212551,3.27604533 L1.30666917,0.302713702 Z" transform="translate(78.148 14.443)"/>
          <g transform="translate(6.37 57)">
            <rect width="22" height="22" fill="#1B3B56" rx="3"/>
            <path fill="#C5D2DD" d="M8.05525142,8.45633623 C8.27148086,8.70299796 8.65127282,8.73156351 8.9035405,8.52013917 C9.15580818,8.30871482 9.18502295,7.93736269 8.96879351,7.69070095 L4.45677105,2.54365311 C4.21667395,2.26976457 3.78332605,2.26976457 3.54322895,2.54365311 L-0.968793508,7.69070095 C-1.18502295,7.93736269 -1.15580818,8.30871482 -0.903540501,8.52013917 C-0.651272818,8.73156351 -0.271480858,8.70299796 -0.0552514158,8.45633623 L4,3.83034572 L8.05525142,8.45633623 Z" transform="rotate(90 4.803 11.803)"/>
          </g>
        </g>
      </g>
      <g mask="url(#watchlist_v2_updates-from-demo-f)">
        <g transform="translate(0 308)">
          <rect width="271" height="82" fill="#071521"/>
          <g transform="translate(16 35)">
            <polygon fill="#21B1CA" fill-opacity=".2" points="0 5.527 10.2 19.694 20.4 19.141 30.6 24.206 40.8 13.915 51 25.818 61.2 26.278 71.4 27.218 81.6 15.943 91.8 9.532 102 7.136 112.2 .024 122.4 0 132.6 17.816 142.8 5.037 153 30.717 163.2 17.818 173.4 13.281 183.6 20.874 193.8 14.705 204 33.754 214.2 16.375 224.4 19.248 234.6 31.415 244.8 45.379 255 31.349 255 47 0 47"/>
            <polyline stroke="#21B1CA" points="0 5.724 10.2 20.398 20.4 19.824 30.6 25.071 40.8 14.412 51 25.818 61.2 26.278 71.4 27.217 81.6 16.513 91.8 9.872 102 7.391 112.2 .025 122.4 0 132.6 18.452 142.8 5.217 153 31.814 163.2 18.454 173.4 13.755 183.6 21.62 193.8 15.23 204 34.959 214.2 16.96 224.4 19.935 234.6 32.537 244.8 45.379 255 32.469"/>
          </g>
          <rect width="48" height="82" fill="url(#watchlist_v2_updates-from-demo-g)"/>
          <text fill="#FFF" font-family="Roboto-Medium, Roboto" font-size="14" font-weight="400">
            <tspan x="6" y="22">BTCUSD</tspan>
          </text>
          <g font-family="Roboto-Medium, Roboto" font-size="14" font-weight="400" letter-spacing=".1" transform="translate(84.37 9)">
            <text fill="#FFF">
              <tspan x="12.141" y="13">8704.00</tspan>
            </text>
            <text fill="#43C578">
              <tspan x="71.27" y="13">+12.02 (27.88%)</tspan>
            </text>
          </g>
          <g transform="translate(6 57)">
            <rect width="22" height="22" fill="#1B3B56" rx="3"/>
            <path fill="#C5D2DD" d="M8.05525142,8.45633623 C8.27148086,8.70299796 8.65127282,8.73156351 8.9035405,8.52013917 C9.15580818,8.30871482 9.18502295,7.93736269 8.96879351,7.69070095 L4.45677105,2.54365311 C4.21667395,2.26976457 3.78332605,2.26976457 3.54322895,2.54365311 L-0.968793508,7.69070095 C-1.18502295,7.93736269 -1.15580818,8.30871482 -0.903540501,8.52013917 C-0.651272818,8.73156351 -0.271480858,8.70299796 -0.0552514158,8.45633623 L4,3.83034572 L8.05525142,8.45633623 Z" transform="rotate(90 4.803 11.803)"/>
          </g>
          <path fill="#43C578" d="M1.30666917,0.302713702 C1.08962691,-0.00822447283 0.647649328,-0.0935782741 0.319484602,0.112070651 C-0.00868012387,0.317719576 -0.0987626838,0.736496163 0.118279573,1.04743434 L3.38212551,5.72327172 L6.64597144,1.04743434 C6.8630137,0.736496163 6.77293114,0.317719576 6.44476641,0.112070651 C6.11660169,-0.0935782741 5.6746241,-0.00822447283 5.45758185,0.302713702 L3.38212551,3.27604533 L1.30666917,0.302713702 Z" transform="rotate(-180 42.457 9.967)"/>
        </g>
      </g>
      <g mask="url(#watchlist_v2_updates-from-demo-f)">
        <g transform="translate(0 394)">
          <rect width="271" height="82" fill="#071521"/>
          <g transform="translate(16 35)">
            <polygon fill="#21B1CA" fill-opacity=".2" points="0 5.527 10.2 19.694 20.4 19.141 30.6 24.206 40.8 13.915 51 25.818 61.2 26.278 71.4 27.218 81.6 15.943 91.8 9.532 102 7.136 112.2 .024 122.4 0 132.6 17.816 142.8 5.037 153 30.717 163.2 17.818 173.4 13.281 183.6 20.874 193.8 14.705 204 33.754 214.2 16.375 224.4 19.248 234.6 31.415 244.8 45.379 255 31.349 255 47 0 47"/>
            <polyline stroke="#21B1CA" points="0 5.724 10.2 20.398 20.4 19.824 30.6 25.071 40.8 14.412 51 25.818 61.2 26.278 71.4 27.217 81.6 16.513 91.8 9.872 102 7.391 112.2 .025 122.4 0 132.6 18.452 142.8 5.217 153 31.814 163.2 18.454 173.4 13.755 183.6 21.62 193.8 15.23 204 34.959 214.2 16.96 224.4 19.935 234.6 32.537 244.8 45.379 255 32.469"/>
          </g>
          <rect width="48" height="82" fill="url(#watchlist_v2_updates-from-demo-g)"/>
          <text fill="#FFF" font-family="Roboto-Medium, Roboto" font-size="14" font-weight="400">
            <tspan x="6" y="22">SPY</tspan>
          </text>
          <g font-family="Roboto-Medium, Roboto" font-size="14" font-weight="400" letter-spacing=".1" transform="translate(84.37 9)">
            <text fill="#FFF">
              <tspan x="20.198" y="13">308.96</tspan>
            </text>
            <text fill="#43C578">
              <tspan x="87.384" y="13">+0.76 (0.25%)</tspan>
            </text>
          </g>
          <g transform="translate(6 57)">
            <rect width="22" height="22" fill="#1B3B56" rx="3"/>
            <path fill="#C5D2DD" d="M8.05525142,8.45633623 C8.27148086,8.70299796 8.65127282,8.73156351 8.9035405,8.52013917 C9.15580818,8.30871482 9.18502295,7.93736269 8.96879351,7.69070095 L4.45677105,2.54365311 C4.21667395,2.26976457 3.78332605,2.26976457 3.54322895,2.54365311 L-0.968793508,7.69070095 C-1.18502295,7.93736269 -1.15580818,8.30871482 -0.903540501,8.52013917 C-0.651272818,8.73156351 -0.271480858,8.70299796 -0.0552514158,8.45633623 L4,3.83034572 L8.05525142,8.45633623 Z" transform="rotate(90 4.803 11.803)"/>
          </g>
          <path fill="#43C578" d="M1.30666917,0.302713702 C1.08962691,-0.00822447283 0.647649328,-0.0935782741 0.319484602,0.112070651 C-0.00868012387,0.317719576 -0.0987626838,0.736496163 0.118279573,1.04743434 L3.38212551,5.72327172 L6.64597144,1.04743434 C6.8630137,0.736496163 6.77293114,0.317719576 6.44476641,0.112070651 C6.11660169,-0.0935782741 5.6746241,-0.00822447283 5.45758185,0.302713702 L3.38212551,3.27604533 L1.30666917,0.302713702 Z" transform="rotate(-180 42.457 9.967)"/>
        </g>
      </g>
      <g mask="url(#watchlist_v2_updates-from-demo-f)">
        <g transform="translate(0 480)">
          <rect width="271" height="82" fill="#071521"/>
          <g transform="translate(16 33.006)">
            <polygon fill="#21B1CA" fill-opacity=".2" points="0 26.192 10.331 26.039 20.662 22.224 30.992 15.927 41.323 18.581 51.654 20.075 61.985 23.496 72.315 30.166 82.646 31.86 92.977 45.925 103.308 38.164 113.638 43.744 123.969 42.694 134.3 47.31 144.631 44.15 154.962 36.613 165.292 29.55 175.623 28.87 185.954 30.093 196.285 19.26 206.615 8.582 216.946 5.43 227.277 3.768 237.608 0 247.938 2.037 255 7.603 255 49 0 49"/>
            <polyline stroke="#21B1CA" points="0 26.192 11.181 25.926 21.381 21.975 31.476 15.873 41.781 18.202 51.981 19.75 62.181 23.293 72.381 30.2 82.581 31.956 92.781 46.523 102.981 38.485 113.181 44.264 123.381 43.176 134.3 47.31 143.781 44.684 153.981 36.879 164.531 30.125 174.381 28.859 186.026 30.125 196.285 19.26 206.894 8.131 216.525 5.77 227.603 3.917 238.119 0 245.781 1.067 255 7.603"/>
          </g>
          <rect width="48" height="82" fill="url(#watchlist_v2_updates-from-demo-g)"/>
          <text fill="#FFF" font-family="Roboto-Medium, Roboto" font-size="14" font-weight="400">
            <tspan x="6" y="22">DXY</tspan>
          </text>
          <g font-family="Roboto-Medium, Roboto" font-size="14" font-weight="400" letter-spacing=".1" transform="translate(84.37 9)">
            <text fill="#FFF">
              <tspan x="28.255" y="13">98.17</tspan>
            </text>
            <text fill="#FF6262">
              <tspan x="90.59" y="13">-0.21 (0.23%)</tspan>
            </text>
          </g>
          <path fill="#FF6262" d="M1.30666917,0.302713702 C1.08962691,-0.00822447283 0.647649328,-0.0935782741 0.319484602,0.112070651 C-0.00868012387,0.317719576 -0.0987626838,0.736496163 0.118279573,1.04743434 L3.38212551,5.72327172 L6.64597144,1.04743434 C6.8630137,0.736496163 6.77293114,0.317719576 6.44476641,0.112070651 C6.11660169,-0.0935782741 5.6746241,-0.00822447283 5.45758185,0.302713702 L3.38212551,3.27604533 L1.30666917,0.302713702 Z" transform="translate(78.148 14.443)"/>
          <g transform="translate(6.37 57)">
            <rect width="22" height="22" fill="#1B3B56" rx="3"/>
            <path fill="#C5D2DD" d="M8.05525142,8.45633623 C8.27148086,8.70299796 8.65127282,8.73156351 8.9035405,8.52013917 C9.15580818,8.30871482 9.18502295,7.93736269 8.96879351,7.69070095 L4.45677105,2.54365311 C4.21667395,2.26976457 3.78332605,2.26976457 3.54322895,2.54365311 L-0.968793508,7.69070095 C-1.18502295,7.93736269 -1.15580818,8.30871482 -0.903540501,8.52013917 C-0.651272818,8.73156351 -0.271480858,8.70299796 -0.0552514158,8.45633623 L4,3.83034572 L8.05525142,8.45633623 Z" transform="rotate(90 4.803 11.803)"/>
          </g>
        </g>
      </g>
      <g mask="url(#watchlist_v2_updates-from-demo-f)">
        <g transform="translate(0 30)">
          <rect width="271" height="16" fill="#0D2437"/>
          <text font-family="Roboto-Regular, Roboto" font-size="10">
            <tspan x="6.5" y="10.971" fill="#FFF">Chart displaying the price over 1 week </tspan>
          </text>
        </g>
      </g>
      <rect width="6" height="122" x="263" y="33" fill="#627482" fill-opacity=".8" mask="url(#watchlist_v2_updates-from-demo-f)" rx="3"/>
    </g>
    <line x1="1142.75" x2="1058.25" y1="207.5" y2="199.5" stroke="#FF7272" stroke-linecap="square" stroke-width="2"/>
    <line x1="530" x2="414" y1="219" y2="263" stroke="#FF7272" stroke-linecap="square" stroke-width="2"/>
    <line x1="727.5" x2="727.5" y1="104.5" y2="694.5" stroke="#979797" stroke-linecap="square"/>
  </g>
</svg>
