<svg xmlns="http://www.w3.org/2000/svg" xmlns:xlink="http://www.w3.org/1999/xlink" width="1247" height="902" viewBox="0 0 1247 902">
  <defs>
    <rect id="notification_specs-b" width="265" height="80" x="0" y="0" rx="5"/>
    <filter id="notification_specs-a" width="114.3%" height="147.5%" x="-7.2%" y="-21.2%" filterUnits="objectBoundingBox">
      <feMorphology in="SourceAlpha" operator="dilate" radius="1.5" result="shadowSpreadOuter1"/>
      <feOffset dy="2" in="shadowSpreadOuter1" result="shadowOffsetOuter1"/>
      <feGaussianBlur in="shadowOffsetOuter1" result="shadowBlurOuter1" stdDeviation="4.5"/>
      <feColorMatrix in="shadowBlurOuter1" values="0 0 0 0 0.568627451   0 0 0 0 0.568627451   0 0 0 0 0.568627451  0 0 0 0.5 0"/>
    </filter>
    <rect id="notification_specs-d" width="265" height="80" x="0" y="0" rx="5"/>
    <filter id="notification_specs-c" width="114.3%" height="147.5%" x="-7.2%" y="-21.2%" filterUnits="objectBoundingBox">
      <feMorphology in="SourceAlpha" operator="dilate" radius="1.5" result="shadowSpreadOuter1"/>
      <feOffset dy="2" in="shadowSpreadOuter1" result="shadowOffsetOuter1"/>
      <feGaussianBlur in="shadowOffsetOuter1" result="shadowBlurOuter1" stdDeviation="4.5"/>
      <feColorMatrix in="shadowBlurOuter1" values="0 0 0 0 0.568627451   0 0 0 0 0.568627451   0 0 0 0 0.568627451  0 0 0 0.5 0"/>
    </filter>
    <rect id="notification_specs-f" width="265" height="80" x="0" y="0" rx="5"/>
    <filter id="notification_specs-e" width="114.3%" height="147.5%" x="-7.2%" y="-21.2%" filterUnits="objectBoundingBox">
      <feMorphology in="SourceAlpha" operator="dilate" radius="1.5" result="shadowSpreadOuter1"/>
      <feOffset dy="2" in="shadowSpreadOuter1" result="shadowOffsetOuter1"/>
      <feGaussianBlur in="shadowOffsetOuter1" result="shadowBlurOuter1" stdDeviation="4.5"/>
      <feColorMatrix in="shadowBlurOuter1" values="0 0 0 0 0.568627451   0 0 0 0 0.568627451   0 0 0 0 0.568627451  0 0 0 0.5 0"/>
    </filter>
    <rect id="notification_specs-h" width="265" height="80" x="603.5" y="185" rx="5"/>
    <filter id="notification_specs-g" width="114.3%" height="147.5%" x="-7.2%" y="-21.2%" filterUnits="objectBoundingBox">
      <feMorphology in="SourceAlpha" operator="dilate" radius="1.5" result="shadowSpreadOuter1"/>
      <feOffset dy="2" in="shadowSpreadOuter1" result="shadowOffsetOuter1"/>
      <feGaussianBlur in="shadowOffsetOuter1" result="shadowBlurOuter1" stdDeviation="4.5"/>
      <feColorMatrix in="shadowBlurOuter1" values="0 0 0 0 0.568627451   0 0 0 0 0.568627451   0 0 0 0 0.568627451  0 0 0 0.5 0"/>
    </filter>
    <rect id="notification_specs-j" width="265" height="80" x="566.5" y="423.25" rx="2"/>
    <filter id="notification_specs-i" width="114.3%" height="147.5%" x="-7.2%" y="-21.2%" filterUnits="objectBoundingBox">
      <feMorphology in="SourceAlpha" operator="dilate" radius="1.5" result="shadowSpreadOuter1"/>
      <feOffset dy="2" in="shadowSpreadOuter1" result="shadowOffsetOuter1"/>
      <feGaussianBlur in="shadowOffsetOuter1" result="shadowBlurOuter1" stdDeviation="4.5"/>
      <feColorMatrix in="shadowBlurOuter1" values="0 0 0 0 0.568627451   0 0 0 0 0.568627451   0 0 0 0 0.568627451  0 0 0 0.5 0"/>
    </filter>
  </defs>
  <g fill="none" fill-rule="evenodd">
    <rect width="1247" height="902" fill="#FFF"/>
    <g transform="translate(67.154 143.5)">
      <use fill="#000" filter="url(#notification_specs-a)" xlink:href="#notification_specs-b"/>
      <use fill="#0D2437" xlink:href="#notification_specs-b"/>
      <path fill="#21B1CA" d="M5,0 L5,0 L5,0 L5,80 C2.23857625,80 5.71815957e-14,77.7614237 5.68434189e-14,75 L5.68434189e-14,5 C5.6505242e-14,2.23857625 2.23857625,5.07265313e-16 5,0 Z"/>
      <text fill="#FFF" font-family="Roboto-Medium, Roboto" font-size="12" font-weight="400">
        <tspan x="79" y="37">(stock name) has been added to </tspan> <tspan x="79" y="51">your Watchlist</tspan>
      </text>
      <path fill="#21B1CA" d="M33.5264165,9.38570365 C33.8284329,9.75556295 33.8177737,10.2885175 33.501208,10.6461167 C28.0065704,16.8529747 22.5079317,20 16.9999996,20 C11.4836994,20 5.98294785,16.7490333 0.488586449,10.3399579 C0.175489968,9.97473644 0.175879177,9.43703031 0.489504051,9.07225835 C5.58090458,3.15053368 11.0695749,0.101976606 16.9329271,0.00230751974 C22.8240689,-0.0978339504 28.3626321,3.06196194 33.5264165,9.38570365 Z M16.9663926,1.95324262 C11.923771,2.03896039 7.11964027,4.60176653 2.53394531,9.7088902 C7.49501249,15.2965686 12.3197665,18.0487994 16.9999996,18.0487994 C21.5803797,18.0487994 26.2931539,15.5037586 31.1338994,10.3408116 L31.4718334,9.97635751 L31.1544677,9.60826021 C26.6016024,4.39473729 21.8784145,1.86974487 16.9663926,1.95324262 Z M17.0485295,3.83551841 C20.4314267,3.83551841 23.1738067,6.56548945 23.1738067,9.93307938 C23.1738067,13.3006693 20.4314267,16.0306404 17.0485295,16.0306404 C13.6656324,16.0306404 10.9232524,13.3006693 10.9232524,9.93307938 C10.9232524,6.56548945 13.6656324,3.83551841 17.0485295,3.83551841 Z M17.0485295,5.78673792 C14.7481595,5.78673792 12.8833411,7.64311823 12.8833411,9.93307938 C12.8833411,12.2230405 14.7481595,14.0794208 17.0485295,14.0794208 C19.3488996,14.0794208 21.213718,12.2230405 21.213718,9.93307938 C21.213718,7.64311823 19.3488996,5.78673792 17.0485295,5.78673792 Z" transform="translate(26 30)"/>
    </g>
    <g transform="translate(67.154 327)">
      <use fill="#000" filter="url(#notification_specs-c)" xlink:href="#notification_specs-d"/>
      <use fill="#0D2437" xlink:href="#notification_specs-d"/>
      <path fill="#21B1CA" d="M5,0 L5,0 L5,0 L5,80 C2.23857625,80 5.71815957e-14,77.7614237 5.68434189e-14,75 L5.68434189e-14,5 C5.6505242e-14,2.23857625 2.23857625,5.07265313e-16 5,0 Z"/>
      <text fill="#FFF" font-family="Roboto-Medium, Roboto" font-size="12" font-weight="400">
        <tspan x="79" y="37">(stock name) has been added to </tspan> <tspan x="79" y="51">your Watchlist</tspan>
      </text>
      <path fill="#21B1CA" d="M33.5264165,9.38570365 C33.8284329,9.75556295 33.8177737,10.2885175 33.501208,10.6461167 C28.0065704,16.8529747 22.5079317,20 16.9999996,20 C11.4836994,20 5.98294785,16.7490333 0.488586449,10.3399579 C0.175489968,9.97473644 0.175879177,9.43703031 0.489504051,9.07225835 C5.58090458,3.15053368 11.0695749,0.101976606 16.9329271,0.00230751974 C22.8240689,-0.0978339504 28.3626321,3.06196194 33.5264165,9.38570365 Z M16.9663926,1.95324262 C11.923771,2.03896039 7.11964027,4.60176653 2.53394531,9.7088902 C7.49501249,15.2965686 12.3197665,18.0487994 16.9999996,18.0487994 C21.5803797,18.0487994 26.2931539,15.5037586 31.1338994,10.3408116 L31.4718334,9.97635751 L31.1544677,9.60826021 C26.6016024,4.39473729 21.8784145,1.86974487 16.9663926,1.95324262 Z M17.0485295,3.83551841 C20.4314267,3.83551841 23.1738067,6.56548945 23.1738067,9.93307938 C23.1738067,13.3006693 20.4314267,16.0306404 17.0485295,16.0306404 C13.6656324,16.0306404 10.9232524,13.3006693 10.9232524,9.93307938 C10.9232524,6.56548945 13.6656324,3.83551841 17.0485295,3.83551841 Z M17.0485295,5.78673792 C14.7481595,5.78673792 12.8833411,7.64311823 12.8833411,9.93307938 C12.8833411,12.2230405 14.7481595,14.0794208 17.0485295,14.0794208 C19.3488996,14.0794208 21.213718,12.2230405 21.213718,9.93307938 C21.213718,7.64311823 19.3488996,5.78673792 17.0485295,5.78673792 Z" transform="translate(26 30)"/>
    </g>
    <g transform="translate(67.154 681.9)">
      <use fill="#000" filter="url(#notification_specs-e)" xlink:href="#notification_specs-f"/>
      <use fill="#0D2437" xlink:href="#notification_specs-f"/>
      <path fill="#21B1CA" d="M5,0 L5,0 L5,0 L5,80 C2.23857625,80 5.71815957e-14,77.7614237 5.68434189e-14,75 L5.68434189e-14,5 C5.6505242e-14,2.23857625 2.23857625,5.07265313e-16 5,0 Z"/>
      <text fill="#FFF" font-family="Roboto-Medium, Roboto" font-size="12" font-weight="400">
        <tspan x="79" y="37">(stock name) has been added to </tspan> <tspan x="79" y="51">your Watchlist</tspan>
      </text>
      <path fill="#21B1CA" d="M33.5264165,9.38570365 C33.8284329,9.75556295 33.8177737,10.2885175 33.501208,10.6461167 C28.0065704,16.8529747 22.5079317,20 16.9999996,20 C11.4836994,20 5.98294785,16.7490333 0.488586449,10.3399579 C0.175489968,9.97473644 0.175879177,9.43703031 0.489504051,9.07225835 C5.58090458,3.15053368 11.0695749,0.101976606 16.9329271,0.00230751974 C22.8240689,-0.0978339504 28.3626321,3.06196194 33.5264165,9.38570365 Z M16.9663926,1.95324262 C11.923771,2.03896039 7.11964027,4.60176653 2.53394531,9.7088902 C7.49501249,15.2965686 12.3197665,18.0487994 16.9999996,18.0487994 C21.5803797,18.0487994 26.2931539,15.5037586 31.1338994,10.3408116 L31.4718334,9.97635751 L31.1544677,9.60826021 C26.6016024,4.39473729 21.8784145,1.86974487 16.9663926,1.95324262 Z M17.0485295,3.83551841 C20.4314267,3.83551841 23.1738067,6.56548945 23.1738067,9.93307938 C23.1738067,13.3006693 20.4314267,16.0306404 17.0485295,16.0306404 C13.6656324,16.0306404 10.9232524,13.3006693 10.9232524,9.93307938 C10.9232524,6.56548945 13.6656324,3.83551841 17.0485295,3.83551841 Z M17.0485295,5.78673792 C14.7481595,5.78673792 12.8833411,7.64311823 12.8833411,9.93307938 C12.8833411,12.2230405 14.7481595,14.0794208 17.0485295,14.0794208 C19.3488996,14.0794208 21.213718,12.2230405 21.213718,9.93307938 C21.213718,7.64311823 19.3488996,5.78673792 17.0485295,5.78673792 Z" transform="translate(26 30)"/>
    </g>
    <use fill="#000" filter="url(#notification_specs-g)" xlink:href="#notification_specs-h"/>
    <use fill="#0D2437" xlink:href="#notification_specs-h"/>
    <use fill="#000" filter="url(#notification_specs-i)" xlink:href="#notification_specs-j"/>
    <use fill="#0D2437" xlink:href="#notification_specs-j"/>
    <path fill="#21B1CA" d="M568.5,423.25 L571.5,423.25 L571.5,423.25 L571.5,503.25 L568.5,503.25 C567.395431,503.25 566.5,502.354569 566.5,501.25 L566.5,425.25 C566.5,424.145431 567.395431,423.25 568.5,423.25 Z"/>
    <text fill="#FFF" font-family="Roboto-Medium, Roboto" font-size="12" font-weight="400">
      <tspan x="682.5" y="222">(stock name) has been added to </tspan> <tspan x="682.5" y="236">your Watchlist</tspan>
    </text>
    <text fill="#FFF" font-family="Roboto-Medium, Roboto" font-size="12" font-weight="400">
      <tspan x="146" y="718.9">(stock name) has been added to </tspan> <tspan x="146" y="732.9">your Watchlist</tspan>
    </text>
    <rect width="174" height="27" x="146" y="353.5" stroke="#979797"/>
    <path fill="#21B1CA" d="M33.5264165,9.38570365 C33.8284329,9.75556295 33.8177737,10.2885175 33.501208,10.6461167 C28.0065704,16.8529747 22.5079317,20 16.9999996,20 C11.4836994,20 5.98294785,16.7490333 0.488586449,10.3399579 C0.175489968,9.97473644 0.175879177,9.43703031 0.489504051,9.07225835 C5.58090458,3.15053368 11.0695749,0.101976606 16.9329271,0.00230751974 C22.8240689,-0.0978339504 28.3626321,3.06196194 33.5264165,9.38570365 Z M16.9663926,1.95324262 C11.923771,2.03896039 7.11964027,4.60176653 2.53394531,9.7088902 C7.49501249,15.2965686 12.3197665,18.0487994 16.9999996,18.0487994 C21.5803797,18.0487994 26.2931539,15.5037586 31.1338994,10.3408116 L31.4718334,9.97635751 L31.1544677,9.60826021 C26.6016024,4.39473729 21.8784145,1.86974487 16.9663926,1.95324262 Z M17.0485295,3.83551841 C20.4314267,3.83551841 23.1738067,6.56548945 23.1738067,9.93307938 C23.1738067,13.3006693 20.4314267,16.0306404 17.0485295,16.0306404 C13.6656324,16.0306404 10.9232524,13.3006693 10.9232524,9.93307938 C10.9232524,6.56548945 13.6656324,3.83551841 17.0485295,3.83551841 Z M17.0485295,5.78673792 C14.7481595,5.78673792 12.8833411,7.64311823 12.8833411,9.93307938 C12.8833411,12.2230405 14.7481595,14.0794208 17.0485295,14.0794208 C19.3488996,14.0794208 21.213718,12.2230405 21.213718,9.93307938 C21.213718,7.64311823 19.3488996,5.78673792 17.0485295,5.78673792 Z" transform="translate(592.5 453.25)"/>
    <path fill="#21B1CA" d="M545.740223 767.635704C546.042239 768.005563 546.03158 768.538517 545.715014 768.896117 540.220377 775.102975 534.721738 778.25 529.213806 778.25 523.697506 778.25 518.196754 774.999033 512.702393 768.589958 512.389296 768.224736 512.389685 767.68703 512.70331 767.322258 517.794711 761.400534 523.283381 758.351977 529.146733 758.252308 535.037875 758.152166 540.576438 761.311962 545.740223 767.635704zM543.368274 767.85826C538.815409 762.644737 534.092221 760.119745 529.180199 760.203243 524.137577 760.28896 519.333446 762.851767 514.747751 767.95889 519.708819 773.546569 524.533573 776.298799 529.213806 776.298799 533.794186 776.298799 538.50696 773.753759 543.347706 768.590812L543.68564 768.226358 543.368274 767.85826zM599.677073 767.635704C599.964698 768.005563 599.954546 768.538517 599.653066 768.896117 594.420258 775.102975 589.18364 778.25 583.938171 778.25 578.684733 778.25 573.446103 774.999033 568.213558 768.589958 567.915381 768.224736 567.915752 767.68703 568.214432 767.322258 573.063218 761.400534 578.290342 758.351977 583.874295 758.252308 589.484712 758.152166 594.759353 761.311962 599.677073 767.635704zM597.418152 767.85826C593.082239 762.644737 588.58412 760.119745 583.906165 760.203243 579.103834 760.28896 574.52863 762.851767 570.161452 767.95889 574.886115 773.546569 579.48096 776.298799 583.938171 776.298799 588.300287 776.298799 592.788489 773.753759 597.398564 768.590812L597.720394 768.226358 597.418152 767.85826zM653.553394 767.635704C653.82241 768.005563 653.812915 768.538517 653.53094 768.896117 648.636682 775.102975 643.738861 778.25 638.832761 778.25 633.919208 778.25 629.019505 774.999033 624.125493 768.589958 623.846608 768.224736 623.846954 767.68703 624.126311 767.322258 628.661391 761.400534 633.550334 758.351977 638.773018 758.252308 644.020455 758.152166 648.953838 761.311962 653.553394 767.635704zM651.44062 767.85826C647.38523 762.644737 643.178129 760.119745 638.802827 760.203243 634.311195 760.28896 630.031995 762.851767 625.947363 767.95889 630.366351 773.546569 634.663921 776.298799 638.832761 776.298799 642.912659 776.298799 647.110485 773.753759 651.422299 768.590812L651.723308 768.226358 651.44062 767.85826zM704.99916 767.635704C705.24547 768.005563 705.236777 768.538517 704.978601 768.896117 700.497438 775.102975 696.013013 778.25 691.521007 778.25 687.022178 778.25 682.536029 774.999033 678.055091 768.589958 677.799745 768.224736 677.800062 767.68703 678.05584 767.322258 682.208142 761.400534 686.684438 758.351977 691.466306 758.252308 696.270839 758.152166 700.787825 761.311962 704.99916 767.635704zM703.064712 767.85826C699.351614 762.644737 695.499608 760.119745 691.493599 760.203243 687.381079 760.28896 683.463061 762.851767 679.723188 767.95889 683.769196 773.546569 687.704034 776.298799 691.521007 776.298799 695.256546 776.298799 699.100058 773.753759 703.047938 768.590812L703.323541 768.226358 703.064712 767.85826zM757.702132 767.635704C757.933515 768.005563 757.925349 768.538517 757.682819 768.896117 753.473238 775.102975 749.260591 778.25 745.040824 778.25 740.814646 778.25 736.60038 774.999033 732.39101 768.589958 732.151138 768.224736 732.151437 767.68703 732.391713 767.322258 736.292364 761.400534 740.497374 758.351977 744.989438 758.252308 749.502791 758.152166 753.746026 761.311962 757.702132 767.635704zM755.884922 767.85826C752.396856 762.644737 748.778301 760.119745 745.015076 760.203243 741.151796 760.28896 737.471229 762.851767 733.958011 767.95889 737.758811 773.546569 741.455178 776.298799 745.040824 776.298799 748.549969 776.298799 752.160546 773.753759 755.869164 768.590812L756.128064 768.226358 755.884922 767.85826zM812.929367 767.635704C813.152872 768.005563 813.144984 768.538517 812.910711 768.896117 808.844439 775.102975 804.775206 778.25 800.699095 778.25 796.616791 778.25 792.545994 774.999033 788.479926 768.589958 788.248221 768.224736 788.248509 767.68703 788.480605 767.322258 792.248464 761.400534 796.310321 758.351977 800.649458 758.252308 805.009161 758.152166 809.10794 761.311962 812.929367 767.635704zM811.174021 767.85826C807.804701 762.644737 804.309335 760.119745 800.674224 760.203243 796.942463 760.28896 793.387196 762.851767 789.993581 767.95889 793.664988 773.546569 797.235517 776.298799 800.699095 776.298799 804.088776 776.298799 807.576436 773.753759 811.158799 768.590812L811.408885 768.226358 811.174021 767.85826zM491.813835 767.635704C492.115851 768.005563 492.105192 768.538517 491.788626 768.896117 486.293989 775.102975 480.79535 778.25 475.287418 778.25 469.771118 778.25 464.270366 774.999033 458.776005 768.589958 458.462908 768.224736 458.463298 767.68703 458.776922 767.322258 463.868323 761.400534 469.356993 758.351977 475.220346 758.252308 481.111487 758.152166 486.650051 761.311962 491.813835 767.635704zM489.441886 767.85826C484.889021 762.644737 480.165833 760.119745 475.253811 760.203243 470.211189 760.28896 465.407059 762.851767 460.821364 767.95889 465.782431 773.546569 470.607185 776.298799 475.287418 776.298799 479.867798 776.298799 484.580572 773.753759 489.421318 768.590812L489.759252 768.226358 489.441886 767.85826zM489.11474 654.885704C489.416756 655.255563 489.406097 655.788517 489.089531 656.146117 483.594894 662.352975 478.096255 665.5 472.588323 665.5 467.072023 665.5 461.571271 662.249033 456.07691 655.839958 455.763813 655.474736 455.764203 654.93703 456.077828 654.572258 461.169228 648.650534 466.657898 645.601977 472.521251 645.502308 478.412392 645.402166 483.950956 648.561962 489.11474 654.885704zM486.742791 655.10826C482.189926 649.894737 477.466738 647.369745 472.554716 647.453243 467.512094 647.53896 462.707964 650.101767 458.122269 655.20889 463.083336 660.796569 467.90809 663.548799 472.588323 663.548799 477.168703 663.548799 481.881477 661.003759 486.722223 655.840812L487.060157 655.476358 486.742791 655.10826z"/>
    <rect width="32.846" height="27" x="94" y="353.5" stroke="#979797"/>
    <text fill="#000" font-family="Roboto-Bold, Roboto" font-size="12" font-weight="bold">
      <tspan x="376" y="154.5">Dimentions</tspan> <tspan x="376" y="168.5" font-family="Roboto-Medium, Roboto" font-weight="400"> </tspan> <tspan x="376" y="182.5" font-family="Roboto-Regular, Roboto" font-weight="normal">W: 265px </tspan> <tspan x="376" y="196.5" font-family="Roboto-Regular, Roboto" font-weight="normal">H: 80px</tspan>
    </text>
    <text fill="#000" font-family="Roboto-Bold, Roboto" font-size="12" font-weight="bold">
      <tspan x="875" y="439.25">Shadow</tspan> <tspan x="917.891" y="439.25" font-family="Roboto-Medium, Roboto" font-weight="400"> </tspan> <tspan x="875" y="453.25" font-family="Roboto-Regular, Roboto" font-weight="normal">Colour: 919191</tspan> <tspan x="875" y="467.25" font-family="Roboto-Regular, Roboto" font-weight="normal">Opacity: 50%</tspan> <tspan x="875" y="481.25" font-family="Roboto-Regular, Roboto" font-weight="normal">X: 0px</tspan> <tspan x="875" y="495.25" font-family="Roboto-Regular, Roboto" font-weight="normal">Y: 2px</tspan> <tspan x="875" y="509.25" font-family="Roboto-Regular, Roboto" font-weight="normal">Blur: 9</tspan> <tspan x="875" y="523.25" font-family="Roboto-Regular, Roboto" font-weight="normal">Spread: 3px</tspan>
    </text>
    <text fill="#000" font-family="Roboto-Bold, Roboto" font-size="12" font-weight="bold">
      <tspan x="603.5" y="103.75">Text </tspan> <tspan x="603.5" y="131.75" font-family="Roboto-Regular, Roboto" font-weight="normal">Roboto, Medium, 12px </tspan> <tspan x="603.5" y="145.75" font-family="Roboto-Regular, Roboto" font-weight="normal">Colour: White - FFFFFF</tspan>
    </text>
    <text fill="#000" font-family="Roboto-Regular, Roboto" font-size="12">
      <tspan x="957" y="190.25">Update (stock name) depending on </tspan> <tspan x="957" y="204.25">the name of the stock added (e.g. </tspan> <tspan x="957" y="218.25">TSLA for Tesla) </tspan>
    </text>
    <text fill="#000" font-family="Roboto-Bold, Roboto" font-size="12" font-weight="bold">
      <tspan x="565.346" y="347">Colours </tspan> <tspan x="565.346" y="375" font-family="Roboto-Regular, Roboto" font-weight="normal">bar and icon: 21B1CA</tspan>
    </text>
    <text fill="#000" font-family="Roboto-Bold, Roboto" font-size="12" font-weight="bold">
      <tspan x="458" y="736.25">Animation</tspan>
    </text>
    <text fill="#000" font-family="Roboto-Bold, Roboto" font-size="12" font-weight="bold">
      <tspan x="457.259" y="621">Assets</tspan>
    </text>
    <text fill="#000" font-family="Roboto-Regular, Roboto" font-size="12">
      <tspan x="727.5" y="375">Blue 3: 0D2437</tspan>
    </text>
    <text fill="#000" font-family="Roboto-Regular, Roboto" font-size="12">
      <tspan x="375.154" y="225.5">Border radius: 5px</tspan>
    </text>
    <text fill="#000" font-family="Roboto-Bold, Roboto" font-size="12" font-weight="bold">
      <tspan x="374.5" y="363">Text box</tspan> <tspan x="421.205" y="363" font-family="Roboto-Medium, Roboto" font-weight="400"> </tspan> <tspan x="374.5" y="377" font-family="Roboto-Regular, Roboto" font-weight="normal">W: 175px</tspan> <tspan x="374.5" y="391" font-family="Roboto-Regular, Roboto" font-weight="normal">H: 28px</tspan>
    </text>
    <text fill="#000" font-family="Roboto-Regular, Roboto" font-size="12">
      <tspan x="347.5" y="697.9">26px</tspan>
    </text>
    <text fill="#000" font-family="Roboto-Regular, Roboto" font-size="12">
      <tspan x="312" y="662.9">11px</tspan>
    </text>
    <text fill="#000" font-family="Roboto-Regular, Roboto" font-size="12">
      <tspan x="122" y="662.9">20px</tspan>
    </text>
    <text fill="#000" font-family="Roboto-Regular, Roboto" font-size="12">
      <tspan x="68.5" y="662.9">20px</tspan>
    </text>
    <text fill="#000" font-family="Roboto-Regular, Roboto" font-size="12">
      <tspan x="347.5" y="751.9">26px</tspan>
    </text>
    <text fill="#000" font-family="Roboto-Bold, Roboto" font-size="12" font-weight="bold">
      <tspan x="91.5" y="434">Annimation</tspan> <tspan x="153.762" y="434" font-family="Roboto-Medium, Roboto" font-weight="400"> </tspan> <tspan x="91.5" y="448" font-family="Roboto-Regular, Roboto" font-weight="normal">W: 34px</tspan> <tspan x="91.5" y="462" font-family="Roboto-Regular, Roboto" font-weight="normal">H: 28px</tspan>
    </text>
    <text fill="#000" font-family="Roboto-Bold, Roboto" font-size="12" font-weight="bold">
      <tspan x="62.346" y="494">Border</tspan> <tspan x="62.346" y="508" font-family="Roboto-Regular, Roboto" font-weight="normal">Colour: 21B1CA</tspan> <tspan x="62.346" y="522" font-family="Roboto-Regular, Roboto" font-weight="normal">W: 5px </tspan> <tspan x="62.346" y="536" font-family="Roboto-Regular, Roboto" font-weight="normal">H: 80px </tspan> <tspan x="62.346" y="550" font-family="Roboto-Regular, Roboto" font-weight="normal">Border radius: 2px</tspan>
    </text>
    <circle cx="331.085" cy="222.431" r="9.431" stroke="#979797"/>
    <line x1="322" x2="371" y1="363" y2="363.5" stroke="#979797" stroke-linecap="square"/>
    <line x1="44.846" x2="1196.5" y1="294.5" y2="294.5" stroke="#979797" stroke-linecap="square"/>
    <line x1="44" x2="1196.5" y1="595" y2="595" stroke="#979797" stroke-linecap="square"/>
    <line x1="341.015" x2="369.654" y1="222" y2="222" stroke="#979797" stroke-linecap="square"/>
    <line x1="488" x2="488" y1="337.5" y2="555" stroke="#979797" stroke-linecap="square"/>
    <line x1="836.5" x2="868.5" y1="434.5" y2="434.5" stroke="#979797" stroke-linecap="square"/>
    <line x1="569.5" x2="569.5" y1="381.5" y2="428.5" stroke="#979797" stroke-linecap="square"/>
    <line x1="579.5" x2="603.5" y1="381" y2="457.5" stroke="#979797" stroke-linecap="square"/>
    <line x1="745" x2="745" y1="385.5" y2="444.5" stroke="#979797" stroke-linecap="square"/>
    <line x1="68" x2="68" y1="408.5" y2="414.5" stroke="#979797" stroke-linecap="square"/>
    <line x1="73" x2="73" y1="408.5" y2="414.5" stroke="#979797" stroke-linecap="square"/>
    <line x1="68" x2="73" y1="414.5" y2="414.5" stroke="#979797" stroke-linecap="square"/>
    <line x1="70" x2="70" y1="414.5" y2="479.5" stroke="#979797" stroke-linecap="square"/>
    <line x1="727.577" x2="938.884" y1="211" y2="197.5" stroke="#979797" stroke-linecap="square"/>
    <text fill="#000" font-family="Roboto-Regular, Roboto" font-size="12">
      <tspan x="512.069" y="654.25">Icon: eye_outline_animation</tspan> <tspan x="512.069" y="668.25">Colour: 21B1CA</tspan>
    </text>
    <text fill="#000" font-family="Roboto-Bold, Roboto" font-size="12" font-weight="bold">
      <tspan x="458.886" y="812.395">Start</tspan> <tspan x="485.183" y="812.395" font-family="Roboto-Regular, Roboto" font-weight="normal"> </tspan> <tspan x="458.886" y="826.395" font-family="Roboto-Regular, Roboto" font-weight="normal">Eye icon</tspan>
    </text>
    <text fill="#000" font-family="Roboto-Bold, Roboto" font-size="12" font-weight="bold">
      <tspan x="1079.219" y="812.395">Time</tspan> <tspan x="1106.699" y="812.395" font-family="Roboto-Regular, Roboto" font-weight="normal"> </tspan> <tspan x="1079.219" y="826.395" font-family="Roboto-Regular, Roboto" font-weight="normal">1 - 1.5 seconds </tspan>
    </text>
    <text fill="#000" font-family="Roboto-Bold, Roboto" font-size="12" font-weight="bold">
      <tspan x="918.884" y="812.395">End</tspan> <tspan x="918.884" y="826.395" font-family="Roboto-Regular, Roboto" font-weight="normal">Check mark in circle</tspan>
    </text>
    <text fill="#000" font-family="Roboto-Bold, Roboto" font-size="12" font-weight="bold">
      <tspan x="740.635" y="651.25">Circle</tspan> <tspan x="740.635" y="665.25" font-family="Roboto-Regular, Roboto" font-weight="normal">2px line-width</tspan> <tspan x="740.635" y="679.25" font-family="Roboto-Regular, Roboto" font-weight="normal">Colour: 21B1CA</tspan> <tspan x="740.635" y="693.25" font-family="Roboto-Regular, Roboto" font-weight="normal">Dimentions: 12.63 x 12.63 px</tspan>
    </text>
    <text fill="#000" font-family="Roboto-Bold, Roboto" font-size="12" font-weight="bold">
      <tspan x="968.866" y="651.25">Check mark</tspan> <tspan x="968.866" y="665.25" font-family="Roboto-Regular, Roboto" font-weight="normal">2px line-width</tspan> <tspan x="968.866" y="679.25" font-family="Roboto-Regular, Roboto" font-weight="normal">Dimentions</tspan> <tspan x="968.866" y="693.25" font-family="Roboto-Regular, Roboto" font-weight="normal">Left: 5.66px width, 45 degrees</tspan> <tspan x="968.866" y="707.25" font-family="Roboto-Regular, Roboto" font-weight="normal">Right: 12.73px width, -45 degrees</tspan>
    </text>
    <line x1="524.577" x2="524.577" y1="102.75" y2="240.5" stroke="#979797" stroke-linecap="square"/>
    <line x1="424.5" x2="423.654" y1="633.125" y2="828.5" stroke="#979797" stroke-linecap="square"/>
    <path fill="#21B1CA" d="M713.896493,643.934692 C717.384341,643.934692 720.211801,646.762152 720.211801,650.25 C720.211801,653.737848 717.384341,656.565308 713.896493,656.565308 C710.408645,656.565308 707.581186,653.737848 707.581186,650.25 C707.581186,646.762152 710.408645,643.934692 713.896493,643.934692 Z M713.896493,645.934692 C711.513215,645.934692 709.581186,647.866721 709.581186,650.25 C709.581186,652.633279 711.513215,654.565308 713.896493,654.565308 C716.279772,654.565308 718.211801,652.633279 718.211801,650.25 C718.211801,647.866721 716.279772,645.934692 713.896493,645.934692 Z"/>
    <circle cx="529.214" cy="768.25" r="6.318" stroke="#21B1CA" stroke-width="2"/>
    <circle cx="583.938" cy="768.25" r="6.895" stroke="#21B1CA" stroke-width="2"/>
    <circle cx="638.833" cy="768.25" r="7.947" stroke="#21B1CA" stroke-width="2"/>
    <circle cx="691.521" cy="768.25" r="9" stroke="#21B1CA" stroke-width="2"/>
    <circle cx="745.041" cy="768.25" r="9" stroke="#21B1CA" stroke-width="2"/>
    <circle cx="800.699" cy="768.25" r="9" stroke="#21B1CA" stroke-width="2"/>
    <circle cx="845.434" cy="768.25" r="9" stroke="#21B1CA" stroke-width="2"/>
    <circle cx="889.549" cy="768.25" r="9" stroke="#21B1CA" stroke-width="2"/>
    <circle cx="928.884" cy="768.25" r="9" stroke="#21B1CA" stroke-width="2"/>
    <circle cx="475.287" cy="768.25" r="5.315" stroke="#21B1CA" stroke-width="2"/>
    <line x1="885.541" x2="889.541" y1="768.75" y2="772.75" stroke="#979797"/>
    <line x1="924.876" x2="928.876" y1="768.75" y2="772.75" stroke="#979797"/>
    <line x1="883.541" x2="887.541" y1="768.25" y2="772.25" stroke="#21B1CA" stroke-linecap="round" stroke-width="2"/>
    <line x1="922.876" x2="926.876" y1="768.25" y2="772.25" stroke="#21B1CA" stroke-linecap="round" stroke-width="2"/>
    <line x1="935.135" x2="939.135" y1="652.125" y2="656.125" stroke="#21B1CA" stroke-linecap="round" stroke-width="2"/>
    <line x1="926.876" x2="935.876" y1="772.25" y2="763.25" stroke="#21B1CA" stroke-linecap="round" stroke-width="2"/>
    <line x1="939.135" x2="948.135" y1="656.125" y2="647.125" stroke="#21B1CA" stroke-linecap="round" stroke-width="2"/>
    <line x1="67" x2="345.846" y1="708.4" y2="708.4" stroke="#FF9191" stroke-dasharray="3" stroke-linecap="square"/>
    <line x1="67" x2="345.846" y1="681.9" y2="681.9" stroke="#FF9191" stroke-dasharray="3" stroke-linecap="square"/>
    <line x1="320.5" x2="320.5" y1="762.6" y2="670.2" stroke="#FF9191" stroke-dasharray="3" stroke-linecap="square"/>
    <line x1="332" x2="332" y1="762.6" y2="670.2" stroke="#FF9191" stroke-dasharray="3" stroke-linecap="square"/>
    <line x1="145.846" x2="145.846" y1="762.6" y2="670.2" stroke="#FF9191" stroke-dasharray="3" stroke-linecap="square"/>
    <line x1="125.846" x2="125.846" y1="762.6" y2="670.2" stroke="#FF9191" stroke-dasharray="3" stroke-linecap="square"/>
    <line x1="92.346" x2="92.346" y1="762.6" y2="670.2" stroke="#FF9191" stroke-dasharray="3" stroke-linecap="square"/>
    <line x1="72.346" x2="72.346" y1="762.6" y2="670.2" stroke="#FF9191" stroke-dasharray="3" stroke-linecap="square"/>
    <line x1="67" x2="345.846" y1="735.9" y2="735.9" stroke="#FF9191" stroke-dasharray="3" stroke-linecap="square"/>
    <line x1="67" x2="345.846" y1="762.4" y2="762.4" stroke="#FF9191" stroke-dasharray="3" stroke-linecap="square"/>
    <text fill="#000" font-family="Roboto-Medium, Roboto" font-size="20" font-weight="400">
      <tspan x="44" y="74">Notification</tspan>
    </text>
    <path fill="#979797" fill-rule="nonzero" d="M920.376204,785.25 L929.376204,789.75 L920.376204,794.25 L920.376,790.25 L460,790.25 L460,789.25 L920.376,789.25 L920.376204,785.25 Z"/>
    <line x1="112" x2="112" y1="381" y2="417.5" stroke="#979797" stroke-linecap="square"/>
  </g>
</svg>
