<svg xmlns="http://www.w3.org/2000/svg" xmlns:xlink="http://www.w3.org/1999/xlink" width="289" height="104" viewBox="0 0 289 104">
  <defs>
    <rect id="notification-ref-b" width="265" height="80" x="0" y="0" rx="5"/>
    <filter id="notification-ref-a" width="114.3%" height="147.5%" x="-7.2%" y="-21.2%" filterUnits="objectBoundingBox">
      <feMorphology in="SourceAlpha" operator="dilate" radius="1.5" result="shadowSpreadOuter1"/>
      <feOffset dy="2" in="shadowSpreadOuter1" result="shadowOffsetOuter1"/>
      <feGaussianBlur in="shadowOffsetOuter1" result="shadowBlurOuter1" stdDeviation="4.5"/>
      <feColorMatrix in="shadowBlurOuter1" values="0 0 0 0 0.568627451   0 0 0 0 0.568627451   0 0 0 0 0.568627451  0 0 0 0.5 0"/>
    </filter>
  </defs>
  <g fill="none" fill-rule="evenodd" transform="translate(12 10)">
    <use fill="#000" filter="url(#notification-ref-a)" xlink:href="#notification-ref-b"/>
    <use fill="#0D2437" xlink:href="#notification-ref-b"/>
    <path fill="#21B1CA" d="M5,0 L5,0 L5,0 L5,80 C2.23857625,80 5.71815957e-14,77.7614237 5.68434189e-14,75 L5.68434189e-14,5 C5.6505242e-14,2.23857625 2.23857625,5.07265313e-16 5,0 Z"/>
    <text fill="#FFF" font-family="Roboto-Medium, Roboto" font-size="12" font-weight="400">
      <tspan x="79" y="37">(stock name) has been added to </tspan> <tspan x="79" y="51">your Watchlist</tspan>
    </text>
    <path fill="#21B1CA" d="M33.5264165,9.38570365 C33.8284329,9.75556295 33.8177737,10.2885175 33.501208,10.6461167 C28.0065704,16.8529747 22.5079317,20 16.9999996,20 C11.4836994,20 5.98294785,16.7490333 0.488586449,10.3399579 C0.175489968,9.97473644 0.175879177,9.43703031 0.489504051,9.07225835 C5.58090458,3.15053368 11.0695749,0.101976606 16.9329271,0.00230751974 C22.8240689,-0.0978339504 28.3626321,3.06196194 33.5264165,9.38570365 Z M16.9663926,1.95324262 C11.923771,2.03896039 7.11964027,4.60176653 2.53394531,9.7088902 C7.49501249,15.2965686 12.3197665,18.0487994 16.9999996,18.0487994 C21.5803797,18.0487994 26.2931539,15.5037586 31.1338994,10.3408116 L31.4718334,9.97635751 L31.1544677,9.60826021 C26.6016024,4.39473729 21.8784145,1.86974487 16.9663926,1.95324262 Z M17.0485295,3.83551841 C20.4314267,3.83551841 23.1738067,6.56548945 23.1738067,9.93307938 C23.1738067,13.3006693 20.4314267,16.0306404 17.0485295,16.0306404 C13.6656324,16.0306404 10.9232524,13.3006693 10.9232524,9.93307938 C10.9232524,6.56548945 13.6656324,3.83551841 17.0485295,3.83551841 Z M17.0485295,5.78673792 C14.7481595,5.78673792 12.8833411,7.64311823 12.8833411,9.93307938 C12.8833411,12.2230405 14.7481595,14.0794208 17.0485295,14.0794208 C19.3488996,14.0794208 21.213718,12.2230405 21.213718,9.93307938 C21.213718,7.64311823 19.3488996,5.78673792 17.0485295,5.78673792 Z" transform="translate(26 30)"/>
  </g>
</svg>
