<?xml version="1.0" encoding="utf-8"?>
<svg version="1.1" xmlns="http://www.w3.org/2000/svg" viewBox="0 0 14 14">
<path fill="#37D9BD" d="M12.4,14C12.4,14,12.4,14,12.4,14c-0.4,0-0.8-0.2-1.1-0.5L7,9.2l-4.3,4.3
	c-0.6,0.6-1.6,0.6-2.2,0C0.2,13.2,0,12.8,0,12.4c0-0.4,0.2-0.8,0.5-1.1L4.8,7L0.4,2.7C-0.1,2-0.1,1,0.4,0.4C1-0.1,2-0.1,2.6,0.4
	L7,4.8l4.3-4.3C11.6,0.2,12,0,12.4,0c0,0,0,0,0,0c0.4,0,0.8,0.2,1.1,0.5S14,1.2,14,1.6c0,0.4-0.2,0.8-0.5,1.1L9.2,7l4.3,4.3
	c0.3,0.3,0.5,0.7,0.5,1.1c0,0.4-0.2,0.8-0.5,1.1C13.2,13.8,12.8,14,12.4,14z M1.6,0.9C1.4,0.9,1.2,1,1,1.1C0.9,1.3,0.9,1.8,1.1,2
	l5,5l-5,5c-0.1,0.1-0.2,0.3-0.2,0.4c0,0.2,0.1,0.3,0.2,0.4c0.3,0.3,0.6,0.3,0.9,0l5-5l5,5c0.1,0.1,0.3,0.2,0.4,0.2l0,0
	c0.2,0,0.3-0.1,0.4-0.2c0.1-0.1,0.2-0.3,0.2-0.4c0-0.2-0.1-0.3-0.2-0.4l-5-5l5-5c0.3-0.3,0.3-0.6,0-0.9c-0.1-0.1-0.3-0.2-0.4-0.2
	l0,0c-0.2,0-0.3,0.1-0.4,0.2l-5,5L2,1.1C1.9,1,1.7,0.9,1.6,0.9z"/>
</svg>
