<?xml version="1.0" encoding="utf-8"?>
<svg version="1.1" xmlns="http://www.w3.org/2000/svg" viewBox="0 0 350 16">
		<path fill="#FFFFFF" d="M196.4,4c0.1-0.1,0.1-0.1,0.2,0l3.5,7.9c0,0.1,0,0.1-0.1,0.1h-0.7c-0.1,0-0.1,0-0.2-0.1
			l-0.8-1.9h-3.5l-0.8,1.9c0,0.1-0.1,0.1-0.2,0.1H193c-0.1,0-0.1-0.1,0-0.2L196.4,4z M195.1,9.2h2.8l-1.3-3.1c0-0.1-0.1-0.1-0.1,0
			L195.1,9.2z"/>
		<path fill="#FFFFFF" d="M203.3,12.1c-0.2,0-0.2,0-0.2-0.2V4.1c0-0.1,0-0.1,0.1-0.1h0.7c0.1,0,0.2,0,0.2,0.2v6.9
			c0,0.1,0,0.1,0.1,0.1h2.6c0.1,0,0.1,0,0.1,0.1v0.7c0,0.1,0,0.1-0.1,0.1L203.3,12.1L203.3,12.1z"/>
		<path fill="#FFFFFF" d="M211.8,12.1c-0.1,0-0.1,0-0.1-0.1V5c0-0.1,0-0.1-0.1-0.1h-2.5c-0.1,0-0.1,0-0.1-0.1V4.1
			c0-0.1,0-0.1,0.1-0.1h6.3c0.1,0,0.1,0,0.1,0.1v0.7c0,0.1,0,0.1-0.1,0.1h-2.5c-0.1,0-0.1,0-0.1,0.1v7c0,0.1,0,0.1-0.1,0.1
			C212.6,12.1,211.8,12.1,211.8,12.1z"/>
		<path fill="#FFFFFF" d="M221.9,3.8c2.3,0,4.2,1.9,4.2,4.2c0,2.3-1.9,4.2-4.2,4.2c-2.3,0-4.2-1.9-4.2-4.2
			C217.7,5.7,219.6,3.8,221.9,3.8z M221.9,11.3c1.8,0,3.2-1.5,3.2-3.3c0-1.8-1.4-3.3-3.2-3.3c-1.8,0-3.2,1.5-3.2,3.3
			S220.1,11.3,221.9,11.3z"/>
		<path fill="#FFFFFF" d="M233.2,11.3c0.8,0,1.5-0.1,2-0.4V8.3c0-0.1,0-0.1-0.1-0.1h-2.2c-0.1,0-0.1,0-0.1-0.1V7.4
			c0-0.1,0.1-0.1,0.1-0.1h3.1c0.2,0,0.2,0,0.2,0.2v3.9c0,0.2,0,0.2-0.2,0.3c-0.7,0.4-1.8,0.6-2.9,0.6c-2.3,0-4.1-1.7-4.1-4.2
			s1.9-4.2,4.2-4.2c1,0,1.9,0.2,2.7,0.7c0.1,0,0.1,0.1,0.1,0.2v0.7c0,0.1-0.1,0.1-0.2,0c-0.6-0.4-1.6-0.6-2.6-0.6
			c-1.9,0-3.2,1.5-3.2,3.3C230,9.8,231.4,11.3,233.2,11.3z"/>
		<path fill="#FFFFFF" d="M240.3,4.1c0-0.1,0-0.1,0.1-0.1h4c0.1,0,0.2,0,0.2,0.1v0.7c0,0.1,0,0.1-0.1,0.1h-3.1
			c0,0,0,0,0,0v2.5c0,0,0,0,0,0h3.1c0.1,0,0.1,0,0.1,0.1v0.6c0,0.1,0,0.2-0.1,0.2h-3.1c0,0,0,0,0,0v2.7c0,0,0,0,0,0h3.1
			c0.1,0,0.1,0.1,0.1,0.2v0.6c0,0.1,0,0.1-0.2,0.1h-3.9c-0.1,0-0.1,0-0.1-0.1L240.3,4.1L240.3,4.1z"/>
		<path fill="#FFFFFF" d="M250.6,12.1c-0.1,0-0.1,0-0.1-0.1V5c0-0.1,0-0.1-0.1-0.1h-2.5c-0.1,0-0.1,0-0.1-0.1V4.1
			c0-0.1,0-0.1,0.1-0.1h6.3c0.1,0,0.1,0,0.1,0.1v0.7c0,0.1,0,0.1-0.1,0.1h-2.5c-0.1,0-0.1,0-0.1,0.1v7c0,0.1,0,0.1-0.1,0.1
			C251.4,12.1,250.6,12.1,250.6,12.1z"/>
		<path fill="#FFFFFF" d="M257.7,12.1c-0.1,0-0.1,0-0.1-0.1V4.1c0-0.1,0-0.1,0.1-0.1h0.8c0.1,0,0.1,0,0.1,0.1v3.3
			c0,0,0,0,0,0h3.6c0,0,0,0,0-0.1V4.1c0-0.1,0-0.1,0.1-0.1h0.7c0.1,0,0.1,0.1,0.1,0.2V12c0,0.1,0,0.1-0.1,0.1h-0.7
			c-0.1,0-0.2,0-0.2-0.1V8.4c0,0,0-0.1-0.1-0.1h-3.6c0,0,0,0,0,0v3.5c0,0.1,0,0.1-0.1,0.1L257.7,12.1L257.7,12.1z"/>
		<path fill="#FFFFFF" d="M267.1,4.1c0-0.1,0-0.1,0.1-0.1h4c0.1,0,0.2,0,0.2,0.1v0.7c0,0.1,0,0.1-0.1,0.1h-3.1
			c0,0,0,0,0,0v2.5c0,0,0,0,0,0h3.1c0.1,0,0.1,0,0.1,0.1v0.6c0,0.1,0,0.2-0.1,0.2h-3.1c0,0,0,0,0,0v2.7c0,0,0,0,0,0h3.1
			c0.1,0,0.1,0.1,0.1,0.2v0.6c0,0.1,0,0.1-0.2,0.1h-3.9c-0.1,0-0.1,0-0.1-0.1L267.1,4.1L267.1,4.1z"/>
		<path fill="#FFFFFF" d="M276.9,4c2.2,0,2.9,0.9,2.9,2.3c0,1.1-0.4,1.9-1.5,2.3l2.8,3.4c0,0.1,0.1,0.1-0.1,0.1h-0.9
			c-0.1,0-0.1,0-0.2-0.1l-2.7-3.3h-1.1c-0.1,0-0.1,0-0.1,0.1v3.1c0,0.1,0,0.1-0.1,0.1h-0.7c-0.1,0-0.1,0-0.1-0.1V4.1
			c0-0.1,0-0.1,0.1-0.1H276.9z M276,7.6c0,0.1,0,0.1,0.1,0.1h0.7c1.3,0,1.9-0.4,1.9-1.5c0-1-0.6-1.4-1.9-1.4h-0.7
			c-0.1,0-0.1,0-0.1,0.1L276,7.6L276,7.6z"/>
		<path fill="#FFFFFF" d="M291.7,12.2c-0.7,0-1.4-0.2-1.8-0.4c-0.1-0.1-0.1-0.1-0.1-0.2v-0.7c0-0.1,0.1-0.1,0.1,0
			c0.4,0.3,1.1,0.5,1.6,0.5c1.2,0,1.7-0.5,1.7-1.4c0-1.2-1-1.5-1.8-1.9c-0.9-0.4-1.6-0.9-1.6-2.2c0-1.2,0.8-1.9,2.2-1.9
			c0.7,0,1.3,0.2,1.7,0.4c0.1,0,0.1,0.1,0.1,0.2v0.7c0,0.1-0.1,0.1-0.1,0c-0.4-0.3-0.8-0.5-1.5-0.5c-1,0-1.4,0.4-1.4,1.1
			c0,0.8,0.7,1.1,1.4,1.5c0.9,0.4,1.9,0.9,1.9,2.5C294.2,11.5,293.2,12.2,291.7,12.2z"/>
		<path fill="#FFFFFF" d="M304.5,12.1c-0.1,0-0.1,0-0.1-0.1V6.3c0-0.1-0.1-0.1-0.1,0l-2.7,3.2
			c-0.1,0.1-0.2,0.1-0.3,0l-2.7-3.2c-0.1-0.1-0.1,0-0.1,0.1v5.6c0,0.1,0,0.1-0.1,0.1h-0.7c-0.1,0-0.1,0-0.1-0.1V4
			c0-0.1,0.1-0.1,0.1-0.1l3.7,4.2c0.1,0.1,0.1,0.1,0.2,0l3.6-4.2c0.1-0.1,0.2-0.1,0.2,0V12c0,0.1,0,0.1-0.1,0.1L304.5,12.1
			L304.5,12.1z"/>
		<path fill="#FFFFFF" d="M311.7,4c0.1-0.1,0.1-0.1,0.2,0l3.5,7.9c0,0.1,0,0.1-0.1,0.1h-0.7c-0.1,0-0.1,0-0.2-0.1
			l-0.8-1.9H310l-0.8,1.9c0,0.1-0.1,0.1-0.2,0.1h-0.8c-0.1,0-0.1-0.1,0-0.2L311.7,4z M310.4,9.2h2.8l-1.3-3.1c0-0.1-0.1-0.1-0.1,0
			L310.4,9.2z"/>
		<path fill="#FFFFFF" d="M320.4,4c2.2,0,2.9,0.9,2.9,2.3c0,1.1-0.4,1.9-1.5,2.3l2.8,3.4c0,0.1,0.1,0.1-0.1,0.1h-0.9
			c-0.1,0-0.1,0-0.2-0.1l-2.7-3.3h-1.1c-0.1,0-0.1,0-0.1,0.1v3.1c0,0.1,0,0.1-0.1,0.1h-0.7c-0.1,0-0.1,0-0.1-0.1V4.1
			c0-0.1,0-0.1,0.1-0.1H320.4z M319.6,7.6c0,0.1,0,0.1,0.1,0.1h0.7c1.3,0,1.9-0.4,1.9-1.5c0-1-0.6-1.4-1.9-1.4h-0.7
			c-0.1,0-0.1,0-0.1,0.1L319.6,7.6L319.6,7.6z"/>
		<path fill="#FFFFFF" d="M329.4,12.1c-0.1,0-0.1,0-0.1-0.1V5c0-0.1,0-0.1-0.1-0.1h-2.5c-0.1,0-0.1,0-0.1-0.1V4.1
			c0-0.1,0-0.1,0.1-0.1h6.3c0.1,0,0.1,0,0.1,0.1v0.7c0,0.1,0,0.1-0.1,0.1h-2.5c-0.1,0-0.1,0-0.1,0.1v7c0,0.1,0,0.1-0.1,0.1
			C330.2,12.1,329.4,12.1,329.4,12.1z"/>
		<path fill="#FFFFFF" d="M336.2,4.1c0-0.1,0-0.1,0.1-0.1h4c0.1,0,0.2,0,0.2,0.1v0.7c0,0.1,0,0.1-0.1,0.1h-3.1
			c0,0,0,0,0,0v2.5c0,0,0,0,0,0h3.1c0.1,0,0.1,0,0.1,0.1v0.6c0,0.1,0,0.2-0.1,0.2h-3.1c0,0,0,0,0,0v2.7c0,0,0,0,0,0h3.1
			c0.1,0,0.1,0.1,0.1,0.2v0.6c0,0.1,0,0.1-0.2,0.1h-3.9c-0.1,0-0.1,0-0.1-0.1L336.2,4.1L336.2,4.1z"/>
		<path fill="#FFFFFF" d="M345.7,4c2.2,0,2.9,0.9,2.9,2.3c0,1.1-0.4,1.9-1.5,2.3l2.8,3.4c0,0.1,0.1,0.1-0.1,0.1H349
			c-0.1,0-0.1,0-0.2-0.1l-2.7-3.3H345c-0.1,0-0.1,0-0.1,0.1v3.1c0,0.1,0,0.1-0.1,0.1h-0.7c-0.1,0-0.1,0-0.1-0.1V4.1
			c0-0.1,0-0.1,0.1-0.1H345.7z M344.9,7.6c0,0.1,0,0.1,0.1,0.1h0.7c1.3,0,1.9-0.4,1.9-1.5c0-1-0.6-1.4-1.9-1.4H345
			c-0.1,0-0.1,0-0.1,0.1L344.9,7.6L344.9,7.6z"/>
	<polygon fill="#FFFFFF" points="180.3,0 180.8,0.2 173.7,16 173.2,15.8 	"/>
			<path fill="#FFFFFF" d="M3.7,14.5C2,14.5,1,14,0.6,13.8c-0.3-0.4-0.6-1.7-0.6-3c0.1-0.2,0.6-0.3,0.7-0.1
				c0.4,1.2,1.6,2.9,3.2,2.9c1.4,0,2-0.9,2-1.9c0-1.5-1.4-2.4-2.5-2.9C2,8.2,0.6,7.1,0.6,5.2c0-2.1,1.6-3.5,4.3-3.5
				c0.6,0,1.4,0.1,2.1,0.3C7.2,2,7.3,2.1,7.6,2.1c0.1,0.4,0.3,1.4,0.3,2.6C7.8,5,7.3,5,7.2,4.8C6.9,3.9,6.1,2.5,4.7,2.5
				c-1.2,0-1.9,0.8-1.9,1.7c0,0.9,0.8,1.6,1.7,2.1L5.8,7c1.1,0.6,2.6,1.7,2.6,3.7C8.3,13,6.5,14.5,3.7,14.5z"/>
			<path fill="#FFFFFF" d="M24.6,2.2c0,0.3,0.1,1.8,0.2,2.9c-0.1,0.2-0.6,0.3-0.7,0.1c-0.5-1.7-1.7-2.7-3.5-2.7
				c-2,0-4.2,1.8-4.2,5.4s2.1,5.7,4.3,5.7c2.2,0,3.3-1.6,3.8-2.9c0.1-0.1,0.6-0.1,0.7,0.1c-0.1,1.4-0.4,2.5-0.7,2.9
				c-1,0.3-2.3,0.7-3.7,0.7c-1.8,0-3.6-0.4-4.9-1.4c-1.3-1-2.3-2.6-2.3-4.9c0-2.3,1-3.9,2.2-4.9c1.3-1.1,3.2-1.6,5.1-1.6
				C22.7,1.7,24,2.1,24.6,2.2z"/>
			<path fill="#FFFFFF" d="M43.1,8c0,4-2.7,6.5-6.6,6.5c-3.7,0-6.4-2.4-6.4-6.3c0-3.7,2.7-6.5,6.6-6.5
				C40.4,1.7,43.1,4.3,43.1,8z M36.5,2.5c-2.3,0-3.5,2.1-3.5,5.2c0,2.3,0.8,5.9,3.8,5.9c2.4,0,3.3-2.4,3.3-5.4
				C40.1,5.1,38.7,2.5,36.5,2.5z"/>
			<path fill="#FFFFFF" d="M52.2,3.4c0-0.4,0-0.5-0.4-0.5h-1.1c-1.3,0-1.7,0.7-2.3,2.1C48.1,5,47.7,5,47.6,4.8
				c0.4-1.3,0.5-2.4,0.6-3.1c0.1-0.1,0.2-0.1,0.3-0.1c0.1,0,0.2,0,0.3,0.1C48.8,1.9,48.9,2,50.3,2h6.8c1.2,0,1.5,0,1.7-0.4
				c0.1,0,0.1-0.1,0.2-0.1s0.2,0.1,0.3,0.1C59.1,2.3,59,3.8,59,4.8C58.9,5,58.4,5,58.3,4.9c-0.3-1.2-0.6-2.1-1.9-2.1h-1.1
				c-0.4,0-0.5,0.1-0.5,0.5v8.2c0,1.7,0.1,1.9,0.9,2l0.7,0.1c0.1,0.1,0.1,0.5,0,0.6c-1.2,0-2.1-0.1-2.9-0.1c-0.9,0-1.8,0-3.1,0.1
				c-0.1-0.1-0.1-0.5,0-0.6l0.8-0.1c0.8-0.1,0.9-0.3,0.9-2L52.2,3.4L52.2,3.4z"/>
			<path fill="#FFFFFF" d="M68.4,3.4c0-0.4,0-0.5-0.4-0.5h-1.1c-1.3,0-1.7,0.7-2.3,2.1C64.3,5,64,5,63.9,4.8
				c0.4-1.3,0.5-2.4,0.6-3.1c0.1-0.1,0.2-0.1,0.3-0.1c0.1,0,0.2,0,0.3,0.1C65.1,1.9,65.1,2,66.5,2h6.8c1.2,0,1.5,0,1.7-0.4
				c0.1,0,0.1-0.1,0.2-0.1c0.1,0,0.2,0.1,0.3,0.1c-0.2,0.6-0.3,2.1-0.3,3.2C75.2,5,74.7,5,74.6,4.9c-0.3-1.2-0.6-2.1-1.9-2.1h-1.1
				c-0.4,0-0.5,0.1-0.5,0.5v8.2c0,1.7,0.1,1.9,0.9,2l0.7,0.1c0.1,0.1,0.1,0.5,0,0.6c-1.2,0-2.1-0.1-2.9-0.1c-0.9,0-1.8,0-3.1,0.1
				c-0.1-0.1-0.1-0.5,0-0.6l0.8-0.1c0.8-0.1,0.9-0.3,0.9-2L68.4,3.4L68.4,3.4z"/>
			<path fill="#FFFFFF" d="M86.4,4.8c0-1.9,0-2.2-1.2-2.3l-0.5,0c-0.1-0.1-0.1-0.4,0-0.5c1,0,1.7,0.1,2.4,0.1
				c0.7,0,1.3,0,2.3-0.1c0.1,0.1,0.1,0.4,0,0.5l-0.4,0c-1.1,0.1-1.1,0.4-1.1,2.3v6.4c0,1.2,0.1,1.6,0.4,2c0.2,0.2,0.6,0.4,2,0.4
				c1.6,0,1.9-0.1,2.2-0.2c0.4-0.2,0.8-0.9,1.2-1.8c0.1-0.1,0.5,0,0.5,0.1c0,0.2-0.5,2.1-0.8,2.6c-0.9,0-2.7-0.1-4.6-0.1h-1.7
				c-0.8,0-1.4,0-2.4,0.1c-0.1-0.1-0.1-0.4,0-0.5l0.6-0.1c1.1-0.1,1.1-0.4,1.1-2.3L86.4,4.8L86.4,4.8z"/>
			<path fill="#FFFFFF" d="M98.4,8.2c0-3.7,2.8-6.5,6.5-6.5c4.2,0,6.4,3.1,6.4,6.4c0,3.7-2.8,6.5-6.4,6.5
				C100.9,14.5,98.4,11.6,98.4,8.2z M109.5,8.6c0-3.1-1.3-6.4-4.9-6.4c-1.9,0-4.4,1.3-4.4,5.4c0,2.7,1.3,6.3,4.9,6.3
				C107.4,13.9,109.5,12.3,109.5,8.6z"/>
			<path fill="#FFFFFF" d="M127,12.3c0,0.7,0.1,1.2,0.4,1.3c0.1,0.1,0.1,0.2,0,0.2c-0.2,0-0.6,0.1-0.9,0.2
				c-1,0.3-2.3,0.5-3.3,0.5c-2.2,0-4.2-0.6-5.6-2.1c-1.1-1.1-1.7-2.6-1.7-4.2c0-1.6,0.5-3.2,1.7-4.4c1.2-1.3,3.1-2.2,5.8-2.2
				c1,0,2,0.2,2.3,0.3c0.4,0.1,0.9,0.2,1.1,0.2c0,0.6,0.1,1.6,0.3,2.7c-0.1,0.1-0.4,0.2-0.5,0.1c-0.5-2-1.9-2.6-3.8-2.6
				c-3.6,0-5.1,2.6-5.1,5.3c0,3.6,1.8,6.4,5.5,6.4c1.1,0,1.8-0.2,2-0.6c0.1-0.1,0.2-0.5,0.2-1.1v-0.7c0-1.6-0.1-1.7-1.2-1.8
				l-0.8-0.1c-0.1-0.1-0.1-0.4,0-0.5c0.5,0,1.5,0.1,2.6,0.1c0.7,0,1.3,0,1.9-0.1c0.1,0.1,0.1,0.4,0,0.5l-0.3,0
				c-0.8,0.1-0.8,0.6-0.8,1.6L127,12.3L127,12.3z"/>
			<path fill="#FFFFFF" d="M134.8,4.8c0-2,0-2.3-1.1-2.4l-0.5,0c-0.1-0.1-0.1-0.4,0-0.5c0.9,0,1.5,0.1,2.3,0.1
				c0.7,0,1.4,0,2.3-0.1c0.1,0.1,0.1,0.4,0,0.5l-0.5,0c-1.1,0.1-1.1,0.4-1.1,2.4v6.6c0,2,0,2.2,1.1,2.4l0.5,0.1
				c0.1,0.1,0.1,0.4,0,0.5c-0.9,0-1.5-0.1-2.3-0.1c-0.8,0-1.4,0-2.3,0.1c-0.1-0.1-0.1-0.4,0-0.5l0.5-0.1c1.1-0.1,1.1-0.4,1.1-2.4
				V4.8z"/>
			<path fill="#FFFFFF" d="M144.9,3.3c1.3-1.1,3.1-1.6,5-1.6c1,0,2.4,0.2,3.3,0.4c0.2,0.1,0.4,0.1,0.5,0.1
				c0,0.4,0.1,1.6,0.3,2.7c-0.1,0.1-0.4,0.1-0.5,0c-0.3-1.3-1.1-2.7-3.8-2.7c-2.8,0-5.2,1.8-5.2,5.6c0,3.9,2.4,6,5.5,6
				c2.4,0,3.4-1.6,3.8-2.7c0.1-0.1,0.4-0.1,0.5,0.1c-0.1,1-0.6,2.2-0.9,2.5c-0.2,0-0.4,0.1-0.6,0.2c-0.4,0.1-1.7,0.4-2.9,0.4
				c-1.7,0-3.2-0.3-4.6-1.2c-1.5-1-2.6-2.7-2.6-5.1C142.6,6.1,143.5,4.3,144.9,3.3z"/>
</svg>
