<svg xmlns="http://www.w3.org/2000/svg" width="40" height="40" viewBox="0 0 40 40">
  <path fill="#C5D2DD" fill-rule="evenodd" d="M16.1580925,0.438104663 L16.1580776,4.59110466 L18.6039224,4.59178202 L18.6039224,14.738378 L18.5576159,14.8728111 C18.1409472,16.0824496 16.7600087,16.5618953 14.5270748,16.5618953 L14.5270748,16.5618953 L14.5260776,16.5551047 L2.02663088,16.5556537 C1.12610118,16.5556537 0.396077623,15.8091634 0.396077623,14.888321 L0.396077623,0.438104663 L16.1580925,0.438104663 Z M14.5275392,2.10543732 L2.02663088,2.10543732 L2.02663088,14.888321 L14.5275392,14.888321 L14.5275392,2.10543732 Z M16.9733691,6.25911468 L16.1580776,6.25910466 L16.1592793,14.7596662 C16.5469543,14.6789801 16.8011561,14.5687587 16.930253,14.447691 L16.9733691,14.4011201 L16.9733691,6.25911468 Z M12.6252271,12.1094333 C12.9254037,12.1094333 13.1687448,12.3582634 13.1687448,12.6652108 C13.1687448,12.9721583 12.9254037,13.2209884 12.6252271,13.2209884 L12.6252271,13.2209884 L3.92894302,13.2209884 C3.62876646,13.2209884 3.38542527,12.9721583 3.38542527,12.6652108 C3.38542527,12.3582634 3.62876646,12.1094333 3.92894302,12.1094333 L3.92894302,12.1094333 Z M12.6252271,9.33054551 C12.9254037,9.33054551 13.1687448,9.57937559 13.1687448,9.88632306 C13.1687448,10.1932705 12.9254037,10.4421006 12.6252271,10.4421006 L12.6252271,10.4421006 L3.92894302,10.4421006 C3.62876646,10.4421006 3.38542527,10.1932705 3.38542527,9.88632306 C3.38542527,9.57937559 3.62876646,9.33054551 3.92894302,9.33054551 L3.92894302,9.33054551 Z M7.50532618,3.77276998 C7.78146855,3.77276998 8.00532618,3.99662761 8.00532618,4.27276998 L8.00532618,7.16321285 C8.00532618,7.43935522 7.78146855,7.66321285 7.50532618,7.66321285 L4.15718415,7.66321285 C3.88104177,7.66321285 3.65718415,7.43935522 3.65718415,7.16321285 L3.65718415,4.27276998 C3.65718415,3.99662761 3.88104177,3.77276998 4.15718415,3.77276998 L7.50532618,3.77276998 Z M12.6252271,6.55165774 C12.9254037,6.55165774 13.1687448,6.80048783 13.1687448,7.1074353 C13.1687448,7.41438276 12.9254037,7.66321285 12.6252271,7.66321285 L12.6252271,7.66321285 L9.36412056,7.66321285 C9.06394399,7.66321285 8.82060281,7.41438276 8.82060281,7.1074353 C8.82060281,6.80048783 9.06394399,6.55165774 9.36412056,6.55165774 L9.36412056,6.55165774 Z M12.6252271,3.77276998 C12.9254037,3.77276998 13.1687448,4.02160007 13.1687448,4.32854753 C13.1687448,4.635495 12.9254037,4.88432509 12.6252271,4.88432509 L12.6252271,4.88432509 L9.36412056,4.88432509 C9.06394399,4.88432509 8.82060281,4.635495 8.82060281,4.32854753 C8.82060281,4.02160007 9.06394399,3.77276998 9.36412056,3.77276998 L9.36412056,3.77276998 Z" transform="translate(10.286 11.5)"/>
</svg>