<?xml version="1.0" encoding="UTF-8"?>
<svg width="34px" height="40px" viewBox="0 0 34 40" version="1.1" xmlns="http://www.w3.org/2000/svg" xmlns:xlink="http://www.w3.org/1999/xlink">
    <!-- Generator: Sketch 58 (84663) - https://sketch.com -->
    <title>News_icon</title>
    <desc>Created with Sketch.</desc>
    <defs>
        <path d="M25.8564453,42.4667969 C26.8636118,42.4667969 27.6417616,42.7880827 28.190918,43.4306641 C28.7400744,44.0732454 29.0146484,44.982416 29.0146484,46.1582031 L29.0146484,46.828125 L24.1816406,46.828125 C24.2317711,47.4388051 24.4357078,47.9218732 24.793457,48.2773438 C25.1512062,48.6328143 25.6012343,48.8105469 26.1435547,48.8105469 C26.9046262,48.8105469 27.5244117,48.5029328 28.0029297,47.8876953 L28.8984375,48.7421875 C28.6022121,49.184247 28.206871,49.5271798 27.7124023,49.7709961 C27.2179337,50.0148124 26.663089,50.1367188 26.0478516,50.1367188 C24.9951119,50.1367188 24.1417676,49.8051791 23.487793,49.1420898 C22.8338183,48.4790006 22.5068359,47.5960342 22.5068359,46.4931641 L22.5068359,46.2880859 C22.5068359,45.549801 22.6492499,44.8901396 22.934082,44.309082 C23.2189142,43.7280244 23.6188125,43.2757178 24.1337891,42.9521484 C24.6487656,42.6285791 25.2229786,42.4667969 25.8564453,42.4667969 Z M43.4726562,42.4667969 C44.3567753,42.4667969 45.0711236,42.6855447 45.6157227,43.1230469 C46.1603217,43.5605491 46.4326172,44.1279262 46.4326172,44.8251953 L44.7714844,44.8251953 C44.7714844,44.5061833 44.652996,44.2407237 44.4160156,44.0288086 C44.1790353,43.8168935 43.8645853,43.7109375 43.4726562,43.7109375 C43.1080711,43.7109375 42.8107108,43.7952466 42.5805664,43.9638672 C42.350422,44.1324878 42.2353516,44.3580715 42.2353516,44.640625 C42.2353516,44.8958346 42.3424468,45.0940748 42.5566406,45.2353516 C42.7232358,45.3452335 43.0221579,45.4558033 43.4534132,45.5670631 L43.8554688,45.6625977 C44.5071647,45.8061531 45.0187156,45.9770498 45.3901367,46.175293 C45.7615578,46.3735361 46.0372712,46.6116523 46.2172852,46.8896484 C46.3972991,47.1676446 46.4873047,47.5048808 46.4873047,47.9013672 C46.4873047,48.5667351 46.2115913,49.1056294 45.6601562,49.5180664 C45.1087212,49.9305034 44.3863977,50.1367188 43.4931641,50.1367188 C42.8870412,50.1367188 42.3470076,50.0273448 41.8730469,49.8085938 C41.3990862,49.5898427 41.0299492,49.2890644 40.765625,48.90625 C40.5013008,48.5234356 40.3691406,48.1110048 40.3691406,47.6689453 L41.9824219,47.6689453 C42.0052084,48.0608744 42.1533189,48.3627919 42.4267578,48.574707 C42.7001967,48.7866222 43.0624977,48.8925781 43.5136719,48.8925781 C43.9511741,48.8925781 44.283853,48.8094084 44.5117188,48.6430664 C44.7395845,48.4767244 44.8535156,48.2591159 44.8535156,47.9902344 C44.8535156,47.6940089 44.7316093,47.4684253 44.487793,47.3134766 C44.2744537,47.1778965 43.938125,47.0562747 43.4787987,46.9486085 L43.2744141,46.9033203 C42.7093071,46.7848301 42.2376321,46.634441 41.859375,46.4521484 C41.0299438,46.0511048 40.6152344,45.4700559 40.6152344,44.7089844 C40.6152344,44.0709604 40.8841119,43.5377626 41.421875,43.109375 C41.9596381,42.6809874 42.643225,42.4667969 43.4726562,42.4667969 Z M14.7412109,40.046875 L19.1914062,47.1357422 L19.1914062,40.046875 L20.9072266,40.046875 L20.9072266,50 L19.1777344,50 L14.7412109,42.9384766 L14.7412109,50 L13.0117188,50 L13.0117188,40.046875 L14.7412109,40.046875 Z M31.2978516,42.6035156 L32.4941406,47.6552734 L34.0117188,42.6035156 L35.2626953,42.6035156 L36.8007188,47.708 L37.9765625,42.6035156 L39.5966797,42.6035156 L37.5800781,50 L36.2128906,50 L34.6269531,44.9208984 L33.0683594,50 L31.7011719,50 L29.6777344,42.6035156 L31.2978516,42.6035156 Z M25.8496094,43.7998047 C25.3938779,43.7998047 25.0258803,43.9593083 24.7456055,44.2783203 C24.4653306,44.5973323 24.2864587,45.0416638 24.2089844,45.6113281 L27.3740234,45.6113281 L27.3740234,45.4882812 C27.3375649,44.9322889 27.1894544,44.5118829 26.9296875,44.2270508 C26.6699206,43.9422186 26.3098981,43.7998047 25.8496094,43.7998047 Z M39,11 L39,17 L43,17 L43,31 C43,32.1045695 42.1045695,33 41,33 L19,33 C17.8954305,33 17,32.1045695 17,31 L17,11 L39,11 Z M40.999,19 L39,19 L39,31 L41,31 L40.999,19 Z M37,13 L19,13 L19,31 L37,31 L37,13 Z M35,27 L35,29 L21,29 L21,27 L35,27 Z M35,23 L35,25 L21,25 L21,23 L35,23 Z M27,15 L27,21 L21,21 L21,15 L27,15 Z M35,19 L35,21 L29,21 L29,19 L35,19 Z M35,15 L35,17 L29,17 L29,15 L35,15 Z" id="path-1"></path>
    </defs>
    <g id="Screen" stroke="none" stroke-width="1" fill="none" fill-rule="evenodd">
        <g id="Desktop-HD-Copy" transform="translate(-294.000000, -563.000000)">
            <g id="News_icon" transform="translate(281.000000, 552.000000)">
                <rect id="News_bounding_box" fill-opacity="0" fill="#D8D8D8" x="0" y="0" width="60" height="60"></rect>
                <mask id="mask-2" fill="white">
                    <use xlink:href="#path-1"></use>
                </mask>
                <use id="News" fill="#000000" fill-rule="nonzero" xlink:href="#path-1"></use>
            </g>
        </g>
    </g>
</svg>