<?xml version="1.0" encoding="UTF-8"?>
<svg width="35px" height="42px" viewBox="0 0 35 42" version="1.1" xmlns="http://www.w3.org/2000/svg" xmlns:xlink="http://www.w3.org/1999/xlink">
    <!-- Generator: Sketch 58 (84663) - https://sketch.com -->
    <title>Chart_Icon</title>
    <desc>Created with Sketch.</desc>
    <defs>
        <path d="M15.7851562,39.9101562 C16.883469,39.9101562 17.7675748,40.2086559 18.4375,40.8056641 C19.1074252,41.4026723 19.4970698,42.2457628 19.6064453,43.3349609 L17.8837891,43.3349609 C17.8017574,42.6194626 17.5932634,42.1033544 17.2583008,41.7866211 C16.9233382,41.4698877 16.4322949,41.3115234 15.7851562,41.3115234 C15.0331994,41.3115234 14.4555684,41.5860975 14.0522461,42.1352539 C13.6489238,42.6844103 13.4427084,43.4899035 13.4335938,44.5517578 L13.4335938,45.4335938 C13.4335938,46.50912 13.6261374,47.3294243 14.0112305,47.8945312 C14.3963235,48.4596382 14.9602827,48.7421875 15.703125,48.7421875 C16.3821649,48.7421875 16.8925764,48.5895198 17.234375,48.2841797 C17.5761736,47.9788396 17.7926428,47.4707067 17.8837891,46.7597656 L19.6064453,46.7597656 C19.5061844,47.8216199 19.1142612,48.6498994 18.4306641,49.2446289 C17.7470669,49.8393584 16.8378963,50.1367188 15.703125,50.1367188 C14.9101523,50.1367188 14.2117543,49.9487323 13.6079102,49.5727539 C13.004066,49.1967755 12.5380876,48.6624384 12.2099609,47.9697266 C11.8818343,47.2770148 11.7109376,46.4726608 11.6972656,45.5566406 L11.6972656,44.6269531 C11.6972656,43.6881463 11.8636051,42.8610062 12.1962891,42.1455078 C12.528973,41.4300094 13.0063445,40.8785827 13.628418,40.4912109 C14.2504914,40.1038392 14.969397,39.9101562 15.7851562,39.9101562 Z M31.7333984,42.4667969 C32.5992882,42.4667969 33.289711,42.6844054 33.8046875,43.1196289 C34.319664,43.5548524 34.5839843,44.1666627 34.5976562,44.9550781 L34.5976562,48.2910156 C34.5976562,48.9563835 34.6910798,49.4873027 34.8779297,49.8837891 L34.8779297,50 L33.1826172,50 C33.1097002,49.8587233 33.0458987,49.6285823 32.9912109,49.3095703 C32.4625625,49.8610054 31.8154335,50.1367188 31.0498047,50.1367188 C30.3069624,50.1367188 29.7008487,49.9248068 29.2314453,49.5009766 C28.7620419,49.0771463 28.5273438,48.553063 28.5273438,47.9287109 C28.5273438,47.1402955 28.8201468,46.5353211 29.4057617,46.1137695 C29.9913766,45.6922179 30.8287706,45.4814453 31.9179688,45.4814453 L32.9365234,45.4814453 L32.9365234,44.9960938 C32.9365234,44.6132793 32.8294282,44.3068045 32.6152344,44.0766602 C32.4010406,43.8465158 32.0751975,43.7314453 31.6376953,43.7314453 C31.2594382,43.7314453 30.9495455,43.8260082 30.7080078,44.0151367 C30.4664701,44.2042653 30.3457031,44.44466 30.3457031,44.7363281 L28.6845703,44.7363281 C28.6845703,44.3307271 28.8190091,43.9513364 29.0878906,43.5981445 C29.3567722,43.2449527 29.7224912,42.9681 30.1850586,42.7675781 C30.647626,42.5670563 31.1637341,42.4667969 31.7333984,42.4667969 Z M43.6826172,40.8056641 L43.6826172,42.6035156 L44.9882812,42.6035156 L44.9882812,43.8339844 L43.6826172,43.8339844 L43.6826172,47.9628906 C43.6826172,48.2454441 43.7384435,48.4493809 43.8500977,48.574707 C43.9617519,48.7000332 44.1611314,48.7626953 44.4482422,48.7626953 C44.6396494,48.7626953 44.8333324,48.7399091 45.0292969,48.6943359 L45.0292969,49.9794922 C44.6510398,50.0843104 44.2864601,50.1367188 43.9355469,50.1367188 C42.6594988,50.1367188 42.0214844,49.4326242 42.0214844,48.0244141 L42.0214844,43.8339844 L40.8046875,43.8339844 L40.8046875,42.6035156 L42.0214844,42.6035156 L42.0214844,40.8056641 L43.6826172,40.8056641 Z M22.6279297,39.5 L22.6279297,43.4101562 C23.1702501,42.7812469 23.8561156,42.4667969 24.6855469,42.4667969 C26.2623777,42.4667969 27.0621744,43.366853 27.0849609,45.1669922 L27.0849609,50 L25.4238281,50 L25.4238281,45.2285156 C25.4238281,44.7180964 25.3133149,44.3569347 25.0922852,44.1450195 C24.8712554,43.9331044 24.5465516,43.8271484 24.1181641,43.8271484 C23.4527962,43.8271484 22.9560563,44.1233694 22.6279297,44.7158203 L22.6279297,50 L20.9667969,50 L20.9667969,39.5 L22.6279297,39.5 Z M39.6289062,42.4667969 C39.8658866,42.4667969 40.0618482,42.4986976 40.2167969,42.5625 L40.2099609,44.1210938 C39.9912098,44.0846352 39.7656262,44.0664062 39.5332031,44.0664062 C38.7721316,44.0664062 38.2594414,44.35807 37.9951172,44.9414062 L37.9951172,50 L36.3339844,50 L36.3339844,42.6035156 L37.9199219,42.6035156 L37.9609375,43.4306641 C38.3619812,42.7880827 38.9179652,42.4667969 39.6289062,42.4667969 Z M32.9365234,46.5273438 L32.0410156,46.5273438 C31.4257782,46.5273438 30.9632177,46.634439 30.6533203,46.8486328 C30.3434229,47.0628266 30.1884766,47.3658835 30.1884766,47.7578125 C30.1884766,48.0768245 30.2944325,48.330891 30.5063477,48.5200195 C30.7182628,48.7091481 31.0019513,48.8037109 31.3574219,48.8037109 C31.6855485,48.8037109 31.9943019,48.7239591 32.2836914,48.5644531 C32.5730809,48.4049471 32.7906894,48.1907566 32.9365234,47.921875 L32.9365234,46.5273438 Z M19,9 L19,27.068 L26.295154,19.6152473 L32.5253033,25.2947333 L40.8196035,15.6837333 L42.4340082,16.8571014 L32.7066261,28.2307535 L26.3823033,22.4027333 L19,30.048 L19,33 L43,33 L43,35 L17,35 L17,9 L19,9 Z" id="path-1"></path>
    </defs>
    <g id="Screen" stroke="none" stroke-width="1" fill="none" fill-rule="evenodd">
        <g id="Desktop-HD-Copy" transform="translate(-292.000000, -171.000000)">
            <g id="Chart_Icon" transform="translate(281.000000, 162.000000)">
                <rect id="Graph_bounding_box" fill-opacity="0" fill="#D8D8D8" x="0" y="0" width="60" height="60"></rect>
                <mask id="mask-2" fill="white">
                    <use xlink:href="#path-1"></use>
                </mask>
                <use id="Chart" fill="#000000" fill-rule="nonzero" xlink:href="#path-1"></use>
            </g>
        </g>
    </g>
</svg>