<?xml version="1.0" encoding="UTF-8"?>
<svg width="16px" height="19px" viewBox="0 0 16 19" version="1.1" xmlns="http://www.w3.org/2000/svg" xmlns:xlink="http://www.w3.org/1999/xlink">
    <!-- Generator: Sketch 59 (86127) - https://sketch.com -->
    <title>Icon_Pin</title>
    <desc>Created with Sketch.</desc>
    <g id="Assets" stroke="none" stroke-width="1" fill="none" fill-rule="evenodd">
        <g id="Desktop-HD-Copy" transform="translate(-25.000000, -825.000000)">
            <g id="Icon_Pin" transform="translate(20.000000, 821.000000)">
                <rect id="Binding_Box" fill="#1B3B56" opacity="0" x="0" y="0" width="24" height="28"></rect>
                <path d="M13,17 L13,22.999 L12,24 L11,22.999 L11,17 L13,17 Z M16,14 C17.0543618,14 17.9181651,14.8158778 17.9945143,15.8507377 L18,16 L6,16 C6,14.8954305 6.8954305,14 8,14 L16,14 Z M14.0057642,7 L15,13 L9,13 L9.9900047,7 L14.0057642,7 Z M15,4 C15,5.1045695 14.1045695,6 13,6 L11,6 C9.9456382,6 9.08183488,5.18412221 9.00548574,4.14926234 L9,4 L15,4 Z" id="Combined-Shape" fill="#000000" transform="translate(12.000000, 14.000000) rotate(34.000000) translate(-12.000000, -14.000000) "></path>
            </g>
        </g>
    </g>
</svg>