<?xml version="1.0" encoding="UTF-8"?>
<svg width="59px" height="36px" viewBox="0 0 59 36" version="1.1" xmlns="http://www.w3.org/2000/svg" xmlns:xlink="http://www.w3.org/1999/xlink">
    <!-- Generator: Sketch 58 (84663) - https://sketch.com -->
    <title>Watchlist_Icon</title>
    <desc>Created with Sketch.</desc>
    <defs>
        <path d="M16.9140625,42.4667969 C17.7799522,42.4667969 18.470375,42.6844054 18.9853516,43.1196289 C19.5003281,43.5548524 19.7646484,44.1666627 19.7783203,44.9550781 L19.7783203,48.2910156 C19.7783203,48.9563835 19.8717439,49.4873027 20.0585938,49.8837891 L20.0585938,50 L18.3632812,50 C18.2903642,49.8587233 18.2265628,49.6285823 18.171875,49.3095703 C17.6432265,49.8610054 16.9960976,50.1367188 16.2304688,50.1367188 C15.4876265,50.1367188 14.8815128,49.9248068 14.4121094,49.5009766 C13.942706,49.0771463 13.7080078,48.553063 13.7080078,47.9287109 C13.7080078,47.1402955 14.0008109,46.5353211 14.5864258,46.1137695 C15.1720407,45.6922179 16.0094347,45.4814453 17.0986328,45.4814453 L18.1171875,45.4814453 L18.1171875,44.9960938 C18.1171875,44.6132793 18.0100922,44.3068045 17.7958984,44.0766602 C17.5817047,43.8465158 17.2558616,43.7314453 16.8183594,43.7314453 C16.4401023,43.7314453 16.1302095,43.8260082 15.8886719,44.0151367 C15.6471342,44.2042653 15.5263672,44.44466 15.5263672,44.7363281 L13.8652344,44.7363281 C13.8652344,44.3307271 13.9996731,43.9513364 14.2685547,43.5981445 C14.5374362,43.2449527 14.9031552,42.9681 15.3657227,42.7675781 C15.8282901,42.5670563 16.3443982,42.4667969 16.9140625,42.4667969 Z M23.5996094,40.8056641 L23.5996094,42.6035156 L24.9052734,42.6035156 L24.9052734,43.8339844 L23.5996094,43.8339844 L23.5996094,47.9628906 C23.5996094,48.2454441 23.6554356,48.4493809 23.7670898,48.574707 C23.878744,48.7000332 24.0781236,48.7626953 24.3652344,48.7626953 C24.5566416,48.7626953 24.7503245,48.7399091 24.9462891,48.6943359 L24.9462891,49.9794922 C24.568032,50.0843104 24.2034523,50.1367188 23.8525391,50.1367188 C22.576491,50.1367188 21.9384766,49.4326242 21.9384766,48.0244141 L21.9384766,43.8339844 L20.7216797,43.8339844 L20.7216797,42.6035156 L21.9384766,42.6035156 L21.9384766,40.8056641 L23.5996094,40.8056641 Z M29.2255859,42.4667969 C30.1051476,42.4667969 30.8217746,42.723142 31.3754883,43.2358398 C31.929202,43.7485377 32.2197264,44.4218708 32.2470703,45.2558594 L30.6816406,45.2558594 C30.6634114,44.8320291 30.5187188,44.4833998 30.2475586,44.2099609 C29.9763984,43.9365221 29.631187,43.7998047 29.2119141,43.7998047 C28.674151,43.7998047 28.2594416,43.994627 27.9677734,44.3842773 C27.6761053,44.7739277 27.5279948,45.3652304 27.5234375,46.1582031 L27.5234375,46.4248047 C27.5234375,47.226892 27.6681301,47.8250306 27.9575195,48.2192383 C28.246909,48.613446 28.6650363,48.8105469 29.2119141,48.8105469 C29.6266297,48.8105469 29.9707018,48.6897799 30.2441406,48.4482422 C30.5175795,48.2067045 30.6634114,47.9082049 30.6816406,47.5527344 L32.2470703,47.5527344 C32.2288411,48.0130231 32.0852878,48.4425436 31.8164062,48.8413086 C31.5475247,49.2400736 31.182945,49.5556629 30.7226562,49.7880859 C30.2623675,50.020509 29.7656277,50.1367188 29.2324219,50.1367188 C28.1979115,50.1367188 27.3776072,49.8017612 26.7714844,49.1318359 C26.1653616,48.4619107 25.8623047,47.5367898 25.8623047,46.3564453 L25.8623047,46.1855469 C25.8623047,45.0598902 26.1630829,44.1586948 26.7646484,43.4819336 C27.3662139,42.8051724 28.1865182,42.4667969 29.2255859,42.4667969 Z M51.1894531,42.4667969 C52.0735721,42.4667969 52.7879205,42.6855447 53.3325195,43.1230469 C53.8771186,43.5605491 54.1494141,44.1279262 54.1494141,44.8251953 L52.4882812,44.8251953 C52.4882812,44.5061833 52.3697929,44.2407237 52.1328125,44.0288086 C51.8958321,43.8168935 51.5813822,43.7109375 51.1894531,43.7109375 C50.824868,43.7109375 50.5275077,43.7952466 50.2973633,43.9638672 C50.0672189,44.1324878 49.9521484,44.3580715 49.9521484,44.640625 C49.9521484,44.8958346 50.0592437,45.0940748 50.2734375,45.2353516 C50.4400327,45.3452335 50.7389548,45.4558033 51.17021,45.5670631 L51.5722656,45.6625977 C52.2239616,45.8061531 52.7355125,45.9770498 53.1069336,46.175293 C53.4783547,46.3735361 53.7540681,46.6116523 53.934082,46.8896484 C54.114096,47.1676446 54.2041016,47.5048808 54.2041016,47.9013672 C54.2041016,48.5667351 53.9283882,49.1056294 53.3769531,49.5180664 C52.8255181,49.9305034 52.1031946,50.1367188 51.2099609,50.1367188 C50.6038381,50.1367188 50.0638045,50.0273448 49.5898438,49.8085938 C49.115883,49.5898427 48.7467461,49.2890644 48.4824219,48.90625 C48.2180976,48.5234356 48.0859375,48.1110048 48.0859375,47.6689453 L49.6992188,47.6689453 C49.7220053,48.0608744 49.8701158,48.3627919 50.1435547,48.574707 C50.4169936,48.7866222 50.7792946,48.8925781 51.2304688,48.8925781 C51.6679709,48.8925781 52.0006499,48.8094084 52.2285156,48.6430664 C52.4563813,48.4767244 52.5703125,48.2591159 52.5703125,47.9902344 C52.5703125,47.6940089 52.4484062,47.4684253 52.2045898,47.3134766 C51.9912506,47.1778965 51.6549218,47.0562747 51.1955955,46.9486085 L50.9912109,46.9033203 C50.4261039,46.7848301 49.954429,46.634441 49.5761719,46.4521484 C48.7467406,46.0511048 48.3320312,45.4700559 48.3320312,44.7089844 C48.3320312,44.0709604 48.6009088,43.5377626 49.1386719,43.109375 C49.676435,42.6809874 50.3600219,42.4667969 51.1894531,42.4667969 Z M57.7314453,40.8056641 L57.7314453,42.6035156 L59.0371094,42.6035156 L59.0371094,43.8339844 L57.7314453,43.8339844 L57.7314453,47.9628906 C57.7314453,48.2454441 57.7872716,48.4493809 57.8989258,48.574707 C58.01058,48.7000332 58.2099595,48.7626953 58.4970703,48.7626953 C58.6884775,48.7626953 58.8821605,48.7399091 59.078125,48.6943359 L59.078125,49.9794922 C58.6998679,50.0843104 58.3352882,50.1367188 57.984375,50.1367188 C56.708327,50.1367188 56.0703125,49.4326242 56.0703125,48.0244141 L56.0703125,43.8339844 L54.8535156,43.8339844 L54.8535156,42.6035156 L56.0703125,42.6035156 L56.0703125,40.8056641 L57.7314453,40.8056641 Z M35.1386719,39.5 L35.1386719,43.4101563 C35.6809923,42.7812469 36.3668578,42.4667969 37.1962891,42.4667969 C38.7731199,42.4667969 39.5729166,43.366853 39.5957031,45.1669922 L39.5957031,50 L37.9345703,50 L37.9345703,45.2285156 C37.9345703,44.7180964 37.8240571,44.3569347 37.6030273,44.1450195 C37.3819976,43.9331044 37.0572938,43.8271484 36.6289062,43.8271484 C35.9635383,43.8271484 35.4667985,44.1233694 35.1386719,44.7158203 L35.1386719,50 L33.4775391,50 L33.4775391,39.5 L35.1386719,39.5 Z M43.0410156,39.5 L43.0410156,50 L41.3798828,50 L41.3798828,39.5 L43.0410156,39.5 Z M46.6162109,42.6035156 L46.6162109,50 L44.9550781,50 L44.9550781,42.6035156 L46.6162109,42.6035156 Z M3.04394531,40.046875 L4.588125,47.524 L6.48925781,40.046875 L7.93847656,40.046875 L9.81835938,47.5390625 L11.3496094,40.046875 L13.0654297,40.046875 L10.7685547,50 L9.11425781,50 L7.22070312,42.7333984 L5.28613281,50 L3.625,50 L1.328125,40.046875 L3.04394531,40.046875 Z M18.1171875,46.5273438 L17.2216797,46.5273438 C16.6064422,46.5273438 16.1438818,46.634439 15.8339844,46.8486328 C15.524087,47.0628266 15.3691406,47.3658835 15.3691406,47.7578125 C15.3691406,48.0768245 15.4750966,48.330891 15.6870117,48.5200195 C15.8989268,48.7091481 16.1826154,48.8037109 16.5380859,48.8037109 C16.8662126,48.8037109 17.174966,48.7239591 17.4643555,48.5644531 C17.7537449,48.4049471 17.9713534,48.1907566 18.1171875,47.921875 L18.1171875,46.5273438 Z M45.7890625,39.7939453 C46.0898453,39.7939453 46.3222648,39.8782544 46.4863281,40.046875 C46.6503914,40.2154956 46.7324219,40.4274076 46.7324219,40.6826172 C46.7324219,40.9332695 46.6503914,41.1417635 46.4863281,41.3081055 C46.3222648,41.4744474 46.0898453,41.5576172 45.7890625,41.5576172 C45.4882797,41.5576172 45.2569995,41.4744474 45.0952148,41.3081055 C44.9334302,41.1417635 44.8525391,40.9332695 44.8525391,40.6826172 C44.8525391,40.4274076 44.9334302,40.2154956 45.0952148,40.046875 C45.2569995,39.8782544 45.4882797,39.7939453 45.7890625,39.7939453 Z M31,15 C35.7864678,15 40.1198012,17.4375 44,22.3125 C40.1198012,27.1875 35.7864678,29.625 31,29.625 C26.2135322,29.625 21.8801988,27.1875 18,22.3125 C21.8801988,17.4375 26.2135322,15 31,15 Z M31,16.625 C27.8588805,16.625 25.3125,19.1713805 25.3125,22.3125 C25.3125,25.4536195 27.8588805,28 31,28 C34.1411195,28 36.6875,25.4536195 36.6875,22.3125 C36.6875,19.1713805 34.1411195,16.625 31,16.625 Z M31,19.3125 C32.6568542,19.3125 34,20.6556458 34,22.3125 C34,23.9693542 32.6568542,25.3125 31,25.3125 C29.3431458,25.3125 28,23.9693542 28,22.3125 C28,20.6556458 29.3431458,19.3125 31,19.3125 Z" id="path-1"></path>
    </defs>
    <g id="Screen" stroke="none" stroke-width="1" fill="none" fill-rule="evenodd">
        <g id="Desktop-HD-Copy" transform="translate(-282.000000, -801.000000)">
            <g id="Watchlist_Icon" transform="translate(281.000000, 786.000000)">
                <rect id="Watchlist_bounding_box" fill-opacity="0" fill="#D8D8D8" x="0" y="0" width="60" height="60"></rect>
                <mask id="mask-2" fill="white">
                    <use xlink:href="#path-1"></use>
                </mask>
                <use id="Watchlist" fill="#000000" fill-rule="nonzero" xlink:href="#path-1"></use>
            </g>
        </g>
    </g>
</svg>