<?xml version="1.0" encoding="UTF-8"?>
<svg width="18px" height="24px" viewBox="0 0 18 24" version="1.1" xmlns="http://www.w3.org/2000/svg" xmlns:xlink="http://www.w3.org/1999/xlink">
    <!-- Generator: Sketch 58 (84663) - https://sketch.com -->
    <title>Glyph_Drag</title>
    <desc>Created with Sketch.</desc>
    <defs>
        <path d="M15,23 C16.1045695,23 17,23.8954305 17,25 C17,26.1045695 16.1045695,27 15,27 C13.8954305,27 13,26.1045695 13,25 C13,23.8954305 13.8954305,23 15,23 Z M8,23 C9.1045695,23 10,23.8954305 10,25 C10,26.1045695 9.1045695,27 8,27 C6.8954305,27 6,26.1045695 6,25 C6,23.8954305 6.8954305,23 8,23 Z M22,23 C23.1045695,23 24,23.8954305 24,25 C24,26.1045695 23.1045695,27 22,27 C20.8954305,27 20,26.1045695 20,25 C20,23.8954305 20.8954305,23 22,23 Z M15,13 C16.1045695,13 17,13.8954305 17,15 C17,16.1045695 16.1045695,17 15,17 C13.8954305,17 13,16.1045695 13,15 C13,13.8954305 13.8954305,13 15,13 Z M8,13 C9.1045695,13 10,13.8954305 10,15 C10,16.1045695 9.1045695,17 8,17 C6.8954305,17 6,16.1045695 6,15 C6,13.8954305 6.8954305,13 8,13 Z M22,13 C23.1045695,13 24,13.8954305 24,15 C24,16.1045695 23.1045695,17 22,17 C20.8954305,17 20,16.1045695 20,15 C20,13.8954305 20.8954305,13 22,13 Z M15,3 C16.1045695,3 17,3.8954305 17,5 C17,6.1045695 16.1045695,7 15,7 C13.8954305,7 13,6.1045695 13,5 C13,3.8954305 13.8954305,3 15,3 Z M8,3 C9.1045695,3 10,3.8954305 10,5 C10,6.1045695 9.1045695,7 8,7 C6.8954305,7 6,6.1045695 6,5 C6,3.8954305 6.8954305,3 8,3 Z M22,3 C23.1045695,3 24,3.8954305 24,5 C24,6.1045695 23.1045695,7 22,7 C20.8954305,7 20,6.1045695 20,5 C20,3.8954305 20.8954305,3 22,3 Z" id="path-1"></path>
    </defs>
    <g id="Screen" stroke="none" stroke-width="1" fill="none" fill-rule="evenodd">
        <g id="Desktop-HD-Copy" transform="translate(-453.000000, -220.000000)">
            <g id="Glyph_Drag" transform="translate(447.000000, 217.000000)">
                <rect id="Bounding_box" fill="#D8D8D8" opacity="0" x="0" y="0" width="30" height="30"></rect>
                <mask id="mask-2" fill="white">
                    <use xlink:href="#path-1"></use>
                </mask>
                <use id="Shape-Copy" fill="#000000" fill-rule="nonzero" xlink:href="#path-1"></use>
            </g>
        </g>
    </g>
</svg>