<?xml version="1.0" encoding="UTF-8"?>
<svg width="22px" height="18px" viewBox="0 0 22 18" version="1.1" xmlns="http://www.w3.org/2000/svg" xmlns:xlink="http://www.w3.org/1999/xlink">
    <!-- Generator: Sketch 59 (86127) - https://sketch.com -->
    <title>Glyph/24News</title>
    <desc>Created with Sketch.</desc>
    <defs>
        <path d="M20.5929487,3 L20.5929487,7.90909091 L23.9583333,7.90909091 L23.9583333,19.3636364 C23.9583333,20.267375 23.2049663,21 22.275641,21 L3.76602564,21 C2.83670034,21 2.08333333,20.267375 2.08333333,19.3636364 L2.08333333,3 L20.5929487,3 Z M22.2747997,9.54545455 L20.5929487,9.54545455 L20.5929487,19.3636364 L22.275641,19.3636364 L22.2747997,9.54545455 Z M18.9102564,4.63636364 L3.76602564,4.63636364 L3.76602564,19.3636364 L18.9102564,19.3636364 L18.9102564,4.63636364 Z M17.2275641,16.0909091 L17.2275641,17.7272727 L5.44871795,17.7272727 L5.44871795,16.0909091 L17.2275641,16.0909091 Z M17.2275641,12.8181818 L17.2275641,14.4545455 L5.44871795,14.4545455 L5.44871795,12.8181818 L17.2275641,12.8181818 Z M10.4967949,6.27272727 L10.4967949,11.1818182 L5.44871795,11.1818182 L5.44871795,6.27272727 L10.4967949,6.27272727 Z M17.2275641,9.54545455 L17.2275641,11.1818182 L12.1794872,11.1818182 L12.1794872,9.54545455 L17.2275641,9.54545455 Z M17.2275641,6.27272727 L17.2275641,7.90909091 L12.1794872,7.90909091 L12.1794872,6.27272727 L17.2275641,6.27272727 Z" id="news-path"></path>
    </defs>
    <g id="news-Assets" stroke="none" stroke-width="1" fill="none" fill-rule="evenodd">
        <g id="news-Desktop-HD-Copy" transform="translate(-362.000000, -225.000000)">
            <g id="Glyph/24News" transform="translate(360.000000, 222.000000)">
                <rect id="news-Bounding_box" fill="#D8D8D8" opacity="0" x="0" y="0" width="25" height="24"></rect>
                <mask id="nes-mask-2" fill="white">
                    <use xlink:href="#news-path"></use>
                </mask>
                <use id="News-Copy" fill="#000000" fill-rule="nonzero" xlink:href="#news-path"></use>
            </g>
        </g>
    </g>
</svg>