<svg xmlns="http://www.w3.org/2000/svg" width="30" height="30" viewBox="0 0 30 30">
  <g fill="none" fill-rule="evenodd">
    <rect width="30" height="30" rx="3"/>
    <path fill="#FFF" d="M7.07749383,7.36354155 C7.35848256,7.19470649 7.72313679,7.285625 7.89197185,7.56661373 C8.06080691,7.84760246 7.9698884,8.21225669 7.68889967,8.38109175 L7.68889967,8.38109175 L3.82594791,10.7021873 C3.06466959,11.1596095 2.88681579,12.3618256 3.5096541,13.3984026 C4.13249241,14.4349796 5.27748351,14.8423503 6.03876184,14.3849282 L6.03876184,14.3849282 L9.9017136,12.0638326 C10.6629919,11.6064104 10.8408457,10.4041943 10.2180074,9.36761729 C10.0491723,9.08662856 10.1400909,8.72197433 10.4210796,8.55313927 C10.7020683,8.38430421 11.0667226,8.47522272 11.2355576,8.75621145 C12.1724928,10.3155335 11.8852905,12.2568992 10.5131194,13.0813828 L10.5131194,13.0813828 L6.65016768,15.4024784 C5.27799666,16.2269619 3.42903909,15.5691305 2.4921039,14.0098085 C1.5551687,12.4504864 1.84237105,10.5091207 3.21454207,9.68463714 L3.21454207,9.68463714 Z M13.3498323,4.59752164 C14.7220033,3.77303811 16.5709609,4.43086951 17.5078961,5.99019154 C18.4448313,7.54951356 18.157629,9.49087933 16.7854579,10.3153629 L16.7854579,10.3153629 L12.9225062,12.6364584 C12.6415174,12.8052935 12.2768632,12.714375 12.1080282,12.4333863 C11.9391931,12.1523975 12.0301116,11.7877433 12.3111003,11.6189082 L12.3111003,11.6189082 L16.1740521,9.29781266 C16.9353304,8.8403905 17.1131842,7.63817441 16.4903459,6.60159738 C15.8675076,5.56502036 14.7225165,5.15764968 13.9612382,5.61507185 L13.9612382,5.61507185 L10.0982864,7.93616743 C9.33700808,8.3935896 9.15915428,9.59580569 9.78199259,10.6323827 C9.95082765,10.9133714 9.85990914,11.2780257 9.57892041,11.4468607 C9.29793168,11.6156958 8.93327745,11.5247773 8.76444239,11.2437886 C7.82750719,9.68446653 8.11470954,7.74310076 9.48688056,6.91861723 L9.48688056,6.91861723 Z" transform="rotate(30 3.17 21.83)"/>
  </g>
</svg>
