<svg xmlns="http://www.w3.org/2000/svg" width="30" height="30" viewBox="0 0 30 30">
  <g fill="none" fill-rule="evenodd">
    <rect width="30" height="30" rx="3"/>
    <path fill="#FFF" d="M6.07749383,3.36354155 C6.35848256,3.19470649 6.72313679,3.285625 6.89197185,3.56661373 C7.06080691,3.84760246 6.9698884,4.21225669 6.68889967,4.38109175 L6.68889967,4.38109175 L2.82594791,6.70218734 C2.06466959,7.1596095 1.88681579,8.36182559 2.5096541,9.39840262 C3.13249241,10.4349796 4.27748351,10.8423503 5.03876184,10.3849282 L5.03876184,10.3849282 L8.9017136,8.06383257 C9.66299192,7.6064104 9.84084572,6.40419431 9.21800741,5.36761729 C9.04917235,5.08662856 9.14009086,4.72197433 9.42107959,4.55313927 C9.70206832,4.38430421 10.0667226,4.47522272 10.2355576,4.75621145 C11.1724928,6.31553347 10.8852905,8.25689924 9.51311944,9.08138277 L9.51311944,9.08138277 L5.65016768,11.4024784 C4.27799666,12.2269619 2.42903909,11.5691305 1.4921039,10.0098085 C0.555168697,8.45048644 0.842371046,6.50912067 2.21454207,5.68463714 L2.21454207,5.68463714 Z M12.3498323,0.597521644 C13.7220033,-0.226961886 15.5709609,0.430869513 16.5078961,1.99019154 C17.4448313,3.54951356 17.157629,5.49087933 15.7854579,6.31536286 L15.7854579,6.31536286 L11.9225062,8.63645845 C11.6415174,8.80529351 11.2768632,8.714375 11.1080282,8.43338627 C10.9391931,8.15239754 11.0301116,7.78774331 11.3111003,7.61890825 L11.3111003,7.61890825 L15.1740521,5.29781266 C15.9353304,4.8403905 16.1131842,3.63817441 15.4903459,2.60159738 C14.8675076,1.56502036 13.7225165,1.15764968 12.9612382,1.61507185 L12.9612382,1.61507185 L9.0982864,3.93616743 C8.33700808,4.3935896 8.15915428,5.59580569 8.78199259,6.63238271 C8.95082765,6.91337144 8.85990914,7.27802567 8.57892041,7.44686073 C8.29793168,7.61569579 7.93327745,7.52477728 7.76444239,7.24378855 C6.82750719,5.68446653 7.11470954,3.74310076 8.48688056,2.91861723 L8.48688056,2.91861723 Z" transform="translate(6 9)"/>
  </g>
</svg>
