<svg xmlns="http://www.w3.org/2000/svg" width="30" height="30" viewBox="0 0 30 30">
  <g fill="none" fill-rule="evenodd">
    <rect width="30" height="30"/>
    <path fill="#ABB3B9" d="M15,9.54931324 C15.3945447,9.54931324 15.7143864,9.86915494 15.7143864,10.2636997 L15.7143864,10.2636997 L15.7139187,13.9143132 L19.3656949,13.9150081 C19.7273609,13.9150081 20.0262556,14.183764 20.0735598,14.5324565 L20.0800813,14.6293945 C20.0800813,15.0239393 19.7602396,15.343781 19.3656949,15.343781 L19.3656949,15.343781 L15.7139187,15.3433132 L15.7143864,18.9950894 C15.7143864,19.3567554 15.4456306,19.6556501 15.096938,19.7029543 L15,19.7094758 C14.6054553,19.7094758 14.2856136,19.3896341 14.2856136,18.9950894 L14.2856136,18.9950894 L14.2849187,15.3433132 L10.6343051,15.343781 C10.2726391,15.343781 9.97374443,15.0750251 9.92644022,14.7263325 L9.91991871,14.6293945 C9.91991871,14.2348498 10.2397604,13.9150081 10.6343051,13.9150081 L10.6343051,13.9150081 L14.2849187,13.9143132 L14.2856136,10.2636997 C14.2856136,9.90203367 14.5543694,9.60313896 14.903062,9.55583475 Z" transform="rotate(45 15 14.63)"/>
  </g>
</svg>
