<svg xmlns="http://www.w3.org/2000/svg" width="22" height="22" viewBox="0 0 22 22">
  <path fill="#ABB3B9" fill-rule="evenodd" d="M11,6.078516 C13.7180606,6.078516 15.921484,8.28193944 15.921484,11 C15.921484,13.7180606 13.7180606,15.921484 11,15.921484 C8.28193944,15.921484 6.078516,13.7180606 6.078516,11 C6.078516,8.28193944 8.28193944,6.078516 11,6.078516 Z M11,6.978516 C8.77899572,6.978516 6.978516,8.77899572 6.978516,11 C6.978516,13.2210043 8.77899572,15.021484 11,15.021484 C13.2210043,15.021484 15.021484,13.2210043 15.021484,11 C15.021484,8.77899572 13.2210043,6.978516 11,6.978516 Z M11.0284772,7.847415 C11.2770053,7.847415 11.4784772,8.04888686 11.4784772,8.297415 L11.4784772,8.297415 L11.477516,10.596516 L13.7784772,10.597415 C13.9993911,10.597415 14.1831247,10.7566026 14.2212271,10.9665269 L14.2284772,11.047415 C14.2284772,11.2959431 14.0270053,11.497415 13.7784772,11.497415 L13.7784772,11.497415 L11.477516,11.496516 L11.4784772,13.797415 C11.4784772,14.0183289 11.3192896,14.2020625 11.1093653,14.2401649 L11.0284772,14.247415 C10.7799491,14.247415 10.5784772,14.0459431 10.5784772,13.797415 L10.5784772,13.797415 L10.577516,11.496516 L8.2784772,11.497415 C8.0575633,11.497415 7.87382967,11.3382274 7.83572731,11.1283031 L7.8284772,11.047415 C7.8284772,10.7988869 8.02994907,10.597415 8.2784772,10.597415 L8.2784772,10.597415 L10.577516,10.596516 L10.5784772,8.297415 C10.5784772,8.0765011 10.7376648,7.89276746 10.9475891,7.8546651 Z"/>
</svg>
