<svg xmlns="http://www.w3.org/2000/svg" width="22" height="22" viewBox="0 0 22 22">
  <path fill="#C5D2DD" fill-rule="evenodd" d="M0.648461484,0.13537415 C0.901439206,0.13537415 1.10651817,0.337523414 1.10651817,0.586887169 L1.10651817,0.586887169 L1.1064048,5.66137415 L3.40727062,2.94591492 C3.56748551,2.75673366 3.84637923,2.73260714 4.03659047,2.87600247 L4.10335768,2.93763312 L5.7284306,4.76498882 L7.76533707,2.07163356 C7.70536131,1.94001329 7.67199733,1.79405604 7.67199733,1.64041755 C7.67199733,1.05856879 8.15051492,0.586887169 8.74079627,0.586887169 C9.33107762,0.586887169 9.8095952,1.05856879 9.8095952,1.64041755 C9.8095952,2.22226631 9.33107762,2.69394792 8.74079627,2.69394792 C8.64512376,2.69394792 8.55238725,2.68155696 8.46414832,2.65831428 L6.11506175,5.75125952 C5.93913445,5.97702826 5.5977257,5.98792674 5.40734771,5.77385124 L5.40734771,5.77385124 L3.76741233,3.92978304 L1.1064048,7.07137415 L1.10651817,7.96159981 L9.19885295,7.96159981 C9.45183068,7.96159981 9.65690964,8.16374908 9.65690964,8.41311283 C9.65690964,8.66247659 9.45183068,8.86462585 9.19885295,8.86462585 L9.19885295,8.86462585 L0.648461484,8.86462585 C0.395483761,8.86462585 0.190404798,8.66247659 0.190404798,8.41311283 L0.190404798,8.41311283 L0.190404798,0.586887169 C0.190404798,0.337523414 0.395483761,0.13537415 0.648461484,0.13537415 Z" transform="translate(6 6.435)"/>
</svg>
