<svg xmlns="http://www.w3.org/2000/svg" width="22" height="22" viewBox="0 0 22 22">
  <path fill="#ABB3B9" fill-rule="evenodd" d="M5.4,5.4 C5.6209139,5.4 5.8,5.5790861 5.8,5.8 L5.8,5.8 L5.8,13.095 L9.16724758,9.06299878 C9.30496987,8.89801989 9.54311561,8.87473088 9.70896179,8.99521653 L9.77510865,9.05566185 L12.0623434,11.6648772 L14.4932399,8.45747675 C14.3094276,8.22057142 14.2,7.92306481 14.2,7.6 C14.2,6.82680135 14.8268014,6.2 15.6,6.2 C16.3731986,6.2 17,6.82680135 17,7.6 C17,8.37319865 16.3731986,9 15.6,9 C15.440812,9 15.2878295,8.97343143 15.1452448,8.9244867 L12.4034769,12.5389743 C12.2504725,12.7407224 11.9508822,12.7513448 11.7839734,12.5609397 L11.7839734,12.5609397 L9.4817429,9.93461761 L5.8,14.345 L5.8,15.8 L16.6,15.8 C16.8209139,15.8 17,15.9790861 17,16.2 C17,16.4209139 16.8209139,16.6 16.6,16.6 L16.6,16.6 L5.4,16.6 C5.1790861,16.6 5,16.4209139 5,16.2 L5,16.2 L5,5.8 C5,5.5790861 5.1790861,5.4 5.4,5.4 Z M15.6,7 C15.2686292,7 15,7.26862915 15,7.6 C15,7.93137085 15.2686292,8.2 15.6,8.2 C15.9313708,8.2 16.2,7.93137085 16.2,7.6 C16.2,7.26862915 15.9313708,7 15.6,7 Z"/>
</svg>
