<svg xmlns="http://www.w3.org/2000/svg" width="22" height="22" viewBox="0 0 22 22">
  <path fill="#C5D2DD" fill-rule="evenodd" d="M10.205111,0.283479488 L10.2041543,2.97047949 L11.7498457,2.97115307 L11.7498457,9.53659756 L11.7205995,9.62358364 C11.4574403,10.4062909 10.5852687,10.7165205 9.1749946,10.7165205 L9.1749946,10.7165205 L9.17415429,10.7124795 L1.2799774,10.7124818 C0.711221801,10.7124818 0.250154289,10.2294587 0.250154289,9.63361949 L0.250154289,0.283479488 L10.205111,0.283479488 Z M9.17528793,1.3623418 L1.2799774,1.3623418 L1.2799774,9.63361949 L9.17528793,9.63361949 L9.17528793,1.3623418 Z M10.7200226,4.05001538 L10.2041543,4.04947949 L10.2062637,9.55028626 C10.4413285,9.50012441 10.59864,9.43234092 10.68288,9.35764847 L10.7200226,9.31837183 L10.7200226,4.05001538 Z M7.97382763,7.83551565 C8.16341283,7.83551565 8.317102,8.05937327 8.317102,8.33551565 C8.317102,8.61165802 8.16341283,8.83551565 7.97382763,8.83551565 L7.97382763,8.83551565 L2.4814377,8.83551565 C2.2918525,8.83551565 2.13816333,8.61165802 2.13816333,8.33551565 C2.13816333,8.05937327 2.2918525,7.83551565 2.4814377,7.83551565 L2.4814377,7.83551565 Z M7.97382763,6.0374118 C8.16341283,6.0374118 8.317102,6.26126942 8.317102,6.5374118 C8.317102,6.81355417 8.16341283,7.0374118 7.97382763,7.0374118 L7.97382763,7.0374118 L2.4814377,7.0374118 C2.2918525,7.0374118 2.13816333,6.81355417 2.13816333,6.5374118 C2.13816333,6.26126942 2.2918525,6.0374118 2.4814377,6.0374118 L2.4814377,6.0374118 Z M7.97382763,4.23930795 C8.16341283,4.23930795 8.317102,4.46316558 8.317102,4.73930795 C8.317102,5.01545033 8.16341283,5.23930795 7.97382763,5.23930795 L7.97382763,5.23930795 L5.91418141,5.23930795 C5.72459621,5.23930795 5.57090704,5.01545033 5.57090704,4.73930795 C5.57090704,4.46316558 5.72459621,4.23930795 5.91418141,4.23930795 L5.91418141,4.23930795 Z M4.55599548,2.4412041 C4.83213786,2.4412041 5.05599548,2.66506173 5.05599548,2.9412041 L5.05599548,4.45854949 C5.05599548,4.73469187 4.83213786,4.95854949 4.55599548,4.95854949 L2.80980051,4.95854949 C2.53365814,4.95854949 2.30980051,4.73469187 2.30980051,4.45854949 L2.30980051,2.9412041 C2.30980051,2.66506173 2.53365814,2.4412041 2.80980051,2.4412041 L4.55599548,2.4412041 Z M7.97382763,2.4412041 C8.16341283,2.4412041 8.317102,2.66506173 8.317102,2.9412041 C8.317102,3.21734648 8.16341283,3.4412041 7.97382763,3.4412041 L7.97382763,3.4412041 L5.91418141,3.4412041 C5.72459621,3.4412041 5.57090704,3.21734648 5.57090704,2.9412041 C5.57090704,2.66506173 5.72459621,2.4412041 5.91418141,2.4412041 L5.91418141,2.4412041 Z" transform="translate(4.976 5.5)"/>
</svg>
