<svg xmlns="http://www.w3.org/2000/svg" width="22" height="22" viewBox="0 0 22 22">
  <path fill="#ABB3B9" fill-rule="evenodd" d="M10.4995138,1.0658141e-14 L10.499,3.024 L11.9477227,3.02434138 L11.9477227,9.72458931 L11.9285362,9.78384854 C11.6730217,10.573028 10.8716687,10.9563122 9.59305484,10.9964636 L9.3624768,11 L9.362,10.999 L1.0861566,10.9994907 C0.486288876,10.9994907 1.63424829e-13,10.4900452 1.63424829e-13,9.86161235 L1.63424829e-13,1.0658141e-14 L10.4995138,1.0658141e-14 Z M9.77540944,0.758585565 L0.724104403,0.758585565 L0.724104403,9.86161235 C0.724104403,10.07109 0.886200695,10.2409051 1.0861566,10.2409051 L9.41335724,10.2409051 C9.61331315,10.2409051 9.77540944,10.07109 9.77540944,9.86161235 L9.77540944,0.758585565 Z M11.2236182,3.78292694 L10.499,3.782 L10.4995138,9.86161235 C10.4995138,9.95154326 10.4895553,10.0390375 10.4707306,10.1229507 C10.8261452,10.0272955 11.0587844,9.87648524 11.1789666,9.6792583 L11.2236182,9.59191611 L11.2236182,3.78292694 Z M8.14617454,7.96514843 C8.34613045,7.96514843 8.50822674,8.18900606 8.50822674,8.46514843 C8.50822674,8.74129081 8.34613045,8.96514843 8.14617454,8.96514843 L8.14617454,8.96514843 L2.35333931,8.96514843 C2.1533834,8.96514843 1.99128711,8.74129081 1.99128711,8.46514843 C1.99128711,8.18900606 2.1533834,7.96514843 2.35333931,7.96514843 L2.35333931,7.96514843 Z M8.14617454,6.06868452 C8.34613045,6.06868452 8.50822674,6.29254215 8.50822674,6.56868452 C8.50822674,6.8448269 8.34613045,7.06868452 8.14617454,7.06868452 L8.14617454,7.06868452 L2.35333931,7.06868452 C2.1533834,7.06868452 1.99128711,6.8448269 1.99128711,6.56868452 C1.99128711,6.29254215 2.1533834,6.06868452 2.35333931,6.06868452 L2.35333931,6.06868452 Z M8.14617454,4.17222061 C8.34613045,4.17222061 8.50822674,4.39607823 8.50822674,4.67222061 C8.50822674,4.94836298 8.34613045,5.17222061 8.14617454,5.17222061 L8.14617454,5.17222061 L5.97386133,5.17222061 C5.77390542,5.17222061 5.61180912,4.94836298 5.61180912,4.67222061 C5.61180912,4.39607823 5.77390542,4.17222061 5.97386133,4.17222061 L5.97386133,4.17222061 Z M4.70667862,2.2757567 C4.90663453,2.2757567 5.06873082,2.44557186 5.06873082,2.65504948 L5.06873082,4.55151339 C5.06873082,4.76099101 4.90663453,4.93080617 4.70667862,4.93080617 L2.53436541,4.93080617 C2.3344095,4.93080617 2.17231321,4.76099101 2.17231321,4.55151339 L2.17231321,2.65504948 C2.17231321,2.44557186 2.3344095,2.2757567 2.53436541,2.2757567 L4.70667862,2.2757567 Z M4.34462642,3.03434226 L2.89641761,3.03434226 L2.89641761,4.17222061 L4.34462642,4.17222061 L4.34462642,3.03434226 Z M8.14617454,2.2757567 C8.34613045,2.2757567 8.50822674,2.49961432 8.50822674,2.7757567 C8.50822674,3.05189907 8.34613045,3.2757567 8.14617454,3.2757567 L8.14617454,3.2757567 L5.97386133,3.2757567 C5.77390542,3.2757567 5.61180912,3.05189907 5.61180912,2.7757567 C5.61180912,2.49961432 5.77390542,2.2757567 5.97386133,2.2757567 L5.97386133,2.2757567 Z" transform="translate(4.976 5.5)"/>
</svg>
