<svg xmlns="http://www.w3.org/2000/svg" width="22" height="22" viewBox="0 0 22 22">
  <path fill="#ABB3B9" fill-rule="evenodd" d="M4.921484,0 C7.63954456,0 9.842968,2.20342344 9.842968,4.921484 C9.842968,7.63954456 7.63954456,9.842968 4.921484,9.842968 C2.20342344,9.842968 1.42108547e-14,7.63954456 1.42108547e-14,4.921484 C1.42108547e-14,2.20342344 2.20342344,0 4.921484,0 Z M4.921484,0.9 C2.70047971,0.9 0.9,2.70047971 0.9,4.921484 C0.9,7.14248828 2.70047971,8.942968 4.921484,8.942968 C7.14248828,8.942968 8.942968,7.14248828 8.942968,4.921484 C8.942968,2.70047971 7.14248828,0.9 4.921484,0.9 Z M4.9499612,1.76889899 C5.19848934,1.76889899 5.3999612,1.97037086 5.3999612,2.21889899 L5.3999612,2.21889899 L5.399,4.518 L7.6999612,4.51889899 C7.9208751,4.51889899 8.10460874,4.67808664 8.1427111,4.88801093 L8.1499612,4.96889899 C8.1499612,5.21742713 7.94848934,5.41889899 7.6999612,5.41889899 L7.6999612,5.41889899 L5.399,5.418 L5.3999612,7.71889899 C5.3999612,7.93981289 5.24077356,8.12354653 5.03084927,8.16164889 L4.9499612,8.16889899 C4.70143307,8.16889899 4.4999612,7.96742713 4.4999612,7.71889899 L4.4999612,7.71889899 L4.499,5.418 L2.1999612,5.41889899 C1.9790473,5.41889899 1.79531367,5.25971135 1.75721131,5.04978706 L1.7499612,4.96889899 C1.7499612,4.72037086 1.95143307,4.51889899 2.1999612,4.51889899 L2.1999612,4.51889899 L4.499,4.518 L4.4999612,2.21889899 C4.4999612,1.99798509 4.65914885,1.81425146 4.86907313,1.7761491 Z" transform="rotate(45 .757 15.243)"/>
</svg>
