<svg xmlns="http://www.w3.org/2000/svg" width="22" height="22" viewBox="0 0 22 22">
  <path fill="#ABB3B9" fill-rule="evenodd" d="M5.97632723,0.000807631908 C8.05555371,-0.0342418827 10.0103407,1.07168668 11.8328529,3.28499628 C11.9394469,3.41444703 11.9356848,3.60098112 11.8239558,3.72614086 C9.8846719,5.89854116 7.9439759,7 5.99999986,7 C4.05307038,7 2.11162865,5.86216165 0.172442276,3.61898528 C0.0619376359,3.49115775 0.0620750037,3.30296061 0.172766135,3.17529042 C1.96973103,1.10268679 3.9069088,0.035691812 5.97632723,0.000807631908 Z M5.98813856,0.683634917 C4.20838977,0.713636136 2.51281421,1.61061829 0.89433364,3.39811157 C2.64529853,5.35379901 4.34815288,6.31707977 5.99999986,6.31707977 C7.61660461,6.31707977 9.27993668,5.4263155 10.9884351,3.61928406 L11.1077059,3.49172513 L10.9956945,3.36289107 C9.38880085,1.53815805 7.72179334,0.654410703 5.98813856,0.683634917 Z M6.01712807,1.34243144 C7.21109178,1.34243144 8.1789906,2.29792131 8.1789906,3.47657778 C8.1789906,4.65523426 7.21109178,5.61072413 6.01712807,5.61072413 C4.82316437,5.61072413 3.85526554,4.65523426 3.85526554,3.47657778 C3.85526554,2.29792131 4.82316437,1.34243144 6.01712807,1.34243144 Z M6.01712807,2.02535827 C5.20523275,2.02535827 4.54706155,2.67509138 4.54706155,3.47657778 C4.54706155,4.27806419 5.20523275,4.9277973 6.01712807,4.9277973 C6.82902339,4.9277973 7.48719459,4.27806419 7.48719459,3.47657778 C7.48719459,2.67509138 6.82902339,2.02535827 6.01712807,2.02535827 Z" transform="translate(5.037 7.621)"/>
</svg>
