<svg xmlns="http://www.w3.org/2000/svg" width="22" height="22" viewBox="0 0 22 22">
  <g fill="#C5D2DD" fill-rule="evenodd" transform="translate(4.01 6.87)">
    <path d="M13.4381396,3.6589328 C13.6106537,3.864163 13.604565,4.15989265 13.4237404,4.35831991 C11.2991079,6.68977703 9.15886875,7.87970195 6.99999978,7.87970195 C4.83635088,7.87970195 2.69490481,6.650255 0.570430164,4.24289755 C0.391587128,4.04024081 0.391809447,3.74187455 0.570954305,3.53946725 C2.5420194,1.31245407 4.67975954,0.159019494 6.9712723,0.121179798 C9.27865864,0.0830779811 11.4385081,1.28008381 13.4381396,3.6589328 Z M12.1423857,3.85591682 C10.4760557,2.04465976 8.76202691,1.17447372 6.99038801,1.20372875 C5.16744955,1.23383089 3.4215875,2.11866142 1.74208367,3.89312373 C3.5591463,5.84351963 5.31325501,6.79699518 6.99999978,6.79699518 C8.65025588,6.79699518 10.3616133,5.91730943 12.1317046,4.12003906 L12.2613282,3.98689335 L12.1423857,3.85591682 Z"/>
    <path d="M6.99999978,1.67767514 C8.3263104,1.67767514 9.4014976,2.71741661 9.4014976,4.0000027 C9.4014976,5.2825888 8.3263104,6.32233026 6.99999978,6.32233026 C5.67368916,6.32233026 4.59850196,5.2825888 4.59850196,4.0000027 C4.59850196,2.71741661 5.67368916,1.67767514 6.99999978,1.67767514 Z M6.99999978,2.76038191 C6.29203668,2.76038191 5.71811919,3.31537904 5.71811919,4.0000027 C5.71811919,4.68462636 6.29203668,5.23962349 6.99999978,5.23962349 C7.70796288,5.23962349 8.28188037,4.68462636 8.28188037,4.0000027 C8.28188037,3.31537904 7.70796288,2.76038191 6.99999978,2.76038191 Z"/>
  </g>
</svg>
