<?xml version="1.0" encoding="UTF-8"?>
<svg width="20px" height="10px" viewBox="0 0 20 10" version="1.1" xmlns="http://www.w3.org/2000/svg" xmlns:xlink="http://www.w3.org/1999/xlink">
    <!-- Generator: Sketch 59 (86127) - https://sketch.com -->
    <title>Icon_Link</title>
    <desc>Created with Sketch.</desc>
    <g id="Assets" stroke="none" stroke-width="1" fill="none" fill-rule="evenodd">
        <g id="Desktop-HD-Copy" transform="translate(-50.000000, -830.000000)">
            <g id="Icon_Link" transform="translate(48.000000, 821.000000)">
                <rect id="Binding_Box" fill="#1B3B56" opacity="0" x="0" y="0" width="24" height="28"></rect>
                <path d="M10,15 L10,17 L9,17 L9,22 L15,22 L15,17 L14,17 L14,15 L15,15 C16.1045695,15 17,15.8954305 17,17 L17,22 C17,23.1045695 16.1045695,24 15,24 L9,24 C7.8954305,24 7,23.1045695 7,22 L7,17 C7,15.8954305 7.8954305,15 9,15 L10,15 Z M12,8 C12.5522847,8 13,8.44771525 13,9 L13,19 C13,19.5522847 12.5522847,20 12,20 C11.4477153,20 11,19.5522847 11,19 L11,9 C11,8.44771525 11.4477153,8 12,8 Z M15,4 C16.1045695,4 17,4.8954305 17,6 L17,11 C17,12.1045695 16.1045695,13 15,13 L14,13 L14,11 L15,11 L15,6 L9,6 L9,11 L10,11 L10,13 L9,13 C7.8954305,13 7,12.1045695 7,11 L7,6 C7,4.8954305 7.8954305,4 9,4 L15,4 Z" id="Combined-Shape" fill="#000000" transform="translate(12.000000, 14.000000) rotate(90.000000) translate(-12.000000, -14.000000) "></path>
            </g>
        </g>
    </g>
</svg>