<?xml version="1.0" encoding="UTF-8"?>
<svg width="48px" height="44px" viewBox="0 0 48 44" version="1.1" xmlns="http://www.w3.org/2000/svg" xmlns:xlink="http://www.w3.org/1999/xlink">
    <!-- Generator: Sketch 58 (84663) - https://sketch.com -->
    <title>Drag_icon</title>
    <desc>Created with Sketch.</desc>
    <defs>
        <path d="M48.8056641,42.6035156 L50.3710938,47.6210938 L51.875,42.6035156 L53.6455078,42.6035156 L50.7060547,51.1210938 C50.2548806,52.3652406 49.4892632,52.9873047 48.4091797,52.9873047 C48.167642,52.9873047 47.9010431,52.9462895 47.609375,52.8642578 L47.609375,51.5791016 L47.9238281,51.5996094 C48.3431011,51.5996094 48.6586903,51.5232755 48.8706055,51.3706055 C49.0472014,51.2433804 49.1929388,51.0441588 49.3078205,50.7729362 L49.6123047,49.9658203 L47.0146484,42.6035156 L48.8056641,42.6035156 Z M20.3544922,42.4667969 C21.2568404,42.4667969 21.9643529,42.8028938 22.4770508,43.4750977 C22.9897487,44.1473015 23.2460938,45.0803977 23.2460938,46.2744141 L23.2460938,46.3769531 C23.2460938,47.5208391 22.9863307,48.4334276 22.4667969,49.1147461 C21.947263,49.7960646 21.2500044,50.1367188 20.375,50.1367188 C19.563798,50.1367188 18.9143905,49.8701199 18.4267578,49.3369141 L18.4267578,52.84375 L16.765625,52.84375 L16.765625,42.6035156 L18.296875,42.6035156 L18.3652344,43.3554688 C18.852867,42.7630179 19.5159463,42.4667969 20.3544922,42.4667969 Z M11.078125,39.9101562 C11.889327,39.9101562 12.6082325,40.1049785 13.2348633,40.4946289 C13.861494,40.8842793 14.3457014,41.4448206 14.6875,42.1762695 C15.0292986,42.9077185 15.2024739,43.7587842 15.2070312,44.7294922 L15.2070312,45.2832031 C15.2070312,46.2584684 15.0384131,47.1140914 14.7011719,47.8500977 C14.3639306,48.5861039 13.8820018,49.1512025 13.2553711,49.5454102 C12.6287404,49.9396179 11.9075562,50.1367188 11.0917969,50.1367188 C10.2851522,50.1367188 9.56624665,49.9396179 8.93505859,49.5454102 C8.30387054,49.1512025 7.81624521,48.5895219 7.47216797,47.8603516 C7.12809073,47.1311812 6.95377606,46.2903693 6.94921875,45.3378906 L6.94921875,44.7773438 C6.94921875,43.8066358 7.12125479,42.9498735 7.46533203,42.2070312 C7.80940927,41.464189 8.29475598,40.8956725 8.92138672,40.5014648 C9.54801746,40.1072571 10.266923,39.9101562 11.078125,39.9101562 Z M27.6210938,42.4667969 C28.4869835,42.4667969 29.1774063,42.6844054 29.6923828,43.1196289 C30.2073593,43.5548524 30.4716796,44.1666627 30.4853516,44.9550781 L30.4853516,48.2910156 C30.4853516,48.9563835 30.5787751,49.4873027 30.765625,49.8837891 L30.765625,50 L29.0703125,50 C28.9973955,49.8587233 28.933594,49.6285823 28.8789062,49.3095703 C28.3502578,49.8610054 27.7031288,50.1367188 26.9375,50.1367188 C26.1946577,50.1367188 25.588544,49.9248068 25.1191406,49.5009766 C24.6497372,49.0771463 24.4150391,48.553063 24.4150391,47.9287109 C24.4150391,47.1402955 24.7078421,46.5353211 25.293457,46.1137695 C25.8790719,45.6922179 26.7164659,45.4814453 27.8056641,45.4814453 L28.8242188,45.4814453 L28.8242188,44.9960938 C28.8242188,44.6132793 28.7171235,44.3068045 28.5029297,44.0766602 C28.2887359,43.8465158 27.9628928,43.7314453 27.5253906,43.7314453 C27.1471335,43.7314453 26.8372408,43.8260082 26.5957031,44.0151367 C26.3541655,44.2042653 26.2333984,44.44466 26.2333984,44.7363281 L24.5722656,44.7363281 C24.5722656,44.3307271 24.7067044,43.9513364 24.9755859,43.5981445 C25.2444675,43.2449527 25.6101865,42.9681 26.0727539,42.7675781 C26.5353213,42.5670563 27.0514294,42.4667969 27.6210938,42.4667969 Z M35.2773438,42.4667969 C36.1569054,42.4667969 36.8735324,42.723142 37.4272461,43.2358398 C37.9809598,43.7485377 38.2714842,44.4218708 38.2988281,45.2558594 L36.7333984,45.2558594 C36.7151692,44.8320291 36.5704766,44.4833998 36.2993164,44.2099609 C36.0281562,43.9365221 35.6829448,43.7998047 35.2636719,43.7998047 C34.7259088,43.7998047 34.3111994,43.994627 34.0195312,44.3842773 C33.7278631,44.7739277 33.5797526,45.3652304 33.5751953,46.1582031 L33.5751953,46.4248047 C33.5751953,47.226892 33.7198879,47.8250306 34.0092773,48.2192383 C34.2986668,48.613446 34.7167941,48.8105469 35.2636719,48.8105469 C35.6783875,48.8105469 36.0224596,48.6897799 36.2958984,48.4482422 C36.5693373,48.2067045 36.7151692,47.9082049 36.7333984,47.5527344 L38.2988281,47.5527344 C38.2805989,48.0130231 38.1370456,48.4425436 37.8681641,48.8413086 C37.5992825,49.2400736 37.2347028,49.5556629 36.7744141,49.7880859 C36.3141253,50.020509 35.8173855,50.1367188 35.2841797,50.1367188 C34.2496693,50.1367188 33.429365,49.8017612 32.8232422,49.1318359 C32.2171194,48.4619107 31.9140625,47.5367898 31.9140625,46.3564453 L31.9140625,46.1855469 C31.9140625,45.0598902 32.2148407,44.1586948 32.8164062,43.4819336 C33.4179718,42.8051724 34.2382761,42.4667969 35.2773438,42.4667969 Z M45.2099609,40.8056641 L45.2099609,42.6035156 L46.515625,42.6035156 L46.515625,43.8339844 L45.2099609,43.8339844 L45.2099609,47.9628906 C45.2099609,48.2454441 45.2657872,48.4493809 45.3774414,48.574707 C45.4890956,48.7000332 45.6884751,48.7626953 45.9755859,48.7626953 C46.1669931,48.7626953 46.3606761,48.7399091 46.5566406,48.6943359 L46.5566406,49.9794922 C46.1783835,50.0843104 45.8138038,50.1367188 45.4628906,50.1367188 C44.1868426,50.1367188 43.5488281,49.4326242 43.5488281,48.0244141 L43.5488281,43.8339844 L42.3320312,43.8339844 L42.3320312,42.6035156 L43.5488281,42.6035156 L43.5488281,40.8056641 L45.2099609,40.8056641 Z M41.3203125,42.6035156 L41.3203125,50 L39.6591797,50 L39.6591797,42.6035156 L41.3203125,42.6035156 Z M19.8896484,43.8271484 C19.2106086,43.8271484 18.7229833,44.1074191 18.4267578,44.6679688 L18.4267578,47.9492188 C18.7275406,48.5234404 19.2197231,48.8105469 19.9033203,48.8105469 C20.4319688,48.8105469 20.8455389,48.5974956 21.144043,48.1713867 C21.4425471,47.7452778 21.5917969,47.0992882 21.5917969,46.2333984 C21.5917969,45.4951135 21.4448257,44.9095074 21.1508789,44.4765625 C20.8569321,44.0436176 20.4365262,43.8271484 19.8896484,43.8271484 Z M28.8242188,46.5273438 L27.9287109,46.5273438 C27.3134735,46.5273438 26.850913,46.634439 26.5410156,46.8486328 C26.2311182,47.0628266 26.0761719,47.3658835 26.0761719,47.7578125 C26.0761719,48.0768245 26.1821278,48.330891 26.394043,48.5200195 C26.6059581,48.7091481 26.8896467,48.8037109 27.2451172,48.8037109 C27.5732438,48.8037109 27.8819973,48.7239591 28.1713867,48.5644531 C28.4607762,48.4049471 28.6783847,48.1907566 28.8242188,47.921875 L28.8242188,46.5273438 Z M11.078125,41.3457031 C10.3307254,41.3457031 9.74625862,41.6385062 9.32470703,42.2241211 C8.90315544,42.809736 8.68782557,43.6380155 8.67871094,44.7089844 L8.67871094,45.2832031 C8.67871094,46.3769586 8.89176219,47.2223277 9.31787109,47.8193359 C9.74398,48.4163441 10.3352827,48.7148438 11.0917969,48.7148438 C11.8574257,48.7148438 12.4464498,48.42318 12.8588867,47.8398438 C13.2713237,47.2565075 13.4775391,46.4043025 13.4775391,45.2832031 L13.4775391,44.7636719 C13.4775391,43.6608018 13.2690451,42.8154326 12.8520508,42.2275391 C12.4350565,41.6396455 11.8437538,41.3457031 11.078125,41.3457031 Z M40.4931641,39.7939453 C40.7939468,39.7939453 41.0263664,39.8782544 41.1904297,40.046875 C41.354493,40.2154956 41.4365234,40.4274076 41.4365234,40.6826172 C41.4365234,40.9332695 41.354493,41.1417635 41.1904297,41.3081055 C41.0263664,41.4744474 40.7939468,41.5576172 40.4931641,41.5576172 C40.1923813,41.5576172 39.9611011,41.4744474 39.7993164,41.3081055 C39.6375317,41.1417635 39.5566406,40.9332695 39.5566406,40.6826172 C39.5566406,40.4274076 39.6375317,40.2154956 39.7993164,40.046875 C39.9611011,39.8782544 40.1923813,39.7939453 40.4931641,39.7939453 Z M27,9 C31.3272914,9 35.0126181,11.748578 36.4053948,15.5951491 C40.251422,16.9873819 43,20.6727086 43,25 C43,30.5228475 38.5228475,35 33,35 C28.6727086,35 24.9873819,32.251422 23.5946052,28.4048509 C19.748578,27.0126181 17,23.3272914 17,19 C17,13.4771525 21.4771525,9 27,9 Z M33,17 C32.5549283,17 32.1183455,17.0363451 31.6930576,17.1062292 L36.552562,21.9667977 C36.3863736,22.5024849 36.1763656,23.0188917 35.9267286,23.5118276 L29.9970381,17.5827167 C29.3488743,17.8453901 28.742959,18.1905567 28.1923151,18.6051936 L34.8198085,25.2336298 C34.4995785,25.6348157 34.1491203,26.0108122 33.7718832,26.35817 L27.0575965,19.6437976 C26.6042587,20.1464291 26.2137859,20.7068641 25.8985682,21.3127123 L32.1555243,27.5703261 C31.6949406,27.8479883 31.2101521,28.0895716 30.705072,28.2911628 L25.2859047,22.8727853 C25.099541,23.5501288 25,24.2634399 25,25 C25,25.1431021 25.0037573,25.2853267 25.0111787,25.4265804 L28.4769063,28.8916958 C27.9949524,28.9630407 27.5017923,29 27,29 C26.677498,29 26.3585616,28.9847335 26.0438742,28.9548836 C27.4204762,31.3705836 30.0199528,33 33,33 C37.418278,33 41,29.418278 41,25 C41,22.0199528 39.3705836,19.4204762 36.9540743,18.0438937 C36.9847335,18.3585616 37,18.677498 37,19 C37,19.1912851 36.9946292,19.3813157 36.9840302,19.5699494 L34.5697698,17.1539535 C34.0621742,17.0529632 33.5372722,17 33,17 Z M23.129892,23.3840361 L23.0502525,23.4644661 L23.1083042,23.5230937 L23.129892,23.3840361 Z" id="path-1"></path>
    </defs>
    <g id="Screen" stroke="none" stroke-width="1" fill="none" fill-rule="evenodd">
        <g id="Desktop-HD-Copy" transform="translate(-287.000000, -639.000000)">
            <g id="Drag_icon" transform="translate(281.000000, 630.000000)">
                <rect id="Opacity_bounding_box" fill-opacity="0" fill="#D8D8D8" x="-4.54747351e-13" y="-4.26325641e-14" width="60" height="60"></rect>
                <mask id="mask-2" fill="white">
                    <use xlink:href="#path-1"></use>
                </mask>
                <use id="Opacity" fill="#000000" fill-rule="nonzero" xlink:href="#path-1"></use>
            </g>
        </g>
    </g>
</svg>