<svg xmlns="http://www.w3.org/2000/svg" width="40" height="40" viewBox="0 0 40 40">
  <path fill="#C5D2DD" fill-rule="evenodd" d="M7.5,0 C11.6421356,0 15,3.35786438 15,7.5 C15,11.6421356 11.6421356,15 7.5,15 C3.35786438,15 0,11.6421356 0,7.5 C0,3.35786438 3.35786438,0 7.5,0 Z M7.5,1.73076923 C4.31374183,1.73076923 1.73076923,4.31374183 1.73076923,7.5 C1.73076923,10.6862582 4.31374183,13.2692308 7.5,13.2692308 C10.6862582,13.2692308 13.2692308,10.6862582 13.2692308,7.5 C13.2692308,4.31374183 10.6862582,1.73076923 7.5,1.73076923 Z M7.5,3.24102657 C7.97793873,3.24102657 8.36538462,3.62847246 8.36538462,4.10641118 L8.36538462,4.10641118 L8.365,6.634 L10.8935888,6.63461538 C11.334763,6.63461538 11.6988309,6.96474679 11.7522309,7.39144799 L11.7589734,7.5 C11.7589734,7.97793873 11.3715275,8.36538462 10.8935888,8.36538462 L10.8935888,8.36538462 L8.365,8.365 L8.36538462,10.8935888 C8.36538462,11.334763 8.03525321,11.6988309 7.60855201,11.7522309 L7.5,11.7589734 C7.02206127,11.7589734 6.63461538,11.3715275 6.63461538,10.8935888 L6.63461538,10.8935888 L6.634,8.365 L4.10641118,8.36538462 C3.66523697,8.36538462 3.30116909,8.03525321 3.24776914,7.60855201 L3.24102657,7.5 C3.24102657,7.02206127 3.62847246,6.63461538 4.10641118,6.63461538 L4.10641118,6.63461538 L6.634,6.634 L6.63461538,4.10641118 C6.63461538,3.66523697 6.96474679,3.30116909 7.39144799,3.24776914 Z" transform="translate(12.4 12.4)"/>
</svg>
