<svg xmlns="http://www.w3.org/2000/svg" width="40" height="40" viewBox="0 0 40 40">
  <path fill="#C5D2DD" fill-rule="evenodd" d="M1.16723067,0.240665155 C1.62259057,0.240665155 1.99173271,0.600041625 1.99173271,1.04335497 L1.99173271,1.04335497 L1.99172864,10.0656652 L6.13308711,5.23718208 C6.43256571,4.88792438 6.96241468,4.85510297 7.3046386,5.14362962 L7.38604383,5.22245888 L10.3111751,8.47109123 L13.9775021,3.68267737 C13.8696116,3.4487449 13.8095952,3.18934475 13.8095952,2.91629786 C13.8095952,1.88190006 14.6709269,1.04335497 15.7334333,1.04335497 C16.7959397,1.04335497 17.6572714,1.88190006 17.6572714,2.91629786 C17.6572714,3.95069566 16.7959397,4.78924075 15.7334333,4.78924075 C15.5605348,4.78924075 15.3929635,4.76703603 15.2335639,4.72539595 L11.0071112,10.2244614 C10.690442,10.625828 10.0759063,10.6452031 9.73322588,10.2646244 L9.73322588,10.2646244 L6.78134219,6.98628096 L1.99172864,12.5706652 L1.99173271,14.1539552 L16.5579353,14.1539552 C17.0132952,14.1539552 17.3824374,14.5133317 17.3824374,14.956645 C17.3824374,15.3999584 17.0132952,15.7593348 16.5579353,15.7593348 L16.5579353,15.7593348 L1.16723067,15.7593348 C0.71187077,15.7593348 0.342728636,15.3999584 0.342728636,14.956645 L0.342728636,14.956645 L0.342728636,1.04335497 C0.342728636,0.600041625 0.71187077,0.240665155 1.16723067,0.240665155 Z" transform="translate(10.994 11.777)"/>
</svg>
