<svg xmlns="http://www.w3.org/2000/svg" width="40" height="40" viewBox="0 0 40 40">
  <path fill="#C5D2DD" fill-rule="evenodd" d="M9.24545887,1.20653847 C13.4456551,1.72225773 16.4325139,5.54526261 15.9167946,9.74545887 C15.7184096,11.3611753 15.0306259,12.797347 14.0202327,13.9236638 L17.7594771,18.2846351 C18.1220342,18.7075445 18.0731091,19.3442909 17.6501997,19.7068481 C17.2272904,20.0694053 16.5905439,20.0204802 16.2279867,19.5975708 L16.2279867,19.5975708 L12.4876911,15.2361083 C11.0289541,16.1853858 9.24050318,16.6454967 7.37787424,16.4167946 C3.17767798,15.9010754 0.190819218,12.0780705 0.706538472,7.87787424 C1.22225773,3.67767798 5.04526261,0.690819218 9.24545887,1.20653847 Z M2.70874364,8.12371412 C2.328798,11.218123 4.52930524,14.0346438 7.62371412,14.4145895 C10.718123,14.7945351 13.5346438,12.5940279 13.9145895,9.49961898 C14.2945351,6.4052101 12.0940279,3.58868928 8.99961898,3.20874364 C5.9052101,2.828798 3.08868928,5.02930524 2.70874364,8.12371412 Z" transform="translate(10.994 8.733)"/>
</svg>
