<svg xmlns="http://www.w3.org/2000/svg" width="40" height="40" viewBox="0 0 40 40">
  <g fill="none" fill-rule="evenodd" transform="translate(8.154 13)">
    <path fill="#C5D2DD" d="M23.0368108,6.40313239 C23.3325491,6.76228525 23.3221115,7.27981214 23.0121263,7.62705984 C19.3698993,11.7071098 15.7009179,13.7894784 11.9999996,13.7894784 C8.29088722,13.7894784 4.61983681,11.6379462 0.977880281,7.42507071 C0.671292219,7.07042141 0.671673337,6.54828046 0.978778808,6.19406769 C4.35774754,2.29679463 8.02244493,0.278284115 11.9507525,0.212064646 C15.9062719,0.145386467 19.608871,2.24014666 23.0368108,6.40313239 Z M20.8155183,6.74785444 C17.9589527,3.57815457 15.0206176,2.055329 11.9835223,2.10652531 C8.85848494,2.15920405 5.86557857,3.70765749 2.98642916,6.81296653 C6.10139365,10.2261594 9.10843716,11.8947416 11.9999996,11.8947416 C14.8290101,11.8947416 17.7627657,10.3552915 20.7972079,7.21006835 L21.0194198,6.97706337 L20.8155183,6.74785444 Z"/>
    <path fill="#C5D2DD" d="M11.9999996,2.9359315 C14.273675,2.9359315 16.116853,4.75547906 16.116853,7.00000473 C16.116853,9.24453039 14.273675,11.064078 11.9999996,11.064078 C9.72632427,11.064078 7.88314623,9.24453039 7.88314623,7.00000473 C7.88314623,4.75547906 9.72632427,2.9359315 11.9999996,2.9359315 Z M11.9999996,4.83066834 C10.7863486,4.83066834 9.80249004,5.80191333 9.80249004,7.00000473 C9.80249004,8.19809613 10.7863486,9.16934111 11.9999996,9.16934111 C13.2136507,9.16934111 14.1975092,8.19809613 14.1975092,7.00000473 C14.1975092,5.80191333 13.2136507,4.83066834 11.9999996,4.83066834 Z"/>
  </g>
</svg>
