<svg xmlns="http://www.w3.org/2000/svg" width="27" height="27" viewBox="0 0 27 27">
  <path fill="#C5D2DD" fill-rule="evenodd" d="M6,0 C9.3137085,0 12,2.6862915 12,6 C12,9.3137085 9.3137085,12 6,12 C2.6862915,12 0,9.3137085 0,6 C0,2.6862915 2.6862915,0 6,0 Z M6,1.38461538 C3.45099346,1.38461538 1.38461538,3.45099346 1.38461538,6 C1.38461538,8.54900654 3.45099346,10.6153846 6,10.6153846 C8.54900654,10.6153846 10.6153846,8.54900654 10.6153846,6 C10.6153846,3.45099346 8.54900654,1.38461538 6,1.38461538 Z M6,2.59282125 C6.38235098,2.59282125 6.69230769,2.90277797 6.69230769,3.28512895 L6.69230769,3.28512895 L6.692,5.307 L8.71487105,5.30769231 C9.06535945,5.30769231 9.35501656,5.56814204 9.40085879,5.90605795 L9.40717875,6 C9.40717875,6.38235098 9.09722203,6.69230769 8.71487105,6.69230769 L8.71487105,6.69230769 L6.692,6.692 L6.69230769,8.71487105 C6.69230769,9.06535945 6.43185796,9.35501656 6.09394205,9.40085879 L6,9.40717875 C5.61764902,9.40717875 5.30769231,9.09722203 5.30769231,8.71487105 L5.30769231,8.71487105 L5.307,6.692 L3.28512895,6.69230769 C2.93464055,6.69230769 2.64498344,6.43185796 2.59914121,6.09394205 L2.59282125,6 C2.59282125,5.61764902 2.90277797,5.30769231 3.28512895,5.30769231 L3.28512895,5.30769231 L5.307,5.307 L5.30769231,3.28512895 C5.30769231,2.93464055 5.56814204,2.64498344 5.90605795,2.59914121 Z" transform="translate(7.5 7.5)"/>
</svg>
