<svg xmlns="http://www.w3.org/2000/svg" width="27" height="27" viewBox="0 0 27 27">
  <path fill="#C5D2DD" fill-rule="evenodd" d="M0.842999929,0.177764035 C1.17187097,0.177764035 1.43847362,0.443212564 1.43847362,0.770659918 L1.43847362,0.770659918 L1.43752624,7.43576403 L4.4294518,3.86837312 C4.64033465,3.61684805 5.00938115,3.58751384 5.25678584,3.78373315 L5.33436499,3.85749803 L7.44695977,6.25705602 L10.0948375,2.72010368 C10.0169324,2.54732718 9.97359654,2.35574432 9.97359654,2.15408365 C9.97359654,1.39003982 10.5956694,0.770659918 11.3630351,0.770659918 C12.1304009,0.770659918 12.7524738,1.39003982 12.7524738,2.15408365 C12.7524738,2.91812747 12.1304009,3.53750737 11.3630351,3.53750737 C11.2383651,3.53750737 11.11753,3.52115892 11.0025745,3.49049771 L7.94958028,7.55215896 C7.72087478,7.84862296 7.27704341,7.86293411 7.02955203,7.58182486 L7.02955203,7.58182486 L4.89763602,5.16032116 L1.43752624,9.28576403 L1.43847362,10.454626 L11.9585088,10.454626 C12.2873799,10.454626 12.5539825,10.7200745 12.5539825,11.0475219 C12.5539825,11.3749693 12.2873799,11.6404178 11.9585088,11.6404178 L11.9585088,11.6404178 L0.842999929,11.6404178 C0.51412889,11.6404178 0.247526237,11.3749693 0.247526237,11.0475219 L0.247526237,11.0475219 L0.247526237,0.770659918 C0.247526237,0.443212564 0.51412889,0.177764035 0.842999929,0.177764035 Z" transform="translate(7 7.59)"/>
</svg>
