<svg xmlns="http://www.w3.org/2000/svg" width="27" height="27" viewBox="0 0 27 27">
  <path fill="#C5D2DD" fill-rule="evenodd" d="M11.9059629,0.333038839 L11.9058467,3.49003884 L13.7081533,3.49058543 L13.7081533,11.2038349 L13.6740328,11.3060283 C13.3670137,12.2255725 12.3494801,12.5900381 10.7041604,12.5900381 L10.7041604,12.5900381 L10.7045026,12.5852933 L1.49330697,12.5852933 C0.829758768,12.5852933 0.29184667,12.0178256 0.29184667,11.3178187 L0.29184667,0.333038839 L11.9059629,0.333038839 Z M10.7045026,1.60051344 L1.49330697,1.60051344 L1.49330697,11.3178187 L10.7045026,11.3178187 L10.7045026,1.60051344 Z M12.506693,4.75806003 L11.9058467,4.75803884 L11.9073731,11.2199027 C12.1878962,11.159615 12.3734948,11.0776647 12.4700161,10.9875241 L12.506693,10.9474578 L12.506693,4.75806003 Z M9.3027989,9.20536104 C9.52398164,9.20536104 9.70328567,9.44643848 9.70328567,9.74382258 C9.70328567,10.0412067 9.52398164,10.2822841 9.3027989,10.2822841 L9.3027989,10.2822841 L2.89501065,10.2822841 C2.67382792,10.2822841 2.49452388,10.0412067 2.49452388,9.74382258 C2.49452388,9.44643848 2.67382792,9.20536104 2.89501065,9.20536104 L2.89501065,9.20536104 Z M9.3027989,7.09290337 C9.52398164,7.09290337 9.70328567,7.33398081 9.70328567,7.63136491 C9.70328567,7.92874901 9.52398164,8.16982645 9.3027989,8.16982645 L9.3027989,8.16982645 L2.89501065,8.16982645 C2.67382792,8.16982645 2.49452388,7.92874901 2.49452388,7.63136491 C2.49452388,7.33398081 2.67382792,7.09290337 2.89501065,7.09290337 L2.89501065,7.09290337 Z M9.3027989,4.98044571 C9.52398164,4.98044571 9.70328567,5.22152315 9.70328567,5.51890724 C9.70328567,5.81629134 9.52398164,6.05736878 9.3027989,6.05736878 L9.3027989,6.05736878 L6.89987831,6.05736878 C6.67869558,6.05736878 6.49939154,5.81629134 6.49939154,5.51890724 C6.49939154,5.22152315 6.67869558,4.98044571 6.89987831,4.98044571 L6.89987831,4.98044571 Z M5.39866139,2.86798804 C5.67480377,2.86798804 5.89866139,3.09184566 5.89866139,3.36798804 L5.89866139,5.32542877 C5.89866139,5.60157115 5.67480377,5.82542877 5.39866139,5.82542877 L3.19476727,5.82542877 C2.91862489,5.82542877 2.69476727,5.60157115 2.69476727,5.32542877 L2.69476727,3.36798804 C2.69476727,3.09184566 2.91862489,2.86798804 3.19476727,2.86798804 L5.39866139,2.86798804 Z M9.3027989,2.86798804 C9.52398164,2.86798804 9.70328567,3.10906548 9.70328567,3.40644958 C9.70328567,3.70383367 9.52398164,3.94491112 9.3027989,3.94491112 L9.3027989,3.94491112 L6.89987831,3.94491112 C6.67869558,3.94491112 6.49939154,3.70383367 6.49939154,3.40644958 C6.49939154,3.10906548 6.67869558,2.86798804 6.89987831,2.86798804 L6.89987831,2.86798804 Z" transform="translate(6.5 7.038)"/>
</svg>
