<svg xmlns="http://www.w3.org/2000/svg" width="27" height="27" viewBox="0 0 27 27">
  <path fill="#C5D2DD" fill-rule="evenodd" d="M9,3 C12.3137085,3 15,5.6862915 15,9 C15,12.3137085 12.3137085,15 9,15 C5.6862915,15 3,12.3137085 3,9 C3,5.6862915 5.6862915,3 9,3 Z M9,4.38461538 C6.45099346,4.38461538 4.38461538,6.45099346 4.38461538,9 C4.38461538,11.5490065 6.45099346,13.6153846 9,13.6153846 C11.5490065,13.6153846 13.6153846,11.5490065 13.6153846,9 C13.6153846,6.45099346 11.5490065,4.38461538 9,4.38461538 Z M9,5.59282125 C9.38235098,5.59282125 9.69230769,5.90277797 9.69230769,6.28512895 L9.69230769,6.28512895 L9.692,8.307 L11.7148711,8.30769231 C12.0653595,8.30769231 12.3550166,8.56814204 12.4008588,8.90605795 L12.4071787,9 C12.4071787,9.38235098 12.097222,9.69230769 11.7148711,9.69230769 L11.7148711,9.69230769 L9.692,9.692 L9.69230769,11.7148711 C9.69230769,12.0653595 9.43185796,12.3550166 9.09394205,12.4008588 L9,12.4071787 C8.61764902,12.4071787 8.30769231,12.097222 8.30769231,11.7148711 L8.30769231,11.7148711 L8.307,9.692 L6.28512895,9.69230769 C5.93464055,9.69230769 5.64498344,9.43185796 5.59914121,9.09394205 L5.59282125,9 C5.59282125,8.61764902 5.90277797,8.30769231 6.28512895,8.30769231 L6.28512895,8.30769231 L8.307,8.307 L8.30769231,6.28512895 C8.30769231,5.93464055 8.56814204,5.64498344 8.90605795,5.59914121 Z" transform="rotate(45 5.818 16.682)"/>
</svg>
