<svg xmlns="http://www.w3.org/2000/svg" width="27" height="27" viewBox="0 0 27 27">
  <path fill="#C5D2DD" fill-rule="evenodd" d="M16.317741,4.96214538 C16.5272223,5.2074596 16.519829,5.56094895 16.3002562,5.79813154 C13.7203453,8.58495137 11.1214835,10.0072835 8.49999973,10.0072835 C5.87271178,10.0072835 3.27238441,8.5377102 0.692665199,5.66016575 C0.475498655,5.41792761 0.475768614,5.06128669 0.693301656,4.81934672 C3.08673784,2.15737003 5.68256516,0.77865526 8.46511636,0.733424997 C11.2669426,0.68788142 13.889617,2.11867745 16.317741,4.96214538 Z M8.48832829,2.02740929 C6.27476016,2.06339075 4.15478482,3.12103975 2.11538732,5.24207673 C4.3218205,7.57340933 6.45180965,8.71311057 8.49999973,8.71311057 C10.5038821,8.71311057 12.581959,7.6616112 14.7313556,5.51331146 L14.8887557,5.35416073 L14.7443254,5.19760285 C12.7209248,3.03258463 10.6396041,1.99244038 8.48832829,2.02740929 Z M8.49999973,2.59392334 C10.1105198,2.59392334 11.4161042,3.83673931 11.4161042,5.3698305 C11.4161042,6.90292169 10.1105198,8.14573766 8.49999973,8.14573766 C6.88947969,8.14573766 5.58389524,6.90292169 5.58389524,5.3698305 C5.58389524,3.83673931 6.88947969,2.59392334 8.49999973,2.59392334 Z M8.49999973,3.88809627 C7.64033025,3.88809627 6.94343044,4.55149128 6.94343044,5.3698305 C6.94343044,6.18816972 7.64033025,6.85156473 8.49999973,6.85156473 C9.35966921,6.85156473 10.056569,6.18816972 10.056569,5.3698305 C10.056569,4.55149128 9.35966921,3.88809627 8.49999973,3.88809627 Z" transform="translate(5.5 8.5)"/>
</svg>
