<svg version="1.1" id="Layer_1" xmlns="http://www.w3.org/2000/svg" xmlns:xlink="http://www.w3.org/1999/xlink" x="0px" y="0px"
	 width="442.78px" height="179.144px" viewBox="0 0 442.78 179.144" enable-background="new 0 0 442.78 179.144"
	 xml:space="preserve">
<g>
	<path fill="#FFFFFF" d="M89.307,117.439c0.098-0.195,0.196-0.195,0.294-0.02l5.917,13.44c0.078,0.157,0.059,0.255-0.118,0.255
		h-1.273c-0.176,0-0.235-0.02-0.294-0.177l-1.352-3.154h-6.034l-1.352,3.154c-0.079,0.157-0.118,0.177-0.313,0.177h-1.333
		c-0.117,0-0.137-0.098-0.059-0.274L89.307,117.439z M87.112,126.236h4.702l-2.253-5.309c-0.079-0.157-0.118-0.157-0.177-0.021
		L87.112,126.236z"/>
	<path fill="#FFFFFF" d="M101.063,131.115c-0.274,0-0.333-0.039-0.333-0.313v-13.205c0-0.118,0.02-0.196,0.137-0.196h1.273
		c0.216,0,0.255,0.078,0.255,0.274v11.736c0,0.098,0.02,0.098,0.098,0.098H107c0.176,0,0.216,0.059,0.216,0.235v1.136
		c0,0.177-0.04,0.235-0.216,0.235H101.063z"/>
	<path fill="#FFFFFF" d="M115.622,131.115c-0.157,0-0.196-0.02-0.196-0.216v-11.774c0-0.157,0-0.196-0.157-0.196h-4.31
		c-0.157,0-0.196-0.02-0.196-0.156v-1.195c0-0.138,0.04-0.177,0.177-0.177h10.697c0.137,0,0.196,0.02,0.196,0.157v1.215
		c0,0.137-0.059,0.156-0.196,0.156h-4.33c-0.137,0-0.157,0.039-0.157,0.157v11.774c0,0.177-0.02,0.255-0.157,0.255H115.622z"/>
	<path fill="#FFFFFF" d="M132.825,117.145c3.918,0,7.131,3.175,7.131,7.093c0,3.919-3.213,7.073-7.131,7.073
		c-3.958,0-7.151-3.154-7.151-7.073C125.674,120.32,128.867,117.145,132.825,117.145z M132.825,129.763
		c3.037,0,5.486-2.469,5.486-5.525s-2.449-5.545-5.486-5.545c-3.057,0-5.525,2.488-5.525,5.545S129.769,129.763,132.825,129.763z"/>
	<path fill="#FFFFFF" d="M152.105,129.763c1.391,0,2.605-0.235,3.409-0.686v-4.389c0-0.177-0.04-0.255-0.196-0.255h-3.742
		c-0.137,0-0.196-0.06-0.196-0.216v-1.098c0-0.137,0.118-0.215,0.235-0.215h5.231c0.274,0,0.313,0.059,0.313,0.255v6.622
		c0,0.255-0.02,0.313-0.274,0.45c-1.234,0.627-3.095,1.078-4.878,1.078c-3.938-0.02-7.073-2.92-7.073-7.073s3.213-7.093,7.229-7.093
		c1.666,0,3.194,0.412,4.526,1.117c0.157,0.078,0.215,0.137,0.215,0.294v1.176c0,0.137-0.098,0.215-0.313,0.059
		c-1.097-0.666-2.664-1.098-4.428-1.098c-3.292,0-5.544,2.488-5.544,5.545S149.068,129.763,152.105,129.763z"/>
	<path fill="#FFFFFF" d="M164.274,117.557c0-0.138,0.059-0.157,0.176-0.157h6.76c0.196,0,0.254,0.039,0.254,0.177v1.155
		c0,0.157-0.02,0.196-0.215,0.196h-5.29c-0.02,0-0.039,0-0.039,0.039v4.252c0,0.039,0,0.059,0.059,0.059h5.31
		c0.118,0,0.176,0.078,0.176,0.235v0.979c0,0.255-0.059,0.313-0.196,0.313h-5.271c-0.059,0-0.078,0.02-0.078,0.078v4.644
		c0,0.039,0.02,0.059,0.059,0.059h5.329c0.157,0,0.157,0.098,0.157,0.294v0.979c0,0.157-0.078,0.255-0.254,0.255h-6.72
		c-0.157,0-0.216-0.02-0.216-0.196V117.557z"/>
	<path fill="#FFFFFF" d="M181.732,131.115c-0.157,0-0.196-0.02-0.196-0.216v-11.774c0-0.157,0-0.196-0.157-0.196h-4.31
		c-0.157,0-0.196-0.02-0.196-0.156v-1.195c0-0.138,0.04-0.177,0.177-0.177h10.697c0.137,0,0.196,0.02,0.196,0.157v1.215
		c0,0.137-0.059,0.156-0.196,0.156h-4.33c-0.137,0-0.157,0.039-0.157,0.157v11.774c0,0.177-0.02,0.255-0.157,0.255H181.732z"/>
	<path fill="#FFFFFF" d="M193.9,131.115c-0.157,0-0.216-0.039-0.216-0.177v-13.322c0-0.177,0.059-0.216,0.196-0.216h1.293
		c0.118,0,0.176,0.059,0.176,0.177v5.643c0,0.059,0,0.078,0.039,0.078h6.132c0.059,0,0.079-0.039,0.079-0.098v-5.623
		c0-0.118,0.078-0.177,0.215-0.177h1.215c0.176,0,0.235,0.118,0.235,0.255v13.264c0,0.118-0.059,0.196-0.177,0.196h-1.214
		c-0.216,0-0.274-0.059-0.274-0.255v-5.897c0-0.078-0.039-0.117-0.118-0.117h-6.074c-0.039,0-0.059,0.02-0.059,0.059v5.995
		c0,0.157-0.059,0.216-0.196,0.216H193.9z"/>
	<path fill="#FFFFFF" d="M209.967,117.557c0-0.138,0.059-0.157,0.176-0.157h6.76c0.196,0,0.255,0.039,0.255,0.177v1.155
		c0,0.157-0.02,0.196-0.216,0.196h-5.29c-0.02,0-0.039,0-0.039,0.039v4.252c0,0.039,0,0.059,0.059,0.059h5.31
		c0.118,0,0.177,0.078,0.177,0.235v0.979c0,0.255-0.059,0.313-0.196,0.313h-5.271c-0.059,0-0.078,0.02-0.078,0.078v4.644
		c0,0.039,0.02,0.059,0.059,0.059h5.329c0.157,0,0.157,0.098,0.157,0.294v0.979c0,0.157-0.078,0.255-0.255,0.255h-6.72
		c-0.157,0-0.216-0.02-0.216-0.196V117.557z"/>
	<path fill="#FFFFFF" d="M226.622,117.4c3.801,0,4.977,1.47,4.977,3.82c0,1.822-0.667,3.233-2.508,3.821l4.741,5.818
		c0.078,0.099,0.098,0.255-0.117,0.255h-1.549c-0.156,0-0.215-0.059-0.312-0.177l-4.585-5.603h-1.842
		c-0.196,0-0.216,0.059-0.216,0.215v5.329c0,0.138-0.02,0.235-0.176,0.235h-1.273c-0.156,0-0.196-0.059-0.196-0.235v-13.244
		c0-0.196,0.079-0.235,0.235-0.235H226.622z M225.211,123.591c0,0.196,0.02,0.235,0.196,0.235h1.273
		c2.175,0,3.194-0.745,3.194-2.469c0-1.764-1.059-2.43-3.214-2.43h-1.234c-0.196,0-0.216,0.02-0.216,0.216V123.591z"/>
	<path fill="#FFFFFF" d="M251.996,131.311c-1.234,0-2.429-0.274-3.154-0.646c-0.176-0.099-0.195-0.157-0.195-0.313v-1.254
		c0-0.118,0.098-0.138,0.215-0.079c0.765,0.529,1.842,0.823,2.803,0.823c1.979,0,2.958-0.823,2.958-2.43
		c0-1.979-1.646-2.586-3.135-3.252c-1.47-0.666-2.704-1.548-2.704-3.723c0-1.979,1.293-3.232,3.703-3.232
		c1.195,0,2.194,0.273,2.821,0.627c0.118,0.078,0.157,0.156,0.157,0.273v1.215c0,0.099-0.118,0.138-0.196,0.079
		c-0.666-0.471-1.45-0.765-2.488-0.765c-1.626,0-2.331,0.745-2.331,1.9c0,1.431,1.136,1.92,2.469,2.547
		c1.547,0.726,3.311,1.607,3.311,4.291C256.229,130.135,254.484,131.311,251.996,131.311z"/>
	<path fill="#FFFFFF" d="M273.804,131.115c-0.157,0-0.196-0.039-0.196-0.255v-9.6c0-0.138-0.098-0.118-0.176-0.021l-4.604,5.428
		c-0.196,0.215-0.313,0.215-0.47,0.039l-4.624-5.446c-0.118-0.118-0.216-0.079-0.216,0.137v9.502c0,0.177-0.02,0.216-0.156,0.216
		h-1.215c-0.196,0-0.235-0.059-0.235-0.235v-13.421c0-0.176,0.157-0.156,0.216-0.098l6.27,7.093
		c0.156,0.195,0.215,0.195,0.353,0.059l6.19-7.054c0.157-0.176,0.275-0.098,0.275,0.079v13.381c0,0.138-0.02,0.196-0.157,0.196
		H273.804z"/>
	<path fill="#FFFFFF" d="M286.031,117.439c0.098-0.195,0.195-0.195,0.294-0.02l5.917,13.44c0.078,0.157,0.059,0.255-0.117,0.255
		h-1.273c-0.177,0-0.236-0.02-0.295-0.177l-1.352-3.154h-6.034l-1.353,3.154c-0.078,0.157-0.117,0.177-0.312,0.177h-1.333
		c-0.117,0-0.137-0.098-0.059-0.274L286.031,117.439z M283.837,126.236h4.702l-2.253-5.309c-0.079-0.157-0.118-0.157-0.177-0.021
		L283.837,126.236z"/>
	<path fill="#FFFFFF" d="M300.903,117.4c3.801,0,4.977,1.47,4.977,3.82c0,1.822-0.667,3.233-2.508,3.821l4.741,5.818
		c0.078,0.099,0.098,0.255-0.117,0.255h-1.549c-0.156,0-0.215-0.059-0.312-0.177l-4.585-5.603h-1.842
		c-0.196,0-0.216,0.059-0.216,0.215v5.329c0,0.138-0.02,0.235-0.176,0.235h-1.273c-0.156,0-0.196-0.059-0.196-0.235v-13.244
		c0-0.196,0.079-0.235,0.235-0.235H300.903z M299.492,123.591c0,0.196,0.02,0.235,0.196,0.235h1.273
		c2.175,0,3.194-0.745,3.194-2.469c0-1.764-1.059-2.43-3.214-2.43h-1.234c-0.196,0-0.216,0.02-0.216,0.216V123.591z"/>
	<path fill="#FFFFFF" d="M316.285,131.115c-0.157,0-0.196-0.02-0.196-0.216v-11.774c0-0.157,0-0.196-0.157-0.196h-4.31
		c-0.157,0-0.196-0.02-0.196-0.156v-1.195c0-0.138,0.039-0.177,0.177-0.177H322.3c0.138,0,0.196,0.02,0.196,0.157v1.215
		c0,0.137-0.059,0.156-0.196,0.156h-4.33c-0.138,0-0.157,0.039-0.157,0.157v11.774c0,0.177-0.02,0.255-0.156,0.255H316.285z"/>
	<path fill="#FFFFFF" d="M327.885,117.557c0-0.138,0.059-0.157,0.177-0.157h6.759c0.196,0,0.255,0.039,0.255,0.177v1.155
		c0,0.157-0.02,0.196-0.216,0.196h-5.289c-0.02,0-0.039,0-0.039,0.039v4.252c0,0.039,0,0.059,0.059,0.059h5.309
		c0.118,0,0.177,0.078,0.177,0.235v0.979c0,0.255-0.059,0.313-0.196,0.313h-5.27c-0.059,0-0.078,0.02-0.078,0.078v4.644
		c0,0.039,0.02,0.059,0.059,0.059h5.328c0.157,0,0.157,0.098,0.157,0.294v0.979c0,0.157-0.078,0.255-0.255,0.255h-6.72
		c-0.157,0-0.216-0.02-0.216-0.196V117.557z"/>
	<path fill="#FFFFFF" d="M344.148,117.4c3.801,0,4.977,1.47,4.977,3.82c0,1.822-0.667,3.233-2.508,3.821l4.74,5.818
		c0.078,0.099,0.099,0.255-0.117,0.255h-1.548c-0.157,0-0.216-0.059-0.313-0.177l-4.584-5.603h-1.842
		c-0.196,0-0.216,0.059-0.216,0.215v5.329c0,0.138-0.02,0.235-0.177,0.235h-1.273c-0.156,0-0.195-0.059-0.195-0.235v-13.244
		c0-0.196,0.078-0.235,0.234-0.235H344.148z M342.737,123.591c0,0.196,0.02,0.235,0.196,0.235h1.273
		c2.174,0,3.193-0.745,3.193-2.469c0-1.764-1.059-2.43-3.213-2.43h-1.234c-0.196,0-0.216,0.02-0.216,0.216V123.591z"/>
	<path fill="#FFFFFF" d="M37.156,73.841c-4.16,0-6.737-1.176-7.686-1.719c-0.859-0.994-1.447-4.249-1.447-7.324
		c0.316-0.587,1.356-0.633,1.718-0.136c0.904,2.939,3.934,7.099,7.776,7.099c3.346,0,4.883-2.306,4.883-4.566
		c0-3.662-3.436-5.832-6.148-7.188c-3.255-1.628-6.827-4.341-6.827-8.816c-0.045-5.109,3.934-8.636,10.489-8.636
		c1.492,0,3.346,0.182,5.154,0.724c0.587,0.181,0.995,0.271,1.537,0.361c0.361,0.995,0.813,3.437,0.813,6.466
		c-0.226,0.542-1.356,0.588-1.763,0.136c-0.769-2.306-2.712-5.606-5.968-5.606c-2.984,0-4.612,1.944-4.612,4.205
		c0,2.079,1.854,3.979,4.114,5.153l2.984,1.583c2.803,1.492,6.375,4.114,6.375,9.087C48.549,70.224,43.983,73.841,37.156,73.841z"/>
	<path fill="#FFFFFF" d="M88.43,43.73c0,0.813,0.136,4.431,0.542,7.053c-0.181,0.543-1.401,0.724-1.718,0.316
		c-1.221-4.204-4.114-6.465-8.5-6.465c-5.019,0-10.398,4.295-10.398,13.292s5.199,13.835,10.625,13.835
		c5.471,0,8.002-3.934,9.223-7.008c0.362-0.361,1.447-0.226,1.718,0.316c-0.316,3.346-1.085,6.059-1.718,7.099
		c-2.441,0.678-5.651,1.673-9.178,1.673c-4.431,0-8.952-1.04-12.162-3.437c-3.255-2.486-5.742-6.239-5.742-11.846
		c0-5.516,2.351-9.403,5.471-11.98c3.21-2.668,7.821-4.024,12.523-4.024C83.729,42.554,87.074,43.639,88.43,43.73z"/>
	<path fill="#FFFFFF" d="M133.918,58.062c0,9.856-6.601,15.779-16.321,15.779c-9.088,0-15.688-5.968-15.688-15.417
		c0-8.952,6.691-15.87,16.141-15.87C127.453,42.554,133.918,48.884,133.918,58.062z M117.687,44.634
		c-5.561,0-8.545,5.199-8.545,12.75c0,5.516,1.944,14.377,9.313,14.377c5.923,0,8.229-5.787,8.229-13.111
		C126.684,50.918,123.293,44.634,117.687,44.634z"/>
	<path fill="#FFFFFF" d="M156.303,46.668c0-1.085,0-1.311-1.085-1.311h-2.803c-3.3,0-4.25,1.809-5.606,5.108
		c-0.542,0.271-1.402,0.181-1.673-0.406c0.949-3.12,1.175-5.923,1.492-7.687c0.181-0.136,0.407-0.226,0.633-0.226
		s0.452,0.045,0.633,0.181c0.226,0.769,0.362,0.949,3.798,0.949h16.819c2.984,0,3.662-0.045,4.069-0.994
		c0.181-0.091,0.316-0.136,0.588-0.136c0.271,0,0.588,0.181,0.678,0.316c-0.452,1.537-0.769,5.199-0.678,7.776
		c-0.226,0.406-1.447,0.497-1.673,0.136c-0.769-2.894-1.402-5.019-4.792-5.019h-2.713c-1.085,0-1.221,0.136-1.221,1.311v19.938
		c0,4.205,0.271,4.566,2.306,4.838l1.808,0.227c0.316,0.271,0.316,1.311,0,1.582c-2.938-0.091-5.199-0.136-7.234-0.136
		c-2.17,0-4.521,0.045-7.686,0.136c-0.361-0.271-0.361-1.312,0-1.582l2.035-0.227c2.035-0.226,2.306-0.633,2.306-4.838V46.668z"/>
	<path fill="#FFFFFF" d="M196.229,46.668c0-1.085,0-1.311-1.085-1.311h-2.803c-3.3,0-4.25,1.809-5.606,5.108
		c-0.542,0.271-1.402,0.181-1.673-0.406c0.949-3.12,1.175-5.923,1.492-7.687c0.181-0.136,0.407-0.226,0.633-0.226
		s0.452,0.045,0.633,0.181c0.226,0.769,0.362,0.949,3.798,0.949h16.819c2.984,0,3.662-0.045,4.069-0.994
		c0.181-0.091,0.316-0.136,0.588-0.136c0.271,0,0.588,0.181,0.678,0.316c-0.452,1.537-0.769,5.199-0.678,7.776
		c-0.226,0.406-1.447,0.497-1.673,0.136c-0.769-2.894-1.401-5.019-4.792-5.019h-2.713c-1.085,0-1.221,0.136-1.221,1.311v19.938
		c0,4.205,0.271,4.566,2.306,4.838l1.808,0.227c0.317,0.271,0.317,1.311,0,1.582c-2.938-0.091-5.199-0.136-7.234-0.136
		c-2.17,0-4.521,0.045-7.686,0.136c-0.361-0.271-0.361-1.312,0-1.582l2.035-0.227c2.035-0.226,2.306-0.633,2.306-4.838V46.668z"/>
	<text transform="matrix(1 0 0 1 223.9092 73.1177)" fill="#1D1D1B" font-family="'AGaramondPro-Bold'" font-size="31.6523"> </text>
	<path fill="#FFFFFF" d="M240.615,50.06c0-4.748-0.09-5.471-2.938-5.697l-1.13-0.09c-0.271-0.182-0.182-0.995,0.09-1.131
		c2.532,0.091,4.069,0.136,5.878,0.136c1.763,0,3.3-0.045,5.562-0.136c0.271,0.136,0.361,0.949,0.09,1.131l-1.085,0.09
		c-2.667,0.227-2.758,0.949-2.758,5.697v15.733c0,2.849,0.136,4.023,0.949,4.883c0.497,0.497,1.356,1.04,4.929,1.04
		c3.842,0,4.792-0.181,5.516-0.588c0.904-0.543,2.08-2.17,2.983-4.476c0.271-0.227,1.13-0.046,1.13,0.271
		c0,0.498-1.266,5.109-1.898,6.33c-2.306-0.091-6.601-0.136-11.258-0.136h-4.159c-1.899,0-3.346,0.045-5.878,0.136
		c-0.271-0.136-0.361-0.859-0.09-1.131l1.355-0.135c2.623-0.271,2.713-0.904,2.713-5.652V50.06z"/>
	<path fill="#FFFFFF" d="M270.008,58.514c0-9.042,6.781-15.96,16.096-15.96c10.443,0,15.688,7.551,15.688,15.508
		c0,9.133-6.963,15.779-15.688,15.779C276.066,73.841,270.008,66.653,270.008,58.514z M297.27,59.463
		c0-7.46-3.3-15.507-11.936-15.507c-4.701,0-10.805,3.21-10.805,13.111c0,6.691,3.254,15.372,12.161,15.372
		C292.116,72.44,297.27,68.371,297.27,59.463z"/>
	<path fill="#FFFFFF" d="M340.362,68.506c0,1.809,0.271,2.894,1.085,3.21c0.136,0.136,0.136,0.406-0.045,0.542
		c-0.543,0-1.356,0.182-2.216,0.407c-2.396,0.633-5.651,1.176-8.093,1.176c-5.381,0-10.309-1.492-13.789-5.019
		c-2.713-2.713-4.16-6.284-4.16-10.264c0-3.843,1.266-7.73,4.069-10.715c3.029-3.165,7.505-5.29,14.332-5.29
		c2.577,0,4.974,0.498,5.741,0.679c0.859,0.181,2.262,0.497,2.804,0.406c0,1.492,0.271,3.844,0.679,6.556
		c-0.137,0.362-0.949,0.407-1.221,0.136c-1.267-4.883-4.657-6.42-9.27-6.42c-8.771,0-12.613,6.239-12.613,13.021
		c0,8.681,4.476,15.508,13.563,15.508c2.804,0,4.476-0.588,4.974-1.356c0.226-0.316,0.451-1.131,0.451-2.577v-1.809
		c0-3.798-0.135-4.069-2.938-4.386l-1.989-0.226c-0.361-0.182-0.316-0.995,0-1.131c1.312,0.091,3.798,0.136,6.465,0.136
		c1.764,0,3.301-0.045,4.793-0.136c0.316,0.181,0.361,0.859,0.045,1.131l-0.723,0.09c-1.899,0.227-1.944,1.492-1.944,3.798V68.506z"
		/>
	<path fill="#FFFFFF" d="M359.627,50.15c0-4.792-0.09-5.561-2.758-5.787l-1.13-0.09c-0.271-0.182-0.181-0.995,0.091-1.131
		c2.26,0.091,3.797,0.136,5.696,0.136c1.809,0,3.346-0.045,5.606-0.136c0.271,0.136,0.361,0.949,0.09,1.131l-1.13,0.09
		c-2.667,0.227-2.758,0.995-2.758,5.787v16.096c0,4.792,0.091,5.426,2.758,5.742l1.13,0.135c0.271,0.182,0.182,0.995-0.09,1.131
		c-2.261-0.091-3.798-0.136-5.606-0.136c-1.899,0-3.437,0.045-5.696,0.136c-0.271-0.136-0.362-0.859-0.091-1.131l1.13-0.135
		c2.668-0.316,2.758-0.95,2.758-5.742V50.15z"/>
	<path fill="#FFFFFF" d="M384.451,46.398c3.301-2.577,7.506-3.844,12.207-3.844c2.441,0,5.878,0.498,8.003,1.085
		c0.542,0.136,0.859,0.227,1.267,0.182c0.045,1.039,0.271,3.888,0.633,6.646c-0.227,0.316-0.904,0.362-1.221,0.091
		c-0.679-3.074-2.713-6.601-9.269-6.601c-6.917,0-12.795,4.385-12.795,13.744c0,9.494,6.013,14.739,13.428,14.739
		c5.832,0,8.409-3.798,9.449-6.466c0.316-0.226,0.995-0.136,1.175,0.181c-0.316,2.352-1.491,5.335-2.17,6.194
		c-0.542,0.091-1.084,0.271-1.582,0.452c-0.994,0.361-4.25,1.04-7.144,1.04c-4.069,0-7.957-0.814-11.258-3.029
		c-3.616-2.486-6.42-6.601-6.42-12.434C378.755,53.36,381.016,49.065,384.451,46.398z"/>
	<rect x="28.078" y="94.339" fill="#FFFFFF" width="379.843" height="0.754"/>
</g>
</svg>
