<svg xmlns="http://www.w3.org/2000/svg" xmlns:xlink="http://www.w3.org/1999/xlink" width="1224" height="913" viewBox="0 0 1224 913">
  <defs>
    <path id="chart-ref-a" d="M12.8564453,35.4667969 C13.8636118,35.4667969 14.6417616,35.7880827 15.190918,36.4306641 C15.7400744,37.0732454 16.0146484,37.982416 16.0146484,39.1582031 L16.0146484,39.828125 L11.1816406,39.828125 C11.2317711,40.4388051 11.4357078,40.9218732 11.793457,41.2773438 C12.1512062,41.6328143 12.6012343,41.8105469 13.1435547,41.8105469 C13.9046262,41.8105469 14.5244117,41.5029328 15.0029297,40.8876953 L15.8984375,41.7421875 C15.6022121,42.184247 15.206871,42.5271798 14.7124023,42.7709961 C14.2179337,43.0148124 13.663089,43.1367188 13.0478516,43.1367188 C11.9951119,43.1367188 11.1417676,42.8051791 10.487793,42.1420898 C9.83381834,41.4790006 9.50683594,40.5960342 9.50683594,39.4931641 L9.50683594,39.2880859 C9.50683594,38.549801 9.64924988,37.8901396 9.93408203,37.309082 C10.2189142,36.7280244 10.6188125,36.2757178 11.1337891,35.9521484 C11.6487656,35.6285791 12.2229786,35.4667969 12.8564453,35.4667969 Z M30.4726562,35.4667969 C31.3567753,35.4667969 32.0711236,35.6855447 32.6157227,36.1230469 C33.1603217,36.5605491 33.4326172,37.1279262 33.4326172,37.8251953 L31.7714844,37.8251953 C31.7714844,37.5061833 31.652996,37.2407237 31.4160156,37.0288086 C31.1790353,36.8168935 30.8645853,36.7109375 30.4726562,36.7109375 C30.1080711,36.7109375 29.8107108,36.7952466 29.5805664,36.9638672 C29.350422,37.1324878 29.2353516,37.3580715 29.2353516,37.640625 C29.2353516,37.8958346 29.3424468,38.0940748 29.5566406,38.2353516 C29.7232358,38.3452335 30.0221579,38.4558033 30.4534132,38.5670631 L30.8554688,38.6625977 C31.5071647,38.8061531 32.0187156,38.9770498 32.3901367,39.175293 C32.7615578,39.3735361 33.0372712,39.6116523 33.2172852,39.8896484 C33.3972991,40.1676446 33.4873047,40.5048808 33.4873047,40.9013672 C33.4873047,41.5667351 33.2115913,42.1056294 32.6601562,42.5180664 C32.1087212,42.9305034 31.3863977,43.1367188 30.4931641,43.1367188 C29.8870412,43.1367188 29.3470076,43.0273448 28.8730469,42.8085938 C28.3990862,42.5898427 28.0299492,42.2890644 27.765625,41.90625 C27.5013008,41.5234356 27.3691406,41.1110048 27.3691406,40.6689453 L28.9824219,40.6689453 C29.0052084,41.0608744 29.1533189,41.3627919 29.4267578,41.574707 C29.7001967,41.7866222 30.0624977,41.8925781 30.5136719,41.8925781 C30.9511741,41.8925781 31.283853,41.8094084 31.5117188,41.6430664 C31.7395845,41.4767244 31.8535156,41.2591159 31.8535156,40.9902344 C31.8535156,40.6940089 31.7316093,40.4684253 31.487793,40.3134766 C31.2744537,40.1778965 30.938125,40.0562747 30.4787987,39.9486085 L30.2744141,39.9033203 C29.7093071,39.7848301 29.2376321,39.634441 28.859375,39.4521484 C28.0299438,39.0511048 27.6152344,38.4700559 27.6152344,37.7089844 C27.6152344,37.0709604 27.8841119,36.5377626 28.421875,36.109375 C28.9596381,35.6809874 29.643225,35.4667969 30.4726562,35.4667969 Z M1.74121094,33.046875 L6.19140625,40.1357422 L6.19140625,33.046875 L7.90722656,33.046875 L7.90722656,43 L6.17773438,43 L1.74121094,35.9384766 L1.74121094,43 L0.01171875,43 L0.01171875,33.046875 L1.74121094,33.046875 Z M18.2978516,35.6035156 L19.4941406,40.6552734 L21.0117188,35.6035156 L22.2626953,35.6035156 L23.8007188,40.708 L24.9765625,35.6035156 L26.5966797,35.6035156 L24.5800781,43 L23.2128906,43 L21.6269531,37.9208984 L20.0683594,43 L18.7011719,43 L16.6777344,35.6035156 L18.2978516,35.6035156 Z M12.8496094,36.7998047 C12.3938779,36.7998047 12.0258803,36.9593083 11.7456055,37.2783203 C11.4653306,37.5973323 11.2864587,38.0416638 11.2089844,38.6113281 L14.3740234,38.6113281 L14.3740234,38.4882812 C14.3375649,37.9322889 14.1894544,37.5118829 13.9296875,37.2270508 C13.6699206,36.9422186 13.3098981,36.7998047 12.8496094,36.7998047 Z M26,4 L26,10 L30,10 L30,24 C30,25.1045695 29.1045695,26 28,26 L6,26 C4.8954305,26 4,25.1045695 4,24 L4,4 L26,4 Z M27.999,12 L26,12 L26,24 L28,24 L27.999,12 Z M24,6 L6,6 L6,24 L24,24 L24,6 Z M22,20 L22,22 L8,22 L8,20 L22,20 Z M22,16 L22,18 L8,18 L8,16 L22,16 Z M14,8 L14,14 L8,14 L8,8 L14,8 Z M22,12 L22,14 L16,14 L16,12 L22,12 Z M22,8 L22,10 L16,10 L16,8 L22,8 Z"/>
    <path id="chart-ref-c" d="M15.9140625,35.4667969 C16.7799522,35.4667969 17.470375,35.6844054 17.9853516,36.1196289 C18.5003281,36.5548524 18.7646484,37.1666627 18.7783203,37.9550781 L18.7783203,41.2910156 C18.7783203,41.9563835 18.8717439,42.4873027 19.0585938,42.8837891 L19.0585938,43 L17.3632812,43 C17.2903642,42.8587233 17.2265628,42.6285823 17.171875,42.3095703 C16.6432265,42.8610054 15.9960976,43.1367188 15.2304688,43.1367188 C14.4876265,43.1367188 13.8815128,42.9248068 13.4121094,42.5009766 C12.942706,42.0771463 12.7080078,41.553063 12.7080078,40.9287109 C12.7080078,40.1402955 13.0008109,39.5353211 13.5864258,39.1137695 C14.1720407,38.6922179 15.0094347,38.4814453 16.0986328,38.4814453 L17.1171875,38.4814453 L17.1171875,37.9960938 C17.1171875,37.6132793 17.0100922,37.3068045 16.7958984,37.0766602 C16.5817047,36.8465158 16.2558616,36.7314453 15.8183594,36.7314453 C15.4401023,36.7314453 15.1302095,36.8260082 14.8886719,37.0151367 C14.6471342,37.2042653 14.5263672,37.44466 14.5263672,37.7363281 L12.8652344,37.7363281 C12.8652344,37.3307271 12.9996731,36.9513364 13.2685547,36.5981445 C13.5374362,36.2449527 13.9031552,35.9681 14.3657227,35.7675781 C14.8282901,35.5670563 15.3443982,35.4667969 15.9140625,35.4667969 Z M22.5996094,33.8056641 L22.5996094,35.6035156 L23.9052734,35.6035156 L23.9052734,36.8339844 L22.5996094,36.8339844 L22.5996094,40.9628906 C22.5996094,41.2454441 22.6554356,41.4493809 22.7670898,41.574707 C22.878744,41.7000332 23.0781236,41.7626953 23.3652344,41.7626953 C23.5566416,41.7626953 23.7503245,41.7399091 23.9462891,41.6943359 L23.9462891,42.9794922 C23.568032,43.0843104 23.2034523,43.1367188 22.8525391,43.1367188 C21.576491,43.1367188 20.9384766,42.4326242 20.9384766,41.0244141 L20.9384766,36.8339844 L19.7216797,36.8339844 L19.7216797,35.6035156 L20.9384766,35.6035156 L20.9384766,33.8056641 L22.5996094,33.8056641 Z M28.2255859,35.4667969 C29.1051476,35.4667969 29.8217746,35.723142 30.3754883,36.2358398 C30.929202,36.7485377 31.2197264,37.4218708 31.2470703,38.2558594 L29.6816406,38.2558594 C29.6634114,37.8320291 29.5187188,37.4833998 29.2475586,37.2099609 C28.9763984,36.9365221 28.631187,36.7998047 28.2119141,36.7998047 C27.674151,36.7998047 27.2594416,36.994627 26.9677734,37.3842773 C26.6761053,37.7739277 26.5279948,38.3652304 26.5234375,39.1582031 L26.5234375,39.4248047 C26.5234375,40.226892 26.6681301,40.8250306 26.9575195,41.2192383 C27.246909,41.613446 27.6650363,41.8105469 28.2119141,41.8105469 C28.6266297,41.8105469 28.9707018,41.6897799 29.2441406,41.4482422 C29.5175795,41.2067045 29.6634114,40.9082049 29.6816406,40.5527344 L31.2470703,40.5527344 C31.2288411,41.0130231 31.0852878,41.4425436 30.8164062,41.8413086 C30.5475247,42.2400736 30.182945,42.5556629 29.7226562,42.7880859 C29.2623675,43.020509 28.7656277,43.1367188 28.2324219,43.1367188 C27.1979115,43.1367188 26.3776072,42.8017612 25.7714844,42.1318359 C25.1653616,41.4619107 24.8623047,40.5367898 24.8623047,39.3564453 L24.8623047,39.1855469 C24.8623047,38.0598902 25.1630829,37.1586948 25.7646484,36.4819336 C26.3662139,35.8051724 27.1865182,35.4667969 28.2255859,35.4667969 Z M50.1894531,35.4667969 C51.0735721,35.4667969 51.7879205,35.6855447 52.3325195,36.1230469 C52.8771186,36.5605491 53.1494141,37.1279262 53.1494141,37.8251953 L51.4882812,37.8251953 C51.4882812,37.5061833 51.3697929,37.2407237 51.1328125,37.0288086 C50.8958321,36.8168935 50.5813822,36.7109375 50.1894531,36.7109375 C49.824868,36.7109375 49.5275077,36.7952466 49.2973633,36.9638672 C49.0672189,37.1324878 48.9521484,37.3580715 48.9521484,37.640625 C48.9521484,37.8958346 49.0592437,38.0940748 49.2734375,38.2353516 C49.4400327,38.3452335 49.7389548,38.4558033 50.17021,38.5670631 L50.5722656,38.6625977 C51.2239616,38.8061531 51.7355125,38.9770498 52.1069336,39.175293 C52.4783547,39.3735361 52.7540681,39.6116523 52.934082,39.8896484 C53.114096,40.1676446 53.2041016,40.5048808 53.2041016,40.9013672 C53.2041016,41.5667351 52.9283882,42.1056294 52.3769531,42.5180664 C51.8255181,42.9305034 51.1031946,43.1367188 50.2099609,43.1367188 C49.6038381,43.1367188 49.0638045,43.0273448 48.5898438,42.8085938 C48.115883,42.5898427 47.7467461,42.2890644 47.4824219,41.90625 C47.2180976,41.5234356 47.0859375,41.1110048 47.0859375,40.6689453 L48.6992188,40.6689453 C48.7220053,41.0608744 48.8701158,41.3627919 49.1435547,41.574707 C49.4169936,41.7866222 49.7792946,41.8925781 50.2304688,41.8925781 C50.6679709,41.8925781 51.0006499,41.8094084 51.2285156,41.6430664 C51.4563813,41.4767244 51.5703125,41.2591159 51.5703125,40.9902344 C51.5703125,40.6940089 51.4484062,40.4684253 51.2045898,40.3134766 C50.9912506,40.1778965 50.6549218,40.0562747 50.1955955,39.9486085 L49.9912109,39.9033203 C49.4261039,39.7848301 48.954429,39.634441 48.5761719,39.4521484 C47.7467406,39.0511048 47.3320312,38.4700559 47.3320312,37.7089844 C47.3320312,37.0709604 47.6009088,36.5377626 48.1386719,36.109375 C48.676435,35.6809874 49.3600219,35.4667969 50.1894531,35.4667969 Z M56.7314453,33.8056641 L56.7314453,35.6035156 L58.0371094,35.6035156 L58.0371094,36.8339844 L56.7314453,36.8339844 L56.7314453,40.9628906 C56.7314453,41.2454441 56.7872716,41.4493809 56.8989258,41.574707 C57.01058,41.7000332 57.2099595,41.7626953 57.4970703,41.7626953 C57.6884775,41.7626953 57.8821605,41.7399091 58.078125,41.6943359 L58.078125,42.9794922 C57.6998679,43.0843104 57.3352882,43.1367188 56.984375,43.1367188 C55.708327,43.1367188 55.0703125,42.4326242 55.0703125,41.0244141 L55.0703125,36.8339844 L53.8535156,36.8339844 L53.8535156,35.6035156 L55.0703125,35.6035156 L55.0703125,33.8056641 L56.7314453,33.8056641 Z M34.1386719,32.5 L34.1386719,36.4101563 C34.6809923,35.7812469 35.3668578,35.4667969 36.1962891,35.4667969 C37.7731199,35.4667969 38.5729166,36.366853 38.5957031,38.1669922 L38.5957031,43 L36.9345703,43 L36.9345703,38.2285156 C36.9345703,37.7180964 36.8240571,37.3569347 36.6030273,37.1450195 C36.3819976,36.9331044 36.0572938,36.8271484 35.6289062,36.8271484 C34.9635383,36.8271484 34.4667985,37.1233694 34.1386719,37.7158203 L34.1386719,43 L32.4775391,43 L32.4775391,32.5 L34.1386719,32.5 Z M42.0410156,32.5 L42.0410156,43 L40.3798828,43 L40.3798828,32.5 L42.0410156,32.5 Z M45.6162109,35.6035156 L45.6162109,43 L43.9550781,43 L43.9550781,35.6035156 L45.6162109,35.6035156 Z M2.04394531,33.046875 L3.588125,40.524 L5.48925781,33.046875 L6.93847656,33.046875 L8.81835938,40.5390625 L10.3496094,33.046875 L12.0654297,33.046875 L9.76855469,43 L8.11425781,43 L6.22070312,35.7333984 L4.28613281,43 L2.625,43 L0.328125,33.046875 L2.04394531,33.046875 Z M17.1171875,39.5273438 L16.2216797,39.5273438 C15.6064422,39.5273438 15.1438818,39.634439 14.8339844,39.8486328 C14.524087,40.0628266 14.3691406,40.3658835 14.3691406,40.7578125 C14.3691406,41.0768245 14.4750966,41.330891 14.6870117,41.5200195 C14.8989268,41.7091481 15.1826154,41.8037109 15.5380859,41.8037109 C15.8662126,41.8037109 16.174966,41.7239591 16.4643555,41.5644531 C16.7537449,41.4049471 16.9713534,41.1907566 17.1171875,40.921875 L17.1171875,39.5273438 Z M44.7890625,32.7939453 C45.0898453,32.7939453 45.3222648,32.8782544 45.4863281,33.046875 C45.6503914,33.2154956 45.7324219,33.4274076 45.7324219,33.6826172 C45.7324219,33.9332695 45.6503914,34.1417635 45.4863281,34.3081055 C45.3222648,34.4744474 45.0898453,34.5576172 44.7890625,34.5576172 C44.4882797,34.5576172 44.2569995,34.4744474 44.0952148,34.3081055 C43.9334302,34.1417635 43.8525391,33.9332695 43.8525391,33.6826172 C43.8525391,33.4274076 43.9334302,33.2154956 44.0952148,33.046875 C44.2569995,32.8782544 44.4882797,32.7939453 44.7890625,32.7939453 Z M30,8 C34.7864678,8 39.1198012,10.4375 43,15.3125 C39.1198012,20.1875 34.7864678,22.625 30,22.625 C25.2135322,22.625 20.8801988,20.1875 17,15.3125 C20.8801988,10.4375 25.2135322,8 30,8 Z M30,9.625 C26.8588805,9.625 24.3125,12.1713805 24.3125,15.3125 C24.3125,18.4536195 26.8588805,21 30,21 C33.1411195,21 35.6875,18.4536195 35.6875,15.3125 C35.6875,12.1713805 33.1411195,9.625 30,9.625 Z M30,12.3125 C31.6568542,12.3125 33,13.6556458 33,15.3125 C33,16.9693542 31.6568542,18.3125 30,18.3125 C28.3431458,18.3125 27,16.9693542 27,15.3125 C27,13.6556458 28.3431458,12.3125 30,12.3125 Z"/>
    <path id="chart-ref-e" d="M4.5,0 L9,7 L0,7 L4.5,0 Z"/>
    <linearGradient id="chart-ref-g" x1="50%" x2="50%" y1="0%" y2="100%">
      <stop offset="0%" stop-color="#29E9E3" stop-opacity=".3"/>
      <stop offset="100%" stop-color="#FFF" stop-opacity="0"/>
    </linearGradient>
    <rect id="chart-ref-h" width="180" height="36" x="0" y="0"/>
    <polygon id="chart-ref-i" points="16 7 17 8 12.999 11.999 17 16 16 17 11.999 12.999 8 17 7 16 11 11.999 7 8 8 7 11.999 11"/>
    <path id="chart-ref-k" d="M10,15 L10,17 L9,17 L9,22 L15,22 L15,17 L14,17 L14,15 L15,15 C16.1045695,15 17,15.8954305 17,17 L17,22 C17,23.1045695 16.1045695,24 15,24 L9,24 C7.8954305,24 7,23.1045695 7,22 L7,17 C7,15.8954305 7.8954305,15 9,15 L10,15 Z M12,8 C12.5522847,8 13,8.44771525 13,9 L13,19 C13,19.5522847 12.5522847,20 12,20 C11.4477153,20 11,19.5522847 11,19 L11,9 C11,8.44771525 11.4477153,8 12,8 Z M15,4 C16.1045695,4 17,4.8954305 17,6 L17,11 C17,12.1045695 16.1045695,13 15,13 L14,13 L14,11 L15,11 L15,6 L9,6 L9,11 L10,11 L10,13 L9,13 C7.8954305,13 7,12.1045695 7,11 L7,6 C7,4.8954305 7.8954305,4 9,4 L15,4 Z"/>
  </defs>
  <g fill="none" fill-rule="evenodd" transform="translate(80 57)">
    <rect width="1065" height="800" fill="#0D2437"/>
    <path fill="#8A96A6" d="M1037 785.03466L1035.61502 785.14249C1033.59595 785.14249 1031.96067 783.237484 1031.96067 781.062901 1031.96067 778.888318 1033.61263 777.091142 1035.64839 777.091142L1036.96663 777.091142 1036.94994 775.491656 1036.94994 774 1030.79261 774 1028.90703 774 1026.67104 774C1024.65197 774 1023 775.779204 1023 777.953787L1023 778.097561 1023 788 1025.76996 788 1025.76996 781.817715C1026.05364 781.889602 1026.37068 781.943517 1026.67104 781.943517L1028.13945 781.943517 1028.13945 779.373556 1027.02145 779.373556C1026.42074 779.373556 1025.92014 778.834403 1025.92014 778.18742 1025.92014 777.540436 1026.42074 777.001284 1027.02145 777.001284L1028.90703 777.001284 1030.44219 777.001284C1030.24195 777.001284 1029.85816 778.277279 1029.79142 778.474968 1029.62455 779.014121 1029.55781 779.553273 1029.52443 780.12837 1029.39094 781.835687 1029.57449 783.650834 1030.45888 785.106547 1031.1764 786.292683 1032.27771 787.191271 1033.5292 787.640565 1034.11323 787.856226 1034.73063 787.946085 1035.34803 787.946085L1037 787.946085 1037 785.03466 1037 785.03466zM1011.49204 781C1011.49204 783.16624 1009.82901 784.956522 1007.77962 784.956522L1006.78852 784.956522 1006.78852 777.043478 1007.77962 777.043478C1009.82901 777.043478 1011.49204 778.815857 1011.49204 781L1011.49204 781zM1017.32105 774L1016.14517 774 1013.17187 774 1004 774 1004 774.12532 1004 776.971867 1004 787.946292 1006.50295 787.946292 1006.78852 787.946292 1008.08199 787.946292C1011.30726 787.946292 1013.94459 785.13555 1013.94459 781.69821L1013.94459 780.391304C1013.94459 779.138107 1013.59183 777.956522 1012.98709 776.971867L1016.12837 776.971867 1016.95148 776.971867C1017.55622 776.971867 1018.06017 777.508951 1018.06017 778.153453 1018.06017 778.797954 1017.55622 779.335038 1016.95148 779.335038L1015.826 779.335038 1015.826 782.557545 1016.95148 782.557545C1017.55622 782.557545 1018.06017 783.094629 1018.06017 783.73913 1018.06017 784.383632 1017.55622 784.920716 1016.95148 784.920716L1014.65012 784.920716 1014.65012 787.910486C1014.8685 787.964194 1015.08687 788 1015.32205 788L1017.30425 787.946292C1019.33684 787.946292 1020.99987 786.173913 1020.99987 784.007673 1020.99987 782.808184 1020.47913 781.716113 1019.67281 781 1020.47913 780.265985 1020.99987 779.191816 1020.99987 777.992327 1021.01667 775.772379 1019.35364 774 1017.32105 774L1017.32105 774z"/>
    <text fill="#8A96A6" font-family="Roboto-Regular, Roboto" font-size="14">
      <tspan x="928" y="786">Powered by</tspan>
    </text>
    <rect width="1017" height="609" fill="#091A29" transform="translate(24 153)"/>
    <rect width="106" height="63" fill="#1B3B56" transform="translate(870 663)"/>
    <text fill="#FFF" font-family="Roboto-Regular, Roboto" font-size="14">
      <tspan x="991" y="692">Date</tspan> <tspan x="991" y="708">range</tspan>
    </text>
    <g fill="#FFF" font-family="Roboto-Regular, Roboto" font-size="14" transform="translate(986 220)">
      <text>
        <tspan x=".004" y="13">255.00</tspan>
      </text>
      <text>
        <tspan x=".004" y="60">250.00</tspan>
      </text>
      <text>
        <tspan x=".004" y="107">245.00</tspan>
      </text>
      <text>
        <tspan x=".004" y="154">240.00</tspan>
      </text>
      <text>
        <tspan x=".004" y="201">235.00</tspan>
      </text>
      <text>
        <tspan x=".004" y="248">230.00</tspan>
      </text>
      <text>
        <tspan x=".004" y="295">225.00</tspan>
      </text>
      <text>
        <tspan x=".004" y="342">220.00</tspan>
      </text>
      <text>
        <tspan x=".004" y="389">215.00</tspan>
      </text>
    </g>
    <text fill="#FFF" font-family="Roboto-Medium, Roboto" font-size="18" font-weight="400">
      <tspan x="23" y="132">Tesla, Inc.</tspan>
    </text>
    <text fill="#FFF" font-family="Roboto-Medium, Roboto" font-size="24" font-weight="400">
      <tspan x="23" y="97">TSLA</tspan>
    </text>
    <rect width="1065" height="28" fill="#071521"/>
    <rect width="728" height="36" fill="#091A29" transform="translate(0 28)"/>
    <text fill="#FFF" font-family="Roboto-Medium, Roboto" font-size="18" font-weight="400">
      <tspan x="24" y="20">Charts</tspan>
    </text>
    <g fill="#FFF" font-family="Roboto-Regular, Roboto" font-size="14" transform="translate(64 735)">
      <text>
        <tspan x="833.309" y="13">October</tspan>
      </text>
      <text>
        <tspan x="720.268" y="13">July</tspan>
      </text>
      <text>
        <tspan x="604.24" y="13">April</tspan>
      </text>
      <text>
        <tspan x="485.277" y="13">2019</tspan>
      </text>
      <text>
        <tspan x="348.309" y="13">October</tspan>
      </text>
      <text>
        <tspan x="235.268" y="13">July</tspan>
      </text>
      <text>
        <tspan x="119.24" y="13">April</tspan>
      </text>
      <text>
        <tspan x=".277" y="13">2018</tspan>
      </text>
    </g>
    <text fill="#FFF" font-family="Roboto-Regular, Roboto" font-size="14">
      <tspan x="36.43" y="648">August</tspan>
    </text>
    <text fill="#FFF" font-family="Roboto-Regular, Roboto" font-size="14">
      <tspan x="430.077" y="648">September</tspan>
    </text>
    <text fill="#FFF" font-family="Roboto-Regular, Roboto" font-size="14">
      <tspan x="860.309" y="648">October</tspan>
    </text>
    <g fill="#FFF" transform="translate(36 162)">
      <text font-family="Roboto-Bold, Roboto" font-size="18" font-weight="bold">
        <tspan x=".432" y="17">T</tspan>
      </text>
      <text font-family="Roboto-Regular, Roboto" font-size="16">
        <tspan x="21.063" y="17">Sep 03</tspan>
      </text>
      <g transform="translate(94)">
        <text font-family="Roboto-Bold, Roboto" font-size="18" font-weight="bold">
          <tspan x=".786" y="17">O</tspan>
        </text>
        <text font-family="Roboto-Regular, Roboto" font-size="16">
          <tspan x="22.934" y="17">231.87</tspan>
        </text>
      </g>
      <g transform="translate(191)">
        <text font-family="Roboto-Bold, Roboto" font-size="18" font-weight="bold">
          <tspan x=".641" y="17">H</tspan>
        </text>
        <text font-family="Roboto-Regular, Roboto" font-size="16">
          <tspan x="22.934" y="17">235.45</tspan>
        </text>
      </g>
      <g transform="translate(288)">
        <text font-family="Roboto-Bold, Roboto" font-size="18" font-weight="bold">
          <tspan x=".626" y="17">L</tspan>
        </text>
        <text font-family="Roboto-Regular, Roboto" font-size="16">
          <tspan x="19.934" y="17">234.57</tspan>
        </text>
      </g>
      <g transform="translate(382)">
        <text font-family="Roboto-Bold, Roboto" font-size="18" font-weight="bold">
          <tspan x=".611" y="17">C</tspan>
        </text>
        <text font-family="Roboto-Regular, Roboto" font-size="16">
          <tspan x="21.934" y="17">234.57</tspan>
        </text>
      </g>
      <g transform="translate(478)">
        <text font-family="Roboto-Bold, Roboto" font-size="18" font-weight="bold">
          <tspan x=".616" y="17">V</tspan>
        </text>
        <text font-family="Roboto-Regular, Roboto" font-size="16">
          <tspan x="21.934" y="17">7.07M</tspan>
        </text>
      </g>
    </g>
    <rect width="1065" height="2" fill="#091A29" transform="translate(0 64)"/>
    <g transform="translate(908 81)">
      <rect width="60" height="60"/>
      <g transform="translate(13 7)">
        <rect width="30" height="30" x="2"/>
        <mask id="chart-ref-b" fill="#fff">
          <use xlink:href="#chart-ref-a"/>
        </mask>
        <use fill="#AEB1B5" fill-rule="nonzero" xlink:href="#chart-ref-a"/>
        <g fill="#8A96A6" mask="url(#chart-ref-b)">
          <rect width="60" height="60" transform="translate(-13 -7)"/>
        </g>
      </g>
    </g>
    <g transform="translate(977 81)">
      <rect width="64" height="60"/>
      <g transform="translate(2 7)">
        <rect width="30" height="30" x="16"/>
        <mask id="chart-ref-d" fill="#fff">
          <use xlink:href="#chart-ref-c"/>
        </mask>
        <use fill="#AEB1B5" fill-rule="nonzero" xlink:href="#chart-ref-c"/>
        <g fill="#8A96A6" mask="url(#chart-ref-d)">
          <rect width="60" height="60" transform="translate(0 -7)"/>
        </g>
      </g>
    </g>
    <text fill="#41D442" font-family="Roboto-Medium, Roboto" font-size="16" font-weight="400">
      <tspan x="283" y="132">(+0.19%)</tspan>
    </text>
    <text fill="#FFF" font-family="Roboto-Medium, Roboto" font-size="36" font-weight="400">
      <tspan x="236" y="108">253.99</tspan>
    </text>
    <g transform="translate(227 123)">
      <mask id="chart-ref-f" fill="#fff">
        <use xlink:href="#chart-ref-e"/>
      </mask>
      <use fill="#AEB1B5" xlink:href="#chart-ref-e"/>
      <g fill="#41D442" mask="url(#chart-ref-f)">
        <rect width="9" height="7"/>
      </g>
    </g>
    <text fill="#41D442" font-family="Roboto-Medium, Roboto" font-size="16" font-weight="400">
      <tspan x="240" y="132">+0.49</tspan>
    </text>
    <g transform="translate(0 28)">
      <rect width="180" height="36" fill="#0D2437"/>
      <text fill="#FFF" font-family="Roboto-Medium, Roboto" font-size="18" font-weight="400">
        <tspan x="67.399" y="25">AAPL</tspan>
      </text>
    </g>
    <rect width="933" height="416" x="36" y="206" opacity=".2"/>
    <polygon fill="url(#chart-ref-g)" points="36 691.401 44.825 688.983 52.65 690.734 60.475 683.988 68.3 696.297 76.125 705.11 83.95 714.488 91.775 719.372 99.6 724 107.425 718.565 115.25 717.105 123.075 707.939 130.9 699.894 138.725 707.093 146.55 695.339 154.375 689.095 162.2 693.928 170.025 702.563 177.85 701.077 185.675 698.067 193.5 689.848 201.325 690.271 209.15 682.292 216.975 686.707 224.8 686.464 232.625 676.06 240.45 678.25 248.275 687.286 256.1 684.709 263.925 692.95 271.75 694.874 279.575 689.234 287.4 695.569 295.225 684.023 303.05 688.381 310.875 686.508 318.7 686.757 326.525 690.844 334.35 691.034 342.175 684.417 350 682.935 357.825 677.568 365.65 679.309 373.475 682.743 381.3 679.494 389.125 674.35 396.95 677.193 404.775 674.099 412.6 680.486 420.425 682.603 428.25 684.212 436.075 682.199 443.9 692.076 451.725 688.264 459.55 691.694 467.375 692.037 475.2 692.609 483.025 689.705 490.85 697.835 498.675 700.894 506.5 704.347 514.325 698.46 522.15 698.733 529.975 698.38 537.8 701.46 545.625 705.569 553.45 703.33 561.275 709.371 569.1 710.666 576.925 710.044 584.75 708.033 592.575 708.237 600.4 699.248 608.225 700.957 616.05 703.763 623.875 708.798 631.7 711.489 639.525 711.769 647.35 703.136 655.175 690.71 663 697.935 670.825 691.93 678.65 684.081 686.475 689.511 694.3 681.161 702.125 685.052 709.95 680.52 717.775 685.065 725.6 677.074 733.425 677.638 741.25 681.526 749.075 676.324 756.9 671.927 764.725 669.98 772.55 671.13 780.375 674.609 788.2 674.244 796.025 670.82 803.85 679.35 811.675 681.825 819.5 686.967 827.325 683.947 835.15 685.986 842.975 679.831 850.8 685.258 858.625 682.603 866.45 675.874 874.275 674.301 882.1 677.913 889.925 681.53 897.75 687.007 905.575 693.457 913.4 683.445 921.225 684.48 929.05 675.063 936.875 677.105 944.7 669.814 952.525 670.993 960.35 666 968.175 667.875 977 671.927 977 726 36 726"/>
    <polyline stroke="#29E9E3" points="36.004 691.362 44.566 688.983 52.387 690.734 60.208 683.988 68.03 696.297 75.851 705.11 83.673 714.488 91.495 719.372 99.316 724 107.138 718.565 114.96 717.105 122.781 707.939 130.603 699.894 138.425 707.093 146.246 695.339 154.067 689.095 161.889 693.928 169.71 702.563 177.532 701.077 185.354 698.067 193.175 689.848 200.997 690.271 208.819 682.292 216.64 686.707 224.462 686.464 232.284 676.06 240.105 678.25 247.927 687.286 255.748 684.709 263.569 692.95 271.391 694.874 279.213 689.234 287.034 695.569 294.856 684.023 302.678 688.381 310.499 686.508 318.321 686.757 326.143 690.844 333.964 691.034 341.786 684.417 349.608 682.935 357.428 677.568 365.25 679.309 373.072 682.743 380.893 679.494 388.715 674.35 396.537 677.193 404.358 674.099 412.18 680.486 420.002 682.603 427.823 684.212 435.645 682.199 443.467 692.076 451.287 688.264 459.109 691.694 466.931 692.037 474.752 692.609 482.574 689.705 490.396 697.835 498.217 700.894 506.039 704.347 513.861 698.46 521.682 698.733 529.504 698.38 537.326 701.46 545.147 705.569 552.968 703.33 560.79 709.371 568.611 710.666 576.433 710.044 584.255 708.033 592.076 708.237 599.898 699.248 607.72 700.957 615.541 703.763 623.363 708.798 631.185 711.489 639.006 711.769 646.827 703.136 654.649 690.71 662.47 697.935 670.292 691.93 678.114 684.081 685.935 689.511 693.757 681.161 701.579 685.052 709.4 680.52 717.222 685.065 725.044 677.074 732.865 677.638 740.687 681.526 748.508 676.324 756.329 671.927 764.151 669.98 771.973 671.13 779.794 674.609 787.616 674.244 795.438 670.82 803.259 679.35 811.081 681.825 818.903 686.967 826.724 683.947 834.546 685.986 842.367 679.831 850.188 685.258 858.01 682.603 865.832 675.874 873.653 674.301 881.475 677.913 889.297 681.53 897.118 687.007 904.94 693.457 912.762 683.445 920.583 684.48 928.405 675.063 936.227 677.105 944.047 669.814 951.869 670.993 959.691 666 967.512 667.875 976 671.927"/>
    <path fill="#FFF" fill-opacity=".15" d="M977,606 L977,607 L36,607 L36,606 L977,606 Z M977,559 L977,560 L36,560 L36,559 L977,559 Z M977,512 L977,513 L36,513 L36,512 L977,512 Z M977,465 L977,466 L36,466 L36,465 L977,465 Z M977,418 L977,419 L36,419 L36,418 L977,418 Z M977,371 L977,372 L36,372 L36,371 L977,371 Z M977,324 L977,325 L36,325 L36,324 L977,324 Z M977,277 L977,278 L36,278 L36,277 L977,277 Z M977,230 L977,231 L36,231 L36,230 L977,230 Z"/>
    <g transform="translate(42 208)">
      <g stroke="#8A96A6">
        <line x1="18.5" x2="18.5" y1="67" y2="26"/>
        <line x1="36.5" x2="36.5" y1="61" y2="24"/>
        <line x1="54.5" x2="54.5" y1="115" y2="54"/>
        <line x1="72.5" x2="72.5" y1="150" y2="118"/>
        <line x1="90.5" x2="90.5" y1="158" y2="123"/>
        <line x1="108.5" x2="108.5" y1="187" y2="127"/>
        <line x1="126.5" x2="126.5" y1="219" y2="164"/>
        <line x1="144.5" x2="144.5" y1="254" y2="218"/>
        <line x1="162.5" x2="162.5" y1="233" y2="173"/>
        <line x1="180.5" x2="180.5" y1="243" y2="193"/>
        <line x1="198.5" x2="198.5" y1="212" y2="191"/>
        <line x1="216.5" x2="216.5" y1="228" y2="191"/>
        <line x1="234.5" x2="234.5" y1="244" y2="206"/>
        <line x1="252.5" x2="252.5" y1="226" y2="198"/>
        <line x1="270.5" x2="270.5" y1="239" y2="205"/>
        <line x1="288.5" x2="288.5" y1="231" y2="161"/>
        <line x1="306.5" x2="306.5" y1="212" y2="159"/>
        <line x1="324.5" x2="324.5" y1="240" y2="167"/>
        <line x1="342.5" x2="342.5" y1="261" y2="234"/>
        <line x1="360.5" x2="360.5" y1="295" y2="232"/>
        <line x1="378.5" x2="378.5" y1="307" y2="269"/>
        <line x1="396.5" x2="396.5" y1="291" y2="258"/>
        <line x1="414.5" x2="414.5" y1="282" y2="250"/>
        <line x1="432.5" x2="432.5" y1="267" y2="216"/>
        <line x1="450.5" x2="450.5" y1="244" y2="216"/>
        <line x1="468.5" x2="468.5" y1="251" y2="220"/>
        <line x1="486.5" x2="486.5" y1="298" y2="244"/>
        <line x1="504.5" x2="504.5" y1="287" y2="260"/>
        <line x1="522.5" x2="522.5" y1="298" y2="236"/>
        <line x1="540.5" x2="540.5" y1="298" y2="232"/>
        <line x1="558.5" x2="558.5" y1="307" y2="238"/>
        <line x1="576.5" x2="576.5" y1="286" y2="249"/>
        <line x1="594.5" x2="594.5" y1="289" y2="257"/>
        <line x1="612.5" x2="612.5" y1="290" y2="244"/>
        <line x1="630.5" x2="630.5" y1="313" y2="243"/>
        <line x1="648.5" x2="648.5" y1="355" y2="313"/>
        <line x1="666.5" x2="666.5" y1="363" y2="309"/>
        <line x1="684.5" x2="684.5" y1="386" y2="326"/>
        <line x1="702.5" x2="702.5" y1="386" y2="349"/>
        <line x1="720.5" x2="720.5" y1="390" y2="342"/>
        <line x1="738.5" x2="738.5" y1="382" y2="306"/>
        <line x1="756.5" x2="756.5" y1="358" y2="321"/>
        <line x1="774.5" x2="774.5" y1="384" y2="333"/>
        <line x1="792.5" x2="792.5" y1="405" y2="343"/>
        <line x1="810.5" x2="810.5" y1="411" y2="330"/>
        <line x1="828.5" x2="828.5" y1="346" y2="329"/>
        <line x1="846.5" x2="846.5" y1="406" y2="328"/>
        <line x1="864.5" x2="864.5" y1="414" y2="312"/>
        <line x1="882.5" x2="882.5" y1="346" y2="314"/>
        <line x1="900.5" x2="900.5" y1="335" y2="288"/>
        <line x1="918.5" x2="918.5" y1="342" y2="291"/>
        <line x1=".5" x2=".5" y1="39"/>
      </g>
      <g stroke-width="9" transform="translate(36 52)">
        <line x1=".5" x2=".5" y1="2" stroke="#41D442"/>
        <line x1="54.5" x2="54.5" y1="106" y2="77" stroke="#41D442"/>
        <line x1="126.5" x2="126.5" y1="178" y2="133" stroke="#41D442"/>
        <line x1="162.5" x2="162.5" y1="160" y2="151" stroke="#41D442"/>
        <line x1="216.5" x2="216.5" y1="174" y2="150" stroke="#41D442"/>
        <line x1="252.5" x2="252.5" y1="174" y2="109" stroke="#41D442"/>
        <line x1="360.5" x2="360.5" y1="239" y2="207" stroke="#41D442"/>
        <line x1="396.5" x2="396.5" y1="196" y2="170" stroke="#78FF79"/>
        <line x1="432.5" x2="432.5" y1="187" y2="184" stroke="#41D442"/>
        <line x1="468.5" x2="468.5" y1="235" y2="224" stroke="#41D442"/>
        <line x1="486.5" x2="486.5" y1="232" y2="184" stroke="#41D442"/>
        <line x1="522.5" x2="522.5" y1="238" y2="200" stroke="#41D442"/>
        <line x1="630.5" x2="630.5" y1="311" y2="262" stroke="#41D442"/>
        <line x1="666.5" x2="666.5" y1="332" y2="301" stroke="#41D442"/>
        <line x1="702.5" x2="702.5" y1="330" y2="260" stroke="#41D442"/>
        <line x1="738.5" x2="738.5" y1="311" y2="293" stroke="#41D442"/>
        <line x1="774.5" x2="774.5" y1="342" y2="287" stroke="#41D442"/>
        <line x1="792.5" x2="792.5" y1="287" y2="283" stroke="#41D442"/>
        <line x1="828.5" x2="828.5" y1="351" y2="263" stroke="#41D442"/>
        <line x1="864.5" x2="864.5" y1="262" y2="250" stroke="#41D442"/>
        <line x1="882.5" x2="882.5" y1="249" y2="239" stroke="#41D442"/>
      </g>
      <g stroke="#FA706F" stroke-width="9" transform="translate(0 19)">
        <line x1=".5" x2=".5" y2="13"/>
        <line x1="18.5" x2="18.5" y1="15" y2="32"/>
        <line x1="54.5" x2="54.5" y1="35" y2="95"/>
        <line x1="72.5" x2="72.5" y1="105" y2="131"/>
        <line x1="108.5" x2="108.5" y1="108" y2="155"/>
        <line x1="126.5" x2="126.5" y1="163" y2="200"/>
        <line x1="144.5" x2="144.5" y1="208" y2="212"/>
        <line x1="180.5" x2="180.5" y1="177" y2="187"/>
        <line x1="216.5" x2="216.5" y1="188" y2="197"/>
        <line x1="234.5" x2="234.5" y1="205" y2="213"/>
        <line x1="270.5" x2="270.5" y1="186" y2="204"/>
        <line x1="306.5" x2="306.5" y1="143" y2="186"/>
        <line x1="324.5" x2="324.5" y1="187" y2="221"/>
        <line x1="360.5" x2="360.5" y1="221" y2="276"/>
        <line x1="378.5" x2="378.5" y1="271" y2="273"/>
        <line x1="414.5" x2="414.5" y1="240" y2="243"/>
        <line x1="450.5" x2="450.5" y1="200" y2="214"/>
        <line x1="486.5" x2="486.5" y1="229" y2="269"/>
        <line x1="540.5" x2="540.5" y1="213" y2="267"/>
        <line x1="576.5" x2="576.5" y1="231" y2="252"/>
        <line x1="594.5" x2="594.5" y1="252" y2="255"/>
        <line x1="612.5" x2="612.5" y1="246" y2="271"/>
        <line x1="630.5" x2="630.5" y1="257" y2="294"/>
        <line x1="648.5" x2="648.5" y1="298" y2="336"/>
        <line x1="684.5" x2="684.5" y1="307" y2="367"/>
        <line x1="720.5" x2="720.5" y1="335" y2="361"/>
        <line x1="756.5" x2="756.5" y1="302" y2="334"/>
        <line x1="792.5" x2="792.5" y1="326" y2="385"/>
        <line x1="846.5" x2="846.5" y1="315" y2="376"/>
        <line x1="882.5" x2="882.5" y1="297" y2="301"/>
      </g>
    </g>
    <rect width="1017" height="1" x="24" y="193" fill="#8A96A6"/>
    <rect width="1017" height="1" x="24" y="622" fill="#8A96A6"/>
    <g transform="translate(182 28)">
      <rect width="96" height="36" fill="#0D2437"/>
      <use fill="#A6FFFC" fill-opacity=".1" xlink:href="#chart-ref-h"/>
      <use fill="#1B3B56" xlink:href="#chart-ref-h"/>
      <text fill="#FFF" font-family="Roboto-Medium, Roboto" font-size="18" font-weight="400">
        <tspan x="53.234" y="25">TSLA</tspan>
      </text>
      <g transform="translate(150 6)">
        <rect width="24" height="24" fill="#D8D8D8" opacity="0"/>
        <mask id="chart-ref-j" fill="#fff">
          <use xlink:href="#chart-ref-i"/>
        </mask>
        <use fill="#FFF" xlink:href="#chart-ref-i"/>
        <g fill="#FFF" mask="url(#chart-ref-j)">
          <rect width="24" height="24"/>
        </g>
      </g>
    </g>
    <g transform="translate(364 28)">
      <rect width="180" height="36" fill="#0D2437"/>
      <text fill="#FFF" font-family="Roboto-Medium, Roboto" font-size="18" font-weight="400">
        <tspan x="65.32" y="25">GOOG</tspan>
      </text>
    </g>
    <g transform="translate(546 28)">
      <rect width="180" height="36" fill="#0D2437"/>
      <text fill="#FFF" font-family="Roboto-Medium, Roboto" font-size="18" font-weight="400">
        <tspan x="66.195" y="25">MSFT</tspan>
      </text>
    </g>
    <rect width="940" height="62" x="36.5" y="663.5" stroke="#8A96A6"/>
    <rect width="2" height="63" fill="#29E9E3" transform="translate(975 663)"/>
    <rect width="2" height="63" fill="#29E9E3" transform="translate(869 663)"/>
    <g transform="translate(861 686)">
      <circle cx="9" cy="9" r="8.5" stroke="#29E9E3"/>
      <circle cx="9" cy="9" r="5" fill="#29E9E3"/>
    </g>
    <g transform="translate(967 686)">
      <circle cx="9" cy="9" r="8.5" stroke="#29E9E3"/>
      <circle cx="9" cy="9" r="5" fill="#29E9E3"/>
    </g>
    <rect width="108" height="1" fill="#29E9E3" transform="translate(869 663)"/>
    <rect width="108" height="1" fill="#29E9E3" transform="translate(869 725)"/>
    <line x1="974" x2="36" y1="430" y2="430" stroke="#FFF" stroke-dasharray="10 5"/>
    <line x1="689" x2="261" y1="407.5" y2="407.5" stroke="#FFF" stroke-dasharray="10 5" transform="rotate(-90 475 407.5)"/>
    <g transform="translate(1038)">
      <rect width="24" height="28" fill="#1B3B56" opacity="0"/>
      <polygon fill="#FFF" points="17.619 8 18.91 9.291 13.745 14.454 18.91 19.619 17.619 20.91 12.454 15.745 7.291 20.91 6 19.619 11.164 14.454 6 9.291 7.291 8 12.454 13.164"/>
    </g>
    <g transform="translate(1011)">
      <rect width="24" height="28" fill="#D8D8D8" opacity="0"/>
      <rect width="12" height="2" x="6" y="19" fill="#FFF"/>
    </g>
    <g transform="translate(984)">
      <rect width="24" height="28" fill="#1B3B56" opacity="0"/>
      <mask id="chart-ref-l" fill="#fff">
        <use xlink:href="#chart-ref-k"/>
      </mask>
      <use fill="#FFF" transform="rotate(90 12 14)" xlink:href="#chart-ref-k"/>
      <g fill="#29E9E3" mask="url(#chart-ref-l)">
        <rect width="24" height="28"/>
      </g>
    </g>
    <rect width="55" height="18" fill="#29E9E3" transform="translate(980 240)"/>
    <text fill="#000" font-family="Roboto-Medium, Roboto" font-size="14" font-weight="400">
      <tspan x="985.652" y="254">253.99</tspan>
    </text>
    <line x1="981.5" x2="36" y1="250.5" y2="250" stroke="#29E9E3"/>
  </g>
</svg>
