<?xml version="1.0" encoding="UTF-8"?>
<svg width="1582px" height="1768px" viewBox="0 0 1582 1768" version="1.1" xmlns="http://www.w3.org/2000/svg" xmlns:xlink="http://www.w3.org/1999/xlink">
    <!-- Generator: Sketch 59 (86127) - https://sketch.com -->
    <title>Watchlist Specs</title>
    <desc>Created with Sketch.</desc>
    <defs>
        <linearGradient x1="50%" y1="0%" x2="50%" y2="100%" id="linearGradient-1">
            <stop stop-color="#29E9E3" stop-opacity="0.3" offset="0%"></stop>
            <stop stop-color="#FFFFFF" stop-opacity="0" offset="100%"></stop>
        </linearGradient>
        <rect id="path-2" x="40" y="858" width="97" height="84"></rect>
        <filter x="-19.6%" y="-20.2%" width="139.2%" height="145.2%" filterUnits="objectBoundingBox" id="filter-3">
            <feMorphology radius="1.5" operator="dilate" in="SourceAlpha" result="shadowSpreadOuter1"></feMorphology>
            <feOffset dx="0" dy="2" in="shadowSpreadOuter1" result="shadowOffsetOuter1"></feOffset>
            <feGaussianBlur stdDeviation="4.5" in="shadowOffsetOuter1" result="shadowBlurOuter1"></feGaussianBlur>
            <feColorMatrix values="0 0 0 0 0   0 0 0 0 0   0 0 0 0 0  0 0 0 0.5 0" type="matrix" in="shadowBlurOuter1"></feColorMatrix>
        </filter>
        <path d="M6,3 L10,9 L2,9 L6,3 Z" id="path-4"></path>
        <path d="M6,3 L10,9 L2,9 L6,3 Z" id="path-6"></path>
        <polygon id="path-8" points="3.61538462 3 3.61538462 16.1465455 9.5076244 10.0488387 14.5396681 14.6956909 21.2389105 6.83214542 22.5428528 7.79217384 14.686121 17.0978892 9.57801424 12.3295091 3.61538462 18.5847273 3.61538462 19.3636364 23 19.3636364 23 21 2 21 2 3"></polygon>
        <path d="M19.7692308,3 L19.7692308,7.90909091 L23,7.90909091 L23,19.3636364 C23,20.267375 22.2767677,21 21.3846154,21 L3.61538462,21 C2.72323233,21 2,20.267375 2,19.3636364 L2,3 L19.7692308,3 Z M21.3838077,9.54545455 L19.7692308,9.54545455 L19.7692308,19.3636364 L21.3846154,19.3636364 L21.3838077,9.54545455 Z M18.1538462,4.63636364 L3.61538462,4.63636364 L3.61538462,19.3636364 L18.1538462,19.3636364 L18.1538462,4.63636364 Z M16.5384615,16.0909091 L16.5384615,17.7272727 L5.23076923,17.7272727 L5.23076923,16.0909091 L16.5384615,16.0909091 Z M16.5384615,12.8181818 L16.5384615,14.4545455 L5.23076923,14.4545455 L5.23076923,12.8181818 L16.5384615,12.8181818 Z M10.0769231,6.27272727 L10.0769231,11.1818182 L5.23076923,11.1818182 L5.23076923,6.27272727 L10.0769231,6.27272727 Z M16.5384615,9.54545455 L16.5384615,11.1818182 L11.6923077,11.1818182 L11.6923077,9.54545455 L16.5384615,9.54545455 Z M16.5384615,6.27272727 L16.5384615,7.90909091 L11.6923077,7.90909091 L11.6923077,6.27272727 L16.5384615,6.27272727 Z" id="path-10"></path>
        <path d="M12,7 C15.3578913,7 18.3978913,8.74166667 21.12,12.225 C18.3978913,15.7083333 15.3578913,17.45 12,17.45 C8.64210872,17.45 5.60210872,15.7083333 2.88,12.225 C5.60210872,8.74166667 8.64210872,7 12,7 Z M12,8.16111111 C9.79638385,8.16111111 8.01,9.98057614 8.01,12.225 C8.01,14.4694239 9.79638385,16.2888889 12,16.2888889 C14.2036162,16.2888889 15.99,14.4694239 15.99,12.225 C15.99,9.98057614 14.2036162,8.16111111 12,8.16111111 Z M12,10.0814103 C13.162347,10.0814103 14.1046154,11.0411281 14.1046154,12.225 C14.1046154,13.4088719 13.162347,14.3685897 12,14.3685897 C10.837653,14.3685897 9.89538462,13.4088719 9.89538462,12.225 C9.89538462,11.0411281 10.837653,10.0814103 12,10.0814103 Z" id="path-12"></path>
        <path d="M19.7692308,3 L19.7692308,7.90909091 L23,7.90909091 L23,19.3636364 C23,20.267375 22.2767677,21 21.3846154,21 L3.61538462,21 C2.72323233,21 2,20.267375 2,19.3636364 L2,3 L19.7692308,3 Z M21.3838077,9.54545455 L19.7692308,9.54545455 L19.7692308,19.3636364 L21.3846154,19.3636364 L21.3838077,9.54545455 Z M18.1538462,4.63636364 L3.61538462,4.63636364 L3.61538462,19.3636364 L18.1538462,19.3636364 L18.1538462,4.63636364 Z M16.5384615,16.0909091 L16.5384615,17.7272727 L5.23076923,17.7272727 L5.23076923,16.0909091 L16.5384615,16.0909091 Z M16.5384615,12.8181818 L16.5384615,14.4545455 L5.23076923,14.4545455 L5.23076923,12.8181818 L16.5384615,12.8181818 Z M10.0769231,6.27272727 L10.0769231,11.1818182 L5.23076923,11.1818182 L5.23076923,6.27272727 L10.0769231,6.27272727 Z M16.5384615,9.54545455 L16.5384615,11.1818182 L11.6923077,11.1818182 L11.6923077,9.54545455 L16.5384615,9.54545455 Z M16.5384615,6.27272727 L16.5384615,7.90909091 L11.6923077,7.90909091 L11.6923077,6.27272727 L16.5384615,6.27272727 Z" id="path-14"></path>
        <path d="M19.7692308,3 L19.7692308,7.90909091 L23,7.90909091 L23,19.3636364 C23,20.267375 22.2767677,21 21.3846154,21 L3.61538462,21 C2.72323233,21 2,20.267375 2,19.3636364 L2,3 L19.7692308,3 Z M21.3838077,9.54545455 L19.7692308,9.54545455 L19.7692308,19.3636364 L21.3846154,19.3636364 L21.3838077,9.54545455 Z M18.1538462,4.63636364 L3.61538462,4.63636364 L3.61538462,19.3636364 L18.1538462,19.3636364 L18.1538462,4.63636364 Z M16.5384615,16.0909091 L16.5384615,17.7272727 L5.23076923,17.7272727 L5.23076923,16.0909091 L16.5384615,16.0909091 Z M16.5384615,12.8181818 L16.5384615,14.4545455 L5.23076923,14.4545455 L5.23076923,12.8181818 L16.5384615,12.8181818 Z M10.0769231,6.27272727 L10.0769231,11.1818182 L5.23076923,11.1818182 L5.23076923,6.27272727 L10.0769231,6.27272727 Z M16.5384615,9.54545455 L16.5384615,11.1818182 L11.6923077,11.1818182 L11.6923077,9.54545455 L16.5384615,9.54545455 Z M16.5384615,6.27272727 L16.5384615,7.90909091 L11.6923077,7.90909091 L11.6923077,6.27272727 L16.5384615,6.27272727 Z" id="path-16"></path>
        <rect id="path-18" x="0" y="0" width="24" height="24"></rect>
        <path d="M19.7692308,3 L19.7692308,7.90909091 L23,7.90909091 L23,19.3636364 C23,20.267375 22.2767677,21 21.3846154,21 L3.61538462,21 C2.72323233,21 2,20.267375 2,19.3636364 L2,3 L19.7692308,3 Z M21.3838077,9.54545455 L19.7692308,9.54545455 L19.7692308,19.3636364 L21.3846154,19.3636364 L21.3838077,9.54545455 Z M18.1538462,4.63636364 L3.61538462,4.63636364 L3.61538462,19.3636364 L18.1538462,19.3636364 L18.1538462,4.63636364 Z M16.5384615,16.0909091 L16.5384615,17.7272727 L5.23076923,17.7272727 L5.23076923,16.0909091 L16.5384615,16.0909091 Z M16.5384615,12.8181818 L16.5384615,14.4545455 L5.23076923,14.4545455 L5.23076923,12.8181818 L16.5384615,12.8181818 Z M10.0769231,6.27272727 L10.0769231,11.1818182 L5.23076923,11.1818182 L5.23076923,6.27272727 L10.0769231,6.27272727 Z M16.5384615,9.54545455 L16.5384615,11.1818182 L11.6923077,11.1818182 L11.6923077,9.54545455 L16.5384615,9.54545455 Z M16.5384615,6.27272727 L16.5384615,7.90909091 L11.6923077,7.90909091 L11.6923077,6.27272727 L16.5384615,6.27272727 Z" id="path-19"></path>
        <rect id="path-21" x="0" y="0" width="24" height="24"></rect>
        <path d="M19.7692308,3 L19.7692308,7.90909091 L23,7.90909091 L23,19.3636364 C23,20.267375 22.2767677,21 21.3846154,21 L3.61538462,21 C2.72323233,21 2,20.267375 2,19.3636364 L2,3 L19.7692308,3 Z M21.3838077,9.54545455 L19.7692308,9.54545455 L19.7692308,19.3636364 L21.3846154,19.3636364 L21.3838077,9.54545455 Z M18.1538462,4.63636364 L3.61538462,4.63636364 L3.61538462,19.3636364 L18.1538462,19.3636364 L18.1538462,4.63636364 Z M16.5384615,16.0909091 L16.5384615,17.7272727 L5.23076923,17.7272727 L5.23076923,16.0909091 L16.5384615,16.0909091 Z M16.5384615,12.8181818 L16.5384615,14.4545455 L5.23076923,14.4545455 L5.23076923,12.8181818 L16.5384615,12.8181818 Z M10.0769231,6.27272727 L10.0769231,11.1818182 L5.23076923,11.1818182 L5.23076923,6.27272727 L10.0769231,6.27272727 Z M16.5384615,9.54545455 L16.5384615,11.1818182 L11.6923077,11.1818182 L11.6923077,9.54545455 L16.5384615,9.54545455 Z M16.5384615,6.27272727 L16.5384615,7.90909091 L11.6923077,7.90909091 L11.6923077,6.27272727 L16.5384615,6.27272727 Z" id="path-22"></path>
        <path d="M4.5,0 L9,7 L0,7 L4.5,0 Z" id="path-24"></path>
        <path d="M4.5,0 L9,7 L0,7 L4.5,0 Z" id="path-26"></path>
        <path d="M6,3 L10,9 L2,9 L6,3 Z" id="path-28"></path>
        <path d="M6,3 L10,9 L2,9 L6,3 Z" id="path-30"></path>
        <path d="M6,3 L10,9 L2,9 L6,3 Z" id="path-32"></path>
        <path d="M6,3 L10,9 L2,9 L6,3 Z" id="path-34"></path>
        <path d="M6,3 L10,9 L2,9 L6,3 Z" id="path-36"></path>
        <path d="M6,3 L10,9 L2,9 L6,3 Z" id="path-38"></path>
        <path d="M6,3 L10,9 L2,9 L6,3 Z" id="path-40"></path>
        <path d="M6,3 L10,9 L2,9 L6,3 Z" id="path-42"></path>
    </defs>
    <g id="Watchlist-Specs" stroke="none" stroke-width="1" fill="none" fill-rule="evenodd">
        <rect id="Rectangle" fill="#0D2437" x="32" y="627" width="749" height="86"></rect>
        <rect id="Rectangle" stroke="#979797" fill="#29E9E3" x="40" y="88" width="30" height="30"></rect>
        <rect id="Rectangle-Copy" stroke="#979797" fill="#071521" transform="translate(55.000000, 403.000000) rotate(180.000000) translate(-55.000000, -403.000000) " x="40" y="388" width="30" height="30"></rect>
        <rect id="Rectangle-Copy-3" stroke="#979797" fill="#091A29" transform="translate(55.000000, 343.000000) rotate(180.000000) translate(-55.000000, -343.000000) " x="40" y="328" width="30" height="30"></rect>
        <rect id="Rectangle-Copy-2" stroke="#979797" fill="#0D2437" transform="translate(55.000000, 283.000000) rotate(180.000000) translate(-55.000000, -283.000000) " x="40" y="268" width="30" height="30"></rect>
        <rect id="Rectangle-Copy-5" stroke="#979797" fill="#8A96A6" transform="translate(55.000000, 163.000000) rotate(180.000000) translate(-55.000000, -163.000000) " x="40" y="148" width="30" height="30"></rect>
        <rect id="Rectangle-Copy-6" stroke="#979797" fill="#1B3B56" transform="translate(55.000000, 223.000000) rotate(180.000000) translate(-55.000000, -223.000000) " x="40" y="208" width="30" height="30"></rect>
        <rect id="Rectangle-Copy-4" stroke="#979797" fill="#FFFFFF" x="40" y="448" width="30" height="30"></rect>
        <text id="Teal---#29E9E3---Use" font-family="Roboto-Regular, Roboto" font-size="21" font-weight="normal" fill="#000000">
            <tspan x="86" y="110">Teal - #29E9E3 - Used for active icons, graph line &amp; graph gradient</tspan>
        </text>
        <text id="Blue-1---#8A96A6---U" font-family="Roboto-Regular, Roboto" font-size="21" font-weight="normal" fill="#000000">
            <tspan x="86" y="170">Blue 1 - #8A96A6 - Used for inactive icons &amp; inactive scroll bar arrow</tspan>
        </text>
        <text id="Blue-2---#1B3B56---U" font-family="Roboto-Regular, Roboto" font-size="21" font-weight="normal" fill="#000000">
            <tspan x="86" y="230">Blue 2 - #1B3B56 - Used for hover state (icons &amp; graph) and scroll bar track</tspan>
        </text>
        <text id="Blue-3---#0D2437---U" font-family="Roboto-Regular, Roboto" font-size="21" font-weight="normal" fill="#000000">
            <tspan x="86" y="290">Blue 3 - #0D2437 - Used as background color</tspan>
        </text>
        <text id="Blue-4---#091A29---U" font-family="Roboto-Regular, Roboto" font-size="21" font-weight="normal" fill="#000000">
            <tspan x="86" y="350">Blue 4 - #091A29 - Used for scroll bar grip, stock hover and divider lines</tspan>
        </text>
        <text id="Blue-5---#071521---U" font-family="Roboto-Regular, Roboto" font-size="21" font-weight="normal" fill="#000000">
            <tspan x="86" y="410">Blue 5 - #071521 - Used for top bar</tspan>
        </text>
        <text id="White---#FFFFFF---Us" font-family="Roboto-Regular, Roboto" font-size="21" font-weight="normal" fill="#000000">
            <tspan x="86" y="470">White - #FFFFFF - Used for all text (bar price and %) &amp; close and minimize glyphs</tspan>
        </text>
        <rect id="Rectangle-Copy-13" stroke="#979797" fill="#41D442" x="40" y="508" width="30" height="30"></rect>
        <text id="Green---#41D442---Us" font-family="Roboto-Regular, Roboto" font-size="21" font-weight="normal" fill="#000000">
            <tspan x="86" y="530">Green - #41D442 - Used for price and % increase</tspan>
        </text>
        <rect id="Rectangle-Copy-14" stroke="#979797" fill="#FF7171" x="40" y="568" width="30" height="30"></rect>
        <text id="Red---#FF7171---Used" font-family="Roboto-Regular, Roboto" font-size="21" font-weight="normal" fill="#000000">
            <tspan x="86" y="590">Red - #FF7171 - Used for price and % decrease</tspan>
        </text>
        <rect id="Rectangle-Copy-15" stroke="#FFFFFF" fill="url(#linearGradient-1)" x="40" y="636" width="30" height="68"></rect>
        <text id="Teal-gradient---Top:" font-family="Roboto-Regular, Roboto" font-size="21" font-weight="normal" fill="#FFFFFF">
            <tspan x="86" y="660">Teal gradient - Top: #29E9E3 30% Opacity -&gt; Bottom: #FFFFFF 0% Opacity </tspan>
        </text>
        <text id="Used-for-chart-gradi" font-family="Roboto-Regular, Roboto" font-size="21" font-weight="normal" fill="#FFFFFF">
            <tspan x="86" y="690">Used for chart gradient</tspan>
        </text>
        <text id="Colour-Palette" font-family="Roboto-Medium, Roboto" font-size="36" font-weight="400" fill="#1B3B56">
            <tspan x="40" y="59">Colour Palette</tspan>
        </text>
        <text id="Type" font-family="Roboto-Medium, Roboto" font-size="36" font-weight="400" fill="#1B3B56">
            <tspan x="434" y="812">Type</tspan>
        </text>
        <text id="Dropshadow-Style" font-family="Roboto-Medium, Roboto" font-size="36" font-weight="400" fill="#1B3B56">
            <tspan x="40" y="809">Dropshadow Style</tspan>
        </text>
        <text id="Scroll-Bar" font-family="Roboto-Medium, Roboto" font-size="21" font-weight="400" fill="#E05505">
            <tspan x="999" y="868">Scroll Bar</tspan>
        </text>
        <text id="Roboto-Medium,-12px" font-family="Roboto-Medium, Roboto" font-size="12" font-weight="400" fill="#000000">
            <tspan x="434" y="869">Roboto Medium, 12px - Company name</tspan>
        </text>
        <text id="Roboto-Medium,-16px" font-family="Roboto-Medium, Roboto" font-size="16" font-weight="400" fill="#000000">
            <tspan x="434" y="893">Roboto Medium, 16px - % and $ price change</tspan>
        </text>
        <text id="Roboto-Medium,-18px" font-family="Roboto-Medium, Roboto" font-size="18" font-weight="400" fill="#000000">
            <tspan x="434" y="918">Roboto Medium, 18px - Ticker, current price, ‘Watchlist’</tspan>
        </text>
        <text id="28px-copy-2" font-family="Roboto-Regular, Roboto" font-size="18" font-weight="normal" fill="#000000">
            <tspan x="931" y="284">28px</tspan>
        </text>
        <text id="12px" font-family="Roboto-Regular, Roboto" font-size="18" font-weight="normal" fill="#000000">
            <tspan x="1008" y="904">12px</tspan>
        </text>
        <text id="12px-copy" font-family="Roboto-Regular, Roboto" font-size="18" font-weight="normal" fill="#000000">
            <tspan x="957" y="936">12px</tspan>
        </text>
        <text id="271px-when-scroll-ba" font-family="Roboto-Regular, Roboto" font-size="18" font-weight="normal" fill="#000000">
            <tspan x="998" y="172">271px when scroll bar is on</tspan>
            <tspan x="998" y="193">259px when scroll bar is off</tspan>
        </text>
        <text id="12px" font-family="Roboto-Regular, Roboto" font-size="18" font-weight="normal" fill="#000000">
            <tspan x="967" y="246">12px</tspan>
        </text>
        <text id="3px" font-family="Roboto-Regular, Roboto" font-size="18" font-weight="normal" fill="#000000">
            <tspan x="1231" y="246">3px</tspan>
        </text>
        <text id="divider-line---2px" font-family="Roboto-Regular, Roboto" font-size="21" font-weight="normal" fill="#000000">
            <tspan x="1276" y="417">divider line - 2px</tspan>
        </text>
        <text id="Divider-lines-are-ad" font-family="Roboto-Regular, Roboto" font-size="21" font-weight="normal" fill="#000000">
            <tspan x="1276" y="458">Divider lines are added at</tspan>
            <tspan x="1276" y="482">the bottom of every stock</tspan>
            <tspan x="1276" y="506">added to the list</tspan>
        </text>
        <polyline id="Path-3-Copy-14" stroke="#F37126" stroke-width="2" points="976 216 976 201 1247 201 1247 216"></polyline>
        <g id="Rectangle">
            <use fill="black" fill-opacity="1" filter="url(#filter-3)" xlink:href="#path-2"></use>
            <use fill="#0D2437" fill-rule="evenodd" xlink:href="#path-2"></use>
        </g>
        <text id="y-=-2-blur-=-9-sprea" font-family="Roboto-Regular, Roboto" font-size="18" font-weight="normal" fill="#000000">
            <tspan x="148" y="883">y = 2</tspan>
            <tspan x="148" y="904">blur = 9</tspan>
            <tspan x="148" y="925">spread = 3</tspan>
        </text>
        <g id="Stock_Flux/Watchlist_Scroll" transform="translate(976.000000, 263.000000)">
            <g id="Color/Blue-3" fill="#0D2437">
                <rect id="Rectangle" x="0" y="0" width="271" height="514"></rect>
            </g>
            <g id="State/Top_Dark" fill="#091A29">
                <rect id="Rectangle" x="0" y="0" width="271" height="28"></rect>
            </g>
            <g id="Component/Close_Minimize" transform="translate(214.754717, 0.000000)">
                <g id="Minimize">
                    <rect id="Rectangle-Copy-2" fill="#D8D8D8" opacity="0" x="0" y="0" width="24.4615385" height="28"></rect>
                    <rect id="Rectangle" fill="#FFFFFF" x="6.11538462" y="19" width="12.2307692" height="2"></rect>
                </g>
                <g id="Close" transform="translate(28.538462, 0.000000)">
                    <rect id="Rectangle" fill="#1B3B56" opacity="0" x="0" y="0" width="24.4615385" height="28"></rect>
                    <polygon id="X" fill="#FFFFFF" points="17.9577379 8 19.273555 9.2909903 14.0095081 14.4541796 19.273555 19.6189127 17.9577379 20.909903 12.693683 15.7451778 7.43120165 20.909903 6.11538462 19.6189127 11.378685 14.4541796 6.11538462 9.2909903 7.43120165 8 12.693683 13.1639928"></polygon>
                </g>
            </g>
            <text id="Watchlist" font-family="Roboto-Medium, Roboto" font-size="18" font-weight="400" fill="#FFFFFF">
                <tspan x="12.2716981" y="20">Watchlist</tspan>
            </text>
            <path d="M271,392 L271,394 L0,394 L0,392 L271,392 Z M271,271 L271,273 L0,273 L0,271 L271,271 Z M271,149 L271,151 L0,151 L0,149 L271,149 Z" id="Divider_Lines" fill="#061725"></path>
        </g>
        <text id="This-dropshadow-styl" font-family="Roboto-Regular, Roboto" font-size="21" font-weight="normal" fill="#000000">
            <tspan x="40" y="988">This dropshadow style will be used for </tspan>
            <tspan x="40" y="1012">every app except the Launcher</tspan>
        </text>
        <line x1="988.5" y1="254" x2="988" y2="786.693966" id="Path-2-Copy-39" stroke="#F37126" stroke-dasharray="10,5"></line>
        <line x1="1242.5" y1="254" x2="1242.25" y2="292.851293" id="Path-2-Copy-40" stroke="#F37126" stroke-dasharray="10,5"></line>
        <line x1="1247.5" y1="254" x2="1247.25" y2="292.851293" id="Path-2-Copy-41" stroke="#F37126" stroke-dasharray="10,5"></line>
        <line x1="963" y1="292.500542" x2="1254" y2="292.499458" id="Path-2-Copy-38" stroke="#F37126" stroke-dasharray="10,5"></line>
        <line x1="976.5" y1="254" x2="976" y2="786.693966" id="Path-2-Copy-36" stroke="#F37126" stroke-dasharray="10,5"></line>
        <line x1="963" y1="262.500542" x2="1254" y2="262.499458" id="Path-2-Copy-37" stroke="#F37126" stroke-dasharray="10,5"></line>
        <text id="Height-of-the-Watchl" font-family="Roboto-Regular, Roboto" font-size="18" font-weight="normal" fill="#000000">
            <tspan x="1078" y="1037">Height of the Watchlist window minus 28px</tspan>
            <tspan x="1078" y="1058"></tspan>
            <tspan x="1078" y="1079">Scroll Bar always sits beneath the top bar</tspan>
        </text>
        <polyline id="Path-3-Copy-21" stroke="#F37126" stroke-width="2" transform="translate(1061.000000, 1062.500000) rotate(90.000000) translate(-1061.000000, -1062.500000) " points="920 1070 920 1055 1202 1055 1202 1070"></polyline>
        <text id="Watchlist-window" font-family="Roboto-Medium, Roboto" font-size="21" font-weight="400" fill="#E05505">
            <tspan x="939" y="137">Watchlist window</tspan>
        </text>
        <path id="Line-3" d="M1254.86869,405.388163 L1269.28973,413.5 L1254.86869,421.611837 L1253.88816,419.868686 L1263.432,414.5 L1244.5,414.5 L1244.5,412.5 L1263.432,412.5 L1253.88816,407.131314 L1254.86869,405.388163 Z" fill="#F37126" fill-rule="nonzero"></path>
        <g id="Stock_Flux/Watchlist_Scroll" transform="translate(1018.000000, 926.000000)">
            <g id="Color/Blue-2" fill="#1B3B56">
                <rect id="Rectangle" x="0" y="0" width="12" height="277"></rect>
            </g>
            <g id="Component/Scroll_Bar" transform="translate(0.000000, 12.000000)" fill="#091A29">
                <g id="Color/Blue-4">
                    <rect id="Rectangle" x="0" y="0" width="12" height="108"></rect>
                </g>
            </g>
            <g id="Component/Scroll_Arrow_Up">
                <mask id="mask-5" fill="white">
                    <use xlink:href="#path-4"></use>
                </mask>
                <use id="Triangle-5" fill="#AEB1B5" fill-rule="evenodd" xlink:href="#path-4"></use>
                <g id="Color/Blue-4" mask="url(#mask-5)" fill="#091A29" fill-rule="evenodd">
                    <g transform="translate(2.000000, 3.000000)" id="Rectangle">
                        <rect x="0" y="0" width="8" height="7"></rect>
                    </g>
                </g>
            </g>
            <g id="Component/Scroll_Arrow_Down" transform="translate(0.000000, 264.000000)">
                <mask id="mask-7" fill="white">
                    <use xlink:href="#path-6"></use>
                </mask>
                <use id="Triangle-5" fill="#AEB1B5" fill-rule="evenodd" transform="translate(6.000000, 6.000000) scale(1, -1) translate(-6.000000, -6.000000) " xlink:href="#path-6"></use>
                <g id="Color/Blue-1" mask="url(#mask-7)" fill="#8A96A6" fill-rule="evenodd">
                    <g transform="translate(2.000000, 3.000000)" id="Rectangle">
                        <rect x="0" y="0" width="8" height="7"></rect>
                    </g>
                </g>
            </g>
        </g>
        <line x1="1030.5" y1="914" x2="1030" y2="1209.71983" id="Path-2-Copy-76" stroke="#F37126" stroke-dasharray="10,5"></line>
        <line x1="1017.5" y1="914" x2="1017" y2="1209.71983" id="Path-2-Copy-75" stroke="#F37126" stroke-dasharray="10,5"></line>
        <line x1="1002" y1="938.500542" x2="1037" y2="938.499458" id="Path-2-Copy-78" stroke="#F37126" stroke-dasharray="10,5"></line>
        <line x1="1002" y1="925.500542" x2="1037" y2="925.499458" id="Path-2-Copy-77" stroke="#F37126" stroke-dasharray="10,5"></line>
        <text id="Watchlist-Elements" font-family="Roboto-Medium, Roboto" font-size="36" font-weight="400" fill="#1B3B56">
            <tspan x="937" y="59">Watchlist Elements</tspan>
        </text>
        <rect id="Rectangle" fill="#1B3B56" x="979" y="1355" width="25" height="373"></rect>
        <rect id="Rectangle-Copy-8" fill="#071521" x="510" y="1141" width="24" height="28"></rect>
        <rect id="Rectangle-Copy-9" fill="#071521" x="510" y="1141" width="24" height="28"></rect>
        <rect id="Rectangle-Copy-10" fill="#071521" x="510" y="1198" width="24" height="28"></rect>
        <g id="Minimize-Copy" transform="translate(510.000000, 1198.000000)">
            <rect id="Rectangle-Copy-2" fill="#D8D8D8" opacity="0" x="0" y="0" width="24" height="28"></rect>
            <rect id="Rectangle" fill="#FFFFFF" x="6" y="19" width="12" height="2"></rect>
        </g>
        <g id="Close" transform="translate(510.000000, 1141.000000)">
            <rect id="Rectangle" fill="#D8D8D8" opacity="0" x="0" y="0" width="24" height="28"></rect>
            <polygon id="X" fill="#FFFFFF" points="17.6189127 8 18.909903 9.2909903 13.7451778 14.4541796 18.909903 19.6189127 17.6189127 20.909903 12.4541796 15.7451778 7.2909903 20.909903 6 19.6189127 11.1639928 14.4541796 6 9.2909903 7.2909903 8 12.4541796 13.1639928"></polygon>
        </g>
        <text id="Glyphs-used" font-family="Roboto-Medium, Roboto" font-size="36" font-weight="400" fill="#1B3B56">
            <tspan x="505" y="1112">Glyphs used</tspan>
        </text>
        <text id="Arrows-used" font-family="Roboto-Medium, Roboto" font-size="36" font-weight="400" fill="#1B3B56">
            <tspan x="505" y="1449">Arrows used</tspan>
        </text>
        <text id="Glyph-States" font-family="Roboto-Medium, Roboto" font-size="36" font-weight="400" fill="#1B3B56">
            <tspan x="45" y="1118">Glyph States</tspan>
        </text>
        <text id="Scroll-Bar-States" font-family="Roboto-Medium, Roboto" font-size="21" font-weight="400" fill="#E05505">
            <tspan x="979" y="1270">Scroll Bar States</tspan>
        </text>
        <text id="Glyph_Close" font-family="Roboto-Regular, Roboto" font-size="21" font-weight="normal" fill="#000000">
            <tspan x="572" y="1164">Glyph_Close</tspan>
        </text>
        <text id="Glyph_Minimize" font-family="Roboto-Regular, Roboto" font-size="21" font-weight="normal" fill="#000000">
            <tspan x="572" y="1219">Glyph_Minimize</tspan>
        </text>
        <text id="Glyph_Chart-24px" font-family="Roboto-Regular, Roboto" font-size="21" font-weight="normal" fill="#000000">
            <tspan x="572" y="1269">Glyph_Chart 24px</tspan>
        </text>
        <text id="Normal---white-glyph" font-family="Roboto-Regular, Roboto" font-size="18" font-weight="normal" fill="#000000">
            <tspan x="84" y="1186">Normal - white glyph,</tspan>
            <tspan x="84" y="1207">transparent binding box</tspan>
        </text>
        <text id="Hover---white-glyph," font-family="Roboto-Regular, Roboto" font-size="18" font-weight="normal" fill="#000000">
            <tspan x="84" y="1251">Hover - white glyph, white</tspan>
            <tspan x="84" y="1272">binding box with 15% opacity</tspan>
        </text>
        <text id="Active---Teal" font-family="Roboto-Regular, Roboto" font-size="18" font-weight="normal" fill="#000000">
            <tspan x="84" y="1316">Active - Teal</tspan>
        </text>
        <text id="Inactive---Blue-1" font-family="Roboto-Regular, Roboto" font-size="18" font-weight="normal" fill="#000000">
            <tspan x="84" y="1351">Inactive - Blue 1</tspan>
        </text>
        <rect id="Rectangle" fill="#071521" x="51" y="1165" width="24" height="97"></rect>
        <rect id="Rectangle-Copy-16" fill="#0D2437" x="51" y="1299" width="24" height="127"></rect>
        <g id="Close-Copy" transform="translate(51.000000, 1165.000000)">
            <rect id="Rectangle" fill="#D8D8D8" opacity="0" x="0" y="0" width="24" height="28"></rect>
            <polygon id="X" fill="#FFFFFF" points="17.6189127 8 18.909903 9.2909903 13.7451778 14.4541796 18.909903 19.6189127 17.6189127 20.909903 12.4541796 15.7451778 7.2909903 20.909903 6 19.6189127 11.1639928 14.4541796 6 9.2909903 7.2909903 8 12.4541796 13.1639928"></polygon>
        </g>
        <g id="Close-Copy-2" transform="translate(51.000000, 1234.000000)" fill="#FFFFFF">
            <rect id="Rectangle" opacity="0.15" x="0" y="0" width="24" height="28"></rect>
            <polygon id="X" points="17.6189127 8 18.909903 9.2909903 13.7451778 14.4541796 18.909903 19.6189127 17.6189127 20.909903 12.4541796 15.7451778 7.2909903 20.909903 6 19.6189127 11.1639928 14.4541796 6 9.2909903 7.2909903 8 12.4541796 13.1639928"></polygon>
        </g>
        <g id="cursor-copy-3" transform="translate(75.000000, 1258.000000) rotate(-16.000000) translate(-75.000000, -1258.000000) translate(69.000000, 1248.000000)" fill-rule="nonzero">
            <polygon id="Path" fill="#000000" points="0.2 16.9 0.2 0.9 11.8 12.5 5 12.5 4.6 12.6"></polygon>
            <polygon id="Path" fill="#000000" points="9.3 17.6 5.7 19.1 1 8 4.7 6.5"></polygon>
            <rect id="Rectangle" fill="#FFFFFF" transform="translate(5.500810, 13.594010) rotate(-22.772792) translate(-5.500810, -13.594010) " x="4.50075259" y="9.59378037" width="2.00011482" height="8.00045927"></rect>
            <polygon id="Path" fill="#FFFFFF" points="1.2 3.3 1.2 14.5 4.2 11.6 4.6 11.5 9.4 11.5"></polygon>
        </g>
        <g id="Glyph/24Chart" transform="translate(510.000000, 1251.000000)">
            <rect id="Bounding_box" fill="#D8D8D8" fill-rule="evenodd" opacity="0" x="0" y="0" width="24" height="24"></rect>
            <mask id="mask-9" fill="white">
                <use xlink:href="#path-8"></use>
            </mask>
            <use id="Chart-Copy" fill="#AEB1B5" fill-rule="nonzero" xlink:href="#path-8"></use>
            <g id="Color/Black" mask="url(#mask-9)" fill="#000000" fill-rule="evenodd">
                <rect id="Rectangle" x="0" y="0" width="24" height="24"></rect>
            </g>
        </g>
        <text id="Glyph_News-24px" font-family="Roboto-Regular, Roboto" font-size="21" font-weight="normal" fill="#000000">
            <tspan x="572" y="1313">Glyph_News 24px</tspan>
        </text>
        <g id="Glyph/24News" transform="translate(510.000000, 1295.000000)">
            <rect id="Bounding_box" fill="#D8D8D8" fill-rule="evenodd" opacity="0" x="0" y="0" width="24" height="24"></rect>
            <mask id="mask-11" fill="white">
                <use xlink:href="#path-10"></use>
            </mask>
            <use id="News-Copy" fill="#AEB1B5" fill-rule="nonzero" xlink:href="#path-10"></use>
            <g id="Color/Black" mask="url(#mask-11)" fill="#000000" fill-rule="evenodd">
                <rect id="Rectangle" x="0" y="0" width="24" height="24"></rect>
            </g>
        </g>
        <text id="Glyph_Watchlist-24px" font-family="Roboto-Regular, Roboto" font-size="21" font-weight="normal" fill="#000000">
            <tspan x="572" y="1358">Glyph_Watchlist 24px</tspan>
        </text>
        <text id="Price_Arrow_Up" font-family="Roboto-Regular, Roboto" font-size="21" font-weight="normal" fill="#000000">
            <tspan x="561" y="1492">Price_Arrow_Up</tspan>
        </text>
        <text id="Price_Arrow_Down" font-family="Roboto-Regular, Roboto" font-size="21" font-weight="normal" fill="#000000">
            <tspan x="561" y="1529">Price_Arrow_Down</tspan>
        </text>
        <text id="Scroll_Arrow_Up" font-family="Roboto-Regular, Roboto" font-size="21" font-weight="normal" fill="#000000">
            <tspan x="561" y="1571">Scroll_Arrow_Up</tspan>
        </text>
        <text id="Scroll_Arrow_Down" font-family="Roboto-Regular, Roboto" font-size="21" font-weight="normal" fill="#000000">
            <tspan x="561" y="1613">Scroll_Arrow_Down</tspan>
        </text>
        <g id="Glyph/24Watchlist" transform="translate(510.000000, 1339.000000)">
            <rect id="Bounding_box" fill="#D8D8D8" fill-rule="evenodd" opacity="0" x="0.96" y="0" width="23.04" height="24"></rect>
            <mask id="mask-13" fill="white">
                <use xlink:href="#path-12"></use>
            </mask>
            <use id="Watchlist-Copy" fill="#AEB1B5" fill-rule="nonzero" xlink:href="#path-12"></use>
            <g id="Color/Black" mask="url(#mask-13)" fill="#000000" fill-rule="evenodd">
                <rect id="Rectangle" x="0" y="0" width="24" height="24"></rect>
            </g>
        </g>
        <text id="The-news-and-chart-i" font-family="Roboto-Regular, Roboto" font-size="21" font-weight="normal" fill="#000000">
            <tspan x="51" y="1482">The news and chart icon indicate that</tspan>
            <tspan x="51" y="1506">these windows are already open.</tspan>
            <tspan x="51" y="1530"> </tspan>
            <tspan x="51" y="1554">Clicking on these icons will bring the specific</tspan>
            <tspan x="51" y="1578">windows to the front.</tspan>
            <tspan x="51" y="1602"></tspan>
            <tspan x="51" y="1626">The icons switch off upon the specific windows</tspan>
            <tspan x="51" y="1650">being closed off from the relevant app.</tspan>
        </text>
        <g id="Glyph/24News" transform="translate(51.000000, 1299.000000)">
            <rect id="Bounding_box" fill="#D8D8D8" fill-rule="evenodd" opacity="0" x="0" y="0" width="24" height="24"></rect>
            <mask id="mask-15" fill="white">
                <use xlink:href="#path-14"></use>
            </mask>
            <use id="News-Copy" fill="#AEB1B5" fill-rule="nonzero" xlink:href="#path-14"></use>
            <g id="Color/Teal" mask="url(#mask-15)" fill="#29E9E3" fill-rule="evenodd">
                <rect id="Rectangle" x="0" y="0" width="24" height="24"></rect>
            </g>
        </g>
        <g id="Glyph/24News" transform="translate(51.000000, 1332.000000)">
            <rect id="Bounding_box" fill="#D8D8D8" fill-rule="evenodd" opacity="0" x="0" y="0" width="24" height="24"></rect>
            <mask id="mask-17" fill="white">
                <use xlink:href="#path-16"></use>
            </mask>
            <use id="News-Copy" fill="#AEB1B5" fill-rule="nonzero" xlink:href="#path-16"></use>
            <g id="Color/Blue-1" mask="url(#mask-17)" fill="#8A96A6" fill-rule="evenodd">
                <rect id="Rectangle" x="0" y="0" width="24" height="24"></rect>
            </g>
        </g>
        <text id="Hover-Active---Teal" font-family="Roboto-Regular, Roboto" font-size="18" font-weight="normal" fill="#000000">
            <tspan x="84" y="1386">Hover Active - Teal + Blue 2 bind</tspan>
        </text>
        <text id="Inactive---Blue-1-+" font-family="Roboto-Regular, Roboto" font-size="18" font-weight="normal" fill="#000000">
            <tspan x="84" y="1421">Inactive - Blue 1 + Blue 2 bind</tspan>
        </text>
        <g id="Glyph/24News" transform="translate(51.000000, 1369.000000)">
            <g id="State/Hover" fill-rule="evenodd">
                <g id="Rectangle">
                    <use fill-opacity="0.1" fill="#A6FFFC" xlink:href="#path-18"></use>
                    <use fill="#1B3B56" xlink:href="#path-18"></use>
                </g>
            </g>
            <rect id="Bounding_box" fill="#D8D8D8" fill-rule="evenodd" opacity="0" x="0" y="0" width="24" height="24"></rect>
            <mask id="mask-20" fill="white">
                <use xlink:href="#path-19"></use>
            </mask>
            <use id="News-Copy" fill="#AEB1B5" fill-rule="nonzero" xlink:href="#path-19"></use>
            <g id="Color/Teal" mask="url(#mask-20)" fill="#29E9E3" fill-rule="evenodd">
                <rect id="Rectangle" x="0" y="0" width="24" height="24"></rect>
            </g>
        </g>
        <g id="Glyph/24News" transform="translate(51.000000, 1402.000000)">
            <g id="State/Hover" fill-rule="evenodd">
                <g id="Rectangle">
                    <use fill-opacity="0.1" fill="#A6FFFC" xlink:href="#path-21"></use>
                    <use fill="#1B3B56" xlink:href="#path-21"></use>
                </g>
            </g>
            <rect id="Bounding_box" fill="#D8D8D8" fill-rule="evenodd" opacity="0" x="0" y="0" width="24" height="24"></rect>
            <mask id="mask-23" fill="white">
                <use xlink:href="#path-22"></use>
            </mask>
            <use id="News-Copy" fill="#AEB1B5" fill-rule="nonzero" xlink:href="#path-22"></use>
            <g id="Color/Blue-1" mask="url(#mask-23)" fill="#8A96A6" fill-rule="evenodd">
                <rect id="Rectangle" x="0" y="0" width="24" height="24"></rect>
            </g>
        </g>
        <g id="Arrow/Up" transform="translate(507.000000, 1485.000000)">
            <mask id="mask-25" fill="white">
                <use xlink:href="#path-24"></use>
            </mask>
            <use id="Triangle-5" fill="#000000" xlink:href="#path-24"></use>
        </g>
        <g id="Arrow/Up-Copy" transform="translate(507.000000, 1522.000000)">
            <mask id="mask-27" fill="white">
                <use xlink:href="#path-26"></use>
            </mask>
            <use id="Triangle-5" fill="#000000" transform="translate(4.500000, 3.500000) scale(1, -1) translate(-4.500000, -3.500000) " xlink:href="#path-26"></use>
        </g>
        <g id="Component/Scroll_Arrow_Down" transform="translate(505.000000, 1601.000000)">
            <rect id="Rectangle-Copy" opacity="0" x="0" y="0" width="12" height="12"></rect>
            <mask id="mask-29" fill="white">
                <use xlink:href="#path-28"></use>
            </mask>
            <use id="Triangle-5" fill="#000000" transform="translate(6.000000, 6.000000) scale(1, -1) translate(-6.000000, -6.000000) " xlink:href="#path-28"></use>
        </g>
        <g id="Component/Scroll_Arrow_Up-Copy" transform="translate(505.000000, 1559.000000)">
            <rect id="Rectangle" opacity="0" x="0" y="0" width="12" height="12"></rect>
            <mask id="mask-31" fill="white">
                <use xlink:href="#path-30"></use>
            </mask>
            <use id="Triangle-5" fill="#000000" xlink:href="#path-30"></use>
        </g>
        <text id="12px-copy-3" font-family="Roboto-Regular, Roboto" font-size="18" font-weight="normal" fill="#000000">
            <tspan x="957" y="1201">12px</tspan>
        </text>
        <line x1="1002" y1="1203.50054" x2="1037" y2="1203.49946" id="Path-2-Copy-80" stroke="#F37126" stroke-dasharray="10,5"></line>
        <line x1="1002" y1="1190.50054" x2="1037" y2="1190.49946" id="Path-2-Copy-79" stroke="#F37126" stroke-dasharray="10,5"></line>
        <g id="Component/Scroll_Arrow_Down" transform="translate(985.000000, 1386.000000)">
            <mask id="mask-33" fill="white">
                <use xlink:href="#path-32"></use>
            </mask>
            <use id="Triangle-5" fill="#AEB1B5" fill-rule="evenodd" transform="translate(6.000000, 6.000000) scale(1, -1) translate(-6.000000, -6.000000) " xlink:href="#path-32"></use>
            <g id="Color/Blue-4" mask="url(#mask-33)" fill="#091A29" fill-rule="evenodd">
                <g transform="translate(2.000000, 3.000000)" id="Rectangle">
                    <rect x="0" y="0" width="8" height="7"></rect>
                </g>
            </g>
        </g>
        <g id="Component/Scroll_Arrow_Up" transform="translate(985.000000, 1364.000000)">
            <mask id="mask-35" fill="white">
                <use xlink:href="#path-34"></use>
            </mask>
            <use id="Triangle-5" fill="#AEB1B5" fill-rule="evenodd" xlink:href="#path-34"></use>
            <g id="Color/Blue-4" mask="url(#mask-35)" fill="#091A29" fill-rule="evenodd">
                <g transform="translate(2.000000, 3.000000)" id="Rectangle">
                    <rect x="0" y="0" width="8" height="7"></rect>
                </g>
            </g>
        </g>
        <g id="Component/Scroll_Arrow_Down" transform="translate(985.000000, 1456.000000)">
            <mask id="mask-37" fill="white">
                <use xlink:href="#path-36"></use>
            </mask>
            <use id="Triangle-5" fill="#AEB1B5" fill-rule="evenodd" transform="translate(6.000000, 6.000000) scale(1, -1) translate(-6.000000, -6.000000) " xlink:href="#path-36"></use>
            <g id="Color/Blue-1" mask="url(#mask-37)" fill="#8A96A6" fill-rule="evenodd">
                <g transform="translate(2.000000, 3.000000)" id="Rectangle">
                    <rect x="0" y="0" width="8" height="7"></rect>
                </g>
            </g>
        </g>
        <g id="Component/Scroll_Arrow_Up" transform="translate(985.000000, 1434.000000)">
            <mask id="mask-39" fill="white">
                <use xlink:href="#path-38"></use>
            </mask>
            <use id="Triangle-5" fill="#AEB1B5" fill-rule="evenodd" xlink:href="#path-38"></use>
            <g id="Color/Blue-1" mask="url(#mask-39)" fill="#8A96A6" fill-rule="evenodd">
                <g transform="translate(2.000000, 3.000000)" id="Rectangle">
                    <rect x="0" y="0" width="8" height="7"></rect>
                </g>
            </g>
        </g>
        <text id="Disabled---Blue-4--" font-family="Roboto-Regular, Roboto" font-size="21" font-weight="normal" fill="#000000">
            <tspan x="1013" y="1374">Disabled - Blue 4 - scroll bar grip is either at</tspan>
            <tspan x="1013" y="1398">the very top or very bottom</tspan>
        </text>
        <text id="Pressed---Blue-4-wit" font-family="Roboto-Regular, Roboto" font-size="21" font-weight="normal" fill="#000000">
            <tspan x="1013" y="1695">Pressed - Blue 4 with a 5% #FFFFFF overlay</tspan>
        </text>
        <text id="Default---Blue-4" font-family="Roboto-Regular, Roboto" font-size="21" font-weight="normal" fill="#000000">
            <tspan x="1013" y="1611">Default - Blue 4</tspan>
        </text>
        <text id="Clickable---Blue-1--" font-family="Roboto-Regular, Roboto" font-size="21" font-weight="normal" fill="#000000">
            <tspan x="1013" y="1446">Clickable - Blue 1 - scroll bar grip can be moved</tspan>
            <tspan x="1013" y="1470">up or down</tspan>
        </text>
        <g id="Component/Scroll_Arrow_Down" transform="translate(985.000000, 1533.000000)">
            <g id="State/Pressed" fill="#FFFFFF" fill-opacity="0.05" fill-rule="evenodd">
                <rect id="Rectangle" x="0" y="0" width="12" height="12"></rect>
            </g>
            <mask id="mask-41" fill="white">
                <use xlink:href="#path-40"></use>
            </mask>
            <use id="Triangle-5" fill="#AEB1B5" fill-rule="evenodd" transform="translate(6.000000, 6.000000) scale(1, -1) translate(-6.000000, -6.000000) " xlink:href="#path-40"></use>
            <g id="Color/Teal" mask="url(#mask-41)" fill="#29E9E3" fill-rule="evenodd">
                <g transform="translate(2.000000, 3.000000)" id="Rectangle">
                    <rect x="0" y="0" width="8" height="7"></rect>
                </g>
            </g>
        </g>
        <g id="Component/Scroll_Arrow_Up" transform="translate(985.000000, 1511.000000)">
            <g id="State/Pressed" fill="#FFFFFF" fill-opacity="0.05" fill-rule="evenodd">
                <rect id="Rectangle" x="0" y="0" width="12" height="12"></rect>
            </g>
            <mask id="mask-43" fill="white">
                <use xlink:href="#path-42"></use>
            </mask>
            <use id="Triangle-5" fill="#AEB1B5" fill-rule="evenodd" xlink:href="#path-42"></use>
            <g id="Color/Teal" mask="url(#mask-43)" fill="#29E9E3" fill-rule="evenodd">
                <g transform="translate(2.000000, 3.000000)" id="Rectangle">
                    <rect x="0" y="0" width="8" height="7"></rect>
                </g>
            </g>
        </g>
        <text id="Pressed---arrows-tur" font-family="Roboto-Regular, Roboto" font-size="21" font-weight="normal" fill="#000000">
            <tspan x="1013" y="1524">Pressed - arrows turn Teal when pressed, binding</tspan>
            <tspan x="1013" y="1548">box turns into #FFFFFF 5% opacity</tspan>
        </text>
        <text id="There-are-no-hover-s" font-family="Roboto-Regular, Roboto" font-size="21" font-weight="normal" fill="#000000">
            <tspan x="979" y="1311">There are no hover states for the arrows or the scroll bar grip</tspan>
        </text>
        <g id="Component/Scroll_Bar" transform="translate(985.000000, 1571.000000)" fill="#091A29">
            <g id="Color/Blue-4">
                <rect id="Rectangle" x="0" y="0" width="12" height="67"></rect>
            </g>
        </g>
        <g id="Component/Scroll_Bar" transform="translate(985.000000, 1654.000000)">
            <g id="Color/Blue-4" fill="#091A29">
                <rect id="Rectangle" x="0" y="0" width="12" height="67"></rect>
            </g>
            <g id="State/Pressed" fill="#FFFFFF" fill-opacity="0.05">
                <rect id="Rectangle" x="0" y="0" width="12" height="67"></rect>
            </g>
        </g>
    </g>
</svg>