<?xml version="1.0" encoding="UTF-8"?>
<svg width="1550px" height="1024px" viewBox="0 0 1550 1024" version="1.1" xmlns="http://www.w3.org/2000/svg" xmlns:xlink="http://www.w3.org/1999/xlink">
    <!-- Generator: Sketch 59 (86127) - https://sketch.com -->
    <title>Launcher Specs Copy</title>
    <desc>Created with Sketch.</desc>
    <defs>
        <rect id="path-1" x="0" y="0" width="724" height="88"></rect>
        <filter x="-1.2%" y="-7.4%" width="102.3%" height="119.3%" filterUnits="objectBoundingBox" id="filter-2">
            <feMorphology radius="0.5" operator="dilate" in="SourceAlpha" result="shadowSpreadOuter1"></feMorphology>
            <feOffset dx="0" dy="2" in="shadowSpreadOuter1" result="shadowOffsetOuter1"></feOffset>
            <feGaussianBlur stdDeviation="2" in="shadowOffsetOuter1" result="shadowBlurOuter1"></feGaussianBlur>
            <feColorMatrix values="0 0 0 0 0   0 0 0 0 0   0 0 0 0 0  0 0 0 0.5 0" type="matrix" in="shadowBlurOuter1"></feColorMatrix>
        </filter>
        <path d="M13.9912109,35.4667969 C14.9983774,35.4667969 15.7765272,35.7880827 16.3256836,36.4306641 C16.87484,37.0732454 17.1494141,37.982416 17.1494141,39.1582031 L17.1494141,39.828125 L12.3164062,39.828125 C12.3665367,40.4388051 12.5704735,40.9218732 12.9282227,41.2773438 C13.2859718,41.6328143 13.7359999,41.8105469 14.2783203,41.8105469 C15.0393918,41.8105469 15.6591773,41.5029328 16.1376953,40.8876953 L17.0332031,41.7421875 C16.7369777,42.184247 16.3416366,42.5271798 15.847168,42.7709961 C15.3526994,43.0148124 14.7978546,43.1367188 14.1826172,43.1367188 C13.1298775,43.1367188 12.2765332,42.8051791 11.6225586,42.1420898 C10.968584,41.4790006 10.6416016,40.5960342 10.6416016,39.4931641 L10.6416016,39.2880859 C10.6416016,38.549801 10.7840155,37.8901396 11.0688477,37.309082 C11.3536798,36.7280244 11.7535782,36.2757178 12.2685547,35.9521484 C12.7835312,35.6285791 13.3577442,35.4667969 13.9912109,35.4667969 Z M25.4824219,33.8056641 L25.4824219,35.6035156 L26.7880859,35.6035156 L26.7880859,36.8339844 L25.4824219,36.8339844 L25.4824219,40.9628906 C25.4824219,41.2454441 25.5382481,41.4493809 25.6499023,41.574707 C25.7615565,41.7000332 25.9609361,41.7626953 26.2480469,41.7626953 C26.4394541,41.7626953 26.633137,41.7399091 26.8291016,41.6943359 L26.8291016,42.9794922 C26.4508445,43.0843104 26.0862648,43.1367188 25.7353516,43.1367188 C24.4593035,43.1367188 23.8212891,42.4326242 23.8212891,41.0244141 L23.8212891,36.8339844 L22.6044922,36.8339844 L22.6044922,35.6035156 L23.8212891,35.6035156 L23.8212891,33.8056641 L25.4824219,33.8056641 Z M5.24121094,33.046875 L5.24121094,41.6191406 L9.75976562,41.6191406 L9.75976562,43 L3.51171875,43 L3.51171875,33.046875 L5.24121094,33.046875 Z M21.6201172,32.3564453 C21.9117853,32.3564453 22.221678,32.3974605 22.5498047,32.4794922 L22.5087891,33.7783203 C22.3264965,33.7418618 22.1145845,33.7236328 21.8730469,33.7236328 C21.0800742,33.7236328 20.6835938,34.1315063 20.6835938,34.9472656 L20.6835938,35.6035156 L22.1875,35.6035156 L22.1875,36.8339844 L20.6835938,36.8339844 L20.6835938,43 L19.0224609,43 L19.0224609,36.8339844 L17.8945312,36.8339844 L17.8945312,35.6035156 L19.0224609,35.6035156 L19.0224609,34.9267578 C19.0224609,34.1064412 19.2503232,33.472984 19.7060547,33.0263672 C20.1617861,32.5797504 20.7998006,32.3564453 21.6201172,32.3564453 Z M13.984375,36.7998047 C13.5286436,36.7998047 13.1606459,36.9593083 12.8803711,37.2783203 C12.6000963,37.5973323 12.4212243,38.0416638 12.34375,38.6113281 L15.5087891,38.6113281 L15.5087891,38.4882812 C15.4723305,37.9322889 15.32422,37.5118829 15.0644531,37.2270508 C14.8046862,36.9422186 14.4446638,36.7998047 13.984375,36.7998047 Z M30,4 L30,26 L0,26 L0,4 L30,4 Z M28,6 L6,6 L6,24 L28,24 L28,6 Z" id="path-3"></path>
        <path d="M22.4824219,35.4667969 C23.3847701,35.4667969 24.0922826,35.8028938 24.6049805,36.4750977 C25.1176783,37.1473015 25.3740234,38.0803977 25.3740234,39.2744141 L25.3740234,39.3769531 C25.3740234,40.5208391 25.1142604,41.4334276 24.5947266,42.1147461 C24.0751927,42.7960646 23.3779341,43.1367188 22.5029297,43.1367188 C21.6917277,43.1367188 21.0423201,42.8701199 20.5546875,42.3369141 L20.5546875,45.84375 L18.8935547,45.84375 L18.8935547,35.6035156 L20.4248047,35.6035156 L20.4931641,36.3554688 C20.9807967,35.7630179 21.643876,35.4667969 22.4824219,35.4667969 Z M14.046875,35.4667969 C15.0449269,35.4667969 15.8549774,35.7880827 16.4770508,36.4306641 C17.0991242,37.0732454 17.4352211,37.9254504 17.4853516,38.9873047 L17.4921875,39.3769531 C17.4921875,40.1061234 17.3520522,40.7578096 17.0717773,41.3320312 C16.7915025,41.9062529 16.3904648,42.3505844 15.8686523,42.6650391 C15.3468398,42.9794938 14.744144,43.1367188 14.0605469,43.1367188 C13.0169219,43.1367188 12.1818065,42.7892287 11.5551758,42.0942383 C10.9767474,41.4527086 10.66529,40.6141207 10.6207961,39.5784526 L10.6152344,39.2333984 C10.6152344,38.5087854 10.7587876,37.8559599 11.0458984,37.2749023 C11.3330092,36.6938448 11.7363255,36.2472346 12.2558594,35.9350586 C12.7753932,35.6228826 13.3723925,35.4667969 14.046875,35.4667969 Z M11.203125,33.046875 L11.203125,34.4414062 L8.09960938,34.4414062 L8.09960938,43 L6.38378906,43 L6.38378906,34.4414062 L3.30761719,34.4414062 L3.30761719,33.046875 L11.203125,33.046875 Z M14.046875,36.7998047 C13.5045546,36.7998047 13.0738948,37.0151346 12.7548828,37.4458008 C12.4358708,37.876467 12.2763672,38.520178 12.2763672,39.3769531 C12.2763672,40.1380246 12.4335922,40.7338846 12.7480469,41.1645508 C13.0625016,41.595217 13.4999972,41.8105469 14.0605469,41.8105469 C14.6210966,41.8105469 15.0574529,41.5917991 15.3696289,41.1542969 C15.6818049,40.7167947 15.8378906,40.0765016 15.8378906,39.2333984 C15.8378906,38.4859989 15.6772477,37.8935569 15.355957,37.4560547 C15.0346664,37.0185525 14.59831,36.7998047 14.046875,36.7998047 Z M22.0175781,36.8271484 C21.3951249,36.8271484 20.9335131,37.0626536 20.6327314,37.5336705 L20.5546875,37.6679688 L20.5546875,40.9492188 C20.8554703,41.5234404 21.3476528,41.8105469 22.03125,41.8105469 C22.5598985,41.8105469 22.9734686,41.5974956 23.2719727,41.1713867 C23.5704768,40.7452778 23.7197266,40.0992882 23.7197266,39.2333984 C23.7197266,38.4951135 23.5727554,37.9095074 23.2788086,37.4765625 C22.9848618,37.0436176 22.5644559,36.8271484 22.0175781,36.8271484 Z M30,4 L30,26 L0,26 L0,4 L30,4 Z M28,10 L2,10 L2,24 L28,24 L28,10 Z" id="path-5"></path>
        <path d="M14.8320312,35.4667969 C15.6751344,35.4667969 16.3382137,35.7607392 16.8212891,36.3486328 L16.8964844,35.6035156 L18.3935547,35.6035156 L18.3935547,42.7744141 C18.3935547,43.745122 18.0916371,44.5107394 17.487793,45.0712891 C16.8839488,45.6318387 16.0693411,45.9121094 15.0439453,45.9121094 C14.5016249,45.9121094 13.971845,45.7993175 13.4545898,45.5737305 C12.9373347,45.3481434 12.5442722,45.0530617 12.2753906,44.6884766 L13.0615234,43.6904297 C13.5719427,44.2965525 14.2008426,44.5996094 14.9482422,44.5996094 C15.4996772,44.5996094 15.9348942,44.4503596 16.2539062,44.1518555 C16.5729183,43.8533514 16.7324219,43.4147164 16.7324219,42.8359375 L16.7324219,42.3369141 C16.2539039,42.8701199 15.6158894,43.1367188 14.8183594,43.1367188 C13.9524696,43.1367188 13.2449572,42.7926467 12.6958008,42.1044922 C12.1466444,41.4163377 11.8720703,40.4638733 11.8720703,39.2470703 C11.8720703,38.0986271 12.1420871,37.1814813 12.6821289,36.4956055 C13.2221707,35.8097296 13.9387976,35.4667969 14.8320312,35.4667969 Z M29.953125,33.8056641 L29.953125,35.6035156 L31.2587891,35.6035156 L31.2587891,36.8339844 L29.953125,36.8339844 L29.953125,40.9628906 C29.953125,41.2454441 30.0089513,41.4493809 30.1206055,41.574707 C30.2322597,41.7000332 30.4316392,41.7626953 30.71875,41.7626953 C30.9101572,41.7626953 31.1038402,41.7399091 31.2998047,41.6943359 L31.2998047,42.9794922 C30.9215476,43.0843104 30.5569679,43.1367188 30.2060547,43.1367188 C28.9300066,43.1367188 28.2919922,42.4326242 28.2919922,41.0244141 L28.2919922,36.8339844 L27.0751953,36.8339844 L27.0751953,35.6035156 L28.2919922,35.6035156 L28.2919922,33.8056641 L29.953125,33.8056641 Z M3.51171875,33.046875 C4.66016199,33.046875 5.54654636,33.3043594 6.17089844,33.8193359 C6.79525052,34.3343125 7.10742188,35.0794222 7.10742188,36.0546875 C7.10742188,36.7200554 6.94677895,37.2771787 6.62548828,37.7260742 C6.30419761,38.1749697 5.85644818,38.5201811 5.28222656,38.7617188 L7.51757812,42.9111328 L7.51757812,43 L5.66503906,43 L3.66894531,39.1650391 L1.74121094,39.1650391 L1.74121094,43 L0.01171875,43 L0.01171875,33.046875 L3.51171875,33.046875 Z M10.3544922,35.6035156 L10.3544922,43 L8.69335938,43 L8.69335938,35.6035156 L10.3544922,35.6035156 Z M21.7363281,32.5 L21.7363281,36.4101562 C22.2786485,35.7812469 22.9645141,35.4667969 23.7939453,35.4667969 C25.3707761,35.4667969 26.1705728,36.366853 26.1933594,38.1669922 L26.1933594,43 L24.5322266,43 L24.5322266,38.2285156 C24.5322266,37.7180964 24.4217133,37.3569347 24.2006836,37.1450195 C23.9796538,36.9331044 23.6549501,36.8271484 23.2265625,36.8271484 C22.5611946,36.8271484 22.0644548,37.1233694 21.7363281,37.7158203 L21.7363281,43 L20.0751953,43 L20.0751953,32.5 L21.7363281,32.5 Z M15.2558594,36.8271484 C14.7089816,36.8271484 14.2840184,37.0436176 13.980957,37.4765625 C13.6778956,37.9095074 13.5263672,38.5475218 13.5263672,39.390625 C13.5263672,40.1334673 13.6778956,40.7179341 13.980957,41.144043 C14.2840184,41.5701519 14.7044244,41.7832031 15.2421875,41.7832031 C15.9121127,41.7832031 16.4088525,41.4960966 16.7324219,40.921875 L16.7324219,37.6679688 C16.4179672,37.1074191 15.9257846,36.8271484 15.2558594,36.8271484 Z M3.56640625,34.4414062 L1.74121094,34.4414062 L1.74121094,37.7773438 L3.51855469,37.7773438 C4.10189094,37.7773438 4.55761555,37.6303726 4.88574219,37.3364258 C5.21386883,37.042479 5.37792969,36.640302 5.37792969,36.1298828 C5.37792969,35.596677 5.22640125,35.1842463 4.92333984,34.8925781 C4.62027843,34.60091 4.16797176,34.4505209 3.56640625,34.4414062 Z M9.52734375,32.7939453 C9.8281265,32.7939453 10.0605461,32.8782544 10.2246094,33.046875 C10.3886727,33.2154956 10.4707031,33.4274076 10.4707031,33.6826172 C10.4707031,33.9332695 10.3886727,34.1417635 10.2246094,34.3081055 C10.0605461,34.4744474 9.8281265,34.5576172 9.52734375,34.5576172 C9.226561,34.5576172 8.99528076,34.4744474 8.83349609,34.3081055 C8.67171143,34.1417635 8.59082031,33.9332695 8.59082031,33.6826172 C8.59082031,33.4274076 8.67171143,33.2154956 8.83349609,33.046875 C8.99528076,32.8782544 9.226561,32.7939453 9.52734375,32.7939453 Z M31,4 L31,26 L1,26 L1,4 L31,4 Z M25,6 L3,6 L3,24 L25,24 L25,6 Z" id="path-7"></path>
        <path d="M14,2 C20.0751322,2 25,6.92486775 25,13 C25,15.953065 23.8363319,18.6343408 21.9425297,20.6102934 L27.7069752,27.2401341 L26.1975561,28.5522521 L20.4342337,21.9229164 C18.624994,23.229828 16.4024387,24 14,24 C7.92486775,24 3,19.0751322 3,13 C3,6.92486775 7.92486775,2 14,2 Z M14,4 C9.02943725,4 5,8.02943725 5,13 C5,17.9705627 9.02943725,22 14,22 C18.9705627,22 23,17.9705627 23,13 C23,8.02943725 18.9705627,4 14,4 Z" id="path-9"></path>
        <path d="M15.9140625,35.4667969 C16.7799522,35.4667969 17.470375,35.6844054 17.9853516,36.1196289 C18.5003281,36.5548524 18.7646484,37.1666627 18.7783203,37.9550781 L18.7783203,41.2910156 C18.7783203,41.9563835 18.8717439,42.4873027 19.0585938,42.8837891 L19.0585938,43 L17.3632812,43 C17.2903642,42.8587233 17.2265628,42.6285823 17.171875,42.3095703 C16.6432265,42.8610054 15.9960976,43.1367188 15.2304688,43.1367188 C14.4876265,43.1367188 13.8815128,42.9248068 13.4121094,42.5009766 C12.942706,42.0771463 12.7080078,41.553063 12.7080078,40.9287109 C12.7080078,40.1402955 13.0008109,39.5353211 13.5864258,39.1137695 C14.1720407,38.6922179 15.0094347,38.4814453 16.0986328,38.4814453 L17.1171875,38.4814453 L17.1171875,37.9960938 C17.1171875,37.6132793 17.0100922,37.3068045 16.7958984,37.0766602 C16.5817047,36.8465158 16.2558616,36.7314453 15.8183594,36.7314453 C15.4401023,36.7314453 15.1302095,36.8260082 14.8886719,37.0151367 C14.6471342,37.2042653 14.5263672,37.44466 14.5263672,37.7363281 L12.8652344,37.7363281 C12.8652344,37.3307271 12.9996731,36.9513364 13.2685547,36.5981445 C13.5374362,36.2449527 13.9031552,35.9681 14.3657227,35.7675781 C14.8282901,35.5670563 15.3443982,35.4667969 15.9140625,35.4667969 Z M22.5996094,33.8056641 L22.5996094,35.6035156 L23.9052734,35.6035156 L23.9052734,36.8339844 L22.5996094,36.8339844 L22.5996094,40.9628906 C22.5996094,41.2454441 22.6554356,41.4493809 22.7670898,41.574707 C22.878744,41.7000332 23.0781236,41.7626953 23.3652344,41.7626953 C23.5566416,41.7626953 23.7503245,41.7399091 23.9462891,41.6943359 L23.9462891,42.9794922 C23.568032,43.0843104 23.2034523,43.1367188 22.8525391,43.1367188 C21.576491,43.1367188 20.9384766,42.4326242 20.9384766,41.0244141 L20.9384766,36.8339844 L19.7216797,36.8339844 L19.7216797,35.6035156 L20.9384766,35.6035156 L20.9384766,33.8056641 L22.5996094,33.8056641 Z M28.2255859,35.4667969 C29.1051476,35.4667969 29.8217746,35.723142 30.3754883,36.2358398 C30.929202,36.7485377 31.2197264,37.4218708 31.2470703,38.2558594 L29.6816406,38.2558594 C29.6634114,37.8320291 29.5187188,37.4833998 29.2475586,37.2099609 C28.9763984,36.9365221 28.631187,36.7998047 28.2119141,36.7998047 C27.674151,36.7998047 27.2594416,36.994627 26.9677734,37.3842773 C26.6761053,37.7739277 26.5279948,38.3652304 26.5234375,39.1582031 L26.5234375,39.4248047 C26.5234375,40.226892 26.6681301,40.8250306 26.9575195,41.2192383 C27.246909,41.613446 27.6650363,41.8105469 28.2119141,41.8105469 C28.6266297,41.8105469 28.9707018,41.6897799 29.2441406,41.4482422 C29.5175795,41.2067045 29.6634114,40.9082049 29.6816406,40.5527344 L31.2470703,40.5527344 C31.2288411,41.0130231 31.0852878,41.4425436 30.8164062,41.8413086 C30.5475247,42.2400736 30.182945,42.5556629 29.7226562,42.7880859 C29.2623675,43.020509 28.7656277,43.1367188 28.2324219,43.1367188 C27.1979115,43.1367188 26.3776072,42.8017612 25.7714844,42.1318359 C25.1653616,41.4619107 24.8623047,40.5367898 24.8623047,39.3564453 L24.8623047,39.1855469 C24.8623047,38.0598902 25.1630829,37.1586948 25.7646484,36.4819336 C26.3662139,35.8051724 27.1865182,35.4667969 28.2255859,35.4667969 Z M50.1894531,35.4667969 C51.0735721,35.4667969 51.7879205,35.6855447 52.3325195,36.1230469 C52.8771186,36.5605491 53.1494141,37.1279262 53.1494141,37.8251953 L51.4882812,37.8251953 C51.4882812,37.5061833 51.3697929,37.2407237 51.1328125,37.0288086 C50.8958321,36.8168935 50.5813822,36.7109375 50.1894531,36.7109375 C49.824868,36.7109375 49.5275077,36.7952466 49.2973633,36.9638672 C49.0672189,37.1324878 48.9521484,37.3580715 48.9521484,37.640625 C48.9521484,37.8958346 49.0592437,38.0940748 49.2734375,38.2353516 C49.4400327,38.3452335 49.7389548,38.4558033 50.17021,38.5670631 L50.5722656,38.6625977 C51.2239616,38.8061531 51.7355125,38.9770498 52.1069336,39.175293 C52.4783547,39.3735361 52.7540681,39.6116523 52.934082,39.8896484 C53.114096,40.1676446 53.2041016,40.5048808 53.2041016,40.9013672 C53.2041016,41.5667351 52.9283882,42.1056294 52.3769531,42.5180664 C51.8255181,42.9305034 51.1031946,43.1367188 50.2099609,43.1367188 C49.6038381,43.1367188 49.0638045,43.0273448 48.5898438,42.8085938 C48.115883,42.5898427 47.7467461,42.2890644 47.4824219,41.90625 C47.2180976,41.5234356 47.0859375,41.1110048 47.0859375,40.6689453 L48.6992188,40.6689453 C48.7220053,41.0608744 48.8701158,41.3627919 49.1435547,41.574707 C49.4169936,41.7866222 49.7792946,41.8925781 50.2304688,41.8925781 C50.6679709,41.8925781 51.0006499,41.8094084 51.2285156,41.6430664 C51.4563813,41.4767244 51.5703125,41.2591159 51.5703125,40.9902344 C51.5703125,40.6940089 51.4484062,40.4684253 51.2045898,40.3134766 C50.9912506,40.1778965 50.6549218,40.0562747 50.1955955,39.9486085 L49.9912109,39.9033203 C49.4261039,39.7848301 48.954429,39.634441 48.5761719,39.4521484 C47.7467406,39.0511048 47.3320312,38.4700559 47.3320312,37.7089844 C47.3320312,37.0709604 47.6009088,36.5377626 48.1386719,36.109375 C48.676435,35.6809874 49.3600219,35.4667969 50.1894531,35.4667969 Z M56.7314453,33.8056641 L56.7314453,35.6035156 L58.0371094,35.6035156 L58.0371094,36.8339844 L56.7314453,36.8339844 L56.7314453,40.9628906 C56.7314453,41.2454441 56.7872716,41.4493809 56.8989258,41.574707 C57.01058,41.7000332 57.2099595,41.7626953 57.4970703,41.7626953 C57.6884775,41.7626953 57.8821605,41.7399091 58.078125,41.6943359 L58.078125,42.9794922 C57.6998679,43.0843104 57.3352882,43.1367188 56.984375,43.1367188 C55.708327,43.1367188 55.0703125,42.4326242 55.0703125,41.0244141 L55.0703125,36.8339844 L53.8535156,36.8339844 L53.8535156,35.6035156 L55.0703125,35.6035156 L55.0703125,33.8056641 L56.7314453,33.8056641 Z M34.1386719,32.5 L34.1386719,36.4101563 C34.6809923,35.7812469 35.3668578,35.4667969 36.1962891,35.4667969 C37.7731199,35.4667969 38.5729166,36.366853 38.5957031,38.1669922 L38.5957031,43 L36.9345703,43 L36.9345703,38.2285156 C36.9345703,37.7180964 36.8240571,37.3569347 36.6030273,37.1450195 C36.3819976,36.9331044 36.0572938,36.8271484 35.6289062,36.8271484 C34.9635383,36.8271484 34.4667985,37.1233694 34.1386719,37.7158203 L34.1386719,43 L32.4775391,43 L32.4775391,32.5 L34.1386719,32.5 Z M42.0410156,32.5 L42.0410156,43 L40.3798828,43 L40.3798828,32.5 L42.0410156,32.5 Z M45.6162109,35.6035156 L45.6162109,43 L43.9550781,43 L43.9550781,35.6035156 L45.6162109,35.6035156 Z M2.04394531,33.046875 L3.588125,40.524 L5.48925781,33.046875 L6.93847656,33.046875 L8.81835938,40.5390625 L10.3496094,33.046875 L12.0654297,33.046875 L9.76855469,43 L8.11425781,43 L6.22070312,35.7333984 L4.28613281,43 L2.625,43 L0.328125,33.046875 L2.04394531,33.046875 Z M17.1171875,39.5273438 L16.2216797,39.5273438 C15.6064422,39.5273438 15.1438818,39.634439 14.8339844,39.8486328 C14.524087,40.0628266 14.3691406,40.3658835 14.3691406,40.7578125 C14.3691406,41.0768245 14.4750966,41.330891 14.6870117,41.5200195 C14.8989268,41.7091481 15.1826154,41.8037109 15.5380859,41.8037109 C15.8662126,41.8037109 16.174966,41.7239591 16.4643555,41.5644531 C16.7537449,41.4049471 16.9713534,41.1907566 17.1171875,40.921875 L17.1171875,39.5273438 Z M44.7890625,32.7939453 C45.0898453,32.7939453 45.3222648,32.8782544 45.4863281,33.046875 C45.6503914,33.2154956 45.7324219,33.4274076 45.7324219,33.6826172 C45.7324219,33.9332695 45.6503914,34.1417635 45.4863281,34.3081055 C45.3222648,34.4744474 45.0898453,34.5576172 44.7890625,34.5576172 C44.4882797,34.5576172 44.2569995,34.4744474 44.0952148,34.3081055 C43.9334302,34.1417635 43.8525391,33.9332695 43.8525391,33.6826172 C43.8525391,33.4274076 43.9334302,33.2154956 44.0952148,33.046875 C44.2569995,32.8782544 44.4882797,32.7939453 44.7890625,32.7939453 Z M30,8 C34.7864678,8 39.1198012,10.4375 43,15.3125 C39.1198012,20.1875 34.7864678,22.625 30,22.625 C25.2135322,22.625 20.8801988,20.1875 17,15.3125 C20.8801988,10.4375 25.2135322,8 30,8 Z M30,9.625 C26.8588805,9.625 24.3125,12.1713805 24.3125,15.3125 C24.3125,18.4536195 26.8588805,21 30,21 C33.1411195,21 35.6875,18.4536195 35.6875,15.3125 C35.6875,12.1713805 33.1411195,9.625 30,9.625 Z M30,12.3125 C31.6568542,12.3125 33,13.6556458 33,15.3125 C33,16.9693542 31.6568542,18.3125 30,18.3125 C28.3431458,18.3125 27,16.9693542 27,15.3125 C27,13.6556458 28.3431458,12.3125 30,12.3125 Z" id="path-11"></path>
        <rect id="path-13" x="0" y="0" width="90" height="1024"></rect>
        <filter x="-9.4%" y="-0.6%" width="118.9%" height="101.7%" filterUnits="objectBoundingBox" id="filter-14">
            <feMorphology radius="0.5" operator="dilate" in="SourceAlpha" result="shadowSpreadOuter1"></feMorphology>
            <feOffset dx="0" dy="2" in="shadowSpreadOuter1" result="shadowOffsetOuter1"></feOffset>
            <feGaussianBlur stdDeviation="2" in="shadowOffsetOuter1" result="shadowBlurOuter1"></feGaussianBlur>
            <feColorMatrix values="0 0 0 0 0   0 0 0 0 0   0 0 0 0 0  0 0 0 0.5 0" type="matrix" in="shadowBlurOuter1"></feColorMatrix>
        </filter>
        <path d="M13.9912109,35.4667969 C14.9983774,35.4667969 15.7765272,35.7880827 16.3256836,36.4306641 C16.87484,37.0732454 17.1494141,37.982416 17.1494141,39.1582031 L17.1494141,39.828125 L12.3164062,39.828125 C12.3665367,40.4388051 12.5704735,40.9218732 12.9282227,41.2773438 C13.2859718,41.6328143 13.7359999,41.8105469 14.2783203,41.8105469 C15.0393918,41.8105469 15.6591773,41.5029328 16.1376953,40.8876953 L17.0332031,41.7421875 C16.7369777,42.184247 16.3416366,42.5271798 15.847168,42.7709961 C15.3526994,43.0148124 14.7978546,43.1367188 14.1826172,43.1367188 C13.1298775,43.1367188 12.2765332,42.8051791 11.6225586,42.1420898 C10.968584,41.4790006 10.6416016,40.5960342 10.6416016,39.4931641 L10.6416016,39.2880859 C10.6416016,38.549801 10.7840155,37.8901396 11.0688477,37.309082 C11.3536798,36.7280244 11.7535782,36.2757178 12.2685547,35.9521484 C12.7835312,35.6285791 13.3577442,35.4667969 13.9912109,35.4667969 Z M25.4824219,33.8056641 L25.4824219,35.6035156 L26.7880859,35.6035156 L26.7880859,36.8339844 L25.4824219,36.8339844 L25.4824219,40.9628906 C25.4824219,41.2454441 25.5382481,41.4493809 25.6499023,41.574707 C25.7615565,41.7000332 25.9609361,41.7626953 26.2480469,41.7626953 C26.4394541,41.7626953 26.633137,41.7399091 26.8291016,41.6943359 L26.8291016,42.9794922 C26.4508445,43.0843104 26.0862648,43.1367188 25.7353516,43.1367188 C24.4593035,43.1367188 23.8212891,42.4326242 23.8212891,41.0244141 L23.8212891,36.8339844 L22.6044922,36.8339844 L22.6044922,35.6035156 L23.8212891,35.6035156 L23.8212891,33.8056641 L25.4824219,33.8056641 Z M5.24121094,33.046875 L5.24121094,41.6191406 L9.75976562,41.6191406 L9.75976562,43 L3.51171875,43 L3.51171875,33.046875 L5.24121094,33.046875 Z M21.6201172,32.3564453 C21.9117853,32.3564453 22.221678,32.3974605 22.5498047,32.4794922 L22.5087891,33.7783203 C22.3264965,33.7418618 22.1145845,33.7236328 21.8730469,33.7236328 C21.0800742,33.7236328 20.6835938,34.1315063 20.6835938,34.9472656 L20.6835938,35.6035156 L22.1875,35.6035156 L22.1875,36.8339844 L20.6835938,36.8339844 L20.6835938,43 L19.0224609,43 L19.0224609,36.8339844 L17.8945312,36.8339844 L17.8945312,35.6035156 L19.0224609,35.6035156 L19.0224609,34.9267578 C19.0224609,34.1064412 19.2503232,33.472984 19.7060547,33.0263672 C20.1617861,32.5797504 20.7998006,32.3564453 21.6201172,32.3564453 Z M13.984375,36.7998047 C13.5286436,36.7998047 13.1606459,36.9593083 12.8803711,37.2783203 C12.6000963,37.5973323 12.4212243,38.0416638 12.34375,38.6113281 L15.5087891,38.6113281 L15.5087891,38.4882812 C15.4723305,37.9322889 15.32422,37.5118829 15.0644531,37.2270508 C14.8046862,36.9422186 14.4446638,36.7998047 13.984375,36.7998047 Z M30,4 L30,26 L0,26 L0,4 L30,4 Z M28,6 L6,6 L6,24 L28,24 L28,6 Z" id="path-15"></path>
        <path d="M22.4824219,35.4667969 C23.3847701,35.4667969 24.0922826,35.8028938 24.6049805,36.4750977 C25.1176783,37.1473015 25.3740234,38.0803977 25.3740234,39.2744141 L25.3740234,39.3769531 C25.3740234,40.5208391 25.1142604,41.4334276 24.5947266,42.1147461 C24.0751927,42.7960646 23.3779341,43.1367188 22.5029297,43.1367188 C21.6917277,43.1367188 21.0423201,42.8701199 20.5546875,42.3369141 L20.5546875,45.84375 L18.8935547,45.84375 L18.8935547,35.6035156 L20.4248047,35.6035156 L20.4931641,36.3554688 C20.9807967,35.7630179 21.643876,35.4667969 22.4824219,35.4667969 Z M14.046875,35.4667969 C15.0449269,35.4667969 15.8549774,35.7880827 16.4770508,36.4306641 C17.0991242,37.0732454 17.4352211,37.9254504 17.4853516,38.9873047 L17.4921875,39.3769531 C17.4921875,40.1061234 17.3520522,40.7578096 17.0717773,41.3320312 C16.7915025,41.9062529 16.3904648,42.3505844 15.8686523,42.6650391 C15.3468398,42.9794938 14.744144,43.1367188 14.0605469,43.1367188 C13.0169219,43.1367188 12.1818065,42.7892287 11.5551758,42.0942383 C10.9767474,41.4527086 10.66529,40.6141207 10.6207961,39.5784526 L10.6152344,39.2333984 C10.6152344,38.5087854 10.7587876,37.8559599 11.0458984,37.2749023 C11.3330092,36.6938448 11.7363255,36.2472346 12.2558594,35.9350586 C12.7753932,35.6228826 13.3723925,35.4667969 14.046875,35.4667969 Z M11.203125,33.046875 L11.203125,34.4414062 L8.09960938,34.4414062 L8.09960938,43 L6.38378906,43 L6.38378906,34.4414062 L3.30761719,34.4414062 L3.30761719,33.046875 L11.203125,33.046875 Z M14.046875,36.7998047 C13.5045546,36.7998047 13.0738948,37.0151346 12.7548828,37.4458008 C12.4358708,37.876467 12.2763672,38.520178 12.2763672,39.3769531 C12.2763672,40.1380246 12.4335922,40.7338846 12.7480469,41.1645508 C13.0625016,41.595217 13.4999972,41.8105469 14.0605469,41.8105469 C14.6210966,41.8105469 15.0574529,41.5917991 15.3696289,41.1542969 C15.6818049,40.7167947 15.8378906,40.0765016 15.8378906,39.2333984 C15.8378906,38.4859989 15.6772477,37.8935569 15.355957,37.4560547 C15.0346664,37.0185525 14.59831,36.7998047 14.046875,36.7998047 Z M22.0175781,36.8271484 C21.3951249,36.8271484 20.9335131,37.0626536 20.6327314,37.5336705 L20.5546875,37.6679688 L20.5546875,40.9492188 C20.8554703,41.5234404 21.3476528,41.8105469 22.03125,41.8105469 C22.5598985,41.8105469 22.9734686,41.5974956 23.2719727,41.1713867 C23.5704768,40.7452778 23.7197266,40.0992882 23.7197266,39.2333984 C23.7197266,38.4951135 23.5727554,37.9095074 23.2788086,37.4765625 C22.9848618,37.0436176 22.5644559,36.8271484 22.0175781,36.8271484 Z M30,4 L30,26 L0,26 L0,4 L30,4 Z M28,10 L2,10 L2,24 L28,24 L28,10 Z" id="path-17"></path>
        <path d="M14.8320312,35.4667969 C15.6751344,35.4667969 16.3382137,35.7607392 16.8212891,36.3486328 L16.8964844,35.6035156 L18.3935547,35.6035156 L18.3935547,42.7744141 C18.3935547,43.745122 18.0916371,44.5107394 17.487793,45.0712891 C16.8839488,45.6318387 16.0693411,45.9121094 15.0439453,45.9121094 C14.5016249,45.9121094 13.971845,45.7993175 13.4545898,45.5737305 C12.9373347,45.3481434 12.5442722,45.0530617 12.2753906,44.6884766 L13.0615234,43.6904297 C13.5719427,44.2965525 14.2008426,44.5996094 14.9482422,44.5996094 C15.4996772,44.5996094 15.9348942,44.4503596 16.2539062,44.1518555 C16.5729183,43.8533514 16.7324219,43.4147164 16.7324219,42.8359375 L16.7324219,42.3369141 C16.2539039,42.8701199 15.6158894,43.1367188 14.8183594,43.1367188 C13.9524696,43.1367188 13.2449572,42.7926467 12.6958008,42.1044922 C12.1466444,41.4163377 11.8720703,40.4638733 11.8720703,39.2470703 C11.8720703,38.0986271 12.1420871,37.1814813 12.6821289,36.4956055 C13.2221707,35.8097296 13.9387976,35.4667969 14.8320312,35.4667969 Z M29.953125,33.8056641 L29.953125,35.6035156 L31.2587891,35.6035156 L31.2587891,36.8339844 L29.953125,36.8339844 L29.953125,40.9628906 C29.953125,41.2454441 30.0089513,41.4493809 30.1206055,41.574707 C30.2322597,41.7000332 30.4316392,41.7626953 30.71875,41.7626953 C30.9101572,41.7626953 31.1038402,41.7399091 31.2998047,41.6943359 L31.2998047,42.9794922 C30.9215476,43.0843104 30.5569679,43.1367188 30.2060547,43.1367188 C28.9300066,43.1367188 28.2919922,42.4326242 28.2919922,41.0244141 L28.2919922,36.8339844 L27.0751953,36.8339844 L27.0751953,35.6035156 L28.2919922,35.6035156 L28.2919922,33.8056641 L29.953125,33.8056641 Z M3.51171875,33.046875 C4.66016199,33.046875 5.54654636,33.3043594 6.17089844,33.8193359 C6.79525052,34.3343125 7.10742188,35.0794222 7.10742188,36.0546875 C7.10742188,36.7200554 6.94677895,37.2771787 6.62548828,37.7260742 C6.30419761,38.1749697 5.85644818,38.5201811 5.28222656,38.7617188 L7.51757812,42.9111328 L7.51757812,43 L5.66503906,43 L3.66894531,39.1650391 L1.74121094,39.1650391 L1.74121094,43 L0.01171875,43 L0.01171875,33.046875 L3.51171875,33.046875 Z M10.3544922,35.6035156 L10.3544922,43 L8.69335938,43 L8.69335938,35.6035156 L10.3544922,35.6035156 Z M21.7363281,32.5 L21.7363281,36.4101562 C22.2786485,35.7812469 22.9645141,35.4667969 23.7939453,35.4667969 C25.3707761,35.4667969 26.1705728,36.366853 26.1933594,38.1669922 L26.1933594,43 L24.5322266,43 L24.5322266,38.2285156 C24.5322266,37.7180964 24.4217133,37.3569347 24.2006836,37.1450195 C23.9796538,36.9331044 23.6549501,36.8271484 23.2265625,36.8271484 C22.5611946,36.8271484 22.0644548,37.1233694 21.7363281,37.7158203 L21.7363281,43 L20.0751953,43 L20.0751953,32.5 L21.7363281,32.5 Z M15.2558594,36.8271484 C14.7089816,36.8271484 14.2840184,37.0436176 13.980957,37.4765625 C13.6778956,37.9095074 13.5263672,38.5475218 13.5263672,39.390625 C13.5263672,40.1334673 13.6778956,40.7179341 13.980957,41.144043 C14.2840184,41.5701519 14.7044244,41.7832031 15.2421875,41.7832031 C15.9121127,41.7832031 16.4088525,41.4960966 16.7324219,40.921875 L16.7324219,37.6679688 C16.4179672,37.1074191 15.9257846,36.8271484 15.2558594,36.8271484 Z M3.56640625,34.4414062 L1.74121094,34.4414062 L1.74121094,37.7773438 L3.51855469,37.7773438 C4.10189094,37.7773438 4.55761555,37.6303726 4.88574219,37.3364258 C5.21386883,37.042479 5.37792969,36.640302 5.37792969,36.1298828 C5.37792969,35.596677 5.22640125,35.1842463 4.92333984,34.8925781 C4.62027843,34.60091 4.16797176,34.4505209 3.56640625,34.4414062 Z M9.52734375,32.7939453 C9.8281265,32.7939453 10.0605461,32.8782544 10.2246094,33.046875 C10.3886727,33.2154956 10.4707031,33.4274076 10.4707031,33.6826172 C10.4707031,33.9332695 10.3886727,34.1417635 10.2246094,34.3081055 C10.0605461,34.4744474 9.8281265,34.5576172 9.52734375,34.5576172 C9.226561,34.5576172 8.99528076,34.4744474 8.83349609,34.3081055 C8.67171143,34.1417635 8.59082031,33.9332695 8.59082031,33.6826172 C8.59082031,33.4274076 8.67171143,33.2154956 8.83349609,33.046875 C8.99528076,32.8782544 9.226561,32.7939453 9.52734375,32.7939453 Z M31,4 L31,26 L1,26 L1,4 L31,4 Z M25,6 L3,6 L3,24 L25,24 L25,6 Z" id="path-19"></path>
        <path d="M15.9140625,35.4667969 C16.7799522,35.4667969 17.470375,35.6844054 17.9853516,36.1196289 C18.5003281,36.5548524 18.7646484,37.1666627 18.7783203,37.9550781 L18.7783203,41.2910156 C18.7783203,41.9563835 18.8717439,42.4873027 19.0585938,42.8837891 L19.0585938,43 L17.3632812,43 C17.2903642,42.8587233 17.2265628,42.6285823 17.171875,42.3095703 C16.6432265,42.8610054 15.9960976,43.1367188 15.2304688,43.1367188 C14.4876265,43.1367188 13.8815128,42.9248068 13.4121094,42.5009766 C12.942706,42.0771463 12.7080078,41.553063 12.7080078,40.9287109 C12.7080078,40.1402955 13.0008109,39.5353211 13.5864258,39.1137695 C14.1720407,38.6922179 15.0094347,38.4814453 16.0986328,38.4814453 L17.1171875,38.4814453 L17.1171875,37.9960938 C17.1171875,37.6132793 17.0100922,37.3068045 16.7958984,37.0766602 C16.5817047,36.8465158 16.2558616,36.7314453 15.8183594,36.7314453 C15.4401023,36.7314453 15.1302095,36.8260082 14.8886719,37.0151367 C14.6471342,37.2042653 14.5263672,37.44466 14.5263672,37.7363281 L12.8652344,37.7363281 C12.8652344,37.3307271 12.9996731,36.9513364 13.2685547,36.5981445 C13.5374362,36.2449527 13.9031552,35.9681 14.3657227,35.7675781 C14.8282901,35.5670563 15.3443982,35.4667969 15.9140625,35.4667969 Z M22.5996094,33.8056641 L22.5996094,35.6035156 L23.9052734,35.6035156 L23.9052734,36.8339844 L22.5996094,36.8339844 L22.5996094,40.9628906 C22.5996094,41.2454441 22.6554356,41.4493809 22.7670898,41.574707 C22.878744,41.7000332 23.0781236,41.7626953 23.3652344,41.7626953 C23.5566416,41.7626953 23.7503245,41.7399091 23.9462891,41.6943359 L23.9462891,42.9794922 C23.568032,43.0843104 23.2034523,43.1367188 22.8525391,43.1367188 C21.576491,43.1367188 20.9384766,42.4326242 20.9384766,41.0244141 L20.9384766,36.8339844 L19.7216797,36.8339844 L19.7216797,35.6035156 L20.9384766,35.6035156 L20.9384766,33.8056641 L22.5996094,33.8056641 Z M28.2255859,35.4667969 C29.1051476,35.4667969 29.8217746,35.723142 30.3754883,36.2358398 C30.929202,36.7485377 31.2197264,37.4218708 31.2470703,38.2558594 L29.6816406,38.2558594 C29.6634114,37.8320291 29.5187188,37.4833998 29.2475586,37.2099609 C28.9763984,36.9365221 28.631187,36.7998047 28.2119141,36.7998047 C27.674151,36.7998047 27.2594416,36.994627 26.9677734,37.3842773 C26.6761053,37.7739277 26.5279948,38.3652304 26.5234375,39.1582031 L26.5234375,39.4248047 C26.5234375,40.226892 26.6681301,40.8250306 26.9575195,41.2192383 C27.246909,41.613446 27.6650363,41.8105469 28.2119141,41.8105469 C28.6266297,41.8105469 28.9707018,41.6897799 29.2441406,41.4482422 C29.5175795,41.2067045 29.6634114,40.9082049 29.6816406,40.5527344 L31.2470703,40.5527344 C31.2288411,41.0130231 31.0852878,41.4425436 30.8164062,41.8413086 C30.5475247,42.2400736 30.182945,42.5556629 29.7226562,42.7880859 C29.2623675,43.020509 28.7656277,43.1367188 28.2324219,43.1367188 C27.1979115,43.1367188 26.3776072,42.8017612 25.7714844,42.1318359 C25.1653616,41.4619107 24.8623047,40.5367898 24.8623047,39.3564453 L24.8623047,39.1855469 C24.8623047,38.0598902 25.1630829,37.1586948 25.7646484,36.4819336 C26.3662139,35.8051724 27.1865182,35.4667969 28.2255859,35.4667969 Z M50.1894531,35.4667969 C51.0735721,35.4667969 51.7879205,35.6855447 52.3325195,36.1230469 C52.8771186,36.5605491 53.1494141,37.1279262 53.1494141,37.8251953 L51.4882812,37.8251953 C51.4882812,37.5061833 51.3697929,37.2407237 51.1328125,37.0288086 C50.8958321,36.8168935 50.5813822,36.7109375 50.1894531,36.7109375 C49.824868,36.7109375 49.5275077,36.7952466 49.2973633,36.9638672 C49.0672189,37.1324878 48.9521484,37.3580715 48.9521484,37.640625 C48.9521484,37.8958346 49.0592437,38.0940748 49.2734375,38.2353516 C49.4400327,38.3452335 49.7389548,38.4558033 50.17021,38.5670631 L50.5722656,38.6625977 C51.2239616,38.8061531 51.7355125,38.9770498 52.1069336,39.175293 C52.4783547,39.3735361 52.7540681,39.6116523 52.934082,39.8896484 C53.114096,40.1676446 53.2041016,40.5048808 53.2041016,40.9013672 C53.2041016,41.5667351 52.9283882,42.1056294 52.3769531,42.5180664 C51.8255181,42.9305034 51.1031946,43.1367188 50.2099609,43.1367188 C49.6038381,43.1367188 49.0638045,43.0273448 48.5898438,42.8085938 C48.115883,42.5898427 47.7467461,42.2890644 47.4824219,41.90625 C47.2180976,41.5234356 47.0859375,41.1110048 47.0859375,40.6689453 L48.6992188,40.6689453 C48.7220053,41.0608744 48.8701158,41.3627919 49.1435547,41.574707 C49.4169936,41.7866222 49.7792946,41.8925781 50.2304688,41.8925781 C50.6679709,41.8925781 51.0006499,41.8094084 51.2285156,41.6430664 C51.4563813,41.4767244 51.5703125,41.2591159 51.5703125,40.9902344 C51.5703125,40.6940089 51.4484062,40.4684253 51.2045898,40.3134766 C50.9912506,40.1778965 50.6549218,40.0562747 50.1955955,39.9486085 L49.9912109,39.9033203 C49.4261039,39.7848301 48.954429,39.634441 48.5761719,39.4521484 C47.7467406,39.0511048 47.3320312,38.4700559 47.3320312,37.7089844 C47.3320312,37.0709604 47.6009088,36.5377626 48.1386719,36.109375 C48.676435,35.6809874 49.3600219,35.4667969 50.1894531,35.4667969 Z M56.7314453,33.8056641 L56.7314453,35.6035156 L58.0371094,35.6035156 L58.0371094,36.8339844 L56.7314453,36.8339844 L56.7314453,40.9628906 C56.7314453,41.2454441 56.7872716,41.4493809 56.8989258,41.574707 C57.01058,41.7000332 57.2099595,41.7626953 57.4970703,41.7626953 C57.6884775,41.7626953 57.8821605,41.7399091 58.078125,41.6943359 L58.078125,42.9794922 C57.6998679,43.0843104 57.3352882,43.1367188 56.984375,43.1367188 C55.708327,43.1367188 55.0703125,42.4326242 55.0703125,41.0244141 L55.0703125,36.8339844 L53.8535156,36.8339844 L53.8535156,35.6035156 L55.0703125,35.6035156 L55.0703125,33.8056641 L56.7314453,33.8056641 Z M34.1386719,32.5 L34.1386719,36.4101563 C34.6809923,35.7812469 35.3668578,35.4667969 36.1962891,35.4667969 C37.7731199,35.4667969 38.5729166,36.366853 38.5957031,38.1669922 L38.5957031,43 L36.9345703,43 L36.9345703,38.2285156 C36.9345703,37.7180964 36.8240571,37.3569347 36.6030273,37.1450195 C36.3819976,36.9331044 36.0572938,36.8271484 35.6289062,36.8271484 C34.9635383,36.8271484 34.4667985,37.1233694 34.1386719,37.7158203 L34.1386719,43 L32.4775391,43 L32.4775391,32.5 L34.1386719,32.5 Z M42.0410156,32.5 L42.0410156,43 L40.3798828,43 L40.3798828,32.5 L42.0410156,32.5 Z M45.6162109,35.6035156 L45.6162109,43 L43.9550781,43 L43.9550781,35.6035156 L45.6162109,35.6035156 Z M2.04394531,33.046875 L3.588125,40.524 L5.48925781,33.046875 L6.93847656,33.046875 L8.81835938,40.5390625 L10.3496094,33.046875 L12.0654297,33.046875 L9.76855469,43 L8.11425781,43 L6.22070312,35.7333984 L4.28613281,43 L2.625,43 L0.328125,33.046875 L2.04394531,33.046875 Z M17.1171875,39.5273438 L16.2216797,39.5273438 C15.6064422,39.5273438 15.1438818,39.634439 14.8339844,39.8486328 C14.524087,40.0628266 14.3691406,40.3658835 14.3691406,40.7578125 C14.3691406,41.0768245 14.4750966,41.330891 14.6870117,41.5200195 C14.8989268,41.7091481 15.1826154,41.8037109 15.5380859,41.8037109 C15.8662126,41.8037109 16.174966,41.7239591 16.4643555,41.5644531 C16.7537449,41.4049471 16.9713534,41.1907566 17.1171875,40.921875 L17.1171875,39.5273438 Z M44.7890625,32.7939453 C45.0898453,32.7939453 45.3222648,32.8782544 45.4863281,33.046875 C45.6503914,33.2154956 45.7324219,33.4274076 45.7324219,33.6826172 C45.7324219,33.9332695 45.6503914,34.1417635 45.4863281,34.3081055 C45.3222648,34.4744474 45.0898453,34.5576172 44.7890625,34.5576172 C44.4882797,34.5576172 44.2569995,34.4744474 44.0952148,34.3081055 C43.9334302,34.1417635 43.8525391,33.9332695 43.8525391,33.6826172 C43.8525391,33.4274076 43.9334302,33.2154956 44.0952148,33.046875 C44.2569995,32.8782544 44.4882797,32.7939453 44.7890625,32.7939453 Z M30,8 C34.7864678,8 39.1198012,10.4375 43,15.3125 C39.1198012,20.1875 34.7864678,22.625 30,22.625 C25.2135322,22.625 20.8801988,20.1875 17,15.3125 C20.8801988,10.4375 25.2135322,8 30,8 Z M30,9.625 C26.8588805,9.625 24.3125,12.1713805 24.3125,15.3125 C24.3125,18.4536195 26.8588805,21 30,21 C33.1411195,21 35.6875,18.4536195 35.6875,15.3125 C35.6875,12.1713805 33.1411195,9.625 30,9.625 Z M30,12.3125 C31.6568542,12.3125 33,13.6556458 33,15.3125 C33,16.9693542 31.6568542,18.3125 30,18.3125 C28.3431458,18.3125 27,16.9693542 27,15.3125 C27,13.6556458 28.3431458,12.3125 30,12.3125 Z" id="path-21"></path>
        <path d="M4.12646484,32.9101563 C4.81917664,32.9101563 5.43668349,33.0377591 5.97900391,33.2929688 C6.52132433,33.5481784 6.94742684,33.9116187 7.25732422,34.3833008 C7.5672216,34.8549828 7.72216797,35.3779268 7.72216797,35.9521484 L5.99951172,35.9521484 C5.99951172,35.4326146 5.83659017,35.0258804 5.51074219,34.7319336 C5.1848942,34.4379868 4.71891579,34.2910156 4.11279297,34.2910156 C3.54768598,34.2910156 3.10905104,34.4117826 2.796875,34.6533203 C2.48469896,34.894858 2.32861328,35.2320942 2.32861328,35.6650391 C2.32861328,36.0296242 2.49723139,36.3338204 2.83447266,36.5776367 C3.13424267,36.7943623 3.60684647,37.0056839 4.25229577,37.2116064 L4.50244141,37.2885742 C5.27718486,37.5187186 5.89924896,37.7807602 6.36865234,38.074707 C6.83805573,38.3686538 7.18212781,38.70589 7.40087891,39.0864258 C7.61963,39.4669615 7.72900391,39.9124323 7.72900391,40.4228516 C7.72900391,41.2522828 7.41113599,41.9119442 6.77539062,42.4018555 C6.13964526,42.8917668 5.27718644,43.1367188 4.18798828,43.1367188 C3.4679326,43.1367188 2.8059926,43.0034193 2.20214844,42.7368164 C1.59830427,42.4702135 1.12890792,42.1022159 0.793945312,41.6328125 C0.4589827,41.1634091 0.291503906,40.6165396 0.291503906,39.9921875 L2.02099609,39.9921875 C2.02099609,40.5572945 2.20784318,40.9947901 2.58154297,41.3046875 C2.95524275,41.6145849 3.49071917,41.7695313 4.18798828,41.7695313 C4.78955379,41.7695313 5.24186046,41.6476249 5.54492188,41.4038086 C5.84798329,41.1599923 5.99951172,40.8375671 5.99951172,40.4365234 C5.99951172,39.9990213 5.84570466,39.661785 5.53808594,39.4248047 C5.26464707,39.2141555 4.79586915,39.0017087 4.13174049,38.7874593 L3.87353516,38.7070313 C3.07144781,38.4654936 2.43343336,38.1966161 1.95947266,37.9003906 C1.05256708,37.3307263 0.599121094,36.5878952 0.599121094,35.671875 C0.599121094,34.8697877 0.926103501,34.208987 1.58007812,33.6894531 C2.23405275,33.1699193 3.08283983,32.9101563 4.12646484,32.9101563 Z M12.1518555,35.4667969 C13.159022,35.4667969 13.9371717,35.7880827 14.4863281,36.4306641 C15.0354845,37.0732454 15.3100586,37.982416 15.3100586,39.1582031 L15.3100586,39.828125 L10.4770508,39.828125 C10.5271812,40.4388051 10.731118,40.9218732 11.0888672,41.2773438 C11.4466164,41.6328143 11.8966444,41.8105469 12.4389648,41.8105469 C13.2000364,41.8105469 13.8198218,41.5029328 14.2983398,40.8876953 L15.1938477,41.7421875 C14.8976222,42.184247 14.5022811,42.5271798 14.0078125,42.7709961 C13.5133439,43.0148124 12.9584992,43.1367188 12.3432617,43.1367188 C11.2905221,43.1367188 10.4371777,42.8051791 9.78320312,42.1420898 C9.1292285,41.4790006 8.80224609,40.5960342 8.80224609,39.4931641 L8.80224609,39.2880859 C8.80224609,38.549801 8.94466003,37.8901396 9.22949219,37.309082 C9.51432434,36.7280244 9.91422269,36.2757178 10.4291992,35.9521484 C10.9441758,35.6285791 11.5183888,35.4667969 12.1518555,35.4667969 Z M19.5688477,35.4667969 C20.4347374,35.4667969 21.1251602,35.6844054 21.6401367,36.1196289 C22.1551133,36.5548524 22.4194335,37.1666627 22.4331055,37.9550781 L22.4331055,41.2910156 C22.4331055,41.9563835 22.526529,42.4873027 22.7133789,42.8837891 L22.7133789,43 L21.0180664,43 C20.9451494,42.8587233 20.8813479,42.6285823 20.8266602,42.3095703 C20.2980117,42.8610054 19.6508827,43.1367188 18.8852539,43.1367188 C18.1424117,43.1367188 17.5362979,42.9248068 17.0668945,42.5009766 C16.5974911,42.0771463 16.362793,41.553063 16.362793,40.9287109 C16.362793,40.1402955 16.655596,39.5353211 17.2412109,39.1137695 C17.8268258,38.6922179 18.6642198,38.4814453 19.753418,38.4814453 L20.7719727,38.4814453 L20.7719727,37.9960938 C20.7719727,37.6132793 20.6648774,37.3068045 20.4506836,37.0766602 C20.2364898,36.8465158 19.9106467,36.7314453 19.4731445,36.7314453 C19.0948874,36.7314453 18.7849947,36.8260082 18.543457,37.0151367 C18.3019194,37.2042653 18.1811523,37.44466 18.1811523,37.7363281 L16.5200195,37.7363281 C16.5200195,37.3307271 16.6544583,36.9513364 16.9233398,36.5981445 C17.1922214,36.2449527 17.5579404,35.9681 18.0205078,35.7675781 C18.4830752,35.5670563 18.9991833,35.4667969 19.5688477,35.4667969 Z M32.0170898,35.4667969 C32.8966515,35.4667969 33.6132785,35.723142 34.1669922,36.2358398 C34.7207059,36.7485377 35.0112303,37.4218708 35.0385742,38.2558594 L33.4731445,38.2558594 C33.4549153,37.8320291 33.3102227,37.4833998 33.0390625,37.2099609 C32.7679023,36.9365221 32.4226909,36.7998047 32.003418,36.7998047 C31.4656549,36.7998047 31.0509455,36.994627 30.7592773,37.3842773 C30.4676092,37.7739277 30.3194987,38.3652304 30.3149414,39.1582031 L30.3149414,39.4248047 C30.3149414,40.226892 30.459634,40.8250306 30.7490234,41.2192383 C31.0384129,41.613446 31.4565402,41.8105469 32.003418,41.8105469 C32.4181336,41.8105469 32.7622057,41.6897799 33.0356445,41.4482422 C33.3090834,41.2067045 33.4549153,40.9082049 33.4731445,40.5527344 L35.0385742,40.5527344 C35.020345,41.0130231 34.8767917,41.4425436 34.6079102,41.8413086 C34.3390286,42.2400736 33.9744489,42.5556629 33.5141602,42.7880859 C33.0538714,43.020509 32.5571316,43.1367188 32.0239258,43.1367188 C30.9894154,43.1367188 30.1691111,42.8017612 29.5629883,42.1318359 C28.9568655,41.4619107 28.6538086,40.5367898 28.6538086,39.3564453 L28.6538086,39.1855469 C28.6538086,38.0598902 28.9545868,37.1586948 29.5561523,36.4819336 C30.1577179,35.8051724 30.9780221,35.4667969 32.0170898,35.4667969 Z M27.4643555,35.4667969 C27.7013358,35.4667969 27.8972974,35.4986976 28.0522461,35.5625 L28.0454102,37.1210938 C27.8266591,37.0846352 27.6010754,37.0664063 27.3686523,37.0664063 C26.6075808,37.0664063 26.0948906,37.35807 25.8305664,37.9414063 L25.8305664,43 L24.1694336,43 L24.1694336,35.6035156 L25.7553711,35.6035156 L25.7963867,36.4306641 C26.1974304,35.7880827 26.7534144,35.4667969 27.4643555,35.4667969 Z M37.9301758,32.5 L37.9301758,36.4101563 C38.4724962,35.7812469 39.1583617,35.4667969 39.987793,35.4667969 C41.5646238,35.4667969 42.3644205,36.366853 42.387207,38.1669922 L42.387207,43 L40.7260742,43 L40.7260742,38.2285156 C40.7260742,37.7180964 40.615561,37.3569347 40.3945312,37.1450195 C40.1735015,36.9331044 39.8487977,36.8271484 39.4204102,36.8271484 C38.7550422,36.8271484 38.2583024,37.1233694 37.9301758,37.7158203 L37.9301758,43 L36.269043,43 L36.269043,32.5 L37.9301758,32.5 Z M20.7719727,39.5273438 L19.8764648,39.5273438 C19.2612274,39.5273438 18.7986669,39.634439 18.4887695,39.8486328 C18.1788721,40.0628266 18.0239258,40.3658835 18.0239258,40.7578125 C18.0239258,41.0768245 18.1298818,41.330891 18.3417969,41.5200195 C18.553712,41.7091481 18.8374006,41.8037109 19.1928711,41.8037109 C19.5209977,41.8037109 19.8297512,41.7239591 20.1191406,41.5644531 C20.4085301,41.4049471 20.6261386,41.1907566 20.7719727,40.921875 L20.7719727,39.5273438 Z M12.1450195,36.7998047 C11.6892881,36.7998047 11.3212905,36.9593083 11.0410156,37.2783203 C10.7607408,37.5973323 10.5818689,38.0416638 10.5043945,38.6113281 L13.6694336,38.6113281 L13.6694336,38.4882813 C13.6329751,37.9322889 13.4848646,37.5118829 13.2250977,37.2270508 C12.9653307,36.9422186 12.6053083,36.7998047 12.1450195,36.7998047 Z M21,2 C27.0751322,2 32,6.92486775 32,13 C32,15.953065 30.8363319,18.6343408 28.9425297,20.6102934 L34.7069752,27.2401341 L33.1975561,28.5522521 L27.4342337,21.9229164 C25.624994,23.229828 23.4024387,24 21,24 C14.9248678,24 10,19.0751322 10,13 C10,6.92486775 14.9248678,2 21,2 Z M21,4 C16.0294373,4 12,8.02943725 12,13 C12,17.9705627 16.0294373,22 21,22 C25.9705627,22 30,17.9705627 30,13 C30,8.02943725 25.9705627,4 21,4 Z" id="path-23"></path>
        <rect id="path-25" x="0" y="0" width="1440" height="88"></rect>
        <filter x="-0.6%" y="-7.4%" width="101.2%" height="119.3%" filterUnits="objectBoundingBox" id="filter-26">
            <feMorphology radius="0.5" operator="dilate" in="SourceAlpha" result="shadowSpreadOuter1"></feMorphology>
            <feOffset dx="0" dy="2" in="shadowSpreadOuter1" result="shadowOffsetOuter1"></feOffset>
            <feGaussianBlur stdDeviation="2" in="shadowOffsetOuter1" result="shadowBlurOuter1"></feGaussianBlur>
            <feColorMatrix values="0 0 0 0 0   0 0 0 0 0   0 0 0 0 0  0 0 0 0.5 0" type="matrix" in="shadowBlurOuter1"></feColorMatrix>
        </filter>
        <path d="M14,2 C20.0751322,2 25,6.92486775 25,13 C25,15.953065 23.8363319,18.6343408 21.9425297,20.6102934 L27.7069752,27.2401341 L26.1975561,28.5522521 L20.4342337,21.9229164 C18.624994,23.229828 16.4024387,24 14,24 C7.92486775,24 3,19.0751322 3,13 C3,6.92486775 7.92486775,2 14,2 Z M14,4 C9.02943725,4 5,8.02943725 5,13 C5,17.9705627 9.02943725,22 14,22 C18.9705627,22 23,17.9705627 23,13 C23,8.02943725 18.9705627,4 14,4 Z" id="path-27"></path>
        <rect id="path-29" x="0" y="0" width="60" height="60"></rect>
        <path d="M13.9912109,35.4667969 C14.9983774,35.4667969 15.7765272,35.7880827 16.3256836,36.4306641 C16.87484,37.0732454 17.1494141,37.982416 17.1494141,39.1582031 L17.1494141,39.828125 L12.3164062,39.828125 C12.3665367,40.4388051 12.5704735,40.9218732 12.9282227,41.2773438 C13.2859718,41.6328143 13.7359999,41.8105469 14.2783203,41.8105469 C15.0393918,41.8105469 15.6591773,41.5029328 16.1376953,40.8876953 L17.0332031,41.7421875 C16.7369777,42.184247 16.3416366,42.5271798 15.847168,42.7709961 C15.3526994,43.0148124 14.7978546,43.1367188 14.1826172,43.1367188 C13.1298775,43.1367188 12.2765332,42.8051791 11.6225586,42.1420898 C10.968584,41.4790006 10.6416016,40.5960342 10.6416016,39.4931641 L10.6416016,39.2880859 C10.6416016,38.549801 10.7840155,37.8901396 11.0688477,37.309082 C11.3536798,36.7280244 11.7535782,36.2757178 12.2685547,35.9521484 C12.7835312,35.6285791 13.3577442,35.4667969 13.9912109,35.4667969 Z M25.4824219,33.8056641 L25.4824219,35.6035156 L26.7880859,35.6035156 L26.7880859,36.8339844 L25.4824219,36.8339844 L25.4824219,40.9628906 C25.4824219,41.2454441 25.5382481,41.4493809 25.6499023,41.574707 C25.7615565,41.7000332 25.9609361,41.7626953 26.2480469,41.7626953 C26.4394541,41.7626953 26.633137,41.7399091 26.8291016,41.6943359 L26.8291016,42.9794922 C26.4508445,43.0843104 26.0862648,43.1367188 25.7353516,43.1367188 C24.4593035,43.1367188 23.8212891,42.4326242 23.8212891,41.0244141 L23.8212891,36.8339844 L22.6044922,36.8339844 L22.6044922,35.6035156 L23.8212891,35.6035156 L23.8212891,33.8056641 L25.4824219,33.8056641 Z M5.24121094,33.046875 L5.24121094,41.6191406 L9.75976562,41.6191406 L9.75976562,43 L3.51171875,43 L3.51171875,33.046875 L5.24121094,33.046875 Z M21.6201172,32.3564453 C21.9117853,32.3564453 22.221678,32.3974605 22.5498047,32.4794922 L22.5087891,33.7783203 C22.3264965,33.7418618 22.1145845,33.7236328 21.8730469,33.7236328 C21.0800742,33.7236328 20.6835938,34.1315063 20.6835938,34.9472656 L20.6835938,35.6035156 L22.1875,35.6035156 L22.1875,36.8339844 L20.6835938,36.8339844 L20.6835938,43 L19.0224609,43 L19.0224609,36.8339844 L17.8945312,36.8339844 L17.8945312,35.6035156 L19.0224609,35.6035156 L19.0224609,34.9267578 C19.0224609,34.1064412 19.2503232,33.472984 19.7060547,33.0263672 C20.1617861,32.5797504 20.7998006,32.3564453 21.6201172,32.3564453 Z M13.984375,36.7998047 C13.5286436,36.7998047 13.1606459,36.9593083 12.8803711,37.2783203 C12.6000963,37.5973323 12.4212243,38.0416638 12.34375,38.6113281 L15.5087891,38.6113281 L15.5087891,38.4882812 C15.4723305,37.9322889 15.32422,37.5118829 15.0644531,37.2270508 C14.8046862,36.9422186 14.4446638,36.7998047 13.984375,36.7998047 Z M30,4 L30,26 L0,26 L0,4 L30,4 Z M28,6 L6,6 L6,24 L28,24 L28,6 Z" id="path-30"></path>
        <path d="M14.8320312,35.4667969 C15.6751344,35.4667969 16.3382137,35.7607392 16.8212891,36.3486328 L16.8964844,35.6035156 L18.3935547,35.6035156 L18.3935547,42.7744141 C18.3935547,43.745122 18.0916371,44.5107394 17.487793,45.0712891 C16.8839488,45.6318387 16.0693411,45.9121094 15.0439453,45.9121094 C14.5016249,45.9121094 13.971845,45.7993175 13.4545898,45.5737305 C12.9373347,45.3481434 12.5442722,45.0530617 12.2753906,44.6884766 L13.0615234,43.6904297 C13.5719427,44.2965525 14.2008426,44.5996094 14.9482422,44.5996094 C15.4996772,44.5996094 15.9348942,44.4503596 16.2539062,44.1518555 C16.5729183,43.8533514 16.7324219,43.4147164 16.7324219,42.8359375 L16.7324219,42.3369141 C16.2539039,42.8701199 15.6158894,43.1367188 14.8183594,43.1367188 C13.9524696,43.1367188 13.2449572,42.7926467 12.6958008,42.1044922 C12.1466444,41.4163377 11.8720703,40.4638733 11.8720703,39.2470703 C11.8720703,38.0986271 12.1420871,37.1814813 12.6821289,36.4956055 C13.2221707,35.8097296 13.9387976,35.4667969 14.8320312,35.4667969 Z M29.953125,33.8056641 L29.953125,35.6035156 L31.2587891,35.6035156 L31.2587891,36.8339844 L29.953125,36.8339844 L29.953125,40.9628906 C29.953125,41.2454441 30.0089513,41.4493809 30.1206055,41.574707 C30.2322597,41.7000332 30.4316392,41.7626953 30.71875,41.7626953 C30.9101572,41.7626953 31.1038402,41.7399091 31.2998047,41.6943359 L31.2998047,42.9794922 C30.9215476,43.0843104 30.5569679,43.1367188 30.2060547,43.1367188 C28.9300066,43.1367188 28.2919922,42.4326242 28.2919922,41.0244141 L28.2919922,36.8339844 L27.0751953,36.8339844 L27.0751953,35.6035156 L28.2919922,35.6035156 L28.2919922,33.8056641 L29.953125,33.8056641 Z M3.51171875,33.046875 C4.66016199,33.046875 5.54654636,33.3043594 6.17089844,33.8193359 C6.79525052,34.3343125 7.10742188,35.0794222 7.10742188,36.0546875 C7.10742188,36.7200554 6.94677895,37.2771787 6.62548828,37.7260742 C6.30419761,38.1749697 5.85644818,38.5201811 5.28222656,38.7617188 L7.51757812,42.9111328 L7.51757812,43 L5.66503906,43 L3.66894531,39.1650391 L1.74121094,39.1650391 L1.74121094,43 L0.01171875,43 L0.01171875,33.046875 L3.51171875,33.046875 Z M10.3544922,35.6035156 L10.3544922,43 L8.69335938,43 L8.69335938,35.6035156 L10.3544922,35.6035156 Z M21.7363281,32.5 L21.7363281,36.4101562 C22.2786485,35.7812469 22.9645141,35.4667969 23.7939453,35.4667969 C25.3707761,35.4667969 26.1705728,36.366853 26.1933594,38.1669922 L26.1933594,43 L24.5322266,43 L24.5322266,38.2285156 C24.5322266,37.7180964 24.4217133,37.3569347 24.2006836,37.1450195 C23.9796538,36.9331044 23.6549501,36.8271484 23.2265625,36.8271484 C22.5611946,36.8271484 22.0644548,37.1233694 21.7363281,37.7158203 L21.7363281,43 L20.0751953,43 L20.0751953,32.5 L21.7363281,32.5 Z M15.2558594,36.8271484 C14.7089816,36.8271484 14.2840184,37.0436176 13.980957,37.4765625 C13.6778956,37.9095074 13.5263672,38.5475218 13.5263672,39.390625 C13.5263672,40.1334673 13.6778956,40.7179341 13.980957,41.144043 C14.2840184,41.5701519 14.7044244,41.7832031 15.2421875,41.7832031 C15.9121127,41.7832031 16.4088525,41.4960966 16.7324219,40.921875 L16.7324219,37.6679688 C16.4179672,37.1074191 15.9257846,36.8271484 15.2558594,36.8271484 Z M3.56640625,34.4414062 L1.74121094,34.4414062 L1.74121094,37.7773438 L3.51855469,37.7773438 C4.10189094,37.7773438 4.55761555,37.6303726 4.88574219,37.3364258 C5.21386883,37.042479 5.37792969,36.640302 5.37792969,36.1298828 C5.37792969,35.596677 5.22640125,35.1842463 4.92333984,34.8925781 C4.62027843,34.60091 4.16797176,34.4505209 3.56640625,34.4414062 Z M9.52734375,32.7939453 C9.8281265,32.7939453 10.0605461,32.8782544 10.2246094,33.046875 C10.3886727,33.2154956 10.4707031,33.4274076 10.4707031,33.6826172 C10.4707031,33.9332695 10.3886727,34.1417635 10.2246094,34.3081055 C10.0605461,34.4744474 9.8281265,34.5576172 9.52734375,34.5576172 C9.226561,34.5576172 8.99528076,34.4744474 8.83349609,34.3081055 C8.67171143,34.1417635 8.59082031,33.9332695 8.59082031,33.6826172 C8.59082031,33.4274076 8.67171143,33.2154956 8.83349609,33.046875 C8.99528076,32.8782544 9.226561,32.7939453 9.52734375,32.7939453 Z M31,4 L31,26 L1,26 L1,4 L31,4 Z M25,6 L3,6 L3,24 L25,24 L25,6 Z" id="path-32"></path>
        <path d="M22.4824219,35.4667969 C23.3847701,35.4667969 24.0922826,35.8028938 24.6049805,36.4750977 C25.1176783,37.1473015 25.3740234,38.0803977 25.3740234,39.2744141 L25.3740234,39.3769531 C25.3740234,40.5208391 25.1142604,41.4334276 24.5947266,42.1147461 C24.0751927,42.7960646 23.3779341,43.1367188 22.5029297,43.1367188 C21.6917277,43.1367188 21.0423201,42.8701199 20.5546875,42.3369141 L20.5546875,45.84375 L18.8935547,45.84375 L18.8935547,35.6035156 L20.4248047,35.6035156 L20.4931641,36.3554688 C20.9807967,35.7630179 21.643876,35.4667969 22.4824219,35.4667969 Z M14.046875,35.4667969 C15.0449269,35.4667969 15.8549774,35.7880827 16.4770508,36.4306641 C17.0991242,37.0732454 17.4352211,37.9254504 17.4853516,38.9873047 L17.4921875,39.3769531 C17.4921875,40.1061234 17.3520522,40.7578096 17.0717773,41.3320312 C16.7915025,41.9062529 16.3904648,42.3505844 15.8686523,42.6650391 C15.3468398,42.9794938 14.744144,43.1367188 14.0605469,43.1367188 C13.0169219,43.1367188 12.1818065,42.7892287 11.5551758,42.0942383 C10.9767474,41.4527086 10.66529,40.6141207 10.6207961,39.5784526 L10.6152344,39.2333984 C10.6152344,38.5087854 10.7587876,37.8559599 11.0458984,37.2749023 C11.3330092,36.6938448 11.7363255,36.2472346 12.2558594,35.9350586 C12.7753932,35.6228826 13.3723925,35.4667969 14.046875,35.4667969 Z M11.203125,33.046875 L11.203125,34.4414062 L8.09960938,34.4414062 L8.09960938,43 L6.38378906,43 L6.38378906,34.4414062 L3.30761719,34.4414062 L3.30761719,33.046875 L11.203125,33.046875 Z M14.046875,36.7998047 C13.5045546,36.7998047 13.0738948,37.0151346 12.7548828,37.4458008 C12.4358708,37.876467 12.2763672,38.520178 12.2763672,39.3769531 C12.2763672,40.1380246 12.4335922,40.7338846 12.7480469,41.1645508 C13.0625016,41.595217 13.4999972,41.8105469 14.0605469,41.8105469 C14.6210966,41.8105469 15.0574529,41.5917991 15.3696289,41.1542969 C15.6818049,40.7167947 15.8378906,40.0765016 15.8378906,39.2333984 C15.8378906,38.4859989 15.6772477,37.8935569 15.355957,37.4560547 C15.0346664,37.0185525 14.59831,36.7998047 14.046875,36.7998047 Z M22.0175781,36.8271484 C21.3951249,36.8271484 20.9335131,37.0626536 20.6327314,37.5336705 L20.5546875,37.6679688 L20.5546875,40.9492188 C20.8554703,41.5234404 21.3476528,41.8105469 22.03125,41.8105469 C22.5598985,41.8105469 22.9734686,41.5974956 23.2719727,41.1713867 C23.5704768,40.7452778 23.7197266,40.0992882 23.7197266,39.2333984 C23.7197266,38.4951135 23.5727554,37.9095074 23.2788086,37.4765625 C22.9848618,37.0436176 22.5644559,36.8271484 22.0175781,36.8271484 Z M30,4 L30,26 L0,26 L0,4 L30,4 Z M28,10 L2,10 L2,24 L28,24 L28,10 Z" id="path-34"></path>
        <path d="M15.9140625,35.4667969 C16.7799522,35.4667969 17.470375,35.6844054 17.9853516,36.1196289 C18.5003281,36.5548524 18.7646484,37.1666627 18.7783203,37.9550781 L18.7783203,41.2910156 C18.7783203,41.9563835 18.8717439,42.4873027 19.0585938,42.8837891 L19.0585938,43 L17.3632812,43 C17.2903642,42.8587233 17.2265628,42.6285823 17.171875,42.3095703 C16.6432265,42.8610054 15.9960976,43.1367188 15.2304688,43.1367188 C14.4876265,43.1367188 13.8815128,42.9248068 13.4121094,42.5009766 C12.942706,42.0771463 12.7080078,41.553063 12.7080078,40.9287109 C12.7080078,40.1402955 13.0008109,39.5353211 13.5864258,39.1137695 C14.1720407,38.6922179 15.0094347,38.4814453 16.0986328,38.4814453 L17.1171875,38.4814453 L17.1171875,37.9960938 C17.1171875,37.6132793 17.0100922,37.3068045 16.7958984,37.0766602 C16.5817047,36.8465158 16.2558616,36.7314453 15.8183594,36.7314453 C15.4401023,36.7314453 15.1302095,36.8260082 14.8886719,37.0151367 C14.6471342,37.2042653 14.5263672,37.44466 14.5263672,37.7363281 L12.8652344,37.7363281 C12.8652344,37.3307271 12.9996731,36.9513364 13.2685547,36.5981445 C13.5374362,36.2449527 13.9031552,35.9681 14.3657227,35.7675781 C14.8282901,35.5670563 15.3443982,35.4667969 15.9140625,35.4667969 Z M22.5996094,33.8056641 L22.5996094,35.6035156 L23.9052734,35.6035156 L23.9052734,36.8339844 L22.5996094,36.8339844 L22.5996094,40.9628906 C22.5996094,41.2454441 22.6554356,41.4493809 22.7670898,41.574707 C22.878744,41.7000332 23.0781236,41.7626953 23.3652344,41.7626953 C23.5566416,41.7626953 23.7503245,41.7399091 23.9462891,41.6943359 L23.9462891,42.9794922 C23.568032,43.0843104 23.2034523,43.1367188 22.8525391,43.1367188 C21.576491,43.1367188 20.9384766,42.4326242 20.9384766,41.0244141 L20.9384766,36.8339844 L19.7216797,36.8339844 L19.7216797,35.6035156 L20.9384766,35.6035156 L20.9384766,33.8056641 L22.5996094,33.8056641 Z M28.2255859,35.4667969 C29.1051476,35.4667969 29.8217746,35.723142 30.3754883,36.2358398 C30.929202,36.7485377 31.2197264,37.4218708 31.2470703,38.2558594 L29.6816406,38.2558594 C29.6634114,37.8320291 29.5187188,37.4833998 29.2475586,37.2099609 C28.9763984,36.9365221 28.631187,36.7998047 28.2119141,36.7998047 C27.674151,36.7998047 27.2594416,36.994627 26.9677734,37.3842773 C26.6761053,37.7739277 26.5279948,38.3652304 26.5234375,39.1582031 L26.5234375,39.4248047 C26.5234375,40.226892 26.6681301,40.8250306 26.9575195,41.2192383 C27.246909,41.613446 27.6650363,41.8105469 28.2119141,41.8105469 C28.6266297,41.8105469 28.9707018,41.6897799 29.2441406,41.4482422 C29.5175795,41.2067045 29.6634114,40.9082049 29.6816406,40.5527344 L31.2470703,40.5527344 C31.2288411,41.0130231 31.0852878,41.4425436 30.8164062,41.8413086 C30.5475247,42.2400736 30.182945,42.5556629 29.7226562,42.7880859 C29.2623675,43.020509 28.7656277,43.1367188 28.2324219,43.1367188 C27.1979115,43.1367188 26.3776072,42.8017612 25.7714844,42.1318359 C25.1653616,41.4619107 24.8623047,40.5367898 24.8623047,39.3564453 L24.8623047,39.1855469 C24.8623047,38.0598902 25.1630829,37.1586948 25.7646484,36.4819336 C26.3662139,35.8051724 27.1865182,35.4667969 28.2255859,35.4667969 Z M50.1894531,35.4667969 C51.0735721,35.4667969 51.7879205,35.6855447 52.3325195,36.1230469 C52.8771186,36.5605491 53.1494141,37.1279262 53.1494141,37.8251953 L51.4882812,37.8251953 C51.4882812,37.5061833 51.3697929,37.2407237 51.1328125,37.0288086 C50.8958321,36.8168935 50.5813822,36.7109375 50.1894531,36.7109375 C49.824868,36.7109375 49.5275077,36.7952466 49.2973633,36.9638672 C49.0672189,37.1324878 48.9521484,37.3580715 48.9521484,37.640625 C48.9521484,37.8958346 49.0592437,38.0940748 49.2734375,38.2353516 C49.4400327,38.3452335 49.7389548,38.4558033 50.17021,38.5670631 L50.5722656,38.6625977 C51.2239616,38.8061531 51.7355125,38.9770498 52.1069336,39.175293 C52.4783547,39.3735361 52.7540681,39.6116523 52.934082,39.8896484 C53.114096,40.1676446 53.2041016,40.5048808 53.2041016,40.9013672 C53.2041016,41.5667351 52.9283882,42.1056294 52.3769531,42.5180664 C51.8255181,42.9305034 51.1031946,43.1367188 50.2099609,43.1367188 C49.6038381,43.1367188 49.0638045,43.0273448 48.5898438,42.8085938 C48.115883,42.5898427 47.7467461,42.2890644 47.4824219,41.90625 C47.2180976,41.5234356 47.0859375,41.1110048 47.0859375,40.6689453 L48.6992188,40.6689453 C48.7220053,41.0608744 48.8701158,41.3627919 49.1435547,41.574707 C49.4169936,41.7866222 49.7792946,41.8925781 50.2304688,41.8925781 C50.6679709,41.8925781 51.0006499,41.8094084 51.2285156,41.6430664 C51.4563813,41.4767244 51.5703125,41.2591159 51.5703125,40.9902344 C51.5703125,40.6940089 51.4484062,40.4684253 51.2045898,40.3134766 C50.9912506,40.1778965 50.6549218,40.0562747 50.1955955,39.9486085 L49.9912109,39.9033203 C49.4261039,39.7848301 48.954429,39.634441 48.5761719,39.4521484 C47.7467406,39.0511048 47.3320312,38.4700559 47.3320312,37.7089844 C47.3320312,37.0709604 47.6009088,36.5377626 48.1386719,36.109375 C48.676435,35.6809874 49.3600219,35.4667969 50.1894531,35.4667969 Z M56.7314453,33.8056641 L56.7314453,35.6035156 L58.0371094,35.6035156 L58.0371094,36.8339844 L56.7314453,36.8339844 L56.7314453,40.9628906 C56.7314453,41.2454441 56.7872716,41.4493809 56.8989258,41.574707 C57.01058,41.7000332 57.2099595,41.7626953 57.4970703,41.7626953 C57.6884775,41.7626953 57.8821605,41.7399091 58.078125,41.6943359 L58.078125,42.9794922 C57.6998679,43.0843104 57.3352882,43.1367188 56.984375,43.1367188 C55.708327,43.1367188 55.0703125,42.4326242 55.0703125,41.0244141 L55.0703125,36.8339844 L53.8535156,36.8339844 L53.8535156,35.6035156 L55.0703125,35.6035156 L55.0703125,33.8056641 L56.7314453,33.8056641 Z M34.1386719,32.5 L34.1386719,36.4101563 C34.6809923,35.7812469 35.3668578,35.4667969 36.1962891,35.4667969 C37.7731199,35.4667969 38.5729166,36.366853 38.5957031,38.1669922 L38.5957031,43 L36.9345703,43 L36.9345703,38.2285156 C36.9345703,37.7180964 36.8240571,37.3569347 36.6030273,37.1450195 C36.3819976,36.9331044 36.0572938,36.8271484 35.6289062,36.8271484 C34.9635383,36.8271484 34.4667985,37.1233694 34.1386719,37.7158203 L34.1386719,43 L32.4775391,43 L32.4775391,32.5 L34.1386719,32.5 Z M42.0410156,32.5 L42.0410156,43 L40.3798828,43 L40.3798828,32.5 L42.0410156,32.5 Z M45.6162109,35.6035156 L45.6162109,43 L43.9550781,43 L43.9550781,35.6035156 L45.6162109,35.6035156 Z M2.04394531,33.046875 L3.588125,40.524 L5.48925781,33.046875 L6.93847656,33.046875 L8.81835938,40.5390625 L10.3496094,33.046875 L12.0654297,33.046875 L9.76855469,43 L8.11425781,43 L6.22070312,35.7333984 L4.28613281,43 L2.625,43 L0.328125,33.046875 L2.04394531,33.046875 Z M17.1171875,39.5273438 L16.2216797,39.5273438 C15.6064422,39.5273438 15.1438818,39.634439 14.8339844,39.8486328 C14.524087,40.0628266 14.3691406,40.3658835 14.3691406,40.7578125 C14.3691406,41.0768245 14.4750966,41.330891 14.6870117,41.5200195 C14.8989268,41.7091481 15.1826154,41.8037109 15.5380859,41.8037109 C15.8662126,41.8037109 16.174966,41.7239591 16.4643555,41.5644531 C16.7537449,41.4049471 16.9713534,41.1907566 17.1171875,40.921875 L17.1171875,39.5273438 Z M44.7890625,32.7939453 C45.0898453,32.7939453 45.3222648,32.8782544 45.4863281,33.046875 C45.6503914,33.2154956 45.7324219,33.4274076 45.7324219,33.6826172 C45.7324219,33.9332695 45.6503914,34.1417635 45.4863281,34.3081055 C45.3222648,34.4744474 45.0898453,34.5576172 44.7890625,34.5576172 C44.4882797,34.5576172 44.2569995,34.4744474 44.0952148,34.3081055 C43.9334302,34.1417635 43.8525391,33.9332695 43.8525391,33.6826172 C43.8525391,33.4274076 43.9334302,33.2154956 44.0952148,33.046875 C44.2569995,32.8782544 44.4882797,32.7939453 44.7890625,32.7939453 Z M30,8 C34.7864678,8 39.1198012,10.4375 43,15.3125 C39.1198012,20.1875 34.7864678,22.625 30,22.625 C25.2135322,22.625 20.8801988,20.1875 17,15.3125 C20.8801988,10.4375 25.2135322,8 30,8 Z M30,9.625 C26.8588805,9.625 24.3125,12.1713805 24.3125,15.3125 C24.3125,18.4536195 26.8588805,21 30,21 C33.1411195,21 35.6875,18.4536195 35.6875,15.3125 C35.6875,12.1713805 33.1411195,9.625 30,9.625 Z M30,12.3125 C31.6568542,12.3125 33,13.6556458 33,15.3125 C33,16.9693542 31.6568542,18.3125 30,18.3125 C28.3431458,18.3125 27,16.9693542 27,15.3125 C27,13.6556458 28.3431458,12.3125 30,12.3125 Z" id="path-36"></path>
    </defs>
    <g id="Launcher-Specs-Copy" stroke="none" stroke-width="1" fill="none" fill-rule="evenodd">
        <g id="Stock_Flux/Launcher_undocked" transform="translate(110.000000, 113.000000)">
            <g id="Color/Background">
                <g id="Rectangle">
                    <use fill="black" fill-opacity="1" filter="url(#filter-2)" xlink:href="#path-1"></use>
                    <use fill="#0D2437" fill-rule="evenodd" xlink:href="#path-1"></use>
                </g>
            </g>
            <g id="Button/Frame_Left" transform="translate(532.000000, 28.000000)" fill-rule="evenodd" stroke-width="1">
                <g id="Left_icon" transform="translate(-0.000000, 0.000000)">
                    <rect id="Left_bounding_box" fill-opacity="0" fill="#D8D8D8" x="-4.54747351e-13" y="-4.26325641e-14" width="60" height="60"></rect>
                    <g id="Screen_Left" transform="translate(15.000000, 7.000000)">
                        <rect id="Bounding_box" x="0" y="0" width="30" height="30"></rect>
                        <mask id="mask-4" fill="white">
                            <use xlink:href="#path-3"></use>
                        </mask>
                        <use id="Left" fill="#AEB1B5" fill-rule="nonzero" xlink:href="#path-3"></use>
                        <g id="Color/Blue-1" mask="url(#mask-4)" fill="#8A96A6">
                            <g transform="translate(-15.000000, -7.000000)" id="Rectangle">
                                <rect x="0" y="0" width="60" height="60"></rect>
                            </g>
                        </g>
                    </g>
                </g>
            </g>
            <g id="Button/Frame_top" transform="translate(592.000000, 28.000000)" fill-rule="evenodd" stroke-width="1">
                <g id="Top_icon">
                    <rect id="Top_bounding_box" fill-opacity="0" fill="#D8D8D8" x="-4.54747351e-13" y="-4.26325641e-14" width="60" height="60"></rect>
                    <g id="Screen_top" transform="translate(15.000000, 7.000000)">
                        <rect id="Bounding_box" x="0" y="0" width="30" height="30"></rect>
                        <mask id="mask-6" fill="white">
                            <use xlink:href="#path-5"></use>
                        </mask>
                        <path stroke="#AEB1B5" stroke-width="2" d="M19.8935547,40.1322205 L19.5546875,39.7616834 L19.5546875,44.84375 L18.8935547,44.84375 L19.5546875,45.5048828 L19.5546875,45.84375 L19.7241211,45.6743164 L19.8935547,45.84375 L19.8935547,45.5048828 L20.5546875,44.84375 L19.8935547,44.84375 L19.8935547,40.1322205 Z M19.8935547,38.6575326 L19.8935547,36.6035156 L20.4248047,36.6035156 L20.4248047,35.6035156 L19.8935547,35.6518111 L19.8935547,35.6035156 L19.8404297,35.6566406 L19.4289115,35.6940514 L19.4600871,36.0369832 L18.8935547,36.6035156 L19.51159,36.6035156 L19.7177379,38.8711418 L19.8935547,38.6575326 Z M14.046875,36.4667969 C13.5490258,36.4667969 13.1302888,36.5762758 12.7709079,36.7922196 C12.4185986,37.0039142 12.1461314,37.3056293 11.9424252,37.717892 C11.7254576,38.156993 11.6152344,38.6582463 11.6151045,39.2172821 L11.6198745,39.5355306 C11.6548325,40.349235 11.8835753,40.9651171 12.2978642,41.4246012 C12.7286681,41.9024019 13.2917969,42.1367188 14.0605469,42.1367188 C14.5674376,42.1367188 14.9914834,42.0260981 15.3525075,41.8085378 C15.707058,41.5948785 15.9763535,41.2965114 16.1731117,40.8933968 C16.3842822,40.4607549 16.4921875,39.9589515 16.4923414,39.3944943 L16.4864641,39.0344625 C16.4473141,38.2051946 16.2027199,37.585003 15.7585719,37.1262128 C15.3310126,36.6845581 14.7819762,36.4667969 14.046875,36.4667969 Z M10.203125,34.046875 L10.203125,34.4414062 L10.5976562,34.046875 L11.203125,34.046875 L10.9003906,33.7441406 L11.203125,33.4414062 L10.5976563,33.4414062 L10.203125,33.046875 L10.203125,33.4414062 L4.30761719,33.4414062 L4.30761719,33.046875 L3.91308594,33.4414062 L3.30761719,33.4414062 L3.61035156,33.7441406 L3.30761719,34.046875 L3.91308594,34.046875 L4.30761719,34.4414062 L4.30761719,34.046875 L7.09960938,34.046875 L7.09960938,42 L6.38378906,42 L7.09960938,42.7158203 L7.09960938,43 L7.24169922,42.8579102 L7.38378906,43 L7.38378906,42.7158203 L8.09960938,42 L7.38378906,42 L7.38378906,34.046875 L10.203125,34.046875 Z M14.046875,35.7998047 C14.915144,35.7998047 15.6513783,36.168883 16.1619615,36.8641452 C16.6215386,37.4899523 16.8378906,38.2878464 16.8378906,39.2333984 C16.8378906,40.2670194 16.6337899,41.1042791 16.1836487,41.7351339 C15.681398,42.4390183 14.9402758,42.8105469 14.0605469,42.8105469 C13.1853144,42.8105469 12.4459957,42.4466635 11.9404209,41.7542459 C11.4873248,41.1337013 11.2763672,40.3342023 11.2763672,39.3769531 C11.2763672,38.3245203 11.485903,37.4788938 11.9513256,36.8505732 C12.4595982,36.1644053 13.1887993,35.7998047 14.046875,35.7998047 Z M22.0175781,35.8271484 C22.8915448,35.8271484 23.623555,36.2040642 24.1061398,36.9148481 C24.5243452,37.5308095 24.7197266,38.3093059 24.7197266,39.2333984 C24.7197266,40.2862367 24.5261881,41.1239185 24.0909988,41.745143 C23.6044447,42.4396896 22.8845453,42.8105469 22.03125,42.8105469 C20.981685,42.8105469 20.1451905,42.3225917 19.668856,41.4132257 L19.5546875,41.1952678 L19.5546875,37.398505 L19.6900781,37.1655241 L19.7899168,36.9954663 C20.2807051,36.2269039 21.0642619,35.8271484 22.0175781,35.8271484 Z M29,5 L1,5 L1,25 L29,25 L29,5 Z M29,9 L29,25 L1,25 L1,9 L29,9 Z"></path>
                        <g id="Color/Blue-1" mask="url(#mask-6)" fill="#8A96A6">
                            <g transform="translate(-15.000000, -7.000000)" id="Rectangle">
                                <rect x="0" y="0" width="60" height="60"></rect>
                            </g>
                        </g>
                    </g>
                </g>
            </g>
            <g id="Button/Frame_Right" transform="translate(652.000000, 28.000000)" fill-rule="evenodd" stroke-width="1">
                <g id="Right_icon" transform="translate(-0.000000, 0.000000)">
                    <rect id="Right_bounding_box" fill-opacity="0" fill="#D8D8D8" x="-4.54747351e-13" y="-4.26325641e-14" width="60" height="60"></rect>
                    <g id="Screen_right" transform="translate(14.000000, 7.000000)">
                        <rect id="Bounding_box" x="1" y="0" width="30" height="30"></rect>
                        <mask id="mask-8" fill="white">
                            <use xlink:href="#path-7"></use>
                        </mask>
                        <use id="Right" fill="#AEB1B5" fill-rule="nonzero" xlink:href="#path-7"></use>
                        <g id="Color/Blue-1" mask="url(#mask-8)" fill="#8A96A6">
                            <g transform="translate(-14.000000, -7.000000)" id="Rectangle">
                                <rect x="0" y="0" width="60" height="60"></rect>
                            </g>
                        </g>
                    </g>
                </g>
            </g>
            <g id="Search_bar_horizontal_small_for_V2" transform="translate(112.000000, 28.000000)">
                <rect id="Rectangle" fill-opacity="0.25" fill="#000000" fill-rule="evenodd" x="42" y="10" width="360" height="40" rx="4"></rect>
                <text id="Stock-ticker,-compan" font-family="Roboto-Medium, Roboto" font-size="14" font-weight="400" fill="#FFFFFF">
                    <tspan x="52" y="35">Stock ticker, company name</tspan>
                </text>
                <g id="Glyph/Search" transform="translate(0.000000, 15.000000)">
                    <rect id="Bounding_box" fill="#D8D8D8" fill-rule="evenodd" opacity="0" x="0" y="0" width="30" height="30"></rect>
                    <mask id="mask-10" fill="white">
                        <use xlink:href="#path-9"></use>
                    </mask>
                    <use id="Search" fill="#AEB1B5" fill-rule="nonzero" xlink:href="#path-9"></use>
                    <g id="Color/Blue-1" mask="url(#mask-10)" fill="#8A96A6" fill-rule="evenodd">
                        <rect id="Rectangle" x="0" y="0" width="30" height="30"></rect>
                    </g>
                </g>
            </g>
            <g id="Button/Watchlist" transform="translate(24.000000, 28.000000)" fill-rule="evenodd" stroke-width="1">
                <g id="Watchlist_Icon">
                    <rect id="Watchlist_bounding_box" fill-opacity="0" fill="#D8D8D8" x="0" y="0" width="64" height="60"></rect>
                    <g id="Eye-Icon" transform="translate(2.000000, 7.000000)">
                        <rect id="Bounding_box" fill-opacity="0" fill="#D8D8D8" x="16" y="0" width="30" height="30"></rect>
                        <mask id="mask-12" fill="white">
                            <use xlink:href="#path-11"></use>
                        </mask>
                        <use id="Watchlist" fill="#AEB1B5" fill-rule="nonzero" xlink:href="#path-11"></use>
                        <g id="Color/Blue-1" mask="url(#mask-12)" fill="#8A96A6">
                            <g transform="translate(0.000000, -7.000000)" id="Rectangle">
                                <rect x="0" y="0" width="60" height="60"></rect>
                            </g>
                        </g>
                    </g>
                </g>
            </g>
            <g id="State/Top_Dark" fill="#000000" fill-opacity="0.4" fill-rule="evenodd">
                <rect id="Rectangle" x="0" y="0" width="724" height="28"></rect>
            </g>
            <g id="Logo/Stock_Flux" transform="translate(24.000000, 2.000000)" fill="#FFFFFF" fill-rule="evenodd" font-size="21" stroke-width="1">
                <g id="Group-Copy-2">
                    <text id="Stock" font-family="Roboto-Medium, Roboto" font-weight="400">
                        <tspan x="0" y="19">Stock</tspan>
                    </text>
                    <text id="Flux" font-family="Roboto-Light, Roboto" font-weight="300">
                        <tspan x="53" y="19">Flux</tspan>
                    </text>
                </g>
            </g>
            <g id="Component/Close_Minimize" transform="translate(660.000000, 0.000000)" fill-rule="evenodd" stroke-width="1">
                <g id="Minimize">
                    <rect id="Rectangle-Copy-2" fill="#D8D8D8" opacity="0" x="0" y="0" width="24" height="28"></rect>
                    <rect id="Rectangle" fill="#FFFFFF" x="6" y="19" width="12" height="2"></rect>
                </g>
                <g id="Close" transform="translate(28.000000, 0.000000)">
                    <rect id="Rectangle" fill="#1B3B56" opacity="0" x="0" y="0" width="24" height="28"></rect>
                    <polygon id="X" fill="#FFFFFF" points="17.6189127 8 18.909903 9.2909903 13.7451778 14.4541796 18.909903 19.6189127 17.6189127 20.909903 12.4541796 15.7451778 7.2909903 20.909903 6 19.6189127 11.1639928 14.4541796 6 9.2909903 7.2909903 8 12.4541796 13.1639928"></polygon>
                </g>
            </g>
        </g>
        <g id="Stock_Flux/Launcher_side">
            <g id="Color/Background">
                <g id="Rectangle">
                    <use fill="black" fill-opacity="1" filter="url(#filter-14)" xlink:href="#path-13"></use>
                    <use fill="#0D2437" fill-rule="evenodd" xlink:href="#path-13"></use>
                </g>
            </g>
            <g id="State/Top_Dark" fill="#000000" fill-opacity="0.4" fill-rule="evenodd">
                <rect id="Rectangle" x="0" y="0" width="90" height="28"></rect>
            </g>
            <g id="Button/Frame_Left" transform="translate(15.000000, 832.000000)" fill-rule="evenodd" stroke-width="1">
                <g id="Left_icon" transform="translate(-0.000000, 0.000000)">
                    <rect id="Left_bounding_box" fill-opacity="0" fill="#D8D8D8" x="-4.54747351e-13" y="-4.26325641e-14" width="60" height="60"></rect>
                    <g id="Screen_Left" transform="translate(15.000000, 7.000000)">
                        <rect id="Bounding_box" x="0" y="0" width="30" height="30"></rect>
                        <mask id="mask-16" fill="white">
                            <use xlink:href="#path-15"></use>
                        </mask>
                        <use id="Left" fill="#AEB1B5" fill-rule="nonzero" xlink:href="#path-15"></use>
                        <g id="Color/Teal" mask="url(#mask-16)" fill="#29E9E3">
                            <g transform="translate(-15.000000, -7.000000)" id="Rectangle">
                                <rect x="0" y="0" width="60" height="60"></rect>
                            </g>
                        </g>
                    </g>
                </g>
            </g>
            <g id="Button/Frame_top" transform="translate(15.000000, 892.000000)" fill-rule="evenodd" stroke-width="1">
                <g id="Top_icon">
                    <rect id="Top_bounding_box" fill-opacity="0" fill="#D8D8D8" x="-4.54747351e-13" y="-4.26325641e-14" width="60" height="60"></rect>
                    <g id="Screen_top" transform="translate(15.000000, 7.000000)">
                        <rect id="Bounding_box" x="0" y="0" width="30" height="30"></rect>
                        <mask id="mask-18" fill="white">
                            <use xlink:href="#path-17"></use>
                        </mask>
                        <path stroke="#AEB1B5" stroke-width="2" d="M19.8935547,40.1322205 L19.5546875,39.7616834 L19.5546875,44.84375 L18.8935547,44.84375 L19.5546875,45.5048828 L19.5546875,45.84375 L19.7241211,45.6743164 L19.8935547,45.84375 L19.8935547,45.5048828 L20.5546875,44.84375 L19.8935547,44.84375 L19.8935547,40.1322205 Z M19.8935547,38.6575326 L19.8935547,36.6035156 L20.4248047,36.6035156 L20.4248047,35.6035156 L19.8935547,35.6518111 L19.8935547,35.6035156 L19.8404297,35.6566406 L19.4289115,35.6940514 L19.4600871,36.0369832 L18.8935547,36.6035156 L19.51159,36.6035156 L19.7177379,38.8711418 L19.8935547,38.6575326 Z M14.046875,36.4667969 C13.5490258,36.4667969 13.1302888,36.5762758 12.7709079,36.7922196 C12.4185986,37.0039142 12.1461314,37.3056293 11.9424252,37.717892 C11.7254576,38.156993 11.6152344,38.6582463 11.6151045,39.2172821 L11.6198745,39.5355306 C11.6548325,40.349235 11.8835753,40.9651171 12.2978642,41.4246012 C12.7286681,41.9024019 13.2917969,42.1367188 14.0605469,42.1367188 C14.5674376,42.1367188 14.9914834,42.0260981 15.3525075,41.8085378 C15.707058,41.5948785 15.9763535,41.2965114 16.1731117,40.8933968 C16.3842822,40.4607549 16.4921875,39.9589515 16.4923414,39.3944943 L16.4864641,39.0344625 C16.4473141,38.2051946 16.2027199,37.585003 15.7585719,37.1262128 C15.3310126,36.6845581 14.7819762,36.4667969 14.046875,36.4667969 Z M10.203125,34.046875 L10.203125,34.4414062 L10.5976562,34.046875 L11.203125,34.046875 L10.9003906,33.7441406 L11.203125,33.4414062 L10.5976563,33.4414062 L10.203125,33.046875 L10.203125,33.4414062 L4.30761719,33.4414062 L4.30761719,33.046875 L3.91308594,33.4414062 L3.30761719,33.4414062 L3.61035156,33.7441406 L3.30761719,34.046875 L3.91308594,34.046875 L4.30761719,34.4414062 L4.30761719,34.046875 L7.09960938,34.046875 L7.09960938,42 L6.38378906,42 L7.09960938,42.7158203 L7.09960938,43 L7.24169922,42.8579102 L7.38378906,43 L7.38378906,42.7158203 L8.09960938,42 L7.38378906,42 L7.38378906,34.046875 L10.203125,34.046875 Z M14.046875,35.7998047 C14.915144,35.7998047 15.6513783,36.168883 16.1619615,36.8641452 C16.6215386,37.4899523 16.8378906,38.2878464 16.8378906,39.2333984 C16.8378906,40.2670194 16.6337899,41.1042791 16.1836487,41.7351339 C15.681398,42.4390183 14.9402758,42.8105469 14.0605469,42.8105469 C13.1853144,42.8105469 12.4459957,42.4466635 11.9404209,41.7542459 C11.4873248,41.1337013 11.2763672,40.3342023 11.2763672,39.3769531 C11.2763672,38.3245203 11.485903,37.4788938 11.9513256,36.8505732 C12.4595982,36.1644053 13.1887993,35.7998047 14.046875,35.7998047 Z M22.0175781,35.8271484 C22.8915448,35.8271484 23.623555,36.2040642 24.1061398,36.9148481 C24.5243452,37.5308095 24.7197266,38.3093059 24.7197266,39.2333984 C24.7197266,40.2862367 24.5261881,41.1239185 24.0909988,41.745143 C23.6044447,42.4396896 22.8845453,42.8105469 22.03125,42.8105469 C20.981685,42.8105469 20.1451905,42.3225917 19.668856,41.4132257 L19.5546875,41.1952678 L19.5546875,37.398505 L19.6900781,37.1655241 L19.7899168,36.9954663 C20.2807051,36.2269039 21.0642619,35.8271484 22.0175781,35.8271484 Z M29,5 L1,5 L1,25 L29,25 L29,5 Z M29,9 L29,25 L1,25 L1,9 L29,9 Z"></path>
                    </g>
                </g>
            </g>
            <g id="Button/Frame_Right" transform="translate(15.000000, 952.000000)" fill-rule="evenodd" stroke-width="1">
                <g id="Right_icon" transform="translate(-0.000000, 0.000000)">
                    <rect id="Right_bounding_box" fill-opacity="0" fill="#D8D8D8" x="-4.54747351e-13" y="-4.26325641e-14" width="60" height="60"></rect>
                    <g id="Screen_right" transform="translate(14.000000, 7.000000)">
                        <rect id="Bounding_box" x="1" y="0" width="30" height="30"></rect>
                        <mask id="mask-20" fill="white">
                            <use xlink:href="#path-19"></use>
                        </mask>
                        <use id="Right" fill="#AEB1B5" fill-rule="nonzero" xlink:href="#path-19"></use>
                    </g>
                </g>
            </g>
            <g id="Button/Watchlist" transform="translate(13.000000, 52.000000)" fill-rule="evenodd" stroke-width="1">
                <g id="Watchlist_Icon">
                    <rect id="Watchlist_bounding_box" fill-opacity="0" fill="#D8D8D8" x="0" y="0" width="64" height="60"></rect>
                    <g id="Eye-Icon" transform="translate(2.000000, 7.000000)">
                        <rect id="Bounding_box" fill-opacity="0" fill="#D8D8D8" x="16" y="0" width="30" height="30"></rect>
                        <mask id="mask-22" fill="white">
                            <use xlink:href="#path-21"></use>
                        </mask>
                        <use id="Watchlist" fill="#AEB1B5" fill-rule="nonzero" xlink:href="#path-21"></use>
                    </g>
                </g>
            </g>
            <g id="Button/Search" transform="translate(15.000000, 442.000000)" fill-rule="evenodd" stroke-width="1">
                <g id="Top_icon">
                    <rect id="Top_bounding_box" fill-opacity="0" fill="#D8D8D8" x="-4.54747351e-13" y="-4.26325641e-14" width="60" height="60"></rect>
                    <g id="Search" transform="translate(8.000000, 7.000000)">
                        <rect id="Bounding_box" fill="#D8D8D8" opacity="0" x="7" y="0" width="30" height="30"></rect>
                        <mask id="mask-24" fill="white">
                            <use xlink:href="#path-23"></use>
                        </mask>
                        <use fill="#AEB1B5" fill-rule="nonzero" xlink:href="#path-23"></use>
                    </g>
                </g>
            </g>
            <g id="Component/Close_Minimize" transform="translate(38.000000, 0.000000)" fill-rule="evenodd" stroke-width="1">
                <g id="Minimize">
                    <rect id="Rectangle-Copy-2" fill="#D8D8D8" opacity="0" x="0" y="0" width="24" height="28"></rect>
                    <rect id="Rectangle" fill="#FFFFFF" x="6" y="19" width="12" height="2"></rect>
                </g>
                <g id="Close" transform="translate(28.000000, 0.000000)">
                    <rect id="Rectangle" fill="#1B3B56" opacity="0" x="0" y="0" width="24" height="28"></rect>
                    <polygon id="X" fill="#FFFFFF" points="17.6189127 8 18.909903 9.2909903 13.7451778 14.4541796 18.909903 19.6189127 17.6189127 20.909903 12.4541796 15.7451778 7.2909903 20.909903 6 19.6189127 11.1639928 14.4541796 6 9.2909903 7.2909903 8 12.4541796 13.1639928"></polygon>
                </g>
            </g>
            <g id="Logo/SF" transform="translate(6.000000, 2.000000)" fill="#FFFFFF" font-size="21">
                <text id="S" font-family="Roboto-Medium, Roboto" font-weight="400">
                    <tspan x="0" y="19">S</tspan>
                </text>
                <text id="F" font-family="Roboto-Light, Roboto" font-weight="300">
                    <tspan x="14" y="19">F</tspan>
                </text>
            </g>
        </g>
        <g id="Stock_Flux/Launcher" transform="translate(110.000000, 0.000000)">
            <g id="Color/Background">
                <g id="Rectangle">
                    <use fill="black" fill-opacity="1" filter="url(#filter-26)" xlink:href="#path-25"></use>
                    <use fill="#0D2437" fill-rule="evenodd" xlink:href="#path-25"></use>
                </g>
            </g>
            <g id="State/Top_Dark" fill="#000000" fill-opacity="0.4" fill-rule="evenodd">
                <rect id="Rectangle" x="0" y="0" width="1440" height="28"></rect>
            </g>
            <g id="Search_bar_horizontal_v1" transform="translate(447.000000, 28.000000)">
                <rect id="Rectangle" fill-opacity="0.25" fill="#000000" fill-rule="evenodd" x="42" y="10" width="396" height="40" rx="4"></rect>
                <text id="Stock-ticker,-compan" font-family="Roboto-Medium, Roboto" font-size="14" font-weight="400" fill="#FFFFFF">
                    <tspan x="52" y="35">Stock ticker, company name</tspan>
                </text>
                <g id="Glyph/Search" transform="translate(0.000000, 15.000000)">
                    <rect id="Bounding_box" fill="#D8D8D8" fill-rule="evenodd" opacity="0" x="0" y="0" width="30" height="30"></rect>
                    <mask id="mask-28" fill="white">
                        <use xlink:href="#path-27"></use>
                    </mask>
                    <use id="Search" fill="#AEB1B5" fill-rule="nonzero" xlink:href="#path-27"></use>
                    <g id="Color/Blue-1" mask="url(#mask-28)" fill="#8A96A6" fill-rule="evenodd">
                        <rect id="Rectangle" x="0" y="0" width="30" height="30"></rect>
                    </g>
                </g>
            </g>
            <g id="Button/Frame_Left" transform="translate(1248.000000, 28.000000)" fill-rule="evenodd">
                <g id="State/Hover" transform="translate(-0.000000, 0.000000)">
                    <g id="Rectangle">
                        <use fill-opacity="0.1" fill="#A6FFFC" xlink:href="#path-29"></use>
                        <use fill="#1B3B56" xlink:href="#path-29"></use>
                    </g>
                </g>
                <g id="Left_icon" stroke-width="1" transform="translate(-0.000000, 0.000000)">
                    <rect id="Left_bounding_box" fill-opacity="0" fill="#D8D8D8" x="-4.54747351e-13" y="-4.26325641e-14" width="60" height="60"></rect>
                    <g id="Screen_Left" transform="translate(15.000000, 7.000000)">
                        <rect id="Bounding_box" x="0" y="0" width="30" height="30"></rect>
                        <mask id="mask-31" fill="white">
                            <use xlink:href="#path-30"></use>
                        </mask>
                        <use id="Left" fill="#AEB1B5" fill-rule="nonzero" xlink:href="#path-30"></use>
                        <g id="Color/Blue-1" mask="url(#mask-31)" fill="#8A96A6">
                            <g transform="translate(-15.000000, -7.000000)" id="Rectangle">
                                <rect x="0" y="0" width="60" height="60"></rect>
                            </g>
                        </g>
                    </g>
                </g>
            </g>
            <g id="Button/Frame_Right" transform="translate(1368.000000, 28.000000)" fill-rule="evenodd" stroke-width="1">
                <g id="Right_icon" transform="translate(-0.000000, 0.000000)">
                    <rect id="Right_bounding_box" fill-opacity="0" fill="#D8D8D8" x="-4.54747351e-13" y="-4.26325641e-14" width="60" height="60"></rect>
                    <g id="Screen_right" transform="translate(14.000000, 7.000000)">
                        <rect id="Bounding_box" x="1" y="0" width="30" height="30"></rect>
                        <mask id="mask-33" fill="white">
                            <use xlink:href="#path-32"></use>
                        </mask>
                        <use id="Right" fill="#AEB1B5" fill-rule="nonzero" xlink:href="#path-32"></use>
                        <g id="Color/Blue-1" mask="url(#mask-33)" fill="#8A96A6">
                            <g transform="translate(-14.000000, -7.000000)" id="Rectangle">
                                <rect x="0" y="0" width="60" height="60"></rect>
                            </g>
                        </g>
                    </g>
                </g>
            </g>
            <g id="Component/Close_Minimize" transform="translate(1376.000000, 0.000000)" fill-rule="evenodd" stroke-width="1">
                <g id="Minimize">
                    <rect id="Rectangle-Copy-2" fill="#D8D8D8" opacity="0" x="0" y="0" width="24" height="28"></rect>
                    <rect id="Rectangle" fill="#FFFFFF" x="6" y="19" width="12" height="2"></rect>
                </g>
                <g id="Close" transform="translate(28.000000, 0.000000)">
                    <rect id="Rectangle" fill="#1B3B56" opacity="0" x="0" y="0" width="24" height="28"></rect>
                    <polygon id="X" fill="#FFFFFF" points="17.6189127 8 18.909903 9.2909903 13.7451778 14.4541796 18.909903 19.6189127 17.6189127 20.909903 12.4541796 15.7451778 7.2909903 20.909903 6 19.6189127 11.1639928 14.4541796 6 9.2909903 7.2909903 8 12.4541796 13.1639928"></polygon>
                </g>
            </g>
            <g id="Button/Frame_top" transform="translate(1308.000000, 28.000000)" fill-rule="evenodd" stroke-width="1">
                <g id="Top_icon">
                    <rect id="Top_bounding_box" fill-opacity="0" fill="#D8D8D8" x="-4.54747351e-13" y="-4.26325641e-14" width="60" height="60"></rect>
                    <g id="Screen_top" transform="translate(15.000000, 7.000000)">
                        <rect id="Bounding_box" x="0" y="0" width="30" height="30"></rect>
                        <mask id="mask-35" fill="white">
                            <use xlink:href="#path-34"></use>
                        </mask>
                        <path stroke="#AEB1B5" stroke-width="2" d="M19.8935547,40.1322205 L19.5546875,39.7616834 L19.5546875,44.84375 L18.8935547,44.84375 L19.5546875,45.5048828 L19.5546875,45.84375 L19.7241211,45.6743164 L19.8935547,45.84375 L19.8935547,45.5048828 L20.5546875,44.84375 L19.8935547,44.84375 L19.8935547,40.1322205 Z M19.8935547,38.6575326 L19.8935547,36.6035156 L20.4248047,36.6035156 L20.4248047,35.6035156 L19.8935547,35.6518111 L19.8935547,35.6035156 L19.8404297,35.6566406 L19.4289115,35.6940514 L19.4600871,36.0369832 L18.8935547,36.6035156 L19.51159,36.6035156 L19.7177379,38.8711418 L19.8935547,38.6575326 Z M14.046875,36.4667969 C13.5490258,36.4667969 13.1302888,36.5762758 12.7709079,36.7922196 C12.4185986,37.0039142 12.1461314,37.3056293 11.9424252,37.717892 C11.7254576,38.156993 11.6152344,38.6582463 11.6151045,39.2172821 L11.6198745,39.5355306 C11.6548325,40.349235 11.8835753,40.9651171 12.2978642,41.4246012 C12.7286681,41.9024019 13.2917969,42.1367188 14.0605469,42.1367188 C14.5674376,42.1367188 14.9914834,42.0260981 15.3525075,41.8085378 C15.707058,41.5948785 15.9763535,41.2965114 16.1731117,40.8933968 C16.3842822,40.4607549 16.4921875,39.9589515 16.4923414,39.3944943 L16.4864641,39.0344625 C16.4473141,38.2051946 16.2027199,37.585003 15.7585719,37.1262128 C15.3310126,36.6845581 14.7819762,36.4667969 14.046875,36.4667969 Z M10.203125,34.046875 L10.203125,34.4414062 L10.5976562,34.046875 L11.203125,34.046875 L10.9003906,33.7441406 L11.203125,33.4414062 L10.5976563,33.4414062 L10.203125,33.046875 L10.203125,33.4414062 L4.30761719,33.4414062 L4.30761719,33.046875 L3.91308594,33.4414062 L3.30761719,33.4414062 L3.61035156,33.7441406 L3.30761719,34.046875 L3.91308594,34.046875 L4.30761719,34.4414062 L4.30761719,34.046875 L7.09960938,34.046875 L7.09960938,42 L6.38378906,42 L7.09960938,42.7158203 L7.09960938,43 L7.24169922,42.8579102 L7.38378906,43 L7.38378906,42.7158203 L8.09960938,42 L7.38378906,42 L7.38378906,34.046875 L10.203125,34.046875 Z M14.046875,35.7998047 C14.915144,35.7998047 15.6513783,36.168883 16.1619615,36.8641452 C16.6215386,37.4899523 16.8378906,38.2878464 16.8378906,39.2333984 C16.8378906,40.2670194 16.6337899,41.1042791 16.1836487,41.7351339 C15.681398,42.4390183 14.9402758,42.8105469 14.0605469,42.8105469 C13.1853144,42.8105469 12.4459957,42.4466635 11.9404209,41.7542459 C11.4873248,41.1337013 11.2763672,40.3342023 11.2763672,39.3769531 C11.2763672,38.3245203 11.485903,37.4788938 11.9513256,36.8505732 C12.4595982,36.1644053 13.1887993,35.7998047 14.046875,35.7998047 Z M22.0175781,35.8271484 C22.8915448,35.8271484 23.623555,36.2040642 24.1061398,36.9148481 C24.5243452,37.5308095 24.7197266,38.3093059 24.7197266,39.2333984 C24.7197266,40.2862367 24.5261881,41.1239185 24.0909988,41.745143 C23.6044447,42.4396896 22.8845453,42.8105469 22.03125,42.8105469 C20.981685,42.8105469 20.1451905,42.3225917 19.668856,41.4132257 L19.5546875,41.1952678 L19.5546875,37.398505 L19.6900781,37.1655241 L19.7899168,36.9954663 C20.2807051,36.2269039 21.0642619,35.8271484 22.0175781,35.8271484 Z M29,5 L1,5 L1,25 L29,25 L29,5 Z M29,9 L29,25 L1,25 L1,9 L29,9 Z"></path>
                        <g id="Color/Teal" mask="url(#mask-35)" fill="#29E9E3">
                            <g transform="translate(-15.000000, -7.000000)" id="Rectangle">
                                <rect x="0" y="0" width="60" height="60"></rect>
                            </g>
                        </g>
                    </g>
                </g>
            </g>
            <g id="Button/Watchlist" transform="translate(22.000000, 28.000000)" fill-rule="evenodd" stroke-width="1">
                <g id="Watchlist_Icon">
                    <rect id="Watchlist_bounding_box" fill-opacity="0" fill="#D8D8D8" x="0" y="0" width="64" height="60"></rect>
                    <g id="Eye-Icon" transform="translate(2.000000, 7.000000)">
                        <rect id="Bounding_box" fill-opacity="0" fill="#D8D8D8" x="16" y="0" width="30" height="30"></rect>
                        <mask id="mask-37" fill="white">
                            <use xlink:href="#path-36"></use>
                        </mask>
                        <use id="Watchlist" fill="#AEB1B5" fill-rule="nonzero" xlink:href="#path-36"></use>
                        <g id="Color/Blue-1" mask="url(#mask-37)" fill="#8A96A6">
                            <g transform="translate(0.000000, -7.000000)" id="Rectangle">
                                <rect x="0" y="0" width="60" height="60"></rect>
                            </g>
                        </g>
                    </g>
                </g>
            </g>
            <g id="Logo/Stock_Flux" transform="translate(24.000000, 2.000000)" fill="#FFFFFF" fill-rule="evenodd" font-size="21" stroke-width="1">
                <g id="Group-Copy-2">
                    <text id="Stock" font-family="Roboto-Medium, Roboto" font-weight="400">
                        <tspan x="0" y="19">Stock</tspan>
                    </text>
                    <text id="Flux" font-family="Roboto-Light, Roboto" font-weight="300">
                        <tspan x="53" y="19">Flux</tspan>
                    </text>
                </g>
            </g>
        </g>
    </g>
</svg>