<svg xmlns="http://www.w3.org/2000/svg" width="2274" height="28" viewBox="0 0 2274 28">
  <g fill="none" fill-rule="evenodd">
    <path fill="#21B1CA" d="M33.5264165,13.3857036 C33.8284329,13.755563 33.8177737,14.2885175 33.501208,14.6461167 C28.0065704,20.8529747 22.5079317,24 16.9999996,24 C11.4836994,24 5.98294785,20.7490333 0.488586449,14.3399579 C0.175489968,13.9747364 0.175879177,13.4370303 0.489504051,13.0722583 C5.58090458,7.15053368 11.0695749,4.10197661 16.9329271,4.00230752 C22.8240689,3.90216605 28.3626321,7.06196194 33.5264165,13.3857036 Z M31.1544677,13.6082602 C26.6016024,8.39473729 21.8784145,5.86974487 16.9663926,5.95324262 C11.923771,6.03896039 7.11964027,8.60176653 2.53394531,13.7088902 C7.49501249,19.2965686 12.3197665,22.0487994 16.9999996,22.0487994 C21.5803797,22.0487994 26.2931539,19.5037586 31.1338994,14.3408116 L31.4718334,13.9763575 L31.1544677,13.6082602 Z"/>
    <circle cx="17" cy="14" r="5.315" stroke="#21B1CA" stroke-width="2"/>
    <path fill="#21B1CA" d="M83.5264165,13.3857036 C83.8284329,13.755563 83.8177737,14.2885175 83.501208,14.6461167 C78.0065704,20.8529747 72.5079317,24 66.9999996,24 C61.4836994,24 55.9829479,20.7490333 50.4885864,14.3399579 C50.17549,13.9747364 50.1758792,13.4370303 50.4895041,13.0722583 C55.5809046,7.15053368 61.0695749,4.10197661 66.9329271,4.00230752 C72.8240689,3.90216605 78.3626321,7.06196194 83.5264165,13.3857036 Z M81.1544677,13.6082602 C76.6016024,8.39473729 71.8784145,5.86974487 66.9663926,5.95324262 C61.923771,6.03896039 57.1196403,8.60176653 52.5339453,13.7088902 C57.4950125,19.2965686 62.3197665,22.0487994 66.9999996,22.0487994 C71.5803797,22.0487994 76.2931539,19.5037586 81.1338994,14.3408116 L81.4718334,13.9763575 L81.1544677,13.6082602 Z"/>
    <circle cx="67" cy="14" r="5.6" stroke="#21B1CA" stroke-width="2"/>
    <path fill="#21B1CA" d="M133.526417,13.3857036 C133.828433,13.755563 133.817774,14.2885175 133.501208,14.6461167 C128.00657,20.8529747 122.507932,24 117,24 C111.483699,24 105.982948,20.7490333 100.488586,14.3399579 C100.17549,13.9747364 100.175879,13.4370303 100.489504,13.0722583 C105.580905,7.15053368 111.069575,4.10197661 116.932927,4.00230752 C122.824069,3.90216605 128.362632,7.06196194 133.526417,13.3857036 Z M131.154468,13.6082602 C126.601602,8.39473729 121.878414,5.86974487 116.966393,5.95324262 C111.923771,6.03896039 107.11964,8.60176653 102.533945,13.7088902 C107.495012,19.2965686 112.319766,22.0487994 117,22.0487994 C121.58038,22.0487994 126.293154,19.5037586 131.133899,14.3408116 L131.471833,13.9763575 L131.154468,13.6082602 Z"/>
    <circle cx="117" cy="14" r="6.008" stroke="#21B1CA" stroke-width="2"/>
    <path fill="#21B1CA" d="M182.526417,13.3857036 C182.828433,13.755563 182.817774,14.2885175 182.501208,14.6461167 C177.00657,20.8529747 171.507932,24 166,24 C160.483699,24 154.982948,20.7490333 149.488586,14.3399579 C149.17549,13.9747364 149.175879,13.4370303 149.489504,13.0722583 C154.580905,7.15053368 160.069575,4.10197661 165.932927,4.00230752 C171.824069,3.90216605 177.362632,7.06196194 182.526417,13.3857036 Z M180.154468,13.6082602 C175.601602,8.39473729 170.878414,5.86974487 165.966393,5.95324262 C160.923771,6.03896039 156.11964,8.60176653 151.533945,13.7088902 C156.495012,19.2965686 161.319766,22.0487994 166,22.0487994 C170.58038,22.0487994 175.293154,19.5037586 180.133899,14.3408116 L180.471833,13.9763575 L180.154468,13.6082602 Z"/>
    <circle cx="166" cy="14" r="6.196" stroke="#21B1CA" stroke-width="2"/>
    <path fill="#21B1CA" d="M232.526417,13.3857036 C232.828433,13.755563 232.817774,14.2885175 232.501208,14.6461167 C227.00657,20.8529747 221.507932,24 216,24 C210.483699,24 204.982948,20.7490333 199.488586,14.3399579 C199.17549,13.9747364 199.175879,13.4370303 199.489504,13.0722583 C204.580905,7.15053368 210.069575,4.10197661 215.932927,4.00230752 C221.824069,3.90216605 227.362632,7.06196194 232.526417,13.3857036 Z M230.154468,13.6082602 C225.601602,8.39473729 220.878414,5.86974487 215.966393,5.95324262 C210.923771,6.03896039 206.11964,8.60176653 201.533945,13.7088902 C206.495012,19.2965686 211.319766,22.0487994 216,22.0487994 C220.58038,22.0487994 225.293154,19.5037586 230.133899,14.3408116 L230.471833,13.9763575 L230.154468,13.6082602 Z"/>
    <circle cx="216" cy="14" r="6.449" stroke="#21B1CA" stroke-width="2"/>
    <path fill="#21B1CA" d="M282.526417,13.3857036 C282.828433,13.755563 282.817774,14.2885175 282.501208,14.6461167 C277.00657,20.8529747 271.507932,24 266,24 C260.483699,24 254.982948,20.7490333 249.488586,14.3399579 C249.17549,13.9747364 249.175879,13.4370303 249.489504,13.0722583 C254.580905,7.15053368 260.069575,4.10197661 265.932927,4.00230752 C271.824069,3.90216605 277.362632,7.06196194 282.526417,13.3857036 Z M280.154468,13.6082602 C275.601602,8.39473729 270.878414,5.86974487 265.966393,5.95324262 C260.923771,6.03896039 256.11964,8.60176653 251.533945,13.7088902 C256.495012,19.2965686 261.319766,22.0487994 266,22.0487994 C270.58038,22.0487994 275.293154,19.5037586 280.133899,14.3408116 L280.471833,13.9763575 L280.154468,13.6082602 Z"/>
    <circle cx="266" cy="14" r="6.731" stroke="#21B1CA" stroke-width="2"/>
    <path fill="#21B1CA" d="M332.526417,13.3857036 C332.828433,13.755563 332.817774,14.2885175 332.501208,14.6461167 C327.00657,20.8529747 321.507932,24 316,24 C310.483699,24 304.982948,20.7490333 299.488586,14.3399579 C299.17549,13.9747364 299.175879,13.4370303 299.489504,13.0722583 C304.580905,7.15053368 310.069575,4.10197661 315.932927,4.00230752 C321.824069,3.90216605 327.362632,7.06196194 332.526417,13.3857036 Z M330.154468,13.6082602 C325.601602,8.39473729 320.878414,5.86974487 315.966393,5.95324262 C310.923771,6.03896039 306.11964,8.60176653 301.533945,13.7088902 C306.495012,19.2965686 311.319766,22.0487994 316,22.0487994 C320.58038,22.0487994 325.293154,19.5037586 330.133899,14.3408116 L330.471833,13.9763575 L330.154468,13.6082602 Z"/>
    <circle cx="316" cy="14" r="7.242" stroke="#21B1CA" stroke-width="2"/>
    <path fill="#21B1CA" d="M381.526417,13.3857036 C381.828433,13.755563 381.817774,14.2885175 381.501208,14.6461167 C376.00657,20.8529747 370.507932,24 365,24 C359.483699,24 353.982948,20.7490333 348.488586,14.3399579 C348.17549,13.9747364 348.175879,13.4370303 348.489504,13.0722583 C353.580905,7.15053368 359.069575,4.10197661 364.932927,4.00230752 C370.824069,3.90216605 376.362632,7.06196194 381.526417,13.3857036 Z M379.154468,13.6082602 C374.601602,8.39473729 369.878414,5.86974487 364.966393,5.95324262 C359.923771,6.03896039 355.11964,8.60176653 350.533945,13.7088902 C355.495012,19.2965686 360.319766,22.0487994 365,22.0487994 C369.58038,22.0487994 374.293154,19.5037586 379.133899,14.3408116 L379.471833,13.9763575 L379.154468,13.6082602 Z"/>
    <circle cx="365" cy="14" r="7.46" stroke="#21B1CA" stroke-width="2"/>
    <path fill="#21B1CA" d="M431.526417,13.3857036 C431.828433,13.755563 431.817774,14.2885175 431.501208,14.6461167 C426.00657,20.8529747 420.507932,24 415,24 C409.483699,24 403.982948,20.7490333 398.488586,14.3399579 C398.17549,13.9747364 398.175879,13.4370303 398.489504,13.0722583 C403.580905,7.15053368 409.069575,4.10197661 414.932927,4.00230752 C420.824069,3.90216605 426.362632,7.06196194 431.526417,13.3857036 Z M429.154468,13.6082602 C424.601602,8.39473729 419.878414,5.86974487 414.966393,5.95324262 C409.923771,6.03896039 405.11964,8.60176653 400.533945,13.7088902 C405.495012,19.2965686 410.319766,22.0487994 415,22.0487994 C419.58038,22.0487994 424.293154,19.5037586 429.133899,14.3408116 L429.471833,13.9763575 L429.154468,13.6082602 Z"/>
    <circle cx="415" cy="14" r="7.821" stroke="#21B1CA" stroke-width="2"/>
    <path fill="#21B1CA" d="M481.526417,13.3857036 C481.828433,13.755563 481.817774,14.2885175 481.501208,14.6461167 C476.00657,20.8529747 470.507932,24 465,24 C459.483699,24 453.982948,20.7490333 448.488586,14.3399579 C448.17549,13.9747364 448.175879,13.4370303 448.489504,13.0722583 C453.580905,7.15053368 459.069575,4.10197661 464.932927,4.00230752 C470.824069,3.90216605 476.362632,7.06196194 481.526417,13.3857036 Z M479.154468,13.6082602 C474.601602,8.39473729 469.878414,5.86974487 464.966393,5.95324262 C459.923771,6.03896039 455.11964,8.60176653 450.533945,13.7088902 C455.495012,19.2965686 460.319766,22.0487994 465,22.0487994 C469.58038,22.0487994 474.293154,19.5037586 479.133899,14.3408116 L479.471833,13.9763575 L479.154468,13.6082602 Z"/>
    <circle cx="465" cy="14" r="8.122" stroke="#21B1CA" stroke-width="2"/>
    <path fill="#21B1CA" d="M531.526417,13.3857036 C531.828433,13.755563 531.817774,14.2885175 531.501208,14.6461167 C526.00657,20.8529747 520.507932,24 515,24 C509.483699,24 503.982948,20.7490333 498.488586,14.3399579 C498.17549,13.9747364 498.175879,13.4370303 498.489504,13.0722583 C503.580905,7.15053368 509.069575,4.10197661 514.932927,4.00230752 C520.824069,3.90216605 526.362632,7.06196194 531.526417,13.3857036 Z M529.154468,13.6082602 C524.601602,8.39473729 519.878414,5.86974487 514.966393,5.95324262 C509.923771,6.03896039 505.11964,8.60176653 500.533945,13.7088902 C505.495012,19.2965686 510.319766,22.0487994 515,22.0487994 C519.58038,22.0487994 524.293154,19.5037586 529.133899,14.3408116 L529.471833,13.9763575 L529.154468,13.6082602 Z"/>
    <circle cx="515" cy="14" r="8.288" stroke="#21B1CA" stroke-width="2"/>
    <path fill="#21B1CA" d="M581.526417,13.3857036 C581.828433,13.755563 581.817774,14.2885175 581.501208,14.6461167 C576.00657,20.8529747 570.507932,24 565,24 C559.483699,24 553.982948,20.7490333 548.488586,14.3399579 C548.17549,13.9747364 548.175879,13.4370303 548.489504,13.0722583 C553.580905,7.15053368 559.069575,4.10197661 564.932927,4.00230752 C570.824069,3.90216605 576.362632,7.06196194 581.526417,13.3857036 Z M579.154468,13.6082602 C574.601602,8.39473729 569.878414,5.86974487 564.966393,5.95324262 C559.923771,6.03896039 555.11964,8.60176653 550.533945,13.7088902 C555.495012,19.2965686 560.319766,22.0487994 565,22.0487994 C569.58038,22.0487994 574.293154,19.5037586 579.133899,14.3408116 L579.471833,13.9763575 L579.154468,13.6082602 Z"/>
    <circle cx="565" cy="14" r="8.644" stroke="#21B1CA" stroke-width="2"/>
    <path fill="#21B1CA" d="M630.526417,13.3857036 C630.828433,13.755563 630.817774,14.2885175 630.501208,14.6461167 C625.00657,20.8529747 619.507932,24 614,24 C608.483699,24 602.982948,20.7490333 597.488586,14.3399579 C597.17549,13.9747364 597.175879,13.4370303 597.489504,13.0722583 C602.580905,7.15053368 608.069575,4.10197661 613.932927,4.00230752 C619.824069,3.90216605 625.362632,7.06196194 630.526417,13.3857036 Z M628.154468,13.6082602 C623.601602,8.39473729 618.878414,5.86974487 613.966393,5.95324262 C608.923771,6.03896039 604.11964,8.60176653 599.533945,13.7088902 C604.495012,19.2965686 609.319766,22.0487994 614,22.0487994 C618.58038,22.0487994 623.293154,19.5037586 628.133899,14.3408116 L628.471833,13.9763575 L628.154468,13.6082602 Z"/>
    <circle cx="614" cy="14" r="9" stroke="#21B1CA" stroke-width="2"/>
    <path fill="#21B1CA" d="M680.096639,13.3857036 C680.390801,13.755563 680.380419,14.2885175 680.072086,14.6461167 C674.720339,20.8529747 669.364695,24 664,24 C658.627154,24 653.269452,20.7490333 647.917974,14.3399579 C647.61302,13.9747364 647.613399,13.4370303 647.918868,13.0722583 C652.877864,7.15053368 658.223799,4.10197661 663.934671,4.00230752 C669.672611,3.90216605 675.067141,7.06196194 680.096639,13.3857036 Z M677.786373,13.6082602 C673.351908,8.39473729 668.751549,5.86974487 663.967267,5.95324262 C659.055781,6.03896039 654.376584,8.60176653 649.910143,13.7088902 C654.742195,19.2965686 659.441478,22.0487994 664,22.0487994 C668.461265,22.0487994 673.051481,19.5037586 677.76634,14.3408116 L678.095486,13.9763575 L677.786373,13.6082602 Z"/>
    <circle cx="664" cy="14" r="9" stroke="#21B1CA" stroke-width="2"/>
    <path fill="#21B1CA" d="M729.316746,13.3857036 C729.596656,13.755563 729.586777,14.2885175 729.293383,14.6461167 C724.200932,20.8529747 719.104772,24 714,24 C708.887472,24 703.789354,20.7490333 698.697159,14.3399579 C698.40698,13.9747364 698.407341,13.4370303 698.698009,13.0722583 C703.416739,7.15053368 708.503659,4.10197661 713.937837,4.00230752 C719.397769,3.90216605 724.530931,7.06196194 729.316746,13.3857036 Z M727.118415,13.6082602 C722.898802,8.39473729 718.521333,5.86974487 713.968853,5.95324262 C709.295332,6.03896039 704.842845,8.60176653 700.592805,13.7088902 C705.190741,19.2965686 709.662342,22.0487994 714,22.0487994 C718.245113,22.0487994 722.612931,19.5037586 727.099352,14.3408116 L727.41255,13.9763575 L727.118415,13.6082602 Z"/>
    <circle cx="714" cy="14" r="9" stroke="#21B1CA" stroke-width="2"/>
    <path fill="#21B1CA" d="M778.81669,13.3857036 C779.087462,13.755563 779.077905,14.2885175 778.79409,14.6461167 C773.867895,20.8529747 768.938113,24 764,24 C759.054384,24 754.122708,20.7490333 749.196761,14.3399579 C748.916055,13.9747364 748.916404,13.4370303 749.197583,13.0722583 C753.762257,7.15053368 758.683102,4.10197661 763.939866,4.00230752 C769.221545,3.90216605 774.187121,7.06196194 778.81669,13.3857036 Z M776.690129,13.6082602 C772.608277,8.39473729 768.373722,5.86974487 763.969869,5.95324262 C759.448928,6.03896039 755.141804,8.60176653 751.030519,13.7088902 C755.478343,19.2965686 759.803956,22.0487994 764,22.0487994 C768.10652,22.0487994 772.331739,19.5037586 776.671689,14.3408116 L776.974662,13.9763575 L776.690129,13.6082602 Z"/>
    <circle cx="764" cy="14" r="9" stroke="#21B1CA" stroke-width="2"/>
    <path fill="#21B1CA" d="M827.362346,13.3857036 C827.624814,13.755563 827.615551,14.2885175 827.340438,14.6461167 C822.565302,20.8529747 817.786689,24 813,24 C808.206038,24 803.425589,20.7490333 798.650693,14.3399579 C798.378595,13.9747364 798.378933,13.4370303 798.65149,13.0722583 C803.076191,7.15053368 807.846141,4.10197661 812.94171,4.00230752 C818.061429,3.90216605 822.874739,7.06196194 827.362346,13.3857036 Z M825.300994,13.6082602 C821.344309,8.39473729 817.239605,5.86974487 812.970793,5.95324262 C808.588484,6.03896039 804.413435,8.60176653 800.42822,13.7088902 C804.739654,19.2965686 808.932625,22.0487994 813,22.0487994 C816.980597,22.0487994 821.076251,19.5037586 825.283119,14.3408116 L825.576802,13.9763575 L825.300994,13.6082602 Z"/>
    <circle cx="813" cy="14" r="9" stroke="#21B1CA" stroke-width="2"/>
    <path fill="#21B1CA" d="M876.809905,13.3857036 C877.062278,13.755563 877.05337,14.2885175 876.78884,14.6461167 C872.197377,20.8529747 867.602571,24 863,24 C858.390435,24 853.793864,20.7490333 849.202632,14.3399579 C848.941001,13.9747364 848.941326,13.4370303 849.203399,13.0722583 C853.457906,7.15053368 858.044382,4.10197661 862.943952,4.00230752 C867.866744,3.90216605 872.494912,7.06196194 876.809905,13.3857036 Z M874.827842,13.6082602 C871.023349,8.39473729 867.07653,5.86974487 862.971917,5.95324262 C858.758171,6.03896039 854.743714,8.60176653 850.911787,13.7088902 C855.057384,19.2965686 859.089075,22.0487994 863,22.0487994 C866.827485,22.0487994 870.765602,19.5037586 874.810655,14.3408116 L875.093041,13.9763575 L874.827842,13.6082602 Z"/>
    <circle cx="863" cy="14" r="9" stroke="#21B1CA" stroke-width="2"/>
    <path fill="#21B1CA" d="M926.293949,13.3857036 C926.536893,13.755563 926.528319,14.2885175 926.273672,14.6461167 C921.853752,20.8529747 917.430614,24 913,24 C908.562654,24 904.137817,20.7490333 899.718119,14.3399579 C899.466262,13.9747364 899.466575,13.4370303 899.718857,13.0722583 C903.814411,7.15053368 908.22953,4.10197661 912.946046,4.00230752 C917.684916,3.90216605 922.14017,7.06196194 926.293949,13.3857036 Z M924.385939,13.6082602 C920.723587,8.39473729 916.924226,5.86974487 912.972966,5.95324262 C908.916651,6.03896039 905.052179,8.60176653 901.363418,13.7088902 C905.354131,19.2965686 909.235192,22.0487994 913,22.0487994 C916.684485,22.0487994 920.475469,19.5037586 924.369394,14.3408116 L924.64123,13.9763575 L924.385939,13.6082602 Z"/>
    <circle cx="913" cy="14" r="9" stroke="#21B1CA" stroke-width="2"/>
    <path fill="#21B1CA" d="M975.829004,13.3857036 C976.063452,13.755563 976.055177,14.2885175 975.809436,14.6461167 C971.544099,20.8529747 967.275657,24 963,24 C958.717847,24 954.447764,20.7490333 950.182642,14.3399579 C949.939594,13.9747364 949.939896,13.4370303 950.183354,13.0722583 C954.135669,7.15053368 958.396373,4.10197661 962.947933,4.00230752 C967.521065,3.90216605 971.8205,7.06196194 975.829004,13.3857036 Z M973.987726,13.6082602 C970.453461,8.39473729 966.78698,5.86974487 962.973911,5.95324262 C959.059462,6.03896039 955.330147,8.60176653 951.770398,13.7088902 C955.621539,19.2965686 959.366863,22.0487994 963,22.0487994 C966.555623,22.0487994 970.214021,19.5037586 973.971759,14.3408116 L974.234088,13.9763575 L973.987726,13.6082602 Z"/>
    <circle cx="963" cy="14" r="9" stroke="#21B1CA" stroke-width="2"/>
    <path fill="#21B1CA" d="M1025.33463,13.3857036 C1025.56004,13.755563 1025.55209,14.2885175 1025.31582,14.6461167 C1021.21485,20.8529747 1017.11089,24 1013,24 C1008.88286,24 1004.77733,20.7490333 1000.67657,14.3399579 C1000.44288,13.9747364 1000.44318,13.4370303 1000.67725,13.0722583 C1004.47726,7.15053368 1008.57378,4.10197661 1012.94994,4.00230752 C1017.34684,3.90216605 1021.4806,7.06196194 1025.33463,13.3857036 Z M1023.56431,13.6082602 C1020.16624,8.39473729 1016.64105,5.86974487 1012.97492,5.95324262 C1009.21131,6.03896039 1005.62571,8.60176653 1002.20314,13.7088902 C1004.5172,17.2009722 1006.67218,20.0271083 1008.90527,21.324585 C1010.24535,22.1031999 1011.68994,22.0487994 1013,22.0487901 C1014.59227,22.0487901 1016.37057,21.7021621 1018.00537,20.5905762 C1019.8805,19.3155794 1021.6188,17.0990403 1023.54896,14.3408116 L1023.80118,13.9763575 L1023.56431,13.6082602 Z"/>
    <circle cx="1013" cy="14" r="9" stroke="#21B1CA" stroke-width="2"/>
    <path fill="#21B1CA" d="M1073.82867,13.3857036 C1074.04484,13.755563 1074.03721,14.2885175 1073.81063,14.6461167 C1069.87788,20.8529747 1065.94227,24 1062,24 C1058.05174,24 1054.11462,20.7490333 1050.18206,14.3399579 C1049.95797,13.9747364 1049.95825,13.4370303 1050.18272,13.0722583 C1053.82686,7.15053368 1057.75534,4.10197661 1061.95199,4.00230752 C1066.16854,3.90216605 1070.13273,7.06196194 1073.82867,13.3857036 Z M1072.13097,13.6082602 C1068.87228,8.39473729 1065.49169,5.86974487 1061.97595,5.95324262 C1060.6796,5.98403037 1059.24662,6.14105912 1057.99365,6.81408691 C1055.75817,8.01487054 1053.74932,10.436122 1051.64602,13.7088902 C1053.4064,16.4790644 1054.81466,19.2857351 1056.52637,20.6722412 C1058.26732,22.0824365 1060.31089,22.0489304 1062,22.0489304 C1063.59933,22.0489304 1065.51255,21.892092 1067.15662,20.6722412 C1068.88263,19.3915917 1070.34176,16.9850527 1072.11625,14.3408116 L1072.35812,13.9763575 L1072.13097,13.6082602 Z"/>
    <circle cx="1062" cy="14" r="9" stroke="#21B1CA" stroke-width="2"/>
    <path fill="#21B1CA" d="M1123.46559,13.3857036 C1123.67512,13.755563 1123.66772,14.2885175 1123.4481,14.6461167 C1119.63607,20.8529747 1115.82126,24 1112,24 C1108.17294,24 1104.35666,20.7490333 1100.54482,14.3399579 C1100.3276,13.9747364 1100.32787,13.4370303 1100.54546,13.0722583 C1104.07774,7.15053368 1107.88563,4.10197661 1111.95347,4.00230752 C1116.04058,3.90216605 1119.88309,7.06196194 1123.46559,13.3857036 Z M1121.81999,13.6082602 C1120.15962,10.8677318 1118.71716,8.64553645 1116.98962,7.37915039 C1115.43073,6.23639056 1113.59316,5.9136361 1111.97668,5.95324262 C1110.56644,5.98779596 1108.81063,6.00880007 1107.45325,6.8527832 C1105.44332,8.10250045 1103.86282,10.6604786 1101.96384,13.7088902 C1103.49496,16.1945879 1104.64914,18.5568279 1106.14233,19.9276123 C1108.00573,21.6382575 1110.19743,22.0487994 1112,22.0487994 C1113.54587,22.0487994 1115.40064,21.847965 1116.98962,20.6350098 C1118.66702,19.3545665 1120.08108,16.9921571 1121.80572,14.3408116 L1122.04017,13.9763575 L1121.81999,13.6082602 Z"/>
    <circle cx="1112" cy="14" r="9" stroke="#21B1CA" stroke-width="2"/>
    <path fill="#21B1CA" d="M1172.92601,13.3857036 C1173.12568,13.755563 1173.11863,14.2885175 1172.90935,14.6461167 C1169.27671,20.8529747 1165.64143,24 1162,24 C1158.35304,24 1154.71636,20.7490333 1151.08391,14.3399579 C1150.87691,13.9747364 1150.87717,13.4370303 1151.08451,13.0722583 C1154.45056,7.15053368 1158.07925,4.10197661 1161.95566,4.00230752 C1165.85043,3.90216605 1169.51211,7.06196194 1172.92601,13.3857036 Z M1171.35786,13.6082602 C1169.89356,11.0720055 1168.57894,8.8309228 1167.05994,7.5579834 C1165.45648,6.21426971 1163.64543,5.91036453 1161.97778,5.95324262 C1160.42912,5.99306146 1158.37196,6.12716742 1156.89001,7.24279785 C1155.18179,8.52877781 1154.05952,10.9742007 1152.43614,13.7088902 C1153.71135,15.8813616 1154.31046,18.075741 1155.55811,19.395874 C1157.51945,21.4711728 1160.10881,22.0487994 1162,22.0487994 C1163.72169,22.0487994 1165.90145,21.5533092 1167.6792,19.8945313 C1169.02824,18.63577 1169.96349,16.5683455 1171.34426,14.3408116 L1171.56768,13.9763575 L1171.35786,13.6082602 Z"/>
    <circle cx="1162" cy="14" r="9" stroke="#21B1CA" stroke-width="2"/>
    <path fill="#21B1CA" d="M1222.62604,13.3857036 C1222.82023,13.755563 1222.81338,14.2885175 1222.60983,14.6461167 C1219.07693,20.8529747 1215.54145,24 1212,24 C1208.45317,24 1204.91633,20.7490333 1201.38361,14.3399579 C1201.18229,13.9747364 1201.18254,13.4370303 1201.3842,13.0722583 C1204.65783,7.15053368 1208.1869,4.10197661 1211.95687,4.00230752 C1215.74472,3.90216605 1219.30587,7.06196194 1222.62604,13.3857036 Z M1221.10094,13.6082602 C1219.67685,11.0720055 1218.39832,8.8309228 1216.92102,7.5579834 C1215.36158,6.21426971 1213.60025,5.91036453 1211.97839,5.95324262 C1210.47225,5.99306146 1208.47157,6.12716742 1207.03031,7.24279785 C1205.36898,8.52877781 1204.27752,10.9742007 1202.69872,13.7088902 C1203.93891,15.8813616 1204.52158,18.075741 1205.73497,19.395874 C1207.64246,21.4711728 1210.16073,22.0487994 1212,22.0487994 C1213.67443,22.0487994 1215.79434,21.5533092 1217.52328,19.8945313 C1218.83528,18.63577 1219.74485,16.5683455 1221.08772,14.3408116 L1221.305,13.9763575 L1221.10094,13.6082602 Z"/>
    <circle cx="1212" cy="14" r="9" stroke="#21B1CA" stroke-width="2"/>
    <circle cx="1261" cy="14" r="9" stroke="#21B1CA" stroke-width="2"/>
    <path fill="#21B1CA" d="M1271.24746,13.3857036 C1271.43473,13.755563 1271.42813,14.2885175 1271.23183,14.6461167 C1267.8248,20.8529747 1264.41528,24 1261,24 C1257.57953,24 1254.1687,20.7490333 1250.76184,14.3399579 C1250.5677,13.9747364 1250.56794,13.4370303 1250.76241,13.0722583 C1253.91941,7.15053368 1257.32275,4.10197661 1260.95841,4.00230752 C1264.61131,3.90216605 1268.04558,7.06196194 1271.24746,13.3857036 Z M1269.7767,13.6082602 C1268.40334,11.0720055 1267.75117,8.70982905 1266.3265,7.43688965 C1264.82262,6.09317596 1262.54324,5.91036453 1260.97916,5.95324262 C1259.52668,5.99306146 1257.59727,6.12716742 1256.20736,7.24279785 C1254.60522,8.52877781 1253.55266,10.9742007 1252.03009,13.7088902 C1253.22611,15.8813616 1253.78801,18.075741 1254.95817,19.395874 C1256.79771,21.4711728 1259.22626,22.0487994 1261,22.0487994 C1262.61477,22.0487994 1265.10817,21.9058483 1266.77551,20.2470703 C1268.04077,18.9883091 1268.46893,16.5683455 1269.76395,14.3408116 L1269.97349,13.9763575 L1269.7767,13.6082602 Z"/>
    <circle cx="1311" cy="14" r="9" stroke="#21B1CA" stroke-width="2"/>
    <circle cx="1361" cy="14" r="9" stroke="#21B1CA" stroke-width="2"/>
    <line x1="1355.251" x2="1355.904" y1="14" y2="14.758" stroke="#21B1CA" stroke-linecap="round" stroke-width="2"/>
    <circle cx="1411" cy="14" r="9" stroke="#21B1CA" stroke-width="2"/>
    <line x1="1405.251" x2="1406.557" y1="14" y2="15.515" stroke="#21B1CA" stroke-linecap="round" stroke-width="2"/>
    <circle cx="1461" cy="14" r="9" stroke="#21B1CA" stroke-width="2"/>
    <line x1="1455.251" x2="1457.209" y1="14" y2="16.273" stroke="#21B1CA" stroke-linecap="round" stroke-width="2"/>
    <circle cx="1510" cy="14" r="9" stroke="#21B1CA" stroke-width="2"/>
    <line x1="1504.251" x2="1506.862" y1="14" y2="17.03" stroke="#21B1CA" stroke-linecap="round" stroke-width="2"/>
    <circle cx="1560" cy="14" r="9" stroke="#21B1CA" stroke-width="2"/>
    <line x1="1554.251" x2="1557.515" y1="14" y2="17.788" stroke="#21B1CA" stroke-linecap="round" stroke-width="2"/>
    <circle cx="1610" cy="14" r="9" stroke="#21B1CA" stroke-width="2"/>
    <line x1="1604.251" x2="1608.071" y1="14" y2="18.432" stroke="#21B1CA" stroke-linecap="round" stroke-width="2"/>
    <circle cx="1660" cy="14" r="9" stroke="#21B1CA" stroke-width="2"/>
    <line x1="1654.251" x2="1658.071" y1="14" y2="18.432" stroke="#21B1CA" stroke-linecap="round" stroke-width="2"/>
    <circle cx="1709" cy="14" r="9" stroke="#21B1CA" stroke-width="2"/>
    <line x1="1703.251" x2="1707.071" y1="14" y2="18.432" stroke="#21B1CA" stroke-linecap="round" stroke-width="2"/>
    <circle cx="1759" cy="14" r="9" stroke="#21B1CA" stroke-width="2"/>
    <line x1="1753.251" x2="1757.071" y1="14" y2="18.432" stroke="#21B1CA" stroke-linecap="round" stroke-width="2"/>
    <circle cx="1809" cy="14" r="9" stroke="#21B1CA" stroke-width="2"/>
    <line x1="1803.251" x2="1807.071" y1="14" y2="18.432" stroke="#21B1CA" stroke-linecap="round" stroke-width="2"/>
    <line x1="1807.071" x2="1809.788" y1="18.432" y2="15.497" stroke="#21B1CA" stroke-linecap="round" stroke-width="2"/>
    <circle cx="1859" cy="14" r="9" stroke="#21B1CA" stroke-width="2"/>
    <line x1="1853.251" x2="1857.071" y1="14" y2="18.432" stroke="#21B1CA" stroke-linecap="round" stroke-width="2"/>
    <line x1="1857.071" x2="1860.467" y1="18.432" y2="14.763" stroke="#21B1CA" stroke-linecap="round" stroke-width="2"/>
    <circle cx="1909" cy="14" r="9" stroke="#21B1CA" stroke-width="2"/>
    <line x1="1903.251" x2="1907.071" y1="14" y2="18.432" stroke="#21B1CA" stroke-linecap="round" stroke-width="2"/>
    <line x1="1907.071" x2="1911.146" y1="18.432" y2="14.029" stroke="#21B1CA" stroke-linecap="round" stroke-width="2"/>
    <circle cx="1958" cy="14" r="9" stroke="#21B1CA" stroke-width="2"/>
    <line x1="1952.251" x2="1956.071" y1="14" y2="18.432" stroke="#21B1CA" stroke-linecap="round" stroke-width="2"/>
    <line x1="1956.071" x2="1960.825" y1="18.432" y2="13.295" stroke="#21B1CA" stroke-linecap="round" stroke-width="2"/>
    <circle cx="2008" cy="14" r="9" stroke="#21B1CA" stroke-width="2"/>
    <line x1="2002.251" x2="2006.071" y1="14" y2="18.432" stroke="#21B1CA" stroke-linecap="round" stroke-width="2"/>
    <line x1="2006.071" x2="2011.505" y1="18.432" y2="12.561" stroke="#21B1CA" stroke-linecap="round" stroke-width="2"/>
    <circle cx="2058" cy="14" r="9" stroke="#21B1CA" stroke-width="2"/>
    <line x1="2052.251" x2="2056.071" y1="14" y2="18.432" stroke="#21B1CA" stroke-linecap="round" stroke-width="2"/>
    <line x1="2056.071" x2="2062.184" y1="18.432" y2="11.827" stroke="#21B1CA" stroke-linecap="round" stroke-width="2"/>
    <circle cx="2108" cy="14" r="9" stroke="#21B1CA" stroke-width="2"/>
    <line x1="2102.251" x2="2106.071" y1="14" y2="18.432" stroke="#21B1CA" stroke-linecap="round" stroke-width="2"/>
    <line x1="2106.071" x2="2112.863" y1="18.432" y2="11.093" stroke="#21B1CA" stroke-linecap="round" stroke-width="2"/>
    <circle cx="2157" cy="14" r="9" stroke="#21B1CA" stroke-width="2"/>
    <line x1="2151.251" x2="2155.071" y1="14" y2="18.432" stroke="#21B1CA" stroke-linecap="round" stroke-width="2"/>
    <line x1="2155.071" x2="2162.542" y1="18.432" y2="10.359" stroke="#21B1CA" stroke-linecap="round" stroke-width="2"/>
    <circle cx="2207" cy="14" r="9" stroke="#21B1CA" stroke-width="2"/>
    <line x1="2201.251" x2="2205.071" y1="14" y2="18.432" stroke="#21B1CA" stroke-linecap="round" stroke-width="2"/>
    <line x1="2205.071" x2="2213.222" y1="18.432" y2="9.626" stroke="#21B1CA" stroke-linecap="round" stroke-width="2"/>
    <circle cx="2257" cy="14" r="9" stroke="#21B1CA" stroke-width="2"/>
    <line x1="2251.251" x2="2255.071" y1="14" y2="18.432" stroke="#21B1CA" stroke-linecap="round" stroke-width="2"/>
    <line x1="2255.071" x2="2263.901" y1="18.432" y2="8.892" stroke="#21B1CA" stroke-linecap="round" stroke-width="2"/>
  </g>
</svg>
