<svg xmlns="http://www.w3.org/2000/svg" width="34" height="28" viewBox="0 0 34 28">
  <g fill="none" fill-rule="evenodd">
    <path fill="#21B1CA" d="M29.6230268,13.3857036 C29.8465322,13.755563 29.8386439,14.2885175 29.6043714,14.6461167 C25.538099,20.8529747 21.4688657,24 17.3927548,24 C13.3104511,24 9.23965411,20.7490333 5.17358612,14.3399579 C4.94188102,13.9747364 4.94216905,13.4370303 5.17426519,13.0722583 C8.94212449,7.15053368 13.0039809,4.10197661 17.3431182,4.00230752 C21.702821,3.90216605 25.8016003,7.06196194 29.6230268,13.3857036 Z M27.8676809,13.6082602 C24.4983612,8.39473729 21.0029953,5.86974487 17.3678841,5.95324262 C13.6361234,6.03896039 10.0808563,8.60176653 6.68724123,13.7088902 C10.3586481,19.2965686 13.9291773,22.0487994 17.3927548,22.0487994 C20.7824366,22.0487994 24.2700958,19.5037586 27.8524594,14.3408116 L28.1025453,13.9763575 L27.8676809,13.6082602 Z"/>
    <circle cx="17.393" cy="14" r="9" stroke="#21B1CA" stroke-width="2"/>
  </g>
</svg>
