<?xml version="1.0" encoding="UTF-8"?>
<svg xmlns="http://www.w3.org/2000/svg" xmlns:xlink="http://www.w3.org/1999/xlink" width="60px" height="42px" viewBox="0 0 32 42">
    <g id="Screen" stroke="none" stroke-width="1" fill="none" fill-rule="evenodd">
        <g id="Desktop-HD-Copy" transform="translate(-295.000000, -407.000000)">
            <g id="Right_Icon" transform="translate(281.000000, 396.000000)">
                <rect fill-opacity="0" fill="#D8D8D8" x="-4.54747351e-13" y="-4.26325641e-14" width="60" height="60"></rect>
                <path fill="currentColor" fill-rule="nonzero" d="M28.8320312,42.4667969 C29.6751344,42.4667969 30.3382137,42.7607392 30.8212891,43.3486328 L30.8964844,42.6035156 L32.3935547,42.6035156 L32.3935547,49.7744141 C32.3935547,50.745122 32.0916371,51.5107394 31.487793,52.0712891 C30.8839488,52.6318387 30.0693411,52.9121094 29.0439453,52.9121094 C28.5016249,52.9121094 27.971845,52.7993175 27.4545898,52.5737305 C26.9373347,52.3481434 26.5442722,52.0530617 26.2753906,51.6884766 L27.0615234,50.6904297 C27.5719427,51.2965525 28.2008426,51.5996094 28.9482422,51.5996094 C29.4996772,51.5996094 29.9348942,51.4503596 30.2539062,51.1518555 C30.5729183,50.8533514 30.7324219,50.4147164 30.7324219,49.8359375 L30.7324219,49.3369141 C30.2539039,49.8701199 29.6158894,50.1367188 28.8183594,50.1367188 C27.9524696,50.1367188 27.2449572,49.7926467 26.6958008,49.1044922 C26.1466444,48.4163377 25.8720703,47.4638733 25.8720703,46.2470703 C25.8720703,45.0986271 26.1420871,44.1814813 26.6821289,43.4956055 C27.2221707,42.8097296 27.9387976,42.4667969 28.8320312,42.4667969 Z M43.953125,40.8056641 L43.953125,42.6035156 L45.2587891,42.6035156 L45.2587891,43.8339844 L43.953125,43.8339844 L43.953125,47.9628906 C43.953125,48.2454441 44.0089513,48.4493809 44.1206055,48.574707 C44.2322597,48.7000332 44.4316392,48.7626953 44.71875,48.7626953 C44.9101572,48.7626953 45.1038402,48.7399091 45.2998047,48.6943359 L45.2998047,49.9794922 C44.9215476,50.0843104 44.5569679,50.1367188 44.2060547,50.1367188 C42.9300066,50.1367188 42.2919922,49.4326242 42.2919922,48.0244141 L42.2919922,43.8339844 L41.0751953,43.8339844 L41.0751953,42.6035156 L42.2919922,42.6035156 L42.2919922,40.8056641 L43.953125,40.8056641 Z M17.5117188,40.046875 C18.660162,40.046875 19.5465464,40.3043594 20.1708984,40.8193359 C20.7952505,41.3343125 21.1074219,42.0794222 21.1074219,43.0546875 C21.1074219,43.7200554 20.946779,44.2771787 20.6254883,44.7260742 C20.3041976,45.1749697 19.8564482,45.5201811 19.2822266,45.7617188 L21.5175781,49.9111328 L21.5175781,50 L19.6650391,50 L17.6689453,46.1650391 L15.7412109,46.1650391 L15.7412109,50 L14.0117188,50 L14.0117188,40.046875 L17.5117188,40.046875 Z M24.3544922,42.6035156 L24.3544922,50 L22.6933594,50 L22.6933594,42.6035156 L24.3544922,42.6035156 Z M35.7363281,39.5 L35.7363281,43.4101562 C36.2786485,42.7812469 36.9645141,42.4667969 37.7939453,42.4667969 C39.3707761,42.4667969 40.1705728,43.366853 40.1933594,45.1669922 L40.1933594,50 L38.5322266,50 L38.5322266,45.2285156 C38.5322266,44.7180964 38.4217133,44.3569347 38.2006836,44.1450195 C37.9796538,43.9331044 37.6549501,43.8271484 37.2265625,43.8271484 C36.5611946,43.8271484 36.0644548,44.1233694 35.7363281,44.7158203 L35.7363281,50 L34.0751953,50 L34.0751953,39.5 L35.7363281,39.5 Z M29.2558594,43.8271484 C28.7089816,43.8271484 28.2840184,44.0436176 27.980957,44.4765625 C27.6778956,44.9095074 27.5263672,45.5475218 27.5263672,46.390625 C27.5263672,47.1334673 27.6778956,47.7179341 27.980957,48.144043 C28.2840184,48.5701519 28.7044244,48.7832031 29.2421875,48.7832031 C29.9121127,48.7832031 30.4088525,48.4960966 30.7324219,47.921875 L30.7324219,44.6679688 C30.4179672,44.1074191 29.9257846,43.8271484 29.2558594,43.8271484 Z M17.5664062,41.4414062 L15.7412109,41.4414062 L15.7412109,44.7773438 L17.5185547,44.7773438 C18.1018909,44.7773438 18.5576155,44.6303726 18.8857422,44.3364258 C19.2138688,44.042479 19.3779297,43.640302 19.3779297,43.1298828 C19.3779297,42.596677 19.2264013,42.1842463 18.9233398,41.8925781 C18.6202784,41.60091 18.1679718,41.4505209 17.5664062,41.4414062 Z M23.5273438,39.7939453 C23.8281265,39.7939453 24.0605461,39.8782544 24.2246094,40.046875 C24.3886727,40.2154956 24.4707031,40.4274076 24.4707031,40.6826172 C24.4707031,40.9332695 24.3886727,41.1417635 24.2246094,41.3081055 C24.0605461,41.4744474 23.8281265,41.5576172 23.5273438,41.5576172 C23.226561,41.5576172 22.9952808,41.4744474 22.8334961,41.3081055 C22.6717114,41.1417635 22.5908203,40.9332695 22.5908203,40.6826172 C22.5908203,40.4274076 22.6717114,40.2154956 22.8334961,40.046875 C22.9952808,39.8782544 23.226561,39.7939453 23.5273438,39.7939453 Z M45,11 L45,33 L15,33 L15,11 L45,11 Z M39,13 L17,13 L17,31 L39,31 L39,13 Z"></path>
            </g>
        </g>
    </g>
</svg>