<svg xmlns="http://www.w3.org/2000/svg" width="40" height="40" viewBox="0 0 40 40">
  <path fill="#C5D2DD" fill-rule="evenodd" d="M34.5961538,8.5 C35.0847134,8.5 35.4807692,8.8960558 35.4807692,9.38461538 L35.4807692,9.38461538 L35.4807692,30.6153846 C35.4807692,31.1039442 35.0847134,31.5 34.5961538,31.5 L34.5961538,31.5 L5.40384615,31.5 C4.91528657,31.5 4.51923077,31.1039442 4.51923077,30.6153846 L4.51923077,30.6153846 L4.51923077,9.38461538 C4.51923077,8.8960558 4.91528657,8.5 5.40384615,8.5 L5.40384615,8.5 Z M29.2882308,10.269 L6.28846154,10.2692308 L6.28846154,29.7307692 L29.2882308,29.73 L29.2882308,10.269 Z M33.7115385,10.2692308 L31.0572308,10.269 L31.0572308,29.73 L33.7115385,29.7307692 L33.7115385,10.2692308 Z"/>
</svg>