<?xml version="1.0" encoding="UTF-8"?>
<svg xmlns="http://www.w3.org/2000/svg" xmlns:xlink="http://www.w3.org/1999/xlink" width="60px" height="42px" viewBox="0 0 30 42">
    <g id="Screen" stroke="none" stroke-width="1" fill="none" fill-rule="evenodd">
        <g id="Desktop-HD-Copy" transform="translate(-296.000000, -485.000000)">
            <g id="Top_Icon" transform="translate(281.000000, 474.000000)">
                <rect fill-opacity="0" fill="#D8D8D8" x="-4.54747351e-13" y="0" width="60" height="60"></rect>
                <path fill="currentColor" fill-rule="nonzero" d="M37.4824219,42.4667969 C38.3847701,42.4667969 39.0922826,42.8028938 39.6049805,43.4750977 C40.1176783,44.1473015 40.3740234,45.0803977 40.3740234,46.2744141 L40.3740234,46.3769531 C40.3740234,47.5208391 40.1142604,48.4334276 39.5947266,49.1147461 C39.0751927,49.7960646 38.3779341,50.1367188 37.5029297,50.1367188 C36.6917277,50.1367188 36.0423201,49.8701199 35.5546875,49.3369141 L35.5546875,52.84375 L33.8935547,52.84375 L33.8935547,42.6035156 L35.4248047,42.6035156 L35.4931641,43.3554688 C35.9807967,42.7630179 36.643876,42.4667969 37.4824219,42.4667969 Z M29.046875,42.4667969 C30.0449269,42.4667969 30.8549774,42.7880827 31.4770508,43.4306641 C32.0991242,44.0732454 32.4352211,44.9254504 32.4853516,45.9873047 L32.4921875,46.3769531 C32.4921875,47.1061234 32.3520522,47.7578096 32.0717773,48.3320312 C31.7915025,48.9062529 31.3904648,49.3505844 30.8686523,49.6650391 C30.3468398,49.9794938 29.744144,50.1367188 29.0605469,50.1367188 C28.0169219,50.1367188 27.1818065,49.7892287 26.5551758,49.0942383 C25.9767474,48.4527086 25.66529,47.6141207 25.6207961,46.5784526 L25.6152344,46.2333984 C25.6152344,45.5087854 25.7587876,44.8559599 26.0458984,44.2749023 C26.3330092,43.6938448 26.7363255,43.2472346 27.2558594,42.9350586 C27.7753932,42.6228826 28.3723925,42.4667969 29.046875,42.4667969 Z M26.203125,40.046875 L26.203125,41.4414062 L23.0996094,41.4414062 L23.0996094,50 L21.3837891,50 L21.3837891,41.4414062 L18.3076172,41.4414062 L18.3076172,40.046875 L26.203125,40.046875 Z M29.046875,43.7998047 C28.5045546,43.7998047 28.0738948,44.0151346 27.7548828,44.4458008 C27.4358708,44.876467 27.2763672,45.520178 27.2763672,46.3769531 C27.2763672,47.1380246 27.4335922,47.7338846 27.7480469,48.1645508 C28.0625016,48.595217 28.4999972,48.8105469 29.0605469,48.8105469 C29.6210966,48.8105469 30.0574529,48.5917991 30.3696289,48.1542969 C30.6818049,47.7167947 30.8378906,47.0765016 30.8378906,46.2333984 C30.8378906,45.4859989 30.6772477,44.8935569 30.355957,44.4560547 C30.0346664,44.0185525 29.59831,43.7998047 29.046875,43.7998047 Z M37.0175781,43.8271484 C36.3951249,43.8271484 35.9335131,44.0626536 35.6327314,44.5336705 L35.5546875,44.6679688 L35.5546875,47.9492188 C35.8554703,48.5234404 36.3476528,48.8105469 37.03125,48.8105469 C37.5598985,48.8105469 37.9734686,48.5974956 38.2719727,48.1713867 C38.5704768,47.7452778 38.7197266,47.0992882 38.7197266,46.2333984 C38.7197266,45.4951135 38.5727554,44.9095074 38.2788086,44.4765625 C37.9848618,44.0436176 37.5644559,43.8271484 37.0175781,43.8271484 Z M45,11 L45,33 L15,33 L15,11 L45,11 Z M43,17 L17,17 L17,31 L43,31 L43,17 Z"></path>
            </g>
        </g>
    </g>
</svg>