<?xml version="1.0" encoding="utf-8"?>
<svg version="1.1" xmlns="http://www.w3.org/2000/svg" viewBox="0 0 30 30">
	<path fill="#45D6BC" d="M21.2,17.7V22l3.8,2.4l0.6-1.1l-3.2-2v-3.5H21.2z
		 M22.4,13.5c-2.8,0-5.3,1.6-6.6,4L14,15.6v5.5h5.2L17,18.7c1-2.1,3-3.5,5.4-3.5c3.3,0,6,2.9,6,6.3c0,3.4-2.7,6.3-6,6.3
		c-2.6,0-4.8-1.8-5.7-4.2H15c0.9,3.4,3.8,5.9,7.4,5.9c4.2,0,7.6-3.6,7.6-8C30,17.1,26.6,13.5,22.4,13.5z"/>
	<polygon fill="#45D6BC" points="13.6,28.5 4,28.5 4,4.5 28,4.5 28,13.2 26,13.2 26,6.5 6,6.5 6,26.5 13.6,26.5 	"/>
	<polygon fill="#45D6BC" points="3.4,24.5 0,24.5 0,0.5 24,0.5 24,4.3 22,4.3 22,2.5 2,2.5 2,22.5 3.4,22.5 	"/>
</svg>
