<?xml version="1.0" encoding="utf-8"?>
<svg version="1.1" xmlns="http://www.w3.org/2000/svg" viewBox="0 0 14 14">
	<path fill="#37D9BD" d="M1.3,14c-0.4,0-0.7-0.1-0.9-0.4c-0.5-0.6-0.5-1.4,0-1.8l1.9-1.9h0c-0.7,0-1.3-0.6-1.3-1.3
		c0-0.7,0.6-1.3,1.3-1.3h4.4v4.5c0,0.7-0.5,1.3-1.2,1.3c-0.7,0-1.3-0.6-1.3-1.3v-0.3l-2,2C1.9,13.9,1.6,14,1.3,14z M2.2,8.3
		C2,8.3,1.9,8.5,1.9,8.7S2,9,2.2,9h2.3L1,12.5c-0.1,0.1-0.1,0.4,0,0.5c0,0,0.4,0.1,0.5,0l3.6-3.6v2.5c0,0.2,0.2,0.3,0.3,0.3
		c0.2,0,0.3-0.2,0.3-0.3V8.3H2.2z"/>
	<path fill="#37D9BD" d="M3.2,6.8c-0.8,0-1.3-0.6-1.3-1.3V1.8h3.7c0.7,0,1.3,0.6,1.3,1.3c0,0.7-0.6,1.3-1.3,1.3H4.4
		v1.1C4.4,6.2,3.8,6.8,3.2,6.8z M2.7,2.7v2.8c0,0.2,0.2,0.3,0.4,0.3c0.2,0,0.3-0.2,0.3-0.3V3.5h2.1c0.2,0,0.3-0.2,0.3-0.3
		c0-0.2-0.1-0.4-0.3-0.4H2.7z"/>
	<path fill="#37D9BD" d="M12.5,12.3H8.7c-0.7,0-1.3-0.6-1.3-1.3c0-0.7,0.6-1.3,1.3-1.3h1.1V8.7c0-0.7,0.6-1.3,1.3-1.3
		c0.7,0,1.2,0.6,1.3,1.1L12.5,12.3z M8.7,10.7c-0.2,0-0.3,0.2-0.3,0.3c0,0.2,0.2,0.3,0.3,0.3h2.8V8.6c0-0.1-0.2-0.3-0.4-0.3
		c-0.2,0-0.3,0.2-0.3,0.3v2.1H8.7z"/>
	<path fill="#37D9BD" d="M11.9,6.6H7.4V2.1c0-0.7,0.6-1.3,1.3-1.3c0.7,0,1.3,0.6,1.3,1.3v0.2l1.9-1.9
		c0.5-0.5,1.2-0.5,1.8,0l0.1,0.1c0.4,0.6,0.4,1.3,0,1.8l-1.9,1.9h0.2c0.7,0,1.3,0.6,1.3,1.3S12.6,6.6,11.9,6.6z M8.3,5.7h3.6
		c0.2,0,0.3-0.2,0.3-0.3c0-0.2-0.2-0.3-0.3-0.3H9.5L13,1.5c0.1-0.1,0.1-0.3,0-0.5c-0.2-0.1-0.4-0.1-0.5,0L9,4.5V2.1
		c0-0.2-0.2-0.3-0.3-0.3c-0.2,0-0.3,0.2-0.3,0.3V5.7z"/>
</svg>
