<?xml version="1.0" encoding="utf-8"?>
<svg version="1.1" xmlns="http://www.w3.org/2000/svg" viewBox="0 0 18 18">
<path fill="#464E58" d="M16.9,17.5c-0.1,0-0.3,0-0.4-0.1L0.6,1.4c-0.2-0.2-0.2-0.5,0-0.7c0.2-0.2,0.5-0.2,0.7,0
	l15.9,16c0.2,0.2,0.2,0.5,0,0.7C17.2,17.5,17.1,17.5,16.9,17.5z"/>
<path fill="#464E58" d="M16.9,13.6c-0.1,0-0.3,0-0.4-0.1L4.5,1.4c-0.2-0.2-0.2-0.5,0-0.7c0.2-0.2,0.5-0.2,0.7,0
	l12.1,12.1c0.2,0.2,0.2,0.5,0,0.7C17.2,13.6,17.1,13.6,16.9,13.6z"/>
<path fill="#464E58" d="M17,9.5c-0.1,0-0.3,0-0.4-0.1l-8-8c-0.2-0.2-0.2-0.5,0-0.7c0.2-0.2,0.5-0.2,0.7,0l8,8
	c0.2,0.2,0.2,0.5,0,0.7C17.2,9.5,17.1,9.5,17,9.5z"/>
<path fill="#464E58" d="M17,5.5c-0.1,0-0.3,0-0.4-0.1l-4-4c-0.2-0.2-0.2-0.5,0-0.7c0.2-0.2,0.5-0.2,0.7,0l4,4
	c0.2,0.2,0.2,0.5,0,0.7C17.3,5.5,17.1,5.5,17,5.5z"/>
</svg>
