<?xml version="1.0" encoding="utf-8"?>
<svg version="1.1" xmlns="http://www.w3.org/2000/svg" viewBox="0 0 14 14">
<path fill="#37D9BD" d="M5.4,7.3c0.4,0,0.7,0.1,0.9,0.4c0.5,0.6,0.5,1.4,0,1.8l-1.9,1.9l0,0c0.7,0,1.3,0.6,1.3,1.3
	c0,0.7-0.6,1.3-1.3,1.3H0l0-4.5c0-0.7,0.5-1.3,1.2-1.3s1.3,0.6,1.3,1.3v0.3l2-2C4.8,7.4,5.1,7.3,5.4,7.3z"/>
<path fill="#37D9BD" d="M3.2,6.8c-0.8,0-1.3-0.6-1.3-1.3V1.8h3.7c0.7,0,1.3,0.6,1.3,1.3S6.2,4.4,5.5,4.4H4.4v1.1
	C4.4,6.2,3.8,6.8,3.2,6.8z"/>
<path fill="#37D9BD" d="M12.4,12.3H8.6c-0.7,0-1.3-0.6-1.3-1.3s0.6-1.3,1.3-1.3h1.1v-1c0-0.7,0.6-1.3,1.3-1.3s1.2,0.6,1.3,1.1
	L12.4,12.3z"/>
<path fill="#37D9BD" d="M9.5,0L14,0v4.5c0,0.7-0.6,1.3-1.3,1.3s-1.3-0.6-1.3-1.3V4.3L9.5,6.2C9,6.7,8.3,6.7,7.7,6.2L7.6,6.1
	c-0.4-0.6-0.4-1.3,0-1.8l1.9-1.9H9.3C8.6,2.4,8,1.8,8,1.1S8.8,0,9.5,0z"/>
</svg>
