<?xml version="1.0" encoding="utf-8"?>
<svg version="1.1" xmlns="http://www.w3.org/2000/svg" viewBox="0 1 14 14">
	<path fill="none" d="M10,5.8V10h3V5H9.2C9.7,5,10,5.3,10,5.8z"/>
	<rect x="5" y="2" fill="none" width="8" height="2"/>
	<path fill="#37D9BD" d="M13.2,1H4.8C4.3,1,4,1.3,4,1.8V5h1h4.2H13v5h-3v1h3.2c0.4,0,0.8-0.3,0.8-0.8V1.8C14,1.3,13.7,1,13.2,1z"/>
	<path fill="#37D9BD" d="M10,5.8C10,5.3,9.7,5,9.2,5H5H4H0.8C0.3,5,0,5.3,0,5.8v8.5C0,14.7,0.3,15,0.8,15h8.5c0.4,0,0.8-0.3,0.8-0.8
		V11v-1V5.8z M9,14H1V9h3h1h4v1v1V14z"/>
</svg>
