<svg xmlns="http://www.w3.org/2000/svg" width="22" height="22" viewBox="0 0 22 22">
  <path fill="#C5D2DD" fill-rule="evenodd" d="M0.713307632,0.150415722 C0.991583126,0.150415722 1.21716999,0.375026015 1.21716999,0.652096854 L1.21716999,0.652096854 L1.21644528,6.29141572 L3.74799768,3.2732388 C3.92423406,3.0630374 4.23101715,3.03623016 4.44024951,3.1955583 L4.51369345,3.2640368 L6.30127366,5.29443202 L8.54206161,2.30223787 C8.47596822,2.15588292 8.43919707,1.99356014 8.43919707,1.82268616 C8.43919707,1.17618754 8.96556641,0.652096854 9.6148759,0.652096854 C10.2641854,0.652096854 10.7905547,1.17618754 10.7905547,1.82268616 C10.7905547,2.46918479 10.2641854,2.99327547 9.6148759,2.99327547 C9.50954347,2.99327547 9.40744634,2.97948347 9.31030677,2.95361428 L6.72656793,6.39028835 C6.53304789,6.64114251 6.15749827,6.65325194 5.94808249,6.41539026 L5.94808249,6.41539026 L4.14415356,4.3664256 L1.21644528,7.85641572 L1.21716999,8.84622201 L10.1187382,8.84622201 C10.3970137,8.84622201 10.6226006,9.07083231 10.6226006,9.34790315 C10.6226006,9.62497398 10.3970137,9.84958428 10.1187382,9.84958428 L10.1187382,9.84958428 L0.713307632,9.84958428 C0.435032137,9.84958428 0.209445277,9.62497398 0.209445277,9.34790315 L0.209445277,9.34790315 L0.209445277,0.652096854 C0.209445277,0.375026015 0.435032137,0.150415722 0.713307632,0.150415722 Z" transform="translate(5.524 6)"/>
</svg>
