<svg xmlns="http://www.w3.org/2000/svg" width="22" height="22" viewBox="0 0 22 22">
  <path fill="#C5D2DD" fill-rule="evenodd" d="M11.055537,0.309250351 L11.0550005,3.24125035 L12.7289995,3.2412579 L12.7289995,10.403561 L12.6973162,10.4984549 C12.412227,11.3523174 11.4673744,11.6907496 9.93957749,11.6907496 L9.93957749,11.6907496 L9.93989526,11.6863438 L1.38664218,11.6863438 C0.770490284,11.6863438 0.271000479,11.1594095 0.271000479,10.5094031 L0.271000479,0.309250351 L11.055537,0.309250351 Z M9.93989526,1.48619105 L1.38664218,1.48619105 L1.38664218,10.5094031 L9.93989526,10.5094031 L9.93989526,1.48619105 Z M11.6133578,4.4181986 L11.0550005,4.41725035 L11.0565773,10.4185389 C11.3144894,10.3631372 11.4860289,10.2880208 11.5764624,10.2053238 L11.6133578,10.1654965 L11.6133578,4.4181986 Z M8.63831327,8.54783525 C8.84369724,8.54783525 9.01019384,8.77169288 9.01019384,9.04783525 C9.01019384,9.32397763 8.84369724,9.54783525 8.63831327,9.54783525 L8.63831327,9.54783525 L2.68822417,9.54783525 C2.48284021,9.54783525 2.31634361,9.32397763 2.31634361,9.04783525 C2.31634361,8.77169288 2.48284021,8.54783525 2.68822417,8.54783525 L2.68822417,8.54783525 Z M8.63831327,6.58626742 C8.84369724,6.58626742 9.01019384,6.81012504 9.01019384,7.08626742 C9.01019384,7.36240979 8.84369724,7.58626742 8.63831327,7.58626742 L8.63831327,7.58626742 L2.68822417,7.58626742 C2.48284021,7.58626742 2.31634361,7.36240979 2.31634361,7.08626742 C2.31634361,6.81012504 2.48284021,6.58626742 2.68822417,6.58626742 L2.68822417,6.58626742 Z M8.63831327,4.62469958 C8.84369724,4.62469958 9.01019384,4.84855721 9.01019384,5.12469958 C9.01019384,5.40084196 8.84369724,5.62469958 8.63831327,5.62469958 L8.63831327,5.62469958 L6.40702986,5.62469958 C6.20164589,5.62469958 6.03514929,5.40084196 6.03514929,5.12469958 C6.03514929,4.84855721 6.20164589,4.62469958 6.40702986,4.62469958 L6.40702986,4.62469958 Z M4.97732844,2.66313175 C5.25347081,2.66313175 5.47732844,2.88698938 5.47732844,3.16313175 L5.47732844,4.90932672 C5.47732844,5.18546909 5.25347081,5.40932672 4.97732844,5.40932672 L3.00228389,5.40932672 C2.72614151,5.40932672 2.50228389,5.18546909 2.50228389,4.90932672 L2.50228389,3.16313175 C2.50228389,2.88698938 2.72614151,2.66313175 3.00228389,2.66313175 L4.97732844,2.66313175 Z M8.63831327,2.66313175 C8.84369724,2.66313175 9.01019384,2.88698938 9.01019384,3.16313175 C9.01019384,3.43927413 8.84369724,3.66313175 8.63831327,3.66313175 L8.63831327,3.66313175 L6.40702986,3.66313175 C6.20164589,3.66313175 6.03514929,3.43927413 6.03514929,3.16313175 C6.03514929,2.88698938 6.20164589,2.66313175 6.40702986,2.66313175 L6.40702986,2.66313175 Z" transform="translate(4.702 5.25)"/>
</svg>
