<svg xmlns="http://www.w3.org/2000/svg" width="34" height="28" viewBox="0 0 34 28">
  <g fill="none" fill-rule="evenodd">
    <path fill="#21B1CA" d="M28.8286745,13.3857036 C29.0448408,13.755563 29.0372115,14.2885175 28.8106317,14.6461167 C24.8778808,20.8529747 20.9422661,24 16.9999997,24 C13.0517439,24 9.11461698,20.7490333 5.18206374,14.3399579 C4.95796699,13.9747364 4.95824556,13.4370303 5.18272051,13.0722583 C8.82685714,7.15053368 12.7553371,4.10197661 16.951993,4.00230752 C21.1685392,3.90216605 25.1327296,7.06196194 28.8286745,13.3857036 Z M27.1309677,13.6082602 C23.8722841,8.39473729 20.4916932,5.86974487 16.9759457,5.95324262 C15.6795999,5.98403037 14.2466207,6.14105912 12.9936523,6.81408691 C10.7581668,8.01487054 8.74931697,10.436122 6.64601597,13.7088902 C8.40640308,16.4790644 9.81465562,19.2857351 11.5263672,20.6722412 C13.2673243,22.0824365 15.3108893,22.0489304 16.9999997,22.0489304 C18.599332,22.0489304 20.5125474,21.892092 22.1566162,20.6722412 C23.8826273,19.3915917 25.3417582,16.9850527 27.116246,14.3408116 L27.3581201,13.9763575 L27.1309677,13.6082602 Z"/>
    <circle cx="17" cy="14" r="9" stroke="#21B1CA" stroke-width="2"/>
  </g>
</svg>
