<svg xmlns="http://www.w3.org/2000/svg" width="34" height="28" viewBox="0 0 34 28">
  <g fill="none" fill-rule="evenodd">
    <path fill="#21B1CA" d="M32.316746,13.3857036 C32.5966559,13.755563 32.586777,14.2885175 32.2933827,14.6461167 C27.2009315,20.8529747 22.1047722,24 16.9999996,24 C11.8874715,24 6.78935396,20.7490333 1.69715881,14.3399579 C1.4069798,13.9747364 1.40734052,13.4370303 1.69800925,13.0722583 C6.41673872,7.15053368 11.5036594,4.10197661 16.9378366,4.00230752 C22.3977693,3.90216605 27.5309309,7.06196194 32.316746,13.3857036 Z M30.1184148,13.6082602 C25.8988018,8.39473729 21.5213332,5.86974487 16.9688525,5.95324262 C12.2953316,6.03896039 7.84284484,8.60176653 3.59280522,13.7088902 C8.19074125,19.2965686 12.6623417,22.0487994 16.9999996,22.0487994 C21.2451134,22.0487994 25.6129306,19.5037586 30.099352,14.3408116 L30.4125505,13.9763575 L30.1184148,13.6082602 Z"/>
    <circle cx="17" cy="14" r="9" stroke="#21B1CA" stroke-width="2"/>
  </g>
</svg>
