<svg xmlns="http://www.w3.org/2000/svg" width="34" height="28" viewBox="0 0 34 28">
  <g fill="none" fill-rule="evenodd">
    <path fill="#21B1CA" d="M27.9260113,13.3857036 C28.1256816,13.755563 28.1186345,14.2885175 27.9093453,14.6461167 C24.2767083,20.8529747 20.6414261,24 16.9999997,24 C13.3530411,24 9.71636197,20.7490333 6.08390756,14.3399579 C5.87691195,13.9747364 5.87716927,13.4370303 6.08451421,13.0722583 C9.4505615,7.15053368 13.0792534,4.10197661 16.9556565,4.00230752 C20.8504319,3.90216605 24.5121093,7.06196194 27.9260113,13.3857036 Z M26.3578589,13.6082602 C24.8935613,11.0720055 23.5789407,8.8309228 22.0599365,7.5579834 C20.456477,6.21426971 18.6454272,5.91036453 16.9777813,5.95324262 C15.4291176,5.99306146 13.3719587,6.12716742 11.8900146,7.24279785 C10.1817873,8.52877781 9.05952186,10.9742007 7.43614348,13.7088902 C8.71135061,15.8813616 9.31046284,18.075741 10.5581055,19.395874 C12.5194467,21.4711728 15.1088058,22.0487994 16.9999997,22.0487994 C18.721694,22.0487994 20.9014543,21.5533092 22.6791992,19.8945313 C24.0282383,18.63577 24.9634891,16.5683455 26.3442607,14.3408116 L26.567677,13.9763575 L26.3578589,13.6082602 Z"/>
    <circle cx="17" cy="14" r="9" stroke="#21B1CA" stroke-width="2"/>
  </g>
</svg>
