<svg xmlns="http://www.w3.org/2000/svg" width="34" height="28" viewBox="0 0 34 28">
  <path fill="#21B1CA" fill-rule="evenodd" d="M33.522392,13.3857036 C33.8244084,13.755563 33.8137492,14.2885175 33.4971835,14.6461167 C28.0025459,20.8529747 22.5039072,24 16.9959751,24 C11.4796749,24 5.97892337,20.7490333 0.484561963,14.3399579 C0.171465482,13.9747364 0.171854691,13.4370303 0.485479564,13.0722583 C5.5768801,7.15053368 11.0655505,4.10197661 16.9289027,4.00230752 C22.8200444,3.90216605 28.3586076,7.06196194 33.522392,13.3857036 Z M31.1504432,13.6082602 C26.5975779,8.39473729 21.87439,5.86974487 16.9623681,5.95324262 C11.9197465,6.03896039 7.11561578,8.60176653 2.52992083,13.7088902 C7.490988,19.2965686 12.315742,22.0487994 16.9959751,22.0487994 C21.5763552,22.0487994 26.2891295,19.5037586 31.1298749,14.3408116 L31.4678089,13.9763575 L31.1504432,13.6082602 Z"/>
</svg>
