<svg xmlns="http://www.w3.org/2000/svg" width="34" height="28" viewBox="0 0 34 28">
  <g fill="none" fill-rule="evenodd">
    <circle cx="17" cy="14" r="9" stroke="#21B1CA" stroke-width="2"/>
    <path fill="#21B1CA" d="M27.2474649,13.3857036 C27.434735,13.755563 27.4281256,14.2885175 27.231834,14.6461167 C23.8247974,20.8529747 20.4152798,24 16.9999998,24 C13.5795309,24 10.1687032,20.7490333 6.76183788,14.3399579 C6.56769748,13.9747364 6.56793881,13.4370303 6.76240686,13.0722583 C9.91940997,7.15053368 13.3227465,4.10197661 16.9584104,4.00230752 C20.6113057,3.90216605 24.0455791,7.06196194 27.2474649,13.3857036 Z M25.7767007,13.6082602 C24.4033416,11.0720055 23.751168,8.70982905 22.3264996,7.43688965 C20.822621,6.09317596 18.54324,5.91036453 16.9791612,5.95324262 C15.5266753,5.99306146 13.5972737,6.12716742 12.2073639,7.24279785 C10.6052239,8.52877781 9.55265536,10.9742007 8.03009487,13.7088902 C9.22610685,15.8813616 9.78801196,18.075741 10.9581713,19.395874 C12.7977059,21.4711728 15.2262561,22.0487994 16.9999998,22.0487994 C18.6147703,22.0487994 21.1081724,21.9058483 22.7755127,20.2470703 C24.0407714,18.9883091 24.4689265,16.5683455 25.763947,14.3408116 L25.9734883,13.9763575 L25.7767007,13.6082602 Z"/>
  </g>
</svg>
