<svg xmlns="http://www.w3.org/2000/svg" width="34" height="28" viewBox="0 0 34 28">
  <g fill="none" fill-rule="evenodd">
    <path fill="#21B1CA" d="M31.6368327,13.3857036 C31.9058489,13.755563 31.8963544,14.2885175 31.6143787,14.6461167 C26.7201211,20.8529747 21.8222997,24 16.9162003,24 C12.0026472,24 7.10294371,20.7490333 2.20893219,14.3399579 C1.93004668,13.9747364 1.93039336,13.4370303 2.20974953,13.0722583 C6.74483032,7.15053368 11.6337726,4.10197661 16.8564566,4.00230752 C22.1038936,3.90216605 27.0372772,7.06196194 31.6368327,13.3857036 Z M29.5240586,13.6082602 C25.4686691,8.39473729 21.2615676,5.86974487 16.8862654,5.95324262 C12.3946337,6.03896039 8.11543368,8.60176653 4.03080176,13.7088902 C8.44979027,19.2965686 12.7473601,22.0487994 16.9162003,22.0487994 C20.9960981,22.0487994 25.1939238,19.5037586 29.5057377,14.3408116 L29.8067468,13.9763575 L29.5240586,13.6082602 Z"/>
    <circle cx="16.916" cy="14" r="7.947" stroke="#21B1CA" stroke-width="2"/>
  </g>
</svg>
