<svg xmlns="http://www.w3.org/2000/svg" width="34" height="28" viewBox="0 0 34 28">
  <g fill="none" fill-rule="evenodd">
    <path fill="#21B1CA" d="M31.8166903,13.3857036 C32.0874619,13.755563 32.0779054,14.2885175 31.7940897,14.6461167 C26.8678951,20.8529747 21.9381134,24 16.9999997,24 C12.0543835,24 7.1227075,20.7490333 2.19676053,14.3399579 C1.91605518,13.9747364 1.91640412,13.4370303 2.1975832,13.0722583 C6.76225727,7.15053368 11.683102,4.10197661 16.9398661,4.00230752 C22.2215448,3.90216605 27.1871208,7.06196194 31.8166903,13.3857036 Z M29.6901294,13.6082602 C25.6082769,8.39473729 21.3737223,5.86974487 16.9698694,5.95324262 C12.4489279,6.03896039 8.14180438,8.60176653 4.03051855,13.7088902 C8.4783428,19.2965686 12.803956,22.0487994 16.9999997,22.0487994 C21.1065205,22.0487994 25.3317387,19.5037586 29.671689,14.3408116 L29.9746623,13.9763575 L29.6901294,13.6082602 Z"/>
    <circle cx="17" cy="14" r="9" stroke="#21B1CA" stroke-width="2"/>
  </g>
</svg>
