<svg xmlns="http://www.w3.org/2000/svg" width="34" height="28" viewBox="0 0 34 28">
  <g fill="none" fill-rule="evenodd">
    <path fill="#21B1CA" d="M33.272392,13.3857036 C33.5744084,13.755563 33.5637492,14.2885175 33.2471835,14.6461167 C27.7525459,20.8529747 22.2539072,24 16.7459751,24 C11.2296749,24 5.72892337,20.7490333 0.234561963,14.3399579 C-0.0785345182,13.9747364 -0.0781453094,13.4370303 0.235479564,13.0722583 C5.3268801,7.15053368 10.8155505,4.10197661 16.6789027,4.00230752 C22.5700444,3.90216605 28.1086076,7.06196194 33.272392,13.3857036 Z M30.9004432,13.6082602 C26.3475779,8.39473729 21.62439,5.86974487 16.7123681,5.95324262 C11.6697465,6.03896039 6.86561578,8.60176653 2.27992083,13.7088902 C7.240988,19.2965686 12.065742,22.0487994 16.7459751,22.0487994 C21.3263552,22.0487994 26.0391295,19.5037586 30.8798749,14.3408116 L31.2178089,13.9763575 L30.9004432,13.6082602 Z"/>
    <circle cx="16.746" cy="14" r="5.315" stroke="#21B1CA" stroke-width="2"/>
  </g>
</svg>
