<svg xmlns="http://www.w3.org/2000/svg" width="34" height="28" viewBox="0 0 34 28">
  <g fill="none" fill-rule="evenodd">
    <path fill="#21B1CA" d="M33.5264165,13.3857036 C33.8284329,13.755563 33.8177737,14.2885175 33.501208,14.6461167 C28.0065704,20.8529747 22.5079317,24 16.9999996,24 C11.4836994,24 5.98294785,20.7490333 0.488586449,14.3399579 C0.175489968,13.9747364 0.175879177,13.4370303 0.489504051,13.0722583 C5.58090458,7.15053368 11.0695749,4.10197661 16.9329271,4.00230752 C22.8240689,3.90216605 28.3626321,7.06196194 33.5264165,13.3857036 Z M31.1544677,13.6082602 C26.6016024,8.39473729 21.8784145,5.86974487 16.9663926,5.95324262 C11.923771,6.03896039 7.11964027,8.60176653 2.53394531,13.7088902 C7.49501249,19.2965686 12.3197665,22.0487994 16.9999996,22.0487994 C21.5803797,22.0487994 26.2931539,19.5037586 31.1338994,14.3408116 L31.4718334,13.9763575 L31.1544677,13.6082602 Z"/>
    <circle cx="17" cy="14" r="6.731" stroke="#21B1CA" stroke-width="2"/>
  </g>
</svg>
