<svg xmlns="http://www.w3.org/2000/svg" width="34" height="28" viewBox="0 0 34 28">
  <g fill="none" fill-rule="evenodd">
    <path fill="#21B1CA" d="M32.6868995,13.3857036 C32.9745242,13.755563 32.964373,14.2885175 32.6628922,14.6461167 C27.4300845,20.8529747 22.1934664,24 16.9479977,24 C11.6945596,24 6.45592931,20.7490333 1.22338464,14.3399579 C0.9252078,13.9747364 0.925578463,13.4370303 1.22425852,13.0722583 C6.07304417,7.15053368 11.300169,4.10197661 16.8841213,4.00230752 C22.494539,3.90216605 27.7691792,7.06196194 32.6868995,13.3857036 Z M30.4279786,13.6082602 C26.0920659,8.39473729 21.5939468,5.86974487 16.9159921,5.95324262 C12.113661,6.03896039 7.53845618,8.60176653 3.17127828,13.7088902 C7.8959412,19.2965686 12.4907865,22.0487994 16.9479977,22.0487994 C21.310114,22.0487994 25.7983156,19.5037586 30.4083903,14.3408116 L30.7302211,13.9763575 L30.4279786,13.6082602 Z"/>
    <circle cx="16.948" cy="14" r="6.895" stroke="#21B1CA" stroke-width="2"/>
  </g>
</svg>
