<svg xmlns="http://www.w3.org/2000/svg" width="34" height="28" viewBox="0 0 34 28">
  <g fill="none" fill-rule="evenodd">
    <path fill="#21B1CA" d="M29.8290045,13.3857036 C30.0634516,13.755563 30.0551771,14.2885175 29.8094358,14.6461167 C25.5440991,20.8529747 21.2756565,24 16.9999997,24 C12.7178469,24 8.44776417,20.7490333 4.1826419,14.3399579 C3.93959367,13.9747364 3.93989581,13.4370303 4.18335421,13.0722583 C8.13566899,7.15053368 12.3963735,4.10197661 16.9479332,4.00230752 C21.5210651,3.90216605 25.8205001,7.06196194 29.8290045,13.3857036 Z M27.9877256,13.6082602 C24.453461,8.39473729 20.7869795,5.86974487 16.9739115,5.95324262 C13.0594625,6.03896039 9.33014736,8.60176653 5.77039796,13.7088902 C9.62153853,19.2965686 13.3668629,22.0487994 16.9999997,22.0487994 C20.5556233,22.0487994 24.2140209,19.5037586 27.971759,14.3408116 L28.2340879,13.9763575 L27.9877256,13.6082602 Z"/>
    <circle cx="17" cy="14" r="9" stroke="#21B1CA" stroke-width="2"/>
  </g>
</svg>
