<svg xmlns="http://www.w3.org/2000/svg" width="34" height="28" viewBox="0 0 34 28">
  <g fill="none" fill-rule="evenodd">
    <path fill="#21B1CA" d="M28.465587,13.3857036 C28.675118,13.755563 28.6677229,14.2885175 28.4480981,14.6461167 C24.636065,20.8529747 20.8212561,24 16.9999997,24 C13.1729378,24 9.35666303,20.7490333 5.54482161,14.3399579 C5.32760362,13.9747364 5.32787364,13.4370303 5.54545822,13.0722583 C9.07773613,7.15053368 12.8856293,4.10197661 16.9534666,4.00230752 C21.0405837,3.90216605 24.8830911,7.06196194 28.465587,13.3857036 Z M26.8199922,13.6082602 C25.1596201,10.8677318 23.7171634,8.64553645 21.989624,7.37915039 C20.4307292,6.23639056 18.5931619,5.9136361 16.9766841,5.95324262 C15.5664435,5.98779596 13.8106269,6.00880007 12.4532471,6.8527832 C10.4433243,8.10250045 8.86281531,10.6604786 6.96383705,13.7088902 C8.49495841,16.1945879 9.64914386,18.5568279 11.142334,19.9276123 C13.0057331,21.6382575 15.1974271,22.0487994 16.9999997,22.0487994 C18.545867,22.0487994 20.4006368,21.847965 21.989624,20.6350098 C23.6670216,19.3545665 25.0810823,16.9921571 26.8057225,14.3408116 L27.0401721,13.9763575 L26.8199922,13.6082602 Z"/>
    <circle cx="17" cy="14" r="9" stroke="#21B1CA" stroke-width="2"/>
  </g>
</svg>
