<svg xmlns="http://www.w3.org/2000/svg" width="2284" height="28" viewBox="0 0 2284 28">
  <g fill="none" fill-rule="evenodd">
    <path fill="#21B1CA" d="M33.5264165,13.3857036 C33.8284329,13.755563 33.8177737,14.2885175 33.501208,14.6461167 C28.0065704,20.8529747 22.5079317,24 16.9999996,24 C11.4836994,24 5.98294785,20.7490333 0.488586449,14.3399579 C0.175489968,13.9747364 0.175879177,13.4370303 0.489504051,13.0722583 C5.58090458,7.15053368 11.0695749,4.10197661 16.9329271,4.00230752 C22.8240689,3.90216605 28.3626321,7.06196194 33.5264165,13.3857036 Z M31.1544677,13.6082602 C26.6016024,8.39473729 21.8784145,5.86974487 16.9663926,5.95324262 C11.923771,6.03896039 7.11964027,8.60176653 2.53394531,13.7088902 C7.49501249,19.2965686 12.3197665,22.0487994 16.9999996,22.0487994 C21.5803797,22.0487994 26.2931539,19.5037586 31.1338994,14.3408116 L31.4718334,13.9763575 L31.1544677,13.6082602 Z"/>
    <circle cx="17" cy="14" r="5.315" stroke="#21B1CA" stroke-width="2"/>
    <path fill="#21B1CA" d="M83.5264165,13.3857036 C83.8284329,13.755563 83.8177737,14.2885175 83.501208,14.6461167 C78.0065704,20.8529747 72.5079317,24 66.9999996,24 C61.4836994,24 55.9829479,20.7490333 50.4885864,14.3399579 C50.17549,13.9747364 50.1758792,13.4370303 50.4895041,13.0722583 C55.5809046,7.15053368 61.0695749,4.10197661 66.9329271,4.00230752 C72.8240689,3.90216605 78.3626321,7.06196194 83.5264165,13.3857036 Z M81.1544677,13.6082602 C76.6016024,8.39473729 71.8784145,5.86974487 66.9663926,5.95324262 C61.923771,6.03896039 57.1196403,8.60176653 52.5339453,13.7088902 C57.4950125,19.2965686 62.3197665,22.0487994 66.9999996,22.0487994 C71.5803797,22.0487994 76.2931539,19.5037586 81.1338994,14.3408116 L81.4718334,13.9763575 L81.1544677,13.6082602 Z"/>
    <circle cx="67" cy="14" r="5.6" stroke="#21B1CA" stroke-width="2"/>
    <path fill="#21B1CA" d="M133.526417,13.3857036 C133.828433,13.755563 133.817774,14.2885175 133.501208,14.6461167 C128.00657,20.8529747 122.507932,24 117,24 C111.483699,24 105.982948,20.7490333 100.488586,14.3399579 C100.17549,13.9747364 100.175879,13.4370303 100.489504,13.0722583 C105.580905,7.15053368 111.069575,4.10197661 116.932927,4.00230752 C122.824069,3.90216605 128.362632,7.06196194 133.526417,13.3857036 Z M131.154468,13.6082602 C126.601602,8.39473729 121.878414,5.86974487 116.966393,5.95324262 C111.923771,6.03896039 107.11964,8.60176653 102.533945,13.7088902 C107.495012,19.2965686 112.319766,22.0487994 117,22.0487994 C121.58038,22.0487994 126.293154,19.5037586 131.133899,14.3408116 L131.471833,13.9763575 L131.154468,13.6082602 Z"/>
    <circle cx="117" cy="14" r="6.008" stroke="#21B1CA" stroke-width="2"/>
    <path fill="#21B1CA" d="M183.526417,13.3857036 C183.828433,13.755563 183.817774,14.2885175 183.501208,14.6461167 C178.00657,20.8529747 172.507932,24 167,24 C161.483699,24 155.982948,20.7490333 150.488586,14.3399579 C150.17549,13.9747364 150.175879,13.4370303 150.489504,13.0722583 C155.580905,7.15053368 161.069575,4.10197661 166.932927,4.00230752 C172.824069,3.90216605 178.362632,7.06196194 183.526417,13.3857036 Z M181.154468,13.6082602 C176.601602,8.39473729 171.878414,5.86974487 166.966393,5.95324262 C161.923771,6.03896039 157.11964,8.60176653 152.533945,13.7088902 C157.495012,19.2965686 162.319766,22.0487994 167,22.0487994 C171.58038,22.0487994 176.293154,19.5037586 181.133899,14.3408116 L181.471833,13.9763575 L181.154468,13.6082602 Z"/>
    <circle cx="167" cy="14" r="6.196" stroke="#21B1CA" stroke-width="2"/>
    <path fill="#21B1CA" d="M233.526417,13.3857036 C233.828433,13.755563 233.817774,14.2885175 233.501208,14.6461167 C228.00657,20.8529747 222.507932,24 217,24 C211.483699,24 205.982948,20.7490333 200.488586,14.3399579 C200.17549,13.9747364 200.175879,13.4370303 200.489504,13.0722583 C205.580905,7.15053368 211.069575,4.10197661 216.932927,4.00230752 C222.824069,3.90216605 228.362632,7.06196194 233.526417,13.3857036 Z M231.154468,13.6082602 C226.601602,8.39473729 221.878414,5.86974487 216.966393,5.95324262 C211.923771,6.03896039 207.11964,8.60176653 202.533945,13.7088902 C207.495012,19.2965686 212.319766,22.0487994 217,22.0487994 C221.58038,22.0487994 226.293154,19.5037586 231.133899,14.3408116 L231.471833,13.9763575 L231.154468,13.6082602 Z"/>
    <circle cx="217" cy="14" r="6.449" stroke="#21B1CA" stroke-width="2"/>
    <path fill="#21B1CA" d="M283.526417,13.3857036 C283.828433,13.755563 283.817774,14.2885175 283.501208,14.6461167 C278.00657,20.8529747 272.507932,24 267,24 C261.483699,24 255.982948,20.7490333 250.488586,14.3399579 C250.17549,13.9747364 250.175879,13.4370303 250.489504,13.0722583 C255.580905,7.15053368 261.069575,4.10197661 266.932927,4.00230752 C272.824069,3.90216605 278.362632,7.06196194 283.526417,13.3857036 Z M281.154468,13.6082602 C276.601602,8.39473729 271.878414,5.86974487 266.966393,5.95324262 C261.923771,6.03896039 257.11964,8.60176653 252.533945,13.7088902 C257.495012,19.2965686 262.319766,22.0487994 267,22.0487994 C271.58038,22.0487994 276.293154,19.5037586 281.133899,14.3408116 L281.471833,13.9763575 L281.154468,13.6082602 Z"/>
    <circle cx="267" cy="14" r="6.731" stroke="#21B1CA" stroke-width="2"/>
    <path fill="#21B1CA" d="M333.526417,13.3857036 C333.828433,13.755563 333.817774,14.2885175 333.501208,14.6461167 C328.00657,20.8529747 322.507932,24 317,24 C311.483699,24 305.982948,20.7490333 300.488586,14.3399579 C300.17549,13.9747364 300.175879,13.4370303 300.489504,13.0722583 C305.580905,7.15053368 311.069575,4.10197661 316.932927,4.00230752 C322.824069,3.90216605 328.362632,7.06196194 333.526417,13.3857036 Z M331.154468,13.6082602 C326.601602,8.39473729 321.878414,5.86974487 316.966393,5.95324262 C311.923771,6.03896039 307.11964,8.60176653 302.533945,13.7088902 C307.495012,19.2965686 312.319766,22.0487994 317,22.0487994 C321.58038,22.0487994 326.293154,19.5037586 331.133899,14.3408116 L331.471833,13.9763575 L331.154468,13.6082602 Z"/>
    <circle cx="317" cy="14" r="7.242" stroke="#21B1CA" stroke-width="2"/>
    <path fill="#21B1CA" d="M383.526417,13.3857036 C383.828433,13.755563 383.817774,14.2885175 383.501208,14.6461167 C378.00657,20.8529747 372.507932,24 367,24 C361.483699,24 355.982948,20.7490333 350.488586,14.3399579 C350.17549,13.9747364 350.175879,13.4370303 350.489504,13.0722583 C355.580905,7.15053368 361.069575,4.10197661 366.932927,4.00230752 C372.824069,3.90216605 378.362632,7.06196194 383.526417,13.3857036 Z M381.154468,13.6082602 C376.601602,8.39473729 371.878414,5.86974487 366.966393,5.95324262 C361.923771,6.03896039 357.11964,8.60176653 352.533945,13.7088902 C357.495012,19.2965686 362.319766,22.0487994 367,22.0487994 C371.58038,22.0487994 376.293154,19.5037586 381.133899,14.3408116 L381.471833,13.9763575 L381.154468,13.6082602 Z"/>
    <circle cx="367" cy="14" r="7.46" stroke="#21B1CA" stroke-width="2"/>
    <path fill="#21B1CA" d="M433.526417,13.3857036 C433.828433,13.755563 433.817774,14.2885175 433.501208,14.6461167 C428.00657,20.8529747 422.507932,24 417,24 C411.483699,24 405.982948,20.7490333 400.488586,14.3399579 C400.17549,13.9747364 400.175879,13.4370303 400.489504,13.0722583 C405.580905,7.15053368 411.069575,4.10197661 416.932927,4.00230752 C422.824069,3.90216605 428.362632,7.06196194 433.526417,13.3857036 Z M431.154468,13.6082602 C426.601602,8.39473729 421.878414,5.86974487 416.966393,5.95324262 C411.923771,6.03896039 407.11964,8.60176653 402.533945,13.7088902 C407.495012,19.2965686 412.319766,22.0487994 417,22.0487994 C421.58038,22.0487994 426.293154,19.5037586 431.133899,14.3408116 L431.471833,13.9763575 L431.154468,13.6082602 Z"/>
    <circle cx="417" cy="14" r="7.821" stroke="#21B1CA" stroke-width="2"/>
    <path fill="#21B1CA" d="M483.526417,13.3857036 C483.828433,13.755563 483.817774,14.2885175 483.501208,14.6461167 C478.00657,20.8529747 472.507932,24 467,24 C461.483699,24 455.982948,20.7490333 450.488586,14.3399579 C450.17549,13.9747364 450.175879,13.4370303 450.489504,13.0722583 C455.580905,7.15053368 461.069575,4.10197661 466.932927,4.00230752 C472.824069,3.90216605 478.362632,7.06196194 483.526417,13.3857036 Z M481.154468,13.6082602 C476.601602,8.39473729 471.878414,5.86974487 466.966393,5.95324262 C461.923771,6.03896039 457.11964,8.60176653 452.533945,13.7088902 C457.495012,19.2965686 462.319766,22.0487994 467,22.0487994 C471.58038,22.0487994 476.293154,19.5037586 481.133899,14.3408116 L481.471833,13.9763575 L481.154468,13.6082602 Z"/>
    <circle cx="467" cy="14" r="8.122" stroke="#21B1CA" stroke-width="2"/>
    <path fill="#21B1CA" d="M533.526417,13.3857036 C533.828433,13.755563 533.817774,14.2885175 533.501208,14.6461167 C528.00657,20.8529747 522.507932,24 517,24 C511.483699,24 505.982948,20.7490333 500.488586,14.3399579 C500.17549,13.9747364 500.175879,13.4370303 500.489504,13.0722583 C505.580905,7.15053368 511.069575,4.10197661 516.932927,4.00230752 C522.824069,3.90216605 528.362632,7.06196194 533.526417,13.3857036 Z M531.154468,13.6082602 C526.601602,8.39473729 521.878414,5.86974487 516.966393,5.95324262 C511.923771,6.03896039 507.11964,8.60176653 502.533945,13.7088902 C507.495012,19.2965686 512.319766,22.0487994 517,22.0487994 C521.58038,22.0487994 526.293154,19.5037586 531.133899,14.3408116 L531.471833,13.9763575 L531.154468,13.6082602 Z"/>
    <circle cx="517" cy="14" r="8.288" stroke="#21B1CA" stroke-width="2"/>
    <path fill="#21B1CA" d="M583.526417,13.3857036 C583.828433,13.755563 583.817774,14.2885175 583.501208,14.6461167 C578.00657,20.8529747 572.507932,24 567,24 C561.483699,24 555.982948,20.7490333 550.488586,14.3399579 C550.17549,13.9747364 550.175879,13.4370303 550.489504,13.0722583 C555.580905,7.15053368 561.069575,4.10197661 566.932927,4.00230752 C572.824069,3.90216605 578.362632,7.06196194 583.526417,13.3857036 Z M581.154468,13.6082602 C576.601602,8.39473729 571.878414,5.86974487 566.966393,5.95324262 C561.923771,6.03896039 557.11964,8.60176653 552.533945,13.7088902 C557.495012,19.2965686 562.319766,22.0487994 567,22.0487994 C571.58038,22.0487994 576.293154,19.5037586 581.133899,14.3408116 L581.471833,13.9763575 L581.154468,13.6082602 Z"/>
    <circle cx="567" cy="14" r="8.644" stroke="#21B1CA" stroke-width="2"/>
    <path fill="#21B1CA" d="M633.526417,13.3857036 C633.828433,13.755563 633.817774,14.2885175 633.501208,14.6461167 C628.00657,20.8529747 622.507932,24 617,24 C611.483699,24 605.982948,20.7490333 600.488586,14.3399579 C600.17549,13.9747364 600.175879,13.4370303 600.489504,13.0722583 C605.580905,7.15053368 611.069575,4.10197661 616.932927,4.00230752 C622.824069,3.90216605 628.362632,7.06196194 633.526417,13.3857036 Z M631.154468,13.6082602 C626.601602,8.39473729 621.878414,5.86974487 616.966393,5.95324262 C611.923771,6.03896039 607.11964,8.60176653 602.533945,13.7088902 C607.495012,19.2965686 612.319766,22.0487994 617,22.0487994 C621.58038,22.0487994 626.293154,19.5037586 631.133899,14.3408116 L631.471833,13.9763575 L631.154468,13.6082602 Z"/>
    <circle cx="617" cy="14" r="9" stroke="#21B1CA" stroke-width="2"/>
    <path fill="#21B1CA" d="M683.096639,13.3857036 C683.390801,13.755563 683.380419,14.2885175 683.072086,14.6461167 C677.720339,20.8529747 672.364695,24 667,24 C661.627154,24 656.269452,20.7490333 650.917974,14.3399579 C650.61302,13.9747364 650.613399,13.4370303 650.918868,13.0722583 C655.877864,7.15053368 661.223799,4.10197661 666.934671,4.00230752 C672.672611,3.90216605 678.067141,7.06196194 683.096639,13.3857036 Z M680.786373,13.6082602 C676.351908,8.39473729 671.751549,5.86974487 666.967267,5.95324262 C662.055781,6.03896039 657.376584,8.60176653 652.910143,13.7088902 C657.742195,19.2965686 662.441478,22.0487994 667,22.0487994 C671.461265,22.0487994 676.051481,19.5037586 680.76634,14.3408116 L681.095486,13.9763575 L680.786373,13.6082602 Z"/>
    <circle cx="667" cy="14" r="9" stroke="#21B1CA" stroke-width="2"/>
    <path fill="#21B1CA" d="M732.316746,13.3857036 C732.596656,13.755563 732.586777,14.2885175 732.293383,14.6461167 C727.200932,20.8529747 722.104772,24 717,24 C711.887472,24 706.789354,20.7490333 701.697159,14.3399579 C701.40698,13.9747364 701.407341,13.4370303 701.698009,13.0722583 C706.416739,7.15053368 711.503659,4.10197661 716.937837,4.00230752 C722.397769,3.90216605 727.530931,7.06196194 732.316746,13.3857036 Z M730.118415,13.6082602 C725.898802,8.39473729 721.521333,5.86974487 716.968853,5.95324262 C712.295332,6.03896039 707.842845,8.60176653 703.592805,13.7088902 C708.190741,19.2965686 712.662342,22.0487994 717,22.0487994 C721.245113,22.0487994 725.612931,19.5037586 730.099352,14.3408116 L730.41255,13.9763575 L730.118415,13.6082602 Z"/>
    <circle cx="717" cy="14" r="9" stroke="#21B1CA" stroke-width="2"/>
    <path fill="#21B1CA" d="M781.81669,13.3857036 C782.087462,13.755563 782.077905,14.2885175 781.79409,14.6461167 C776.867895,20.8529747 771.938113,24 767,24 C762.054384,24 757.122708,20.7490333 752.196761,14.3399579 C751.916055,13.9747364 751.916404,13.4370303 752.197583,13.0722583 C756.762257,7.15053368 761.683102,4.10197661 766.939866,4.00230752 C772.221545,3.90216605 777.187121,7.06196194 781.81669,13.3857036 Z M779.690129,13.6082602 C775.608277,8.39473729 771.373722,5.86974487 766.969869,5.95324262 C762.448928,6.03896039 758.141804,8.60176653 754.030519,13.7088902 C758.478343,19.2965686 762.803956,22.0487994 767,22.0487994 C771.10652,22.0487994 775.331739,19.5037586 779.671689,14.3408116 L779.974662,13.9763575 L779.690129,13.6082602 Z"/>
    <circle cx="767" cy="14" r="9" stroke="#21B1CA" stroke-width="2"/>
    <path fill="#21B1CA" d="M831.362346,13.3857036 C831.624814,13.755563 831.615551,14.2885175 831.340438,14.6461167 C826.565302,20.8529747 821.786689,24 817,24 C812.206038,24 807.425589,20.7490333 802.650693,14.3399579 C802.378595,13.9747364 802.378933,13.4370303 802.65149,13.0722583 C807.076191,7.15053368 811.846141,4.10197661 816.94171,4.00230752 C822.061429,3.90216605 826.874739,7.06196194 831.362346,13.3857036 Z M829.300994,13.6082602 C825.344309,8.39473729 821.239605,5.86974487 816.970793,5.95324262 C812.588484,6.03896039 808.413435,8.60176653 804.42822,13.7088902 C808.739654,19.2965686 812.932625,22.0487994 817,22.0487994 C820.980597,22.0487994 825.076251,19.5037586 829.283119,14.3408116 L829.576802,13.9763575 L829.300994,13.6082602 Z"/>
    <circle cx="817" cy="14" r="9" stroke="#21B1CA" stroke-width="2"/>
    <path fill="#21B1CA" d="M880.809905,13.3857036 C881.062278,13.755563 881.05337,14.2885175 880.78884,14.6461167 C876.197377,20.8529747 871.602571,24 867,24 C862.390435,24 857.793864,20.7490333 853.202632,14.3399579 C852.941001,13.9747364 852.941326,13.4370303 853.203399,13.0722583 C857.457906,7.15053368 862.044382,4.10197661 866.943952,4.00230752 C871.866744,3.90216605 876.494912,7.06196194 880.809905,13.3857036 Z M878.827842,13.6082602 C875.023349,8.39473729 871.07653,5.86974487 866.971917,5.95324262 C862.758171,6.03896039 858.743714,8.60176653 854.911787,13.7088902 C859.057384,19.2965686 863.089075,22.0487994 867,22.0487994 C870.827485,22.0487994 874.765602,19.5037586 878.810655,14.3408116 L879.093041,13.9763575 L878.827842,13.6082602 Z"/>
    <circle cx="867" cy="14" r="9" stroke="#21B1CA" stroke-width="2"/>
    <path fill="#21B1CA" d="M930.293949,13.3857036 C930.536893,13.755563 930.528319,14.2885175 930.273672,14.6461167 C925.853752,20.8529747 921.430614,24 917,24 C912.562654,24 908.137817,20.7490333 903.718119,14.3399579 C903.466262,13.9747364 903.466575,13.4370303 903.718857,13.0722583 C907.814411,7.15053368 912.22953,4.10197661 916.946046,4.00230752 C921.684916,3.90216605 926.14017,7.06196194 930.293949,13.3857036 Z M928.385939,13.6082602 C924.723587,8.39473729 920.924226,5.86974487 916.972966,5.95324262 C912.916651,6.03896039 909.052179,8.60176653 905.363418,13.7088902 C909.354131,19.2965686 913.235192,22.0487994 917,22.0487994 C920.684485,22.0487994 924.475469,19.5037586 928.369394,14.3408116 L928.64123,13.9763575 L928.385939,13.6082602 Z"/>
    <circle cx="917" cy="14" r="9" stroke="#21B1CA" stroke-width="2"/>
    <path fill="#21B1CA" d="M979.829004,13.3857036 C980.063452,13.755563 980.055177,14.2885175 979.809436,14.6461167 C975.544099,20.8529747 971.275657,24 967,24 C962.717847,24 958.447764,20.7490333 954.182642,14.3399579 C953.939594,13.9747364 953.939896,13.4370303 954.183354,13.0722583 C958.135669,7.15053368 962.396373,4.10197661 966.947933,4.00230752 C971.521065,3.90216605 975.8205,7.06196194 979.829004,13.3857036 Z M977.987726,13.6082602 C974.453461,8.39473729 970.78698,5.86974487 966.973911,5.95324262 C963.059462,6.03896039 959.330147,8.60176653 955.770398,13.7088902 C959.621539,19.2965686 963.366863,22.0487994 967,22.0487994 C970.555623,22.0487994 974.214021,19.5037586 977.971759,14.3408116 L978.234088,13.9763575 L977.987726,13.6082602 Z"/>
    <circle cx="967" cy="14" r="9" stroke="#21B1CA" stroke-width="2"/>
    <path fill="#21B1CA" d="M1029.33463,13.3857036 C1029.56004,13.755563 1029.55209,14.2885175 1029.31582,14.6461167 C1025.21485,20.8529747 1021.11089,24 1017,24 C1012.88286,24 1008.77733,20.7490333 1004.67657,14.3399579 C1004.44288,13.9747364 1004.44318,13.4370303 1004.67725,13.0722583 C1008.47726,7.15053368 1012.57378,4.10197661 1016.94994,4.00230752 C1021.34684,3.90216605 1025.4806,7.06196194 1029.33463,13.3857036 Z M1027.56431,13.6082602 C1024.16624,8.39473729 1020.64105,5.86974487 1016.97492,5.95324262 C1013.21131,6.03896039 1009.62571,8.60176653 1006.20314,13.7088902 C1008.5172,17.2009722 1010.67218,20.0271083 1012.90527,21.324585 C1014.24535,22.1031999 1015.68994,22.0487994 1017,22.0487901 C1018.59227,22.0487901 1020.37057,21.7021621 1022.00537,20.5905762 C1023.8805,19.3155794 1025.6188,17.0990403 1027.54896,14.3408116 L1027.80118,13.9763575 L1027.56431,13.6082602 Z"/>
    <circle cx="1017" cy="14" r="9" stroke="#21B1CA" stroke-width="2"/>
    <path fill="#21B1CA" d="M1078.82867,13.3857036 C1079.04484,13.755563 1079.03721,14.2885175 1078.81063,14.6461167 C1074.87788,20.8529747 1070.94227,24 1067,24 C1063.05174,24 1059.11462,20.7490333 1055.18206,14.3399579 C1054.95797,13.9747364 1054.95825,13.4370303 1055.18272,13.0722583 C1058.82686,7.15053368 1062.75534,4.10197661 1066.95199,4.00230752 C1071.16854,3.90216605 1075.13273,7.06196194 1078.82867,13.3857036 Z M1077.13097,13.6082602 C1073.87228,8.39473729 1070.49169,5.86974487 1066.97595,5.95324262 C1065.6796,5.98403037 1064.24662,6.14105912 1062.99365,6.81408691 C1060.75817,8.01487054 1058.74932,10.436122 1056.64602,13.7088902 C1058.4064,16.4790644 1059.81466,19.2857351 1061.52637,20.6722412 C1063.26732,22.0824365 1065.31089,22.0489304 1067,22.0489304 C1068.59933,22.0489304 1070.51255,21.892092 1072.15662,20.6722412 C1073.88263,19.3915917 1075.34176,16.9850527 1077.11625,14.3408116 L1077.35812,13.9763575 L1077.13097,13.6082602 Z"/>
    <circle cx="1067" cy="14" r="9" stroke="#21B1CA" stroke-width="2"/>
    <path fill="#21B1CA" d="M1128.46559,13.3857036 C1128.67512,13.755563 1128.66772,14.2885175 1128.4481,14.6461167 C1124.63607,20.8529747 1120.82126,24 1117,24 C1113.17294,24 1109.35666,20.7490333 1105.54482,14.3399579 C1105.3276,13.9747364 1105.32787,13.4370303 1105.54546,13.0722583 C1109.07774,7.15053368 1112.88563,4.10197661 1116.95347,4.00230752 C1121.04058,3.90216605 1124.88309,7.06196194 1128.46559,13.3857036 Z M1126.81999,13.6082602 C1125.15962,10.8677318 1123.71716,8.64553645 1121.98962,7.37915039 C1120.43073,6.23639056 1118.59316,5.9136361 1116.97668,5.95324262 C1115.56644,5.98779596 1113.81063,6.00880007 1112.45325,6.8527832 C1110.44332,8.10250045 1108.86282,10.6604786 1106.96384,13.7088902 C1108.49496,16.1945879 1109.64914,18.5568279 1111.14233,19.9276123 C1113.00573,21.6382575 1115.19743,22.0487994 1117,22.0487994 C1118.54587,22.0487994 1120.40064,21.847965 1121.98962,20.6350098 C1123.66702,19.3545665 1125.08108,16.9921571 1126.80572,14.3408116 L1127.04017,13.9763575 L1126.81999,13.6082602 Z"/>
    <circle cx="1117" cy="14" r="9" stroke="#21B1CA" stroke-width="2"/>
    <path fill="#21B1CA" d="M1177.92601,13.3857036 C1178.12568,13.755563 1178.11863,14.2885175 1177.90935,14.6461167 C1174.27671,20.8529747 1170.64143,24 1167,24 C1163.35304,24 1159.71636,20.7490333 1156.08391,14.3399579 C1155.87691,13.9747364 1155.87717,13.4370303 1156.08451,13.0722583 C1159.45056,7.15053368 1163.07925,4.10197661 1166.95566,4.00230752 C1170.85043,3.90216605 1174.51211,7.06196194 1177.92601,13.3857036 Z M1176.35786,13.6082602 C1174.89356,11.0720055 1173.57894,8.8309228 1172.05994,7.5579834 C1170.45648,6.21426971 1168.64543,5.91036453 1166.97778,5.95324262 C1165.42912,5.99306146 1163.37196,6.12716742 1161.89001,7.24279785 C1160.18179,8.52877781 1159.05952,10.9742007 1157.43614,13.7088902 C1158.71135,15.8813616 1159.31046,18.075741 1160.55811,19.395874 C1162.51945,21.4711728 1165.10881,22.0487994 1167,22.0487994 C1168.72169,22.0487994 1170.90145,21.5533092 1172.6792,19.8945313 C1174.02824,18.63577 1174.96349,16.5683455 1176.34426,14.3408116 L1176.56768,13.9763575 L1176.35786,13.6082602 Z"/>
    <circle cx="1167" cy="14" r="9" stroke="#21B1CA" stroke-width="2"/>
    <path fill="#21B1CA" d="M1227.62604,13.3857036 C1227.82023,13.755563 1227.81338,14.2885175 1227.60983,14.6461167 C1224.07693,20.8529747 1220.54145,24 1217,24 C1213.45317,24 1209.91633,20.7490333 1206.38361,14.3399579 C1206.18229,13.9747364 1206.18254,13.4370303 1206.3842,13.0722583 C1209.65783,7.15053368 1213.1869,4.10197661 1216.95687,4.00230752 C1220.74472,3.90216605 1224.30587,7.06196194 1227.62604,13.3857036 Z M1226.10094,13.6082602 C1224.67685,11.0720055 1223.39832,8.8309228 1221.92102,7.5579834 C1220.36158,6.21426971 1218.60025,5.91036453 1216.97839,5.95324262 C1215.47225,5.99306146 1213.47157,6.12716742 1212.03031,7.24279785 C1210.36898,8.52877781 1209.27752,10.9742007 1207.69872,13.7088902 C1208.93891,15.8813616 1209.52158,18.075741 1210.73497,19.395874 C1212.64246,21.4711728 1215.16073,22.0487994 1217,22.0487994 C1218.67443,22.0487994 1220.79434,21.5533092 1222.52328,19.8945313 C1223.83528,18.63577 1224.74485,16.5683455 1226.08772,14.3408116 L1226.305,13.9763575 L1226.10094,13.6082602 Z"/>
    <circle cx="1217" cy="14" r="9" stroke="#21B1CA" stroke-width="2"/>
    <circle cx="1267" cy="14" r="9" stroke="#21B1CA" stroke-width="2"/>
    <path fill="#21B1CA" d="M1277.24746,13.3857036 C1277.43473,13.755563 1277.42813,14.2885175 1277.23183,14.6461167 C1273.8248,20.8529747 1270.41528,24 1267,24 C1263.57953,24 1260.1687,20.7490333 1256.76184,14.3399579 C1256.5677,13.9747364 1256.56794,13.4370303 1256.76241,13.0722583 C1259.91941,7.15053368 1263.32275,4.10197661 1266.95841,4.00230752 C1270.61131,3.90216605 1274.04558,7.06196194 1277.24746,13.3857036 Z M1275.7767,13.6082602 C1274.40334,11.0720055 1273.75117,8.70982905 1272.3265,7.43688965 C1270.82262,6.09317596 1268.54324,5.91036453 1266.97916,5.95324262 C1265.52668,5.99306146 1263.59727,6.12716742 1262.20736,7.24279785 C1260.60522,8.52877781 1259.55266,10.9742007 1258.03009,13.7088902 C1259.22611,15.8813616 1259.78801,18.075741 1260.95817,19.395874 C1262.79771,21.4711728 1265.22626,22.0487994 1267,22.0487994 C1268.61477,22.0487994 1271.10817,21.9058483 1272.77551,20.2470703 C1274.04077,18.9883091 1274.46893,16.5683455 1275.76395,14.3408116 L1275.97349,13.9763575 L1275.7767,13.6082602 Z"/>
    <circle cx="1317" cy="14" r="9" stroke="#21B1CA" stroke-width="2"/>
    <circle cx="1367" cy="14" r="9" stroke="#21B1CA" stroke-width="2"/>
    <line x1="1361.251" x2="1361.904" y1="14" y2="14.758" stroke="#21B1CA" stroke-linecap="round" stroke-width="2"/>
    <circle cx="1417" cy="14" r="9" stroke="#21B1CA" stroke-width="2"/>
    <line x1="1411.251" x2="1412.557" y1="14" y2="15.515" stroke="#21B1CA" stroke-linecap="round" stroke-width="2"/>
    <circle cx="1467" cy="14" r="9" stroke="#21B1CA" stroke-width="2"/>
    <line x1="1461.251" x2="1463.209" y1="14" y2="16.273" stroke="#21B1CA" stroke-linecap="round" stroke-width="2"/>
    <circle cx="1517" cy="14" r="9" stroke="#21B1CA" stroke-width="2"/>
    <line x1="1511.251" x2="1513.862" y1="14" y2="17.03" stroke="#21B1CA" stroke-linecap="round" stroke-width="2"/>
    <circle cx="1567" cy="14" r="9" stroke="#21B1CA" stroke-width="2"/>
    <line x1="1561.251" x2="1564.515" y1="14" y2="17.788" stroke="#21B1CA" stroke-linecap="round" stroke-width="2"/>
    <circle cx="1617" cy="14" r="9" stroke="#21B1CA" stroke-width="2"/>
    <line x1="1611.251" x2="1615.071" y1="14" y2="18.432" stroke="#21B1CA" stroke-linecap="round" stroke-width="2"/>
    <circle cx="1667" cy="14" r="9" stroke="#21B1CA" stroke-width="2"/>
    <line x1="1661.251" x2="1665.071" y1="14" y2="18.432" stroke="#21B1CA" stroke-linecap="round" stroke-width="2"/>
    <line x1="1665.071" x2="1665.75" y1="18.432" y2="17.699" stroke="#21B1CA" stroke-linecap="round" stroke-width="2"/>
    <circle cx="1717" cy="14" r="9" stroke="#21B1CA" stroke-width="2"/>
    <line x1="1711.251" x2="1715.071" y1="14" y2="18.432" stroke="#21B1CA" stroke-linecap="round" stroke-width="2"/>
    <line x1="1715.071" x2="1716.429" y1="18.432" y2="16.965" stroke="#21B1CA" stroke-linecap="round" stroke-width="2"/>
    <circle cx="1767" cy="14" r="9" stroke="#21B1CA" stroke-width="2"/>
    <line x1="1761.251" x2="1765.071" y1="14" y2="18.432" stroke="#21B1CA" stroke-linecap="round" stroke-width="2"/>
    <line x1="1765.071" x2="1767.108" y1="18.432" y2="16.231" stroke="#21B1CA" stroke-linecap="round" stroke-width="2"/>
    <circle cx="1817" cy="14" r="9" stroke="#21B1CA" stroke-width="2"/>
    <line x1="1811.251" x2="1815.071" y1="14" y2="18.432" stroke="#21B1CA" stroke-linecap="round" stroke-width="2"/>
    <line x1="1815.071" x2="1817.788" y1="18.432" y2="15.497" stroke="#21B1CA" stroke-linecap="round" stroke-width="2"/>
    <circle cx="1867" cy="14" r="9" stroke="#21B1CA" stroke-width="2"/>
    <line x1="1861.251" x2="1865.071" y1="14" y2="18.432" stroke="#21B1CA" stroke-linecap="round" stroke-width="2"/>
    <line x1="1865.071" x2="1868.467" y1="18.432" y2="14.763" stroke="#21B1CA" stroke-linecap="round" stroke-width="2"/>
    <circle cx="1917" cy="14" r="9" stroke="#21B1CA" stroke-width="2"/>
    <line x1="1911.251" x2="1915.071" y1="14" y2="18.432" stroke="#21B1CA" stroke-linecap="round" stroke-width="2"/>
    <line x1="1915.071" x2="1919.146" y1="18.432" y2="14.029" stroke="#21B1CA" stroke-linecap="round" stroke-width="2"/>
    <circle cx="1967" cy="14" r="9" stroke="#21B1CA" stroke-width="2"/>
    <line x1="1961.251" x2="1965.071" y1="14" y2="18.432" stroke="#21B1CA" stroke-linecap="round" stroke-width="2"/>
    <line x1="1965.071" x2="1969.825" y1="18.432" y2="13.295" stroke="#21B1CA" stroke-linecap="round" stroke-width="2"/>
    <circle cx="2017" cy="14" r="9" stroke="#21B1CA" stroke-width="2"/>
    <line x1="2011.251" x2="2015.071" y1="14" y2="18.432" stroke="#21B1CA" stroke-linecap="round" stroke-width="2"/>
    <line x1="2015.071" x2="2020.505" y1="18.432" y2="12.561" stroke="#21B1CA" stroke-linecap="round" stroke-width="2"/>
    <circle cx="2067" cy="14" r="9" stroke="#21B1CA" stroke-width="2"/>
    <line x1="2061.251" x2="2065.071" y1="14" y2="18.432" stroke="#21B1CA" stroke-linecap="round" stroke-width="2"/>
    <line x1="2065.071" x2="2071.184" y1="18.432" y2="11.827" stroke="#21B1CA" stroke-linecap="round" stroke-width="2"/>
    <circle cx="2117" cy="14" r="9" stroke="#21B1CA" stroke-width="2"/>
    <line x1="2111.251" x2="2115.071" y1="14" y2="18.432" stroke="#21B1CA" stroke-linecap="round" stroke-width="2"/>
    <line x1="2115.071" x2="2121.863" y1="18.432" y2="11.093" stroke="#21B1CA" stroke-linecap="round" stroke-width="2"/>
    <circle cx="2167" cy="14" r="9" stroke="#21B1CA" stroke-width="2"/>
    <line x1="2161.251" x2="2165.071" y1="14" y2="18.432" stroke="#21B1CA" stroke-linecap="round" stroke-width="2"/>
    <line x1="2165.071" x2="2172.542" y1="18.432" y2="10.359" stroke="#21B1CA" stroke-linecap="round" stroke-width="2"/>
    <circle cx="2217" cy="14" r="9" stroke="#21B1CA" stroke-width="2"/>
    <line x1="2211.251" x2="2215.071" y1="14" y2="18.432" stroke="#21B1CA" stroke-linecap="round" stroke-width="2"/>
    <line x1="2215.071" x2="2223.222" y1="18.432" y2="9.626" stroke="#21B1CA" stroke-linecap="round" stroke-width="2"/>
    <circle cx="2267" cy="14" r="9" stroke="#21B1CA" stroke-width="2"/>
    <line x1="2261.251" x2="2265.071" y1="14" y2="18.432" stroke="#21B1CA" stroke-linecap="round" stroke-width="2"/>
    <line x1="2265.071" x2="2273.901" y1="18.432" y2="8.892" stroke="#21B1CA" stroke-linecap="round" stroke-width="2"/>
  </g>
</svg>
