<svg xmlns="http://www.w3.org/2000/svg" width="34" height="28" viewBox="0 0 34 28">
  <g fill="none" fill-rule="evenodd">
    <path fill="#21B1CA" d="M27.6260414,13.3857036 C27.8202298,13.755563 27.8133762,14.2885175 27.609833,14.6461167 C24.0769288,20.8529747 20.541452,24 16.9999998,24 C13.4531671,24 9.91633175,20.7490333 6.38360512,14.3399579 C6.1822925,13.9747364 6.18254275,13.4370303 6.38419511,13.0722583 C9.65782873,7.15053368 13.1868962,4.10197661 16.956874,4.00230752 C20.7447197,3.90216605 24.3058669,7.06196194 27.6260414,13.3857036 Z M26.1009421,13.6082602 C24.6768463,11.0720055 23.3983182,8.8309228 21.9210177,7.5579834 C20.3615806,6.21426971 18.6002526,5.91036453 16.9783913,5.95324262 C15.4722456,5.99306146 13.4715653,6.12716742 12.0303075,7.24279785 C10.368979,8.52877781 9.27752495,10.9742007 7.69871587,13.7088902 C8.93891262,15.8813616 9.52157643,18.075741 10.7349655,19.395874 C12.6424587,21.4711728 15.1607279,22.0487994 16.9999998,22.0487994 C18.6744255,22.0487994 20.7943412,21.5533092 22.5232788,19.8945313 C23.8352804,18.63577 24.7448542,16.5683455 26.0877172,14.3408116 L26.3049997,13.9763575 L26.1009421,13.6082602 Z"/>
    <circle cx="17" cy="14" r="9" stroke="#21B1CA" stroke-width="2"/>
  </g>
</svg>
