<svg xmlns="http://www.w3.org/2000/svg" width="34" height="28" viewBox="0 0 34 28">
  <g fill="none" fill-rule="evenodd">
    <path fill="#21B1CA" d="M29.3346306,13.3857036 C29.5600431,13.755563 29.5520876,14.2885175 29.3158161,14.6461167 C25.2148468,20.8529747 21.1108914,24 16.9999997,24 C12.8828624,24 8.77733001,20.7490333 4.67656694,14.3399579 C4.44288474,13.9747364 4.44317523,13.4370303 4.6772518,13.0722583 C8.47726162,7.15053368 12.5737771,4.10197661 16.9499396,4.00230752 C21.346843,3.90216605 25.4805965,7.06196194 29.3346306,13.3857036 Z M27.5643066,13.6082602 C24.1662371,8.39473729 20.6410459,5.86974487 16.9749168,5.95324262 C13.2113136,6.03896039 9.62571001,8.60176653 6.20313782,13.7088902 C8.51720304,17.2009722 10.6721768,20.0271083 12.9052734,21.324585 C14.2453534,22.1031999 15.6899397,22.0487994 16.9999997,22.0487901 C18.5922653,22.0487901 20.3705665,21.7021621 22.0053711,20.5905762 C23.8805034,19.3155794 25.6187997,17.0990403 27.5489553,14.3408116 L27.8011752,13.9763575 L27.5643066,13.6082602 Z"/>
    <circle cx="17" cy="14" r="9" stroke="#21B1CA" stroke-width="2"/>
  </g>
</svg>
