<svg xmlns="http://www.w3.org/2000/svg" width="34" height="28" viewBox="0 0 34 28">
  <g fill="none" fill-rule="evenodd">
    <path fill="#21B1CA" d="M29.4908266,13.3857036 C29.7222091,13.755563 29.7140428,14.2885175 29.4715138,14.6461167 C25.261932,20.8529747 21.0492849,24 16.8295179,24 C12.6033399,24 8.38907405,20.7490333 4.17970389,14.3399579 C3.93983271,13.9747364 3.94013089,13.4370303 4.18040689,13.0722583 C8.08105846,7.15053368 12.2860686,4.10197661 16.778132,4.00230752 C21.2914856,3.90216605 25.5347199,7.06196194 29.4908266,13.3857036 Z M27.6736163,13.6082602 C24.1855502,8.39473729 20.5669957,5.86974487 16.8037707,5.95324262 C12.9404899,6.03896039 9.25992305,8.60176653 5.74670539,13.7088902 C9.54750526,19.2965686 13.2438721,22.0487994 16.8295179,22.0487994 C20.3386637,22.0487994 23.94924,19.5037586 27.6578583,14.3408116 L27.9167582,13.9763575 L27.6736163,13.6082602 Z"/>
    <circle cx="16.83" cy="14" r="9" stroke="#21B1CA" stroke-width="2"/>
  </g>
</svg>
