<svg xmlns="http://www.w3.org/2000/svg" width="34" height="28" viewBox="0 0 34 28">
  <g fill="none" fill-rule="evenodd">
    <path fill="#21B1CA" d="M30.2939494,13.3857036 C30.5368932,13.755563 30.5283189,14.2885175 30.2736715,14.6461167 C25.8537518,20.8529747 21.4306136,24 16.9999997,24 C12.5626545,24 8.13781664,20.7490333 3.71811911,14.3399579 C3.46626241,13.9747364 3.46657549,13.4370303 3.71885724,13.0722583 C7.81441061,7.15053368 12.2295302,4.10197661 16.9460462,4.00230752 C21.6849162,3.90216605 26.14017,7.06196194 30.2939494,13.3857036 Z M28.3859394,13.6082602 C24.723587,8.39473729 20.9242261,5.86974487 16.972966,5.95324262 C12.9166507,6.03896039 9.0521789,8.60176653 5.36341815,13.7088902 C9.35413058,19.2965686 13.2351919,22.0487994 16.9999997,22.0487994 C20.6844851,22.0487994 24.4754692,19.5037586 28.3693941,14.3408116 L28.6412303,13.9763575 L28.3859394,13.6082602 Z"/>
    <circle cx="17" cy="14" r="9" stroke="#21B1CA" stroke-width="2"/>
  </g>
</svg>
