<svg xmlns="http://www.w3.org/2000/svg" width="34" height="28" viewBox="0 0 34 28">
  <g fill="none" fill-rule="evenodd">
    <path fill="#21B1CA" d="M33.0966385,13.3857036 C33.3908008,13.755563 33.3804188,14.2885175 33.0720856,14.6461167 C27.7203388,20.8529747 22.3646951,24 16.9999996,24 C11.6271537,24 6.26945199,20.7490333 0.917974301,14.3399579 C0.613020056,13.9747364 0.613399143,13.4370303 0.918868039,13.0722583 C5.87786407,7.15053368 11.2237987,4.10197661 16.9346714,4.00230752 C22.6726109,3.90216605 28.067141,7.06196194 33.0966385,13.3857036 Z M30.7863735,13.6082602 C26.3519078,8.39473729 21.7515488,5.86974487 16.9672666,5.95324262 C12.055781,6.03896039 7.37658414,8.60176653 2.91014255,13.7088902 C7.74219461,19.2965686 12.4414784,22.0487994 16.9999996,22.0487994 C21.4612646,22.0487994 26.0514807,19.5037586 30.76634,14.3408116 L31.0954859,13.9763575 L30.7863735,13.6082602 Z"/>
    <circle cx="17" cy="14" r="9" stroke="#21B1CA" stroke-width="2"/>
  </g>
</svg>
