<svg xmlns="http://www.w3.org/2000/svg" width="34" height="28" viewBox="0 0 34 28">
  <g fill="none" fill-rule="evenodd">
    <path fill="#21B1CA" d="M30.8099048,13.3857036 C31.0622775,13.755563 31.0533705,14.2885175 30.7888399,14.6461167 C26.1973773,20.8529747 21.6025714,24 16.9999997,24 C12.3904353,24 7.79386382,20.7490333 3.2026321,14.3399579 C2.94100052,13.9747364 2.94132575,13.4370303 3.20339888,13.0722583 C7.45790598,7.15053368 12.0443821,4.10197661 16.9439522,4.00230752 C21.8667439,3.90216605 26.4949118,7.06196194 30.8099048,13.3857036 Z M28.8278425,13.6082602 C25.0233495,8.39473729 21.0765304,5.86974487 16.9719168,5.95324262 C12.7581706,6.03896039 8.74371366,8.60176653 4.91178733,13.7088902 C9.05738448,19.2965686 13.0890748,22.0487994 16.9999997,22.0487994 C20.8274848,22.0487994 24.7656019,19.5037586 28.810655,14.3408116 L29.0930415,13.9763575 L28.8278425,13.6082602 Z"/>
    <circle cx="17" cy="14" r="9" stroke="#21B1CA" stroke-width="2"/>
  </g>
</svg>
