<svg xmlns="http://www.w3.org/2000/svg" width="34" height="28" viewBox="0 0 34 28">
  <g fill="none" fill-rule="evenodd">
    <path fill="#21B1CA" d="M31.3623456,13.3857036 C31.6248142,13.755563 31.6155507,14.2885175 31.3404381,14.6461167 C26.5653022,20.8529747 21.7866892,24 16.9999997,24 C12.2060378,24 7.42558859,20.7490333 2.65069274,14.3399579 C2.37859504,13.9747364 2.37893329,13.4370303 2.65149019,13.0722583 C7.07619134,7.15053368 11.8461414,4.10197661 16.9417101,4.00230752 C22.0614294,3.90216605 26.874739,7.06196194 31.3623456,13.3857036 Z M29.3009944,13.6082602 C25.3443094,8.39473729 21.2396048,5.86974487 16.9707933,5.95324262 C12.5884837,6.03896039 8.41343549,8.60176653 4.42821971,13.7088902 C8.73965416,19.2965686 12.9326251,22.0487994 16.9999997,22.0487994 C20.9805966,22.0487994 25.0762511,19.5037586 29.2831194,14.3408116 L29.5768023,13.9763575 L29.3009944,13.6082602 Z"/>
    <circle cx="17" cy="14" r="9" stroke="#21B1CA" stroke-width="2"/>
  </g>
</svg>
