<svg xmlns="http://www.w3.org/2000/svg" width="34" height="28" viewBox="0 0 34 28">
  <g fill="none" fill-rule="evenodd">
    <path fill="#21B1CA" d="M30.1353661,13.3857036 C30.3816762,13.755563 30.3729831,14.2885175 30.1148073,14.6461167 C25.6336445,20.8529747 21.1492187,24 16.6572136,24 C12.1583839,24 7.67223495,20.7490333 3.19129748,14.3399579 C2.93595102,13.9747364 2.93626844,13.4370303 3.19204583,13.0722583 C7.34434775,7.15053368 11.8206439,4.10197661 16.6025125,4.00230752 C21.407045,3.90216605 25.9240314,7.06196194 30.1353661,13.3857036 Z M28.2009185,13.6082602 C24.4878201,8.39473729 20.6358146,5.86974487 16.6298053,5.95324262 C12.5172852,6.03896039 8.59926673,8.60176653 4.85939401,13.7088902 C8.9054023,19.2965686 12.8402401,22.0487994 16.6572136,22.0487994 C20.3927518,22.0487994 24.2362643,19.5037586 28.1841439,14.3408116 L28.4597467,13.9763575 L28.2009185,13.6082602 Z"/>
    <circle cx="16.657" cy="14" r="9" stroke="#21B1CA" stroke-width="2"/>
  </g>
</svg>
