<?xml version="1.0" encoding="UTF-8"?>
<svg width="60px" height="40px" viewBox="0 0 30 40" version="1.1" xmlns="http://www.w3.org/2000/svg" xmlns:xlink="http://www.w3.org/1999/xlink">
    <defs>
        <path d="M28.9912109,42.4667969 C29.9983774,42.4667969 30.7765272,42.7880827 31.3256836,43.4306641 C31.87484,44.0732454 32.1494141,44.982416 32.1494141,46.1582031 L32.1494141,46.828125 L27.3164062,46.828125 C27.3665367,47.4388051 27.5704735,47.9218732 27.9282227,48.2773438 C28.2859718,48.6328143 28.7359999,48.8105469 29.2783203,48.8105469 C30.0393918,48.8105469 30.6591773,48.5029328 31.1376953,47.8876953 L32.0332031,48.7421875 C31.7369777,49.184247 31.3416366,49.5271798 30.847168,49.7709961 C30.3526994,50.0148124 29.7978546,50.1367188 29.1826172,50.1367188 C28.1298775,50.1367188 27.2765332,49.8051791 26.6225586,49.1420898 C25.968584,48.4790006 25.6416016,47.5960342 25.6416016,46.4931641 L25.6416016,46.2880859 C25.6416016,45.549801 25.7840155,44.8901396 26.0688477,44.309082 C26.3536798,43.7280244 26.7535782,43.2757178 27.2685547,42.9521484 C27.7835312,42.6285791 28.3577442,42.4667969 28.9912109,42.4667969 Z M40.4824219,40.8056641 L40.4824219,42.6035156 L41.7880859,42.6035156 L41.7880859,43.8339844 L40.4824219,43.8339844 L40.4824219,47.9628906 C40.4824219,48.2454441 40.5382481,48.4493809 40.6499023,48.574707 C40.7615565,48.7000332 40.9609361,48.7626953 41.2480469,48.7626953 C41.4394541,48.7626953 41.633137,48.7399091 41.8291016,48.6943359 L41.8291016,49.9794922 C41.4508445,50.0843104 41.0862648,50.1367188 40.7353516,50.1367188 C39.4593035,50.1367188 38.8212891,49.4326242 38.8212891,48.0244141 L38.8212891,43.8339844 L37.6044922,43.8339844 L37.6044922,42.6035156 L38.8212891,42.6035156 L38.8212891,40.8056641 L40.4824219,40.8056641 Z M20.2412109,40.046875 L20.2412109,48.6191406 L24.7597656,48.6191406 L24.7597656,50 L18.5117188,50 L18.5117188,40.046875 L20.2412109,40.046875 Z M36.6201172,39.3564453 C36.9117853,39.3564453 37.221678,39.3974605 37.5498047,39.4794922 L37.5087891,40.7783203 C37.3264965,40.7418618 37.1145845,40.7236328 36.8730469,40.7236328 C36.0800742,40.7236328 35.6835938,41.1315063 35.6835938,41.9472656 L35.6835938,42.6035156 L37.1875,42.6035156 L37.1875,43.8339844 L35.6835938,43.8339844 L35.6835938,50 L34.0224609,50 L34.0224609,43.8339844 L32.8945312,43.8339844 L32.8945312,42.6035156 L34.0224609,42.6035156 L34.0224609,41.9267578 C34.0224609,41.1064412 34.2503232,40.472984 34.7060547,40.0263672 C35.1617861,39.5797504 35.7998006,39.3564453 36.6201172,39.3564453 Z M28.984375,43.7998047 C28.5286436,43.7998047 28.1606459,43.9593083 27.8803711,44.2783203 C27.6000963,44.5973323 27.4212243,45.0416638 27.34375,45.6113281 L30.5087891,45.6113281 L30.5087891,45.4882812 C30.4723305,44.9322889 30.32422,44.5118829 30.0644531,44.2270508 C29.8046862,43.9422186 29.4446638,43.7998047 28.984375,43.7998047 Z M45,11 L45,33 L15,33 L15,11 L45,11 Z M43,13 L21,13 L21,31 L43,31 L43,13 Z" id="path-left"></path>
    </defs>
    <g id="Screen" stroke="none" stroke-width="1" fill="none" fill-rule="evenodd">
        <g id="Desktop-HD-Copy" transform="translate(-296.000000, -329.000000)">
            <g id="Left_icon" transform="translate(281.000000, 318.000000)">
                <rect id="Left_bounding_box" fill-opacity="0" fill="#D8D8D8" x="-4.54747351e-13" y="-4.26325641e-14" width="60" height="60"></rect>
                <mask id="mask-2" fill="white">
                    <use xlink:href="#path-left"></use>
                </mask>
                <use id="Left" fill="currentColor" fill-rule="nonzero" xlink:href="#path-left"></use>
            </g>
        </g>
    </g>
</svg>