<?xml version="1.0" encoding="UTF-8"?>
<svg width="30px" height="60px" viewBox="0 0 43 42" version="1.1" xmlns="http://www.w3.org/2000/svg" xmlns:xlink="http://www.w3.org/1999/xlink">
    <defs>
        <path d="M12.1264648,39.9101563 C12.8191766,39.9101563 13.4366835,40.0377591 13.9790039,40.2929688 C14.5213243,40.5481784 14.9474268,40.9116187 15.2573242,41.3833008 C15.5672216,41.8549828 15.722168,42.3779268 15.722168,42.9521484 L13.9995117,42.9521484 C13.9995117,42.4326146 13.8365902,42.0258804 13.5107422,41.7319336 C13.1848942,41.4379868 12.7189158,41.2910156 12.112793,41.2910156 C11.547686,41.2910156 11.109051,41.4117826 10.796875,41.6533203 C10.484699,41.894858 10.3286133,42.2320942 10.3286133,42.6650391 C10.3286133,43.0296242 10.4972314,43.3338204 10.8344727,43.5776367 C11.1342427,43.7943623 11.6068465,44.0056839 12.2522958,44.2116064 L12.5024414,44.2885742 C13.2771849,44.5187186 13.899249,44.7807602 14.3686523,45.074707 C14.8380557,45.3686538 15.1821278,45.70589 15.4008789,46.0864258 C15.61963,46.4669615 15.7290039,46.9124323 15.7290039,47.4228516 C15.7290039,48.2522828 15.411136,48.9119442 14.7753906,49.4018555 C14.1396453,49.8917668 13.2771864,50.1367188 12.1879883,50.1367188 C11.4679326,50.1367188 10.8059926,50.0034193 10.2021484,49.7368164 C9.59830427,49.4702135 9.12890792,49.1022159 8.79394531,48.6328125 C8.4589827,48.1634091 8.29150391,47.6165396 8.29150391,46.9921875 L10.0209961,46.9921875 C10.0209961,47.5572945 10.2078432,47.9947901 10.581543,48.3046875 C10.9552428,48.6145849 11.4907192,48.7695313 12.1879883,48.7695313 C12.7895538,48.7695313 13.2418605,48.6476249 13.5449219,48.4038086 C13.8479833,48.1599923 13.9995117,47.8375671 13.9995117,47.4365234 C13.9995117,46.9990213 13.8457047,46.661785 13.5380859,46.4248047 C13.2646471,46.2141555 12.7958692,46.0017087 12.1317405,45.7874593 L11.8735352,45.7070313 C11.0714478,45.4654936 10.4334334,45.1966161 9.95947266,44.9003906 C9.05256708,44.3307263 8.59912109,43.5878952 8.59912109,42.671875 C8.59912109,41.8697877 8.9261035,41.208987 9.58007812,40.6894531 C10.2340527,40.1699193 11.0828398,39.9101563 12.1264648,39.9101563 Z M20.1518555,42.4667969 C21.159022,42.4667969 21.9371717,42.7880827 22.4863281,43.4306641 C23.0354845,44.0732454 23.3100586,44.982416 23.3100586,46.1582031 L23.3100586,46.828125 L18.4770508,46.828125 C18.5271812,47.4388051 18.731118,47.9218732 19.0888672,48.2773438 C19.4466164,48.6328143 19.8966444,48.8105469 20.4389648,48.8105469 C21.2000364,48.8105469 21.8198218,48.5029328 22.2983398,47.8876953 L23.1938477,48.7421875 C22.8976222,49.184247 22.5022811,49.5271798 22.0078125,49.7709961 C21.5133439,50.0148124 20.9584992,50.1367188 20.3432617,50.1367188 C19.2905221,50.1367188 18.4371777,49.8051791 17.7832031,49.1420898 C17.1292285,48.4790006 16.8022461,47.5960342 16.8022461,46.4931641 L16.8022461,46.2880859 C16.8022461,45.549801 16.94466,44.8901396 17.2294922,44.309082 C17.5143243,43.7280244 17.9142227,43.2757178 18.4291992,42.9521484 C18.9441758,42.6285791 19.5183888,42.4667969 20.1518555,42.4667969 Z M27.5688477,42.4667969 C28.4347374,42.4667969 29.1251602,42.6844054 29.6401367,43.1196289 C30.1551133,43.5548524 30.4194335,44.1666627 30.4331055,44.9550781 L30.4331055,48.2910156 C30.4331055,48.9563835 30.526529,49.4873027 30.7133789,49.8837891 L30.7133789,50 L29.0180664,50 C28.9451494,49.8587233 28.8813479,49.6285823 28.8266602,49.3095703 C28.2980117,49.8610054 27.6508827,50.1367188 26.8852539,50.1367188 C26.1424117,50.1367188 25.5362979,49.9248068 25.0668945,49.5009766 C24.5974911,49.0771463 24.362793,48.553063 24.362793,47.9287109 C24.362793,47.1402955 24.655596,46.5353211 25.2412109,46.1137695 C25.8268258,45.6922179 26.6642198,45.4814453 27.753418,45.4814453 L28.7719727,45.4814453 L28.7719727,44.9960938 C28.7719727,44.6132793 28.6648774,44.3068045 28.4506836,44.0766602 C28.2364898,43.8465158 27.9106467,43.7314453 27.4731445,43.7314453 C27.0948874,43.7314453 26.7849947,43.8260082 26.543457,44.0151367 C26.3019194,44.2042653 26.1811523,44.44466 26.1811523,44.7363281 L24.5200195,44.7363281 C24.5200195,44.3307271 24.6544583,43.9513364 24.9233398,43.5981445 C25.1922214,43.2449527 25.5579404,42.9681 26.0205078,42.7675781 C26.4830752,42.5670563 26.9991833,42.4667969 27.5688477,42.4667969 Z M40.0170898,42.4667969 C40.8966515,42.4667969 41.6132785,42.723142 42.1669922,43.2358398 C42.7207059,43.7485377 43.0112303,44.4218708 43.0385742,45.2558594 L41.4731445,45.2558594 C41.4549153,44.8320291 41.3102227,44.4833998 41.0390625,44.2099609 C40.7679023,43.9365221 40.4226909,43.7998047 40.003418,43.7998047 C39.4656549,43.7998047 39.0509455,43.994627 38.7592773,44.3842773 C38.4676092,44.7739277 38.3194987,45.3652304 38.3149414,46.1582031 L38.3149414,46.4248047 C38.3149414,47.226892 38.459634,47.8250306 38.7490234,48.2192383 C39.0384129,48.613446 39.4565402,48.8105469 40.003418,48.8105469 C40.4181336,48.8105469 40.7622057,48.6897799 41.0356445,48.4482422 C41.3090834,48.2067045 41.4549153,47.9082049 41.4731445,47.5527344 L43.0385742,47.5527344 C43.020345,48.0130231 42.8767917,48.4425436 42.6079102,48.8413086 C42.3390286,49.2400736 41.9744489,49.5556629 41.5141602,49.7880859 C41.0538714,50.020509 40.5571316,50.1367188 40.0239258,50.1367188 C38.9894154,50.1367188 38.1691111,49.8017612 37.5629883,49.1318359 C36.9568655,48.4619107 36.6538086,47.5367898 36.6538086,46.3564453 L36.6538086,46.1855469 C36.6538086,45.0598902 36.9545868,44.1586948 37.5561523,43.4819336 C38.1577179,42.8051724 38.9780221,42.4667969 40.0170898,42.4667969 Z M35.4643555,42.4667969 C35.7013358,42.4667969 35.8972974,42.4986976 36.0522461,42.5625 L36.0454102,44.1210938 C35.8266591,44.0846352 35.6010754,44.0664063 35.3686523,44.0664063 C34.6075808,44.0664063 34.0948906,44.35807 33.8305664,44.9414063 L33.8305664,50 L32.1694336,50 L32.1694336,42.6035156 L33.7553711,42.6035156 L33.7963867,43.4306641 C34.1974304,42.7880827 34.7534144,42.4667969 35.4643555,42.4667969 Z M45.9301758,39.5 L45.9301758,43.4101563 C46.4724962,42.7812469 47.1583617,42.4667969 47.987793,42.4667969 C49.5646238,42.4667969 50.3644205,43.366853 50.387207,45.1669922 L50.387207,50 L48.7260742,50 L48.7260742,45.2285156 C48.7260742,44.7180964 48.615561,44.3569347 48.3945312,44.1450195 C48.1735015,43.9331044 47.8487977,43.8271484 47.4204102,43.8271484 C46.7550422,43.8271484 46.2583024,44.1233694 45.9301758,44.7158203 L45.9301758,50 L44.269043,50 L44.269043,39.5 L45.9301758,39.5 Z M28.7719727,46.5273438 L27.8764648,46.5273438 C27.2612274,46.5273438 26.7986669,46.634439 26.4887695,46.8486328 C26.1788721,47.0628266 26.0239258,47.3658835 26.0239258,47.7578125 C26.0239258,48.0768245 26.1298818,48.330891 26.3417969,48.5200195 C26.553712,48.7091481 26.8374006,48.8037109 27.1928711,48.8037109 C27.5209977,48.8037109 27.8297512,48.7239591 28.1191406,48.5644531 C28.4085301,48.4049471 28.6261386,48.1907566 28.7719727,47.921875 L28.7719727,46.5273438 Z M20.1450195,43.7998047 C19.6892881,43.7998047 19.3212905,43.9593083 19.0410156,44.2783203 C18.7607408,44.5973323 18.5818689,45.0416638 18.5043945,45.6113281 L21.6694336,45.6113281 L21.6694336,45.4882813 C21.6329751,44.9322889 21.4848646,44.5118829 21.2250977,44.2270508 C20.9653307,43.9422186 20.6053083,43.7998047 20.1450195,43.7998047 Z M29,9 C35.0751322,9 40,13.9248678 40,20 C40,22.953065 38.8363319,25.6343408 36.9425297,27.6102934 L42.7069752,34.2401341 L41.1975561,35.5522521 L35.4342337,28.9229164 C33.624994,30.229828 31.4024387,31 29,31 C22.9248678,31 18,26.0751322 18,20 C18,13.9248678 22.9248678,9 29,9 Z M29,11 C24.0294373,11 20,15.0294373 20,20 C20,24.9705627 24.0294373,29 29,29 C33.9705627,29 38,24.9705627 38,20 C38,15.0294373 33.9705627,11 29,11 Z" id="path-search"></path>
    </defs>
    <g id="Screen" stroke="none" stroke-width="1" fill="none" fill-rule="evenodd">
        <g id="Desktop-HD-Copy" transform="translate(-289.000000, -717.000000)">
            <g id="Search_Icon" transform="translate(281.000000, 708.000000)">
                <rect id="Top_bounding_box" fill-opacity="0" fill="#D8D8D8" x="-4.54747351e-13" y="-4.26325641e-14" width="60" height="60"></rect>
                <mask id="mask-2" fill="white">
                    <use xlink:href="#path-search"></use>
                </mask>
                <use id="Search" fill="currentColor" fill-rule="nonzero" xlink:href="#path-search"></use>
            </g>
        </g>
    </g>
</svg>