<?xml version="1.0" encoding="UTF-8"?>
<svg width="64px" height="60px" viewBox="0 0 59 36" version="1.1" xmlns="http://www.w3.org/2000/svg" xmlns:xlink="http://www.w3.org/1999/xlink">
    <defs>
        <path d="M17.9140625,42.4667969 C18.7799522,42.4667969 19.470375,42.6844054 19.9853516,43.1196289 C20.5003281,43.5548524 20.7646484,44.1666627 20.7783203,44.9550781 L20.7783203,48.2910156 C20.7783203,48.9563835 20.8717439,49.4873027 21.0585938,49.8837891 L21.0585938,50 L19.3632812,50 C19.2903642,49.8587233 19.2265628,49.6285823 19.171875,49.3095703 C18.6432265,49.8610054 17.9960976,50.1367187 17.2304688,50.1367187 C16.4876265,50.1367187 15.8815128,49.9248068 15.4121094,49.5009766 C14.942706,49.0771463 14.7080078,48.553063 14.7080078,47.9287109 C14.7080078,47.1402955 15.0008109,46.5353211 15.5864258,46.1137695 C16.1720407,45.6922179 17.0094347,45.4814453 18.0986328,45.4814453 L19.1171875,45.4814453 L19.1171875,44.9960937 C19.1171875,44.6132793 19.0100922,44.3068045 18.7958984,44.0766602 C18.5817047,43.8465158 18.2558616,43.7314453 17.8183594,43.7314453 C17.4401023,43.7314453 17.1302095,43.8260082 16.8886719,44.0151367 C16.6471342,44.2042653 16.5263672,44.44466 16.5263672,44.7363281 L14.8652344,44.7363281 C14.8652344,44.3307271 14.9996731,43.9513364 15.2685547,43.5981445 C15.5374362,43.2449527 15.9031552,42.9681 16.3657227,42.7675781 C16.8282901,42.5670563 17.3443982,42.4667969 17.9140625,42.4667969 Z M24.5996094,40.8056641 L24.5996094,42.6035156 L25.9052734,42.6035156 L25.9052734,43.8339844 L24.5996094,43.8339844 L24.5996094,47.9628906 C24.5996094,48.2454441 24.6554356,48.4493809 24.7670898,48.574707 C24.878744,48.7000332 25.0781236,48.7626953 25.3652344,48.7626953 C25.5566416,48.7626953 25.7503245,48.7399091 25.9462891,48.6943359 L25.9462891,49.9794922 C25.568032,50.0843104 25.2034523,50.1367187 24.8525391,50.1367187 C23.576491,50.1367187 22.9384766,49.4326242 22.9384766,48.0244141 L22.9384766,43.8339844 L21.7216797,43.8339844 L21.7216797,42.6035156 L22.9384766,42.6035156 L22.9384766,40.8056641 L24.5996094,40.8056641 Z M30.2255859,42.4667969 C31.1051476,42.4667969 31.8217746,42.723142 32.3754883,43.2358398 C32.929202,43.7485377 33.2197264,44.4218708 33.2470703,45.2558594 L31.6816406,45.2558594 C31.6634114,44.8320291 31.5187188,44.4833998 31.2475586,44.2099609 C30.9763984,43.9365221 30.631187,43.7998047 30.2119141,43.7998047 C29.674151,43.7998047 29.2594416,43.994627 28.9677734,44.3842773 C28.6761053,44.7739277 28.5279948,45.3652304 28.5234375,46.1582031 L28.5234375,46.4248047 C28.5234375,47.226892 28.6681301,47.8250306 28.9575195,48.2192383 C29.246909,48.613446 29.6650363,48.8105469 30.2119141,48.8105469 C30.6266297,48.8105469 30.9707018,48.6897799 31.2441406,48.4482422 C31.5175795,48.2067045 31.6634114,47.9082049 31.6816406,47.5527344 L33.2470703,47.5527344 C33.2288411,48.0130231 33.0852878,48.4425436 32.8164062,48.8413086 C32.5475247,49.2400736 32.182945,49.5556629 31.7226562,49.7880859 C31.2623675,50.020509 30.7656277,50.1367187 30.2324219,50.1367187 C29.1979115,50.1367187 28.3776072,49.8017612 27.7714844,49.1318359 C27.1653616,48.4619107 26.8623047,47.5367898 26.8623047,46.3564453 L26.8623047,46.1855469 C26.8623047,45.0598902 27.1630829,44.1586948 27.7646484,43.4819336 C28.3662139,42.8051724 29.1865182,42.4667969 30.2255859,42.4667969 Z M52.1894531,42.4667969 C53.0735721,42.4667969 53.7879205,42.6855447 54.3325195,43.1230469 C54.8771186,43.5605491 55.1494141,44.1279262 55.1494141,44.8251953 L53.4882812,44.8251953 C53.4882812,44.5061833 53.3697929,44.2407237 53.1328125,44.0288086 C52.8958321,43.8168935 52.5813822,43.7109375 52.1894531,43.7109375 C51.824868,43.7109375 51.5275077,43.7952466 51.2973633,43.9638672 C51.0672189,44.1324878 50.9521484,44.3580715 50.9521484,44.640625 C50.9521484,44.8958346 51.0592437,45.0940748 51.2734375,45.2353516 C51.4400327,45.3452335 51.7389548,45.4558033 52.17021,45.5670631 L52.5722656,45.6625977 C53.2239616,45.8061531 53.7355125,45.9770498 54.1069336,46.175293 C54.4783547,46.3735361 54.7540681,46.6116523 54.934082,46.8896484 C55.114096,47.1676446 55.2041016,47.5048808 55.2041016,47.9013672 C55.2041016,48.5667351 54.9283882,49.1056294 54.3769531,49.5180664 C53.8255181,49.9305034 53.1031946,50.1367187 52.2099609,50.1367187 C51.6038381,50.1367187 51.0638045,50.0273448 50.5898438,49.8085937 C50.115883,49.5898427 49.7467461,49.2890644 49.4824219,48.90625 C49.2180976,48.5234356 49.0859375,48.1110048 49.0859375,47.6689453 L50.6992188,47.6689453 C50.7220053,48.0608744 50.8701158,48.3627919 51.1435547,48.574707 C51.4169936,48.7866222 51.7792946,48.8925781 52.2304688,48.8925781 C52.6679709,48.8925781 53.0006499,48.8094084 53.2285156,48.6430664 C53.4563813,48.4767244 53.5703125,48.2591159 53.5703125,47.9902344 C53.5703125,47.6940089 53.4484062,47.4684253 53.2045898,47.3134766 C52.9912506,47.1778965 52.6549218,47.0562747 52.1955955,46.9486085 L51.9912109,46.9033203 C51.4261039,46.7848301 50.954429,46.634441 50.5761719,46.4521484 C49.7467406,46.0511048 49.3320312,45.4700559 49.3320312,44.7089844 C49.3320312,44.0709604 49.6009088,43.5377626 50.1386719,43.109375 C50.676435,42.6809874 51.3600219,42.4667969 52.1894531,42.4667969 Z M58.7314453,40.8056641 L58.7314453,42.6035156 L60.0371094,42.6035156 L60.0371094,43.8339844 L58.7314453,43.8339844 L58.7314453,47.9628906 C58.7314453,48.2454441 58.7872716,48.4493809 58.8989258,48.574707 C59.01058,48.7000332 59.2099595,48.7626953 59.4970703,48.7626953 C59.6884775,48.7626953 59.8821605,48.7399091 60.078125,48.6943359 L60.078125,49.9794922 C59.6998679,50.0843104 59.3352882,50.1367187 58.984375,50.1367187 C57.708327,50.1367187 57.0703125,49.4326242 57.0703125,48.0244141 L57.0703125,43.8339844 L55.8535156,43.8339844 L55.8535156,42.6035156 L57.0703125,42.6035156 L57.0703125,40.8056641 L58.7314453,40.8056641 Z M36.1386719,39.5 L36.1386719,43.4101562 C36.6809923,42.7812469 37.3668578,42.4667969 38.1962891,42.4667969 C39.7731199,42.4667969 40.5729166,43.366853 40.5957031,45.1669922 L40.5957031,50 L38.9345703,50 L38.9345703,45.2285156 C38.9345703,44.7180964 38.8240571,44.3569347 38.6030273,44.1450195 C38.3819976,43.9331044 38.0572938,43.8271484 37.6289062,43.8271484 C36.9635383,43.8271484 36.4667985,44.1233694 36.1386719,44.7158203 L36.1386719,50 L34.4775391,50 L34.4775391,39.5 L36.1386719,39.5 Z M44.0410156,39.5 L44.0410156,50 L42.3798828,50 L42.3798828,39.5 L44.0410156,39.5 Z M47.6162109,42.6035156 L47.6162109,50 L45.9550781,50 L45.9550781,42.6035156 L47.6162109,42.6035156 Z M4.04394531,40.046875 L5.588125,47.524 L7.48925781,40.046875 L8.93847656,40.046875 L10.8183594,47.5390625 L12.3496094,40.046875 L14.0654297,40.046875 L11.7685547,50 L10.1142578,50 L8.22070312,42.7333984 L6.28613281,50 L4.625,50 L2.328125,40.046875 L4.04394531,40.046875 Z M19.1171875,46.5273437 L18.2216797,46.5273437 C17.6064422,46.5273437 17.1438818,46.634439 16.8339844,46.8486328 C16.524087,47.0628266 16.3691406,47.3658835 16.3691406,47.7578125 C16.3691406,48.0768245 16.4750966,48.330891 16.6870117,48.5200195 C16.8989268,48.7091481 17.1826154,48.8037109 17.5380859,48.8037109 C17.8662126,48.8037109 18.174966,48.7239591 18.4643555,48.5644531 C18.7537449,48.4049471 18.9713534,48.1907566 19.1171875,47.921875 L19.1171875,46.5273437 Z M46.7890625,39.7939453 C47.0898453,39.7939453 47.3222648,39.8782544 47.4863281,40.046875 C47.6503914,40.2154956 47.7324219,40.4274076 47.7324219,40.6826172 C47.7324219,40.9332695 47.6503914,41.1417635 47.4863281,41.3081055 C47.3222648,41.4744474 47.0898453,41.5576172 46.7890625,41.5576172 C46.4882797,41.5576172 46.2569995,41.4744474 46.0952148,41.3081055 C45.9334302,41.1417635 45.8525391,40.9332695 45.8525391,40.6826172 C45.8525391,40.4274076 45.9334302,40.2154956 46.0952148,40.046875 C46.2569995,39.8782544 46.4882797,39.7939453 46.7890625,39.7939453 Z M32,15 C36.7864678,15 41.1198012,17.4375 45,22.3125 C41.1198012,27.1875 36.7864678,29.625 32,29.625 C27.2135322,29.625 22.8801988,27.1875 19,22.3125 C22.8801988,17.4375 27.2135322,15 32,15 Z M32,16.625 C28.8588805,16.625 26.3125,19.1713805 26.3125,22.3125 C26.3125,25.4536195 28.8588805,28 32,28 C35.1411195,28 37.6875,25.4536195 37.6875,22.3125 C37.6875,19.1713805 35.1411195,16.625 32,16.625 Z M32,19.3125 C33.6568542,19.3125 35,20.6556458 35,22.3125 C35,23.9693542 33.6568542,25.3125 32,25.3125 C30.3431458,25.3125 29,23.9693542 29,22.3125 C29,20.6556458 30.3431458,19.3125 32,19.3125 Z" id="path-1"></path>
    </defs>
    <g id="Assets" stroke="none" stroke-width="1" fill="none" fill-rule="evenodd">
        <g id="Desktop-HD-Copy" transform="translate(-21.000000, -655.000000)">
            <g id="Watchlist_Icon" transform="translate(19.000000, 640.000000)">
                <rect id="Watchlist_bounding_box" fill-opacity="0" fill="#D8D8D8" x="0" y="0" width="64" height="60"></rect>
                <mask id="mask-2" fill="white">
                    <use xlink:href="#path-1"></use>
                </mask>
                <use id="Watchlist" fill="currentColor" fill-rule="nonzero" xlink:href="#path-1"></use>
            </g>
        </g>
    </g>
</svg>
