<?xml version="1.0" encoding="UTF-8"?>
<svg width="14px" height="19px" viewBox="0 0 14 19" version="1.1" xmlns="http://www.w3.org/2000/svg" xmlns:xlink="http://www.w3.org/1999/xlink">
    <!-- Generator: Sketch 59 (86127) - https://sketch.com -->
    <title>Glyph/24Drag</title>
    <desc>Created with Sketch.</desc>
    <defs>
        <path d="M12,18.8333333 C12.8591096,18.8333333 13.5555556,19.5422158 13.5555556,20.4166667 C13.5555556,21.2911175 12.8591096,22 12,22 C11.1408904,22 10.4444444,21.2911175 10.4444444,20.4166667 C10.4444444,19.5422158 11.1408904,18.8333333 12,18.8333333 Z M6.55555556,18.8333333 C7.41466517,18.8333333 8.11111111,19.5422158 8.11111111,20.4166667 C8.11111111,21.2911175 7.41466517,22 6.55555556,22 C5.69644594,22 5,21.2911175 5,20.4166667 C5,19.5422158 5.69644594,18.8333333 6.55555556,18.8333333 Z M17.4444444,18.8333333 C18.3035541,18.8333333 19,19.5422158 19,20.4166667 C19,21.2911175 18.3035541,22 17.4444444,22 C16.5853348,22 15.8888889,21.2911175 15.8888889,20.4166667 C15.8888889,19.5422158 16.5853348,18.8333333 17.4444444,18.8333333 Z M12,10.9166667 C12.8591096,10.9166667 13.5555556,11.6255491 13.5555556,12.5 C13.5555556,13.3744509 12.8591096,14.0833333 12,14.0833333 C11.1408904,14.0833333 10.4444444,13.3744509 10.4444444,12.5 C10.4444444,11.6255491 11.1408904,10.9166667 12,10.9166667 Z M6.55555556,10.9166667 C7.41466517,10.9166667 8.11111111,11.6255491 8.11111111,12.5 C8.11111111,13.3744509 7.41466517,14.0833333 6.55555556,14.0833333 C5.69644594,14.0833333 5,13.3744509 5,12.5 C5,11.6255491 5.69644594,10.9166667 6.55555556,10.9166667 Z M17.4444444,10.9166667 C18.3035541,10.9166667 19,11.6255491 19,12.5 C19,13.3744509 18.3035541,14.0833333 17.4444444,14.0833333 C16.5853348,14.0833333 15.8888889,13.3744509 15.8888889,12.5 C15.8888889,11.6255491 16.5853348,10.9166667 17.4444444,10.9166667 Z M12,3 C12.8591096,3 13.5555556,3.70888248 13.5555556,4.58333333 C13.5555556,5.45778419 12.8591096,6.16666667 12,6.16666667 C11.1408904,6.16666667 10.4444444,5.45778419 10.4444444,4.58333333 C10.4444444,3.70888248 11.1408904,3 12,3 Z M6.55555556,3 C7.41466517,3 8.11111111,3.70888248 8.11111111,4.58333333 C8.11111111,5.45778419 7.41466517,6.16666667 6.55555556,6.16666667 C5.69644594,6.16666667 5,5.45778419 5,4.58333333 C5,3.70888248 5.69644594,3 6.55555556,3 Z M17.4444444,3 C18.3035541,3 19,3.70888248 19,4.58333333 C19,5.45778419 18.3035541,6.16666667 17.4444444,6.16666667 C16.5853348,6.16666667 15.8888889,5.45778419 15.8888889,4.58333333 C15.8888889,3.70888248 16.5853348,3 17.4444444,3 Z" id="path-1"></path>
    </defs>
    <g id="Assets" stroke="none" stroke-width="1" fill="none" fill-rule="evenodd">
        <g id="Desktop-HD-Copy" transform="translate(-370.000000, -137.000000)">
            <g id="Glyph/24Drag" transform="translate(365.000000, 134.000000)">
                <rect id="Bounding_box" fill="#D8D8D8" fill-rule="evenodd" opacity="0" x="0" y="0" width="24" height="24"></rect>
                <mask id="mask-2" fill="white">
                    <use xlink:href="#path-1"></use>
                </mask>
                <use id="Shape-Copy" fill="#AEB1B5" fill-rule="nonzero" xlink:href="#path-1"></use>
                <g id="Color/Black" mask="url(#mask-2)" fill="#000000" fill-rule="evenodd">
                    <rect id="Rectangle" x="0" y="0" width="24" height="24"></rect>
                </g>
            </g>
        </g>
    </g>
</svg>