<?xml version="1.0" encoding="UTF-8"?>
<svg width="21px" height="18px" viewBox="0 0 21 18" version="1.1" xmlns="http://www.w3.org/2000/svg" xmlns:xlink="http://www.w3.org/1999/xlink">
    <!-- Generator: Sketch 59 (86127) - https://sketch.com -->
    <title>Glyph/24News</title>
    <desc>Created with Sketch.</desc>
    <defs>
        <path d="M19.7692308,3 L19.7692308,7.90909091 L23,7.90909091 L23,19.3636364 C23,20.267375 22.2767677,21 21.3846154,21 L3.61538462,21 C2.72323233,21 2,20.267375 2,19.3636364 L2,3 L19.7692308,3 Z M21.3838077,9.54545455 L19.7692308,9.54545455 L19.7692308,19.3636364 L21.3846154,19.3636364 L21.3838077,9.54545455 Z M18.1538462,4.63636364 L3.61538462,4.63636364 L3.61538462,19.3636364 L18.1538462,19.3636364 L18.1538462,4.63636364 Z M16.5384615,16.0909091 L16.5384615,17.7272727 L5.23076923,17.7272727 L5.23076923,16.0909091 L16.5384615,16.0909091 Z M16.5384615,12.8181818 L16.5384615,14.4545455 L5.23076923,14.4545455 L5.23076923,12.8181818 L16.5384615,12.8181818 Z M10.0769231,6.27272727 L10.0769231,11.1818182 L5.23076923,11.1818182 L5.23076923,6.27272727 L10.0769231,6.27272727 Z M16.5384615,9.54545455 L16.5384615,11.1818182 L11.6923077,11.1818182 L11.6923077,9.54545455 L16.5384615,9.54545455 Z M16.5384615,6.27272727 L16.5384615,7.90909091 L11.6923077,7.90909091 L11.6923077,6.27272727 L16.5384615,6.27272727 Z" id="path-1"></path>
    </defs>
    <g id="Assets" stroke="none" stroke-width="1" fill="none" fill-rule="evenodd">
        <g id="Desktop-HD-Copy" transform="translate(-367.000000, -225.000000)">
            <g id="Glyph/24News" transform="translate(365.000000, 222.000000)">
                <rect id="Bounding_box" fill="#D8D8D8" fill-rule="evenodd" opacity="0" x="0" y="0" width="24" height="24"></rect>
                <mask id="mask-2" fill="white">
                    <use xlink:href="#path-1"></use>
                </mask>
                <use id="News-Copy" fill="#AEB1B5" fill-rule="nonzero" xlink:href="#path-1"></use>
                <g id="Color/Black" mask="url(#mask-2)" fill="#000000" fill-rule="evenodd">
                    <rect id="Rectangle" x="0" y="0" width="25" height="24"></rect>
                </g>
            </g>
        </g>
    </g>
</svg>