<?xml version="1.0" encoding="UTF-8"?>
<svg width="20px" height="20px" viewBox="0 0 20 20" version="1.1" xmlns="http://www.w3.org/2000/svg" xmlns:xlink="http://www.w3.org/1999/xlink">
    <!-- Generator: Sketch 59 (86127) - https://sketch.com -->
    <title>Glyph/24Opacity</title>
    <desc>Created with Sketch.</desc>
    <defs>
        <path d="M9.69230769,2 C13.0209934,2 15.85586,4.11429081 16.9272268,7.07319162 C19.8857092,8.14413996 22,10.9790066 22,14.3076923 C22,18.5560365 18.5560365,22 14.3076923,22 C10.9790066,22 8.14413996,19.8857092 7.0727732,16.9268084 C4.11429081,15.85586 2,13.0209934 2,9.69230769 C2,5.44396346 5.44396346,2 9.69230769,2 Z M14.3076923,8.15384615 C13.9653295,8.15384615 13.6294966,8.18180391 13.302352,8.23556091 L17.0404323,11.9744598 C16.9125951,12.3865268 16.7510505,12.7837628 16.559022,13.1629443 L11.9977216,8.60208975 C11.4991341,8.80414624 11.0330454,9.06965902 10.6094732,9.3886105 L15.707545,14.4874075 C15.4612142,14.7960121 15.191631,15.0852401 14.9014486,15.3524384 L9.73661267,10.1875366 C9.38789132,10.5741763 9.0875276,11.0052801 8.84505246,11.4713171 L13.6580956,16.2848663 C13.3038005,16.4984525 12.9308862,16.6842858 12.5423631,16.839356 L8.37377283,12.6713733 C8.23041619,13.1924068 8.15384615,13.7411076 8.15384615,14.3076923 C8.15384615,14.4177709 8.1567364,14.5271744 8.16244514,14.6358311 L10.8283895,17.3013045 C10.4576557,17.3561851 10.0783018,17.3846154 9.69230769,17.3846154 C9.4442292,17.3846154 9.19889354,17.3728719 8.95682631,17.3499105 C10.0157509,19.2081412 12.0153483,20.4615385 14.3076923,20.4615385 C17.7063677,20.4615385 20.4615385,17.7063677 20.4615385,14.3076923 C20.4615385,12.0153483 19.2081412,10.0157509 17.3492879,8.95684129 C17.3728719,9.19889354 17.3846154,9.4442292 17.3846154,9.69230769 C17.3846154,9.83945005 17.380484,9.98562747 17.3723309,10.1307303 L15.5152075,8.27227194 C15.1247494,8.19458711 14.7209786,8.15384615 14.3076923,8.15384615 Z" id="path-1"></path>
    </defs>
    <g id="Assets" stroke="none" stroke-width="1" fill="none" fill-rule="evenodd">
        <g id="Desktop-HD-Copy" transform="translate(-368.000000, -268.000000)">
            <g id="Glyph/24Opacity" transform="translate(366.000000, 266.000000)">
                <rect id="Bounding_box" fill="#D8D8D8" fill-rule="evenodd" opacity="0" x="0" y="0" width="24" height="24"></rect>
                <mask id="mask-2" fill="white">
                    <use xlink:href="#path-1"></use>
                </mask>
                <use id="Opacity-Copy" fill="#AEB1B5" fill-rule="nonzero" xlink:href="#path-1"></use>
                <g id="Color/Black" mask="url(#mask-2)" fill="#000000" fill-rule="evenodd">
                    <rect id="Rectangle" x="0" y="0" width="24" height="24"></rect>
                </g>
            </g>
        </g>
    </g>
</svg>