<?xml version="1.0" encoding="UTF-8"?>
<svg width="19px" height="11px" viewBox="0 0 19 11" version="1.1" xmlns="http://www.w3.org/2000/svg" xmlns:xlink="http://www.w3.org/1999/xlink">
    <!-- Generator: Sketch 59 (86127) - https://sketch.com -->
    <title>Glyph/24Watchlist</title>
    <desc>Created with Sketch.</desc>
    <defs>
        <path d="M12.5,7 C15.9978034,7 19.1644701,8.74166667 22,12.225 C19.1644701,15.7083333 15.9978034,17.45 12.5,17.45 C9.00219658,17.45 5.83552992,15.7083333 3,12.225 C5.83552992,8.74166667 9.00219658,7 12.5,7 Z M12.5,8.16111111 C10.2045665,8.16111111 8.34375,9.98057614 8.34375,12.225 C8.34375,14.4694239 10.2045665,16.2888889 12.5,16.2888889 C14.7954335,16.2888889 16.65625,14.4694239 16.65625,12.225 C16.65625,9.98057614 14.7954335,8.16111111 12.5,8.16111111 Z M12.5,10.0814103 C13.7107781,10.0814103 14.6923077,11.0411281 14.6923077,12.225 C14.6923077,13.4088719 13.7107781,14.3685897 12.5,14.3685897 C11.2892219,14.3685897 10.3076923,13.4088719 10.3076923,12.225 C10.3076923,11.0411281 11.2892219,10.0814103 12.5,10.0814103 Z" id="path-1"></path>
    </defs>
    <g id="Assets" stroke="none" stroke-width="1" fill="none" fill-rule="evenodd">
        <g id="Desktop-HD-Copy" transform="translate(-368.000000, -449.000000)">
            <g id="Glyph/24Watchlist" transform="translate(365.000000, 442.000000)">
                <rect id="Bounding_box" fill="#D8D8D8" fill-rule="evenodd" opacity="0" x="0" y="0" width="24" height="24"></rect>
                <mask id="mask-2" fill="white">
                    <use xlink:href="#path-1"></use>
                </mask>
                <use id="Watchlist-Copy" fill="#AEB1B5" fill-rule="nonzero" xlink:href="#path-1"></use>
                <g id="Color/Black" mask="url(#mask-2)" fill="#000000" fill-rule="evenodd">
                    <rect id="Rectangle" x="0" y="0" width="25" height="24"></rect>
                </g>
            </g>
        </g>
    </g>
</svg>