<svg xmlns="http://www.w3.org/2000/svg" width="33" height="14" viewBox="0 0 33 14">
  <path fill-rule="evenodd" d="M33 11.0346598L31.6150179 11.1424904C29.5959476 11.1424904 27.9606675 9.23748395 27.9606675 7.06290116 27.9606675 4.88831836 29.6126341 3.09114249 31.6483909 3.09114249L32.9666269 3.09114249 32.9499404 1.49165597 32.9499404 0 26.7926103 0 24.9070322 0 22.6710369 0C20.6519666 0 19 1.77920411 19 3.95378691L19 4.09756098 19 14 21.7699642 14 21.7699642 7.81771502C22.0536353 7.88960205 22.3706794 7.94351733 22.6710369 7.94351733L24.1394517 7.94351733 24.1394517 5.37355584 23.0214541 5.37355584C22.420739 5.37355584 21.920143 4.83440308 21.920143 4.18741977 21.920143 3.54043646 22.420739 3.0012837 23.0214541 3.0012837L24.9070322 3.0012837 26.4421931 3.0012837C26.2419547 3.0012837 25.8581645 4.27727856 25.7914184 4.47496791 25.624553 5.01412067 25.5578069 5.55327343 25.5244338 6.1283697 25.3909416 7.83568678 25.5744934 9.6508344 26.4588796 11.1065469 27.1764005 12.2926829 28.2777116 13.1912709 29.5292014 13.6405648 30.11323 13.8562259 30.7306317 13.9460847 31.3480334 13.9460847L33 13.9460847 33 11.0346598 33 11.0346598zM7.49203927 7C7.49203927 9.16624041 5.82900813 10.9565217 3.77961622 10.9565217L2.78851686 10.9565217 2.78851686 3.04347826 3.77961622 3.04347826C5.82900813 3.04347826 7.49203927 4.81585678 7.49203927 7L7.49203927 7zM13.3210474 0L12.1451668 0 9.1718687 0 0 0 0 .125319693 0 2.97186701 0 13.9462916 2.50294585 13.9462916 2.78851686 13.9462916 4.08198552 13.9462916C7.30725803 13.9462916 9.94459024 11.1355499 9.94459024 7.69820972L9.94459024 6.39130435C9.94459024 5.13810742 9.59182605 3.95652174 8.98708746 2.97186701L12.1283685 2.97186701 12.9514849 2.97186701C13.5562235 2.97186701 14.0601723 3.50895141 14.0601723 4.15345269 14.0601723 4.79795396 13.5562235 5.33503836 12.9514849 5.33503836L11.8259992 5.33503836 11.8259992 8.55754476 12.9514849 8.55754476C13.5562235 8.55754476 14.0601723 9.09462916 14.0601723 9.73913043 14.0601723 10.3836317 13.5562235 10.9207161 12.9514849 10.9207161L10.6501186 10.9207161 10.6501186 13.9104859C10.8684964 13.9641944 11.0868742 14 11.3220504 14L13.3042491 13.9462916C15.3368427 13.9462916 16.9998738 12.173913 16.9998738 10.0076726 16.9998738 8.80818414 16.4791267 7.71611253 15.6728086 7 16.4791267 6.26598465 16.9998738 5.19181586 16.9998738 3.99232737 17.0166721 1.77237852 15.353641 0 13.3210474 0L13.3210474 0z"/>
</svg>
