<svg xmlns="http://www.w3.org/2000/svg" xmlns:xlink="http://www.w3.org/1999/xlink" width="90" height="25" viewBox="0 0 90 25">
  <defs>
    <polygon id="openfin-a" points="0 .106 24.48 .106 24.48 24.59 0 24.59"/>
  </defs>
  <g fill="none" fill-rule="evenodd" transform="translate(0 .126)">
    <path fill="#FFF" d="M89.8024172,12.0211111 L89.8024172,17.6747396 L87.8180051,17.6747396 L87.8180051,12.41561 C87.8180051,10.3940863 86.5639061,10.0193501 85.7018922,10.0193501 C84.5227706,10.0193501 83.3246407,10.7679173 83.3246407,12.5281515 L83.3246407,17.676399 L81.3400777,17.676399 L81.3400777,8.48178527 L83.1938451,8.48178527 L83.2679174,9.55017561 C83.7921558,8.74563937 84.8596409,8.22049546 86.1135891,8.22049546 C88.3420926,8.2197415 89.8024172,9.49345226 89.8024172,12.0211111 L89.8024172,12.0211111 Z M77.2216004,17.6738344 L79.2069177,17.6738344 L79.2069177,8.48178527 L77.2216004,8.48178527 L77.2216004,17.6738344 Z M76.8853242,5.26137739 C76.8826181,4.53257285 77.4714245,3.93954229 78.2002291,3.93681746 C78.9290336,3.93411134 79.5220642,4.52276696 79.5247891,5.25157149 C79.5274951,5.97856571 78.9418567,6.57084197 78.2148625,6.57612207 C77.4911872,6.58668227 76.8958937,6.00843599 76.8854844,5.28460983 C76.8853242,5.27676511 76.8853242,5.26907125 76.8853242,5.26137739 L76.8853242,5.26137739 Z M73.1421959,7.17277327 L73.1421959,8.48751795 L75.3141269,8.48751795 L75.3141269,10.1311374 L73.1421959,10.1311374 L73.1421959,17.6754939 L71.1389262,17.6754939 L71.1389262,10.1311374 L69.8101516,10.1311374 L69.8101516,8.48751795 L71.1396805,8.48751795 L71.1396805,7.17277327 C71.1396805,4.79552179 72.4692095,3.82237665 74.3035159,3.82237665 C74.6565283,3.82021205 75.0086355,3.85702189 75.3536522,3.93260274 L75.3536522,5.69359122 C73.5910043,5.37391893 73.1421959,6.08552543 73.1421959,7.17277327 L73.1421959,7.17277327 Z M68.7073652,12.0211111 L68.7073652,17.6747396 L66.725216,17.6747396 L66.725216,12.41561 C66.725216,10.3940863 65.4712679,10.0193501 64.609254,10.0193501 C63.4299815,10.0193501 62.2318516,10.7679173 62.2318516,12.5281515 L62.2318516,17.676399 L60.2448749,17.676399 L60.2448749,8.48178527 L62.0987931,8.48178527 L62.1728654,9.55017561 C62.6987632,8.74397991 63.7670027,8.2197415 65.0185371,8.2197415 C67.2470406,8.2197415 68.7073652,9.49345226 68.7073652,12.0211111 L68.7073652,12.0211111 Z M51.5426681,12.4320537 L56.6720581,12.4320537 C56.5783741,10.7276377 55.5863189,9.88448132 54.164011,9.88448132 C52.7012727,9.88448132 51.7274716,10.7884343 51.5410086,12.4320537 L51.5426681,12.4320537 Z M58.6917715,13.8545124 L51.5229055,13.8545124 C51.6733128,15.4831967 52.8524344,16.1948032 54.1812091,16.1948032 C55.3981965,16.1948032 56.2215902,15.5948331 56.6711529,14.6786605 L58.3377031,15.352552 C57.6260966,16.980482 56.0532305,17.9164172 54.1632567,17.9164172 C51.4654278,17.9164172 49.6327808,16.0072843 49.6327808,13.0895015 C49.6327808,10.2248214 51.4292214,8.22140096 54.2009717,8.22140096 C56.9126798,8.22140096 58.6934309,10.1311374 58.6934309,13.0697388 L58.6917715,13.8545124 Z M46.6376069,13.0499762 C46.6376069,11.2149154 45.5521694,10.0167855 43.867516,10.0167855 C42.1828627,10.0167855 41.0776625,11.2149154 41.0776625,13.0499762 C41.0776625,14.884886 42.1821084,16.1018735 43.867516,16.1018735 C45.5529237,16.1018735 46.6376069,14.8841317 46.6376069,13.0499762 L46.6376069,13.0499762 Z M44.2036321,17.9164172 C42.818134,17.9164172 41.5830434,17.3362098 40.9839785,16.3821713 L40.9839785,21.8672891 L39.0742421,21.8672891 L39.0742421,8.48178527 L40.8335711,8.48178527 L40.9272551,9.77359924 C41.4705019,8.85576715 42.6117576,8.2197415 44.147663,8.2197415 C46.8059666,8.2197415 48.5850583,10.0160312 48.622019,12.9743953 C48.677988,16.0640076 46.7871091,17.9164172 44.2036321,17.9164172 L44.2036321,17.9164172 Z M33.1222126,16.1199767 C34.765832,16.1199767 35.8562479,14.8281627 35.8562479,13.0499762 C35.8562479,11.289742 34.7699053,10.0167855 33.1222126,10.0167855 C31.4565676,10.0167855 30.3899876,11.289742 30.3899876,13.0499762 C30.3899876,14.8281627 31.4565676,16.1199767 33.1222126,16.1199767 L33.1222126,16.1199767 Z M33.1222126,8.2197415 C35.9680352,8.2197415 37.8589141,10.2789802 37.8589141,13.0680794 C37.8589141,15.8570277 35.9687895,17.898314 33.1222126,17.898314 C30.2756357,17.898314 28.3865671,15.857782 28.3865671,13.0680794 C28.3865671,10.2782259 30.2765409,8.2197415 33.1222126,8.2197415 L33.1222126,8.2197415 Z"/>
    <mask id="openfin-b" fill="#fff">
      <use xlink:href="#openfin-a"/>
    </mask>
    <path fill="#FFF" d="M23.2859009,9.47365944 C23.1389633,9.32657096 22.9810129,9.19079698 22.8134074,9.06769524 L22.7517057,9.02500187 C22.7164045,9.00041169 22.6820084,8.97491636 22.645802,8.95108048 C22.6095956,8.92724461 22.5676565,8.90174927 22.5290364,8.8779134 L22.4748777,8.84427162 C22.4263007,8.81545737 22.3771204,8.78830257 22.3277892,8.76205293 L22.2989749,8.7463635 C21.7159011,8.44041947 21.0673541,8.28035704 20.4090012,8.27960274 C18.1528902,8.27779242 16.3255234,6.4475592 16.3273337,4.19144828 L16.3273337,4.19054312 C16.3314069,1.93865628 14.5091693,0.109780804 12.2572824,0.105700769 C10.0052447,0.101634365 8.17636925,1.923872 8.17229604,4.1759097 C8.16822282,6.42779655 9.99046045,8.25667202 12.2423473,8.26074524 L12.2432525,8.26074524 C14.4992125,8.26255556 16.3267302,10.0929396 16.3249199,12.3490506 L16.3249199,12.3498049 C16.3231096,14.6059158 14.4927255,16.4332826 12.2366146,16.4314723 L12.2358603,16.4314723 C9.98397347,16.4332826 8.15690832,14.6090838 8.155098,12.357197 L8.155098,12.3498049 C8.155098,10.097918 6.32954144,8.27236146 4.07750374,8.27236146 C1.8256169,8.27236146 6.03439899e-05,10.097918 6.03439899e-05,12.3498049 C6.03439899e-05,14.6016917 1.8256169,16.4273991 4.07750374,16.4273991 C6.32954144,16.4273991 8.155098,18.2528048 8.155098,20.5048425 C8.155098,22.7611043 9.98412433,24.5901306 12.2403861,24.5901306 C14.4966479,24.5901306 16.3256742,22.7611043 16.3256742,20.5048425 C16.3256742,18.2528048 18.1512308,16.4273991 20.4032685,16.4273991 C21.1311679,16.4278517 21.8460933,16.2332423 22.4732182,15.8634845 C22.5275278,15.8316531 22.5809322,15.7978604 22.6375047,15.7633135 L22.6491209,15.7560722 C22.6983013,15.7231847 22.7476325,15.688487 22.7953042,15.6540909 L22.8167264,15.6393066 C22.8594197,15.6080786 22.898945,15.574286 22.9440522,15.5406442 L22.9802586,15.5127351 C23.019633,15.4806019 23.0574989,15.4469601 23.096119,15.4133184 L23.1380581,15.377112 C23.1873893,15.3327591 23.2358154,15.2867468 23.2834871,15.2390751 L23.2908793,15.2325881 C23.4669329,15.0556294 23.6263918,14.863132 23.7674459,14.6572082 C23.7982214,14.6128553 23.8276391,14.5680499 23.8561516,14.5224902 C24.86631,12.9123617 24.6297615,10.8179727 23.2859009,9.47365944" mask="url(#openfin-b)"/>
  </g>
</svg>
