<svg xmlns="http://www.w3.org/2000/svg" width="91" height="22" viewBox="0 0 91 22">
  <g fill="#FFF">
    <path d="M14.7538158 18.1482081C14.7771597 18.1017586 14.8005036 18.1017586 14.8238474 18.1434441L16.2332944 21.344892C16.2518743 21.3822899 16.2473484 21.4056338 16.2051865 21.4056338L15.9019541 21.4056338C15.8600304 21.4056338 15.8459764 21.4008697 15.8319224 21.3634719L15.509872 20.6121797 14.0725553 20.6121797 13.7505048 21.3634719C13.7316868 21.4008697 13.7223969 21.4056338 13.6759473 21.4056338L13.3584228 21.4056338C13.330553 21.4056338 13.3257889 21.3822899 13.3443688 21.3403662L14.7538158 18.1482081zM14.2311984 20.2434415L15.3512288 20.2434415 14.8145575 18.9788219C14.7957395 18.941424 14.7864496 18.941424 14.7723956 18.9738197L14.2311984 20.2434415zM17.5543681 21.4056338C17.4891005 21.4056338 17.4750465 21.3963439 17.4750465 21.3310763L17.4750465 18.185606C17.4750465 18.1574981 17.4798106 18.1389182 17.5076803 18.1389182L17.8109127 18.1389182C17.8623646 18.1389182 17.8716545 18.1574981 17.8716545 18.2041858L17.8716545 20.9997359C17.8716545 21.0230798 17.8764186 21.0230798 17.8949984 21.0230798L18.968341 21.0230798C19.0102647 21.0230798 19.0197928 21.0371338 19.0197928 21.0790575L19.0197928 21.3496561C19.0197928 21.391818 19.0102647 21.4056338 18.968341 21.4056338L17.5543681 21.4056338zM21.022127 21.4056338C20.9847292 21.4056338 20.9754392 21.4008697 20.9754392 21.354182L20.9754392 18.5495802C20.9754392 18.5121823 20.9754392 18.5028924 20.9380414 18.5028924L19.9113866 18.5028924C19.8739887 18.5028924 19.8646988 18.4981283 19.8646988 18.4657327L19.8646988 18.1810802C19.8646988 18.1482081 19.8742269 18.1389182 19.9068607 18.1389182L22.4549179 18.1389182C22.4875517 18.1389182 22.5016057 18.1436823 22.5016057 18.1763161L22.5016057 18.4657327C22.5016057 18.4983665 22.4875517 18.5028924 22.4549179 18.5028924L21.423499 18.5028924C21.3908652 18.5028924 21.3861012 18.5121823 21.3861012 18.5402902L21.3861012 21.344892C21.3861012 21.387054 21.3813371 21.4056338 21.3487033 21.4056338L21.022127 21.4056338zM25.120171 18.0781765C26.0534502 18.0781765 26.8187964 18.8344709 26.8187964 19.7677502 26.8187964 20.7012676 26.0534502 21.4525598 25.120171 21.4525598 24.1773636 21.4525598 23.4167815 20.7012676 23.4167815 19.7677502 23.4165433 18.8342327 24.1773636 18.0781765 25.120171 18.0781765zM25.120171 21.0838216C25.8435934 21.0838216 26.4269525 20.4956984 26.4269525 19.7677502 26.4269525 19.0398019 25.8435934 18.4469147 25.120171 18.4469147 24.3919845 18.4469147 23.8040995 19.0395637 23.8040995 19.7677502 23.8040995 20.4959367 24.3919845 21.0838216 25.120171 21.0838216zM29.7127243 21.0838216C30.0440646 21.0838216 30.3332431 21.0278439 30.5247582 20.9204144L30.5247582 19.8749415C30.5247582 19.8327796 30.5152301 19.8141997 30.4780705 19.8141997L29.5867149 19.8141997C29.5540811 19.8141997 29.5400271 19.7999076 29.5400271 19.7627479L29.5400271 19.501201C29.5400271 19.4685672 29.5681351 19.4499874 29.5960048 19.4499874L30.8420446 19.4499874C30.9073122 19.4499874 30.9166021 19.4640414 30.9166021 19.5107292L30.9166021 21.0881092C30.9166021 21.148851 30.9118381 21.1626668 30.8513345 21.1953006 30.557392 21.3446538 30.1140963 21.4520834 29.6893804 21.4520834 28.7513371 21.4473193 28.0045708 20.7565307 28.0045708 19.7672738 28.0045708 18.7780168 28.7699169 18.0777001 29.7265401 18.0777001 30.1233862 18.0777001 30.4873604 18.1758397 30.8046467 18.3437728 30.8420446 18.3623526 30.8558604 18.3764066 30.8558604 18.4138045L30.8558604 18.6939312C30.8558604 18.726565 30.8325165 18.7451448 30.7813028 18.7079851 30.5199942 18.549342 30.1467301 18.4464383 29.7265401 18.4464383 28.9423759 18.4464383 28.4059428 19.0390873 28.4059428 19.7672738 28.4059428 20.4954602 28.9893019 21.0838216 29.7127243 21.0838216zM32.6111781 18.1763161C32.6111781 18.1434441 32.6252321 18.1389182 32.6531018 18.1389182L34.2633539 18.1389182C34.3100417 18.1389182 34.3238575 18.1482081 34.3238575 18.1810802L34.3238575 18.4562046C34.3238575 18.4936025 34.3190934 18.5028924 34.2726438 18.5028924L33.0125501 18.5028924C33.007786 18.5028924 33.0032602 18.5028924 33.0032602 18.5121823L33.0032602 19.5250213C33.0032602 19.5343112 33.0032602 19.5390753 33.0173142 19.5390753L34.2821719 19.5390753C34.3102799 19.5390753 34.3240957 19.5576551 34.3240957 19.595053L34.3240957 19.8282537C34.3240957 19.8889955 34.3100417 19.9028112 34.2774079 19.9028112L33.02184 19.9028112C33.007786 19.9028112 33.0032602 19.9075753 33.0032602 19.9213911L33.0032602 21.0276057C33.0032602 21.0368956 33.0080242 21.0416597 33.0173142 21.0416597L34.2866978 21.0416597C34.3240957 21.0416597 34.3240957 21.0650036 34.3240957 21.1116913L34.3240957 21.344892C34.3240957 21.3822899 34.3055158 21.4056338 34.2635921 21.4056338L32.6628681 21.4056338C32.6254703 21.4056338 32.6114163 21.4008697 32.6114163 21.358946L32.6114163 18.1763161 32.6111781 18.1763161zM36.7699638 21.4056338C36.7325659 21.4056338 36.723276 21.4008697 36.723276 21.354182L36.723276 18.5495802C36.723276 18.5121823 36.723276 18.5028924 36.6858782 18.5028924L35.6592233 18.5028924C35.6218255 18.5028924 35.6125356 18.4981283 35.6125356 18.4657327L35.6125356 18.1810802C35.6125356 18.1482081 35.6220637 18.1389182 35.6546975 18.1389182L38.2027547 18.1389182C38.2353885 18.1389182 38.2494425 18.1436823 38.2494425 18.1763161L38.2494425 18.4657327C38.2494425 18.4983665 38.2353885 18.5028924 38.2027547 18.5028924L37.1713358 18.5028924C37.138702 18.5028924 37.1339379 18.5121823 37.1339379 18.5402902L37.1339379 21.344892C37.1339379 21.387054 37.1291739 21.4056338 37.0965401 21.4056338L36.7699638 21.4056338zM39.6684176 21.4056338C39.6310197 21.4056338 39.6169657 21.3963439 39.6169657 21.3634719L39.6169657 18.1901319C39.6169657 18.1479699 39.6310197 18.13868 39.6636535 18.13868L39.97165 18.13868C39.9997579 18.13868 40.0135737 18.152734 40.0135737 18.180842L40.0135737 19.5250213C40.0135737 19.5390753 40.0135737 19.5436012 40.0228636 19.5436012L41.4835242 19.5436012C41.4975782 19.5436012 41.5023423 19.5343112 41.5023423 19.5202573L41.5023423 18.180842C41.5023423 18.152734 41.5209221 18.13868 41.5535559 18.13868L41.8429725 18.13868C41.8848963 18.13868 41.8989502 18.166788 41.8989502 18.1994218L41.8989502 21.358946C41.8989502 21.387054 41.8848963 21.4056338 41.8567883 21.4056338L41.5676099 21.4056338C41.516158 21.4056338 41.5023423 21.3915798 41.5023423 21.344892L41.5023423 19.9402091C41.5023423 19.9216293 41.4930524 19.9123394 41.4742343 19.9123394L40.0273895 19.9123394C40.0180995 19.9123394 40.0133355 19.9171034 40.0133355 19.9263933L40.0133355 21.3544202C40.0133355 21.391818 39.9992815 21.405872 39.9666477 21.405872L39.6684176 21.405872 39.6684176 21.4056338zM43.4956248 18.1763161C43.4956248 18.1434441 43.5096787 18.1389182 43.5375485 18.1389182L45.1478006 18.1389182C45.1944884 18.1389182 45.2085423 18.1482081 45.2085423 18.1810802L45.2085423 18.4562046C45.2085423 18.4936025 45.2037783 18.5028924 45.1570905 18.5028924L43.8969968 18.5028924C43.8922327 18.5028924 43.8877069 18.5028924 43.8877069 18.5121823L43.8877069 19.5250213C43.8877069 19.5343112 43.8877069 19.5390753 43.9017608 19.5390753L45.1666186 19.5390753C45.1947266 19.5390753 45.2087805 19.5576551 45.2087805 19.595053L45.2087805 19.8282537C45.2087805 19.8889955 45.1947266 19.9028112 45.1620928 19.9028112L43.9065249 19.9028112C43.8924709 19.9028112 43.8879451 19.9075753 43.8879451 19.9213911L43.8879451 21.0276057C43.8879451 21.0368956 43.8927091 21.0416597 43.901999 21.0416597L45.1713827 21.0416597C45.2087805 21.0416597 45.2087805 21.0650036 45.2087805 21.1116913L45.2087805 21.344892C45.2087805 21.3822899 45.1902007 21.4056338 45.1480388 21.4056338L43.5473148 21.4056338C43.5099169 21.4056338 43.495863 21.4008697 43.495863 21.358946L43.495863 18.1763161 43.4956248 18.1763161zM47.4626571 18.13868C48.3680666 18.13868 48.6481933 18.4888384 48.6481933 19.0486154 48.6481933 19.4826212 48.4893119 19.8187256 48.0507802 19.9587889L49.1801005 21.3446538C49.1986803 21.3682359 49.2034444 21.4053956 49.1522308 21.4053956L48.7832544 21.4053956C48.7460947 21.4053956 48.7320407 21.3913416 48.708935 21.3632337L47.6167744 20.0285824 47.1780045 20.0285824C47.1313167 20.0285824 47.1265527 20.0426364 47.1265527 20.0797961L47.1265527 21.3491797C47.1265527 21.3820517 47.1217886 21.4051574 47.084629 21.4051574L46.7813966 21.4051574C46.7442369 21.4051574 46.7347088 21.3911034 46.7347088 21.3491797L46.7347088 18.1948959C46.7347088 18.1482081 46.7535268 18.1389182 46.7906865 18.1389182L47.4626571 18.1389182 47.4626571 18.13868zM47.1265527 19.6136328C47.1265527 19.6603206 47.1313167 19.6696105 47.1732405 19.6696105L47.4764729 19.6696105C47.9945643 19.6696105 48.2372931 19.4921493 48.2372931 19.0814874 48.2372931 18.6612973 47.9850362 18.5026542 47.4717088 18.5026542L47.1777663 18.5026542C47.1310785 18.5026542 47.1263145 18.5074182 47.1263145 18.554106L47.1263145 19.6136328 47.1265527 19.6136328zM53.5068193 21.4525598C53.2128769 21.4525598 52.9282243 21.3872922 52.7555271 21.2986807 52.7136034 21.2750986 52.7090776 21.2612828 52.7090776 21.2241231L52.7090776 20.9254166C52.7090776 20.8973087 52.7324215 20.8925446 52.7602912 20.9065986 52.9425165 21.032608 53.1990611 21.1026396 53.4279741 21.1026396 53.8993778 21.1026396 54.1325785 20.9065986 54.1325785 20.5238064 54.1325785 20.0524027 53.7404964 19.9078135 53.3858122 19.7491703 53.0356538 19.5905271 52.7417114 19.3804321 52.7417114 18.8623407 52.7417114 18.390937 53.0497078 18.0924686 53.623777 18.0924686 53.9084295 18.0924686 54.1463943 18.1574981 54.2957476 18.2418219 54.3238555 18.2604017 54.3331454 18.2789816 54.3331454 18.3068513L54.3331454 18.5962679C54.3331454 18.61985 54.3050375 18.6291399 54.2864577 18.615086 54.1278145 18.5028924 53.9410633 18.4328607 53.6938087 18.4328607 53.3064906 18.4328607 53.1385575 18.6103219 53.1385575 18.8854463 53.1385575 19.2263148 53.4091561 19.3427961 53.7266807 19.4921493 54.0951807 19.6650847 54.5153707 19.8749415 54.5153707 20.5142783 54.5151325 21.1724331 54.0997065 21.4525598 53.5068193 21.4525598zM58.7015498 21.4056338C58.6641519 21.4056338 58.654862 21.3963439 58.654862 21.344892L58.654862 19.0581435C58.654862 19.0252715 58.6315181 19.0300356 58.6129383 19.0531412L57.5162518 20.346107C57.469564 20.3973206 57.4416942 20.3973206 57.4042964 20.3553969L56.3028458 19.0581435C56.2747379 19.0300356 56.251394 19.0393255 56.251394 19.0907773L56.251394 21.354182C56.251394 21.3963439 56.2466299 21.4056338 56.2142343 21.4056338L55.9248177 21.4056338C55.8781299 21.4056338 55.86884 21.3915798 55.86884 21.3496561L55.86884 18.152734C55.86884 18.1108103 55.9062379 18.1155743 55.9202919 18.1293901L57.4138245 19.8189638C57.4509842 19.8654134 57.4650381 19.8654134 57.4979101 19.8330178L58.9723866 18.152734C59.0097844 18.1108103 59.0378924 18.1293901 59.0378924 18.171552L59.0378924 21.358946C59.0378924 21.391818 59.0331283 21.4056338 59.0004945 21.4056338L58.7015498 21.4056338 58.7015498 21.4056338zM61.6142957 18.1482081C61.6376396 18.1017586 61.6607453 18.1017586 61.6843274 18.1434441L63.0937744 21.344892C63.1123542 21.3822899 63.1078284 21.4056338 63.0659047 21.4056338L62.7626723 21.4056338C62.7205103 21.4056338 62.7064564 21.4008697 62.6924024 21.3634719L62.370352 20.6121797 60.9330352 20.6121797 60.6107466 21.3634719C60.5921668 21.4008697 60.5828769 21.4056338 60.5364273 21.4056338L60.2189027 21.4056338C60.191033 21.4056338 60.1862689 21.3822899 60.2048487 21.3403662L61.6142957 18.1482081zM61.0914402 20.2434415L62.2114706 20.2434415 61.6747993 18.9788219C61.6559813 18.941424 61.6466913 18.941424 61.6326374 18.9738197L61.0914402 20.2434415zM65.1568504 18.13868C66.0622599 18.13868 66.3423866 18.4888384 66.3423866 19.0486154 66.3423866 19.4826212 66.1835052 19.8187256 65.7449735 19.9587889L66.8742938 21.3446538C66.8928736 21.3682359 66.8976377 21.4053956 66.846424 21.4053956L66.4774476 21.4053956C66.440288 21.4053956 66.426234 21.3913416 66.4031283 21.3632337L65.3109677 20.0285824 64.8721978 20.0285824C64.82551 20.0285824 64.820746 20.0426364 64.820746 20.0797961L64.820746 21.3491797C64.820746 21.3820517 64.8159819 21.4051574 64.7788222 21.4051574L64.4755899 21.4051574C64.4384302 21.4051574 64.4289021 21.3911034 64.4289021 21.3491797L64.4289021 18.1948959C64.4289021 18.1482081 64.4477201 18.1389182 64.4848798 18.1389182L65.1568504 18.1389182 65.1568504 18.13868zM64.820746 19.6136328C64.820746 19.6603206 64.82551 19.6696105 64.8674337 19.6696105L65.1706661 19.6696105C65.6887576 19.6696105 65.9314864 19.4921493 65.9314864 19.0814874 65.9314864 18.6612973 65.6792295 18.5026542 65.1659021 18.5026542L64.8719596 18.5026542C64.8252718 18.5026542 64.8205078 18.5074182 64.8205078 18.554106L64.8205078 19.6136328 64.820746 19.6136328zM68.8208885 21.4056338C68.7834906 21.4056338 68.7742007 21.4008697 68.7742007 21.354182L68.7742007 18.5495802C68.7742007 18.5121823 68.7742007 18.5028924 68.7368028 18.5028924L67.710148 18.5028924C67.6727502 18.5028924 67.6634602 18.4981283 67.6634602 18.4657327L67.6634602 18.1810802C67.6634602 18.1482081 67.6727502 18.1389182 67.7056222 18.1389182L70.2536794 18.1389182C70.2865514 18.1389182 70.3003672 18.1436823 70.3003672 18.1763161L70.3003672 18.4657327C70.3003672 18.4983665 70.2863132 18.5028924 70.2536794 18.5028924L69.2222605 18.5028924C69.1893885 18.5028924 69.1848626 18.5121823 69.1848626 18.5402902L69.1848626 21.344892C69.1848626 21.387054 69.1800986 21.4056338 69.147703 21.4056338L68.8208885 21.4056338zM71.5838048 18.1763161C71.5838048 18.1434441 71.5978588 18.1389182 71.6259667 18.1389182L73.2359806 18.1389182C73.2826684 18.1389182 73.2967224 18.1482081 73.2967224 18.1810802L73.2967224 18.4562046C73.2967224 18.4936025 73.2919583 18.5028924 73.2452705 18.5028924L71.985415 18.5028924C71.9806509 18.5028924 71.9761251 18.5028924 71.9761251 18.5121823L71.9761251 19.5250213C71.9761251 19.5343112 71.9761251 19.5390753 71.9901791 19.5390753L73.2547986 19.5390753C73.2829066 19.5390753 73.2969606 19.5576551 73.2969606 19.595053L73.2969606 19.8282537C73.2969606 19.8889955 73.2829066 19.9028112 73.2502728 19.9028112L71.9949431 19.9028112C71.9808891 19.9028112 71.9763633 19.9075753 71.9763633 19.9213911L71.9763633 21.0276057C71.9763633 21.0368956 71.9811273 21.0416597 71.9904173 21.0416597L73.2595627 21.0416597C73.2969606 21.0416597 73.2969606 21.0650036 73.2969606 21.1116913L73.2969606 21.344892C73.2969606 21.3822899 73.2783807 21.4056338 73.2362188 21.4056338L71.6354948 21.4056338C71.598097 21.4056338 71.584043 21.4008697 71.584043 21.358946L71.584043 18.1763161 71.5838048 18.1763161zM75.4579379 18.13868C76.3633474 18.13868 76.6434741 18.4888384 76.6434741 19.0486154 76.6434741 19.4826212 76.4845928 19.8187256 76.0460611 19.9587889L77.1751432 21.3446538C77.193723 21.3682359 77.1987253 21.4053956 77.1472734 21.4053956L76.7785352 21.4053956C76.7411374 21.4053956 76.7270834 21.3913416 76.7039777 21.3632337L75.6120553 20.0285824 75.1732854 20.0285824C75.1265976 20.0285824 75.1218335 20.0426364 75.1218335 20.0797961L75.1218335 21.3491797C75.1218335 21.3820517 75.1170695 21.4051574 75.0796716 21.4051574L74.7764392 21.4051574C74.7392796 21.4051574 74.7299897 21.3911034 74.7299897 21.3491797L74.7299897 18.1948959C74.7299897 18.1482081 74.7485695 18.1389182 74.7857292 18.1389182L75.4579379 18.1389182 75.4579379 18.13868zM75.1218335 19.6136328C75.1218335 19.6603206 75.1265976 19.6696105 75.1685213 19.6696105L75.4717537 19.6696105C75.989607 19.6696105 76.2323358 19.4921493 76.2323358 19.0814874 76.2323358 18.6612973 75.9800789 18.5026542 75.4669897 18.5026542L75.1730472 18.5026542C75.1263594 18.5026542 75.1215953 18.5074182 75.1215953 18.554106L75.1215953 19.6136328 75.1218335 19.6136328zM2.3315307 7.76303491C1.34060633 7.76303491.726757272 7.48290821.50070265 7.35356399.296086296 7.11679024.156022948 6.34143956.156022948 5.60896542.231295087 5.46914027.47902618 5.45818293.565255656 5.57656981.780591144 6.27664835 1.50234615 7.26757272 2.41752198 7.26757272 3.21454913 7.26757272 3.5806671 6.71827666 3.5806671 6.17993794 3.5806671 5.30763866 2.76220168 4.7907382 2.11619522 4.46773497 1.34084454 4.07994053.489983516 3.43369586.489983516 2.36773756.479264383 1.15075856 1.42707401.310616677 2.98849451.310616677 3.34389334.310616677 3.78552165.353969619 4.21619263.48307563 4.35601778.526190368 4.45320459.547628636 4.5823106.569066904 4.66830187.806078862 4.77596962 1.38777052 4.77596962 2.10928733 4.72213575 2.23839334 4.45296639 2.24935068 4.35601778 2.14168293 4.17283969 1.59238688 3.71001131.806317065 2.93442243.806317065 2.22362476.806317065 1.83583032 1.26938365 1.83583032 1.80796057 1.83583032 2.30318455 2.27745863 2.7557702 2.81579735 3.03542049L3.52659502 3.4124958C4.19427796 3.76789463 5.04513902 4.39246283 5.04513902 5.57704622 5.04537718 6.90145475 3.9575042 7.76303491 2.3315307 7.76303491zM14.54515.590505171C14.54515.784164189 14.5775456 1.64598255 14.674256 2.27055074 14.6311412 2.39989496 14.3405336 2.4430097 14.2650233 2.34582288 13.9741774 1.34441758 13.2850562.805840659 12.240298.805840659 11.0447573.805840659 9.76346348 1.82892243 9.76346348 3.97203458 9.76346348 6.11514674 11.0018807 7.26757272 12.2941319 7.26757272 13.5973403 7.26757272 14.2002321 6.33048222 14.4910779 5.59824628 14.5773074 5.51225501 14.8357576 5.54441241 14.9003106 5.67351842 14.8250385 6.47054557 14.6418604 7.11679024 14.4910779 7.36452133 13.9096244 7.52602295 13.1449929 7.76303491 12.304851 7.76303491 11.2493736 7.76303491 10.172458 7.51530381 9.40782644 6.94433129 8.63247576 6.35215869 8.04006496 5.45818293 8.04006496 4.12257886 8.04006496 2.80865126 8.60008016 1.8827563 9.34327343 1.26890724 10.107905.633381707 11.2062589.310378474 12.3262893.310378474 13.4251196.310378474 14.2221467.568828701 14.54515.590505171zM25.3802886 4.00443019C25.3802886 6.35215869 23.8079108 7.76303491 21.4925779 7.76303491 19.3277893 7.76303491 17.7556496 6.34143956 17.7556496 4.09065966 17.7556496 1.95826665 19.3494657.310378474 21.6004838.310378474 23.8403064.310378474 25.3802886 1.8182033 25.3802886 4.00443019zM21.5140162.805840659C20.1893694.805840659 19.4785718 2.04425792 19.4785718 3.84292857 19.4785718 5.15685617 19.9416383 7.26757272 21.696956 7.26757272 23.1078323 7.26757272 23.6571283 5.88909211 23.6571283 4.14449354 23.6571283 2.30270814 22.8496202.805840659 21.5140162.805840659zM30.7127004 1.29034551C30.7127004 1.03189528 30.7127004.978061409 30.4542502.978061409L29.7865672.978061409C29.0004974.978061409 28.7742046 1.40897059 28.4512014 2.1948022 28.3220953 2.2593552 28.1172408 2.23791694 28.0526878 2.09809179 28.2787424 1.35489851 28.3325763.687215579 28.4080866.267025533 28.4512014.234629929 28.5050352.213191661 28.5588691.213191661 28.612703.213191661 28.6665368.223910795 28.7096516.256306399 28.7634855.439484486 28.7958811.482361021 29.6143465.482361021L33.6206823.482361021C34.33148.482361021 34.4929816.471641888 34.5899302.245587266 34.6330449.223910795 34.6652023.213191661 34.7299935.213191661 34.7945465.213191661 34.8700569.256306399 34.8914952.288463801 34.7838274.654581771 34.7083171 1.52688106 34.7299935 2.14073012 34.6761597 2.23744053 34.3853138 2.259117 34.33148 2.17312573 34.1483019 1.48376632 33.9975194.977585003 33.1900113.977585003L32.5437666.977585003C32.2853164.977585003 32.2529208 1.00998061 32.2529208 1.2898691L32.2529208 6.03915999C32.2529208 7.04080349 32.3174738 7.12679476 32.8022169 7.19158597L33.2328878 7.24565805C33.30816 7.31021105 33.30816 7.55794215 33.2328878 7.62249515 32.5330475 7.60081868 31.9944706 7.59009955 31.5097275 7.59009955 30.9928271 7.59009955 30.4328119 7.60081868 29.6788995 7.62249515 29.5929082 7.55794215 29.5929082 7.30997285 29.6788995 7.24565805L30.1636425 7.19158597C30.6483856 7.1377521 30.7129386 7.04080349 30.7129386 6.03915999L30.7129386 1.29034551 30.7127004 1.29034551zM40.2231923 1.29034551C40.2231923 1.03189528 40.2231923.978061409 39.9647421.978061409L39.2970591.978061409C38.5109893.978061409 38.2846965 1.40897059 37.9616933 2.1948022 37.8325873 2.2593552 37.6277327 2.23791694 37.5631797 2.09809179 37.7892343 1.35489851 37.8430682.687215579 37.9185785.267025533 37.9616933.234629929 38.0155271.213191661 38.069361.213191661 38.1231949.213191661 38.1770288.223910795 38.2201435.256306399 38.2739774.439484486 38.306373.482361021 39.1248384.482361021L43.1311742.482361021C43.8419719.482361021 44.0034735.471641888 44.1004221.245587266 44.1435368.223910795 44.1756942.213191661 44.2404855.213191661 44.3050385.213191661 44.3805488.256306399 44.4019871.288463801 44.2943193.654581771 44.218809 1.52688106 44.2404855 2.14073012 44.1866516 2.23744053 43.8958058 2.259117 43.8419719 2.17312573 43.6587938 1.48376632 43.5082495.977585003 42.7005032.977585003L42.0542586.977585003C41.7958083.977585003 41.7634127 1.00998061 41.7634127 1.2898691L41.7634127 6.03915999C41.7634127 7.04080349 41.8279657 7.12679476 42.3127088 7.19158597L42.7433798 7.24565805C42.8188901 7.31021105 42.8188901 7.55794215 42.7433798 7.62249515 42.0435394 7.60081868 41.5049625 7.59009955 41.0202195 7.59009955 40.503319 7.59009955 39.9433038 7.60081868 39.1893914 7.62249515 39.1034001 7.55794215 39.1034001 7.30997285 39.1893914 7.24565805L39.6741345 7.19158597C40.1588775 7.1377521 40.2234305 7.04080349 40.2234305 6.03915999L40.2234305 1.29034551 40.2231923 1.29034551zM50.7960695 2.09832999C50.7960695.967342275 50.7746312.795121526 50.0962292.741287654L49.8270598.719849386C49.7625068.676496445 49.7837069.482837427 49.8484981.450441823 50.451628.472118293 50.817746.482837427 51.2486551.482837427 51.668607.482837427 52.034725.472118293 52.5735401.450441823 52.6380931.482837427 52.6595314.676496445 52.5949783.719849386L52.3365281.741287654C51.7012408.795359729 51.6795643.967342275 51.6795643 2.09832999L51.6795643 5.84597738C51.6795643 6.52461765 51.7119599 6.80426794 51.9056189 7.0091225 52.0240058 7.12750937 52.2286222 7.25685359 53.0797214 7.25685359 53.9948972 7.25685359 54.22119 7.21373885 54.393649 7.11679024 54.6089845 6.98744602 54.8891112 6.59988979 55.1042085 6.05059373 55.1687615 5.99652165 55.3733778 6.03963639 55.3733778 6.11514674 55.3733778 6.23377182 55.0718129 7.33212573 54.9212686 7.62297156 54.3719725 7.60129509 53.3488908 7.59057595 52.2395795 7.59057595L51.2488933 7.59057595C50.7965459 7.59057595 50.4518662 7.60129509 49.8487363 7.62297156 49.7841833 7.59057595 49.762745 7.4183552 49.827298 7.35356399L50.150063 7.32140659C50.7748694 7.25685359 50.7963077 7.10607111 50.7963077 5.97508339L50.7963077 2.09832999 50.7960695 2.09832999zM57.7973313 4.11209793C57.7973313 1.95826665 59.4125856.310378474 61.6314463.310378474 64.119.310378474 65.3683746 2.10904913 65.3683746 4.00443019 65.3683746 6.17993794 63.7097673 7.76303491 61.6314463 7.76303491 59.2406031 7.76303491 57.7973313 6.05059373 57.7973313 4.11209793zM64.2912207 4.33815255C64.2912207 2.56115837 63.5051509.644339043 61.4480301.644339043 60.3282379.644339043 58.8742469 1.40897059 58.8742469 3.76741823 58.8742469 5.36123432 59.6493594 7.42907434 61.7710333 7.42907434 63.0637608 7.42907434 64.2912207 6.45982644 64.2912207 4.33815255zM74.5561015 6.49222204C74.5561015 6.92313122 74.6206545 7.18158145 74.8145517 7.25685359 74.8469473 7.28924919 74.8469473 7.35356399 74.8038326 7.3859596 74.6744884 7.3859596 74.4808293 7.42931254 74.2759748 7.48290821 73.7052405 7.63369069 72.9298898 7.76303491 72.3481981 7.76303491 71.0664279 7.76303491 69.8925637 7.40763607 69.0636173 6.56749418 68.4173727 5.92124952 68.072693 5.0706267 68.072693 4.12257886 68.072693 3.20716484 68.3742579 2.28126988 69.0419409 1.570234 69.7634577.81632159 70.8296542.310140271 72.4558659.310140271 73.0697149.310140271 73.6406875.428765352 73.8233891.47188009 74.0280055.514994829 74.3622043.590266968 74.4913103.568590498 74.4913103.923989334 74.5558633 1.48424273 74.6530501 2.13024919 74.6204163 2.21647867 74.4269955 2.2271978 74.3622043 2.1626448 74.0604011.999499677 73.252893.633381707 72.1540627.633381707 70.0647844.633381707 69.1496086 2.11953006 69.1496086 3.73502262 69.1496086 5.80286264 70.2158051 7.42907434 72.3803555 7.42907434 73.0482767 7.42907434 73.446552 7.28901099 73.5651771 7.10607111 73.619011 7.03079897 73.6726067 6.83666354 73.6726067 6.49222204L73.6726067 6.06131286C73.6726067 5.15661797 73.6404493 5.09206496 72.9727663 5.01655462L72.4989806 4.96272075C72.4129893 4.91936781 72.4237085 4.72570879 72.4989806 4.69331319 72.8115029 4.71498966 73.4036755 4.72570879 74.0389628 4.72570879 74.4591529 4.72570879 74.8252708 4.71498966 75.1806697 4.69331319 75.2559418 4.73642793 75.266661 4.89792954 75.1913888 4.96272075L75.0191681 4.98415902C74.5668206 5.03823109 74.5561015 5.33955785 74.5561015 5.88885391L74.5561015 6.49222204 74.5561015 6.49222204zM79.1448436 2.11953006C79.1448436.978061409 79.1234053.794883323 78.4878798.741049451L78.2187104.719611183C78.1541574.676258242 78.1755957.482599224 78.2403869.45020362 78.7787256.47188009 79.1448436.482599224 79.597191.482599224 80.0281002.482599224 80.3942182.47188009 80.9325569.45020362 80.9971099.482599224 81.0185482.676258242 80.9539952.719611183L80.6848258.741049451C80.0495385.795121526 80.027862.978061409 80.027862 2.11953006L80.027862 5.95364512C80.027862 7.09511377 80.0495385 7.24613445 80.6848258 7.32140659L80.9539952 7.35356399C81.0185482 7.39691694 80.9973481 7.59057595 80.9325569 7.62297156 80.39398 7.60129509 80.027862 7.59057595 79.597191 7.59057595 79.1448436 7.59057595 78.7784874 7.60129509 78.2403869 7.62297156 78.1758339 7.59057595 78.1541574 7.4183552 78.2187104 7.35356399L78.4878798 7.32140659C79.1234053 7.24613445 79.1448436 7.09511377 79.1448436 5.95364512L79.1448436 2.11953006zM85.0582324 1.2257925C85.8445404.611943439 86.8461839.310140271 87.9659761.310140271 88.5474295.310140271 89.3661332.428765352 89.8723145.568590498 90.0014205.600986102 90.0769308.622662573 90.1741176.611943439 90.1848368.859436328 90.2386707 1.5380766 90.3249001 2.1950404 90.2708281 2.27031254 90.1095646 2.28126988 90.0340543 2.21671687 89.8723145 1.48448093 89.3878096.644339043 87.8261509.644339043 86.178501.644339043 84.7783439 1.68885908 84.7783439 3.91820071 84.7783439 6.17969974 86.2106584 7.42907434 87.9769334 7.42907434 89.3661332 7.42907434 89.9799822 6.52437944 90.2277133 5.88885391 90.3029855 5.83502004 90.4647253 5.85645831 90.5076018 5.93196865 90.4323297 6.49222204 90.1524412 7.20278151 89.9907014 7.40739787 89.8615953 7.42907434 89.7324893 7.47195087 89.6138643 7.51506561 89.3770905 7.60105688 88.6015016 7.7627967 87.9121422 7.7627967 86.9428943 7.7627967 86.0167612 7.56889948 85.2304531 7.0412799 84.3691112 6.4491073 83.70119 5.46890207 83.70119 4.07946412 83.70119 2.8841616 84.239767 1.86107983 85.0582324 1.2257925z"/>
    <rect width="90.48" height="1" x=".169" y="12.646"/>
  </g>
</svg>
