<?xml version="1.0" encoding="UTF-8"?>
<svg width="26px" height="26px" viewBox="0 0 26 26" version="1.1" xmlns="http://www.w3.org/2000/svg" xmlns:xlink="http://www.w3.org/1999/xlink">
    <!-- Generator: Sketch 58 (84663) - https://sketch.com -->
    <title>Glyph_Opacity</title>
    <desc>Created with Sketch.</desc>
    <defs>
        <path d="M12,2 C16.3272914,2 20.0126181,4.74857805 21.4053948,8.59514911 C25.251422,9.98738195 28,13.6727086 28,18 C28,23.5228475 23.5228475,28 18,28 C13.6727086,28 9.98738195,25.251422 8.59460516,21.4048509 C4.74857805,20.0126181 2,16.3272914 2,12 C2,6.4771525 6.4771525,2 12,2 Z M18,10 C17.5549283,10 17.1183455,10.0363451 16.6930576,10.1062292 L21.552562,14.9667977 C21.3863736,15.5024849 21.1763656,16.0188917 20.9267286,16.5118276 L14.9970381,10.5827167 C14.3488743,10.8453901 13.742959,11.1905567 13.1923151,11.6051936 L19.8198085,18.2336298 C19.4995785,18.6348157 19.1491203,19.0108122 18.7718832,19.35817 L12.0575965,12.6437976 C11.6042587,13.1464291 11.2137859,13.7068641 10.8985682,14.3127123 L17.1555243,20.5703261 C16.6949406,20.8479883 16.2101521,21.0895716 15.705072,21.2911628 L10.2859047,15.8727853 C10.099541,16.5501288 10,17.2634399 10,18 C10,18.1431021 10.0037573,18.2853267 10.0111787,18.4265804 L13.4769063,21.8916958 C12.9949524,21.9630407 12.5017923,22 12,22 C11.677498,22 11.3585616,21.9847335 11.0438742,21.9548836 C12.4204762,24.3705836 15.0199528,26 18,26 C22.418278,26 26,22.418278 26,18 C26,15.0199528 24.3705836,12.4204762 21.9540743,11.0438937 C21.9847335,11.3585616 22,11.677498 22,12 C22,12.1912851 21.9946292,12.3813157 21.9840302,12.5699494 L19.5697698,10.1539535 C19.0621742,10.0529632 18.5372722,10 18,10 Z" id="path-1"></path>
    </defs>
    <g id="Screen" stroke="none" stroke-width="1" fill="none" fill-rule="evenodd">
        <g id="Desktop-HD-Copy" transform="translate(-449.000000, -363.000000)">
            <g id="Glyph_Opacity" transform="translate(447.000000, 361.000000)">
                <rect id="Bounding_box" fill="#D8D8D8" opacity="0" x="0" y="0" width="30" height="30"></rect>
                <mask id="mask-2" fill="white">
                    <use xlink:href="#path-1"></use>
                </mask>
                <use id="Opacity-Copy" fill="#000000" fill-rule="nonzero" xlink:href="#path-1"></use>
            </g>
        </g>
    </g>
</svg>