<svg xmlns="http://www.w3.org/2000/svg" width="22" height="22" viewBox="0 0 22 22">
  <path fill="#C5D2DD" fill-rule="evenodd" d="M5.5,0 C8.53756612,0 11,2.46243388 11,5.5 C11,8.53756612 8.53756612,11 5.5,11 C2.46243388,11 0,8.53756612 0,5.5 C0,2.46243388 2.46243388,0 5.5,0 Z M5.5,1.26923077 C3.16341067,1.26923077 1.26923077,3.16341067 1.26923077,5.5 C1.26923077,7.83658933 3.16341067,9.73076923 5.5,9.73076923 C7.83658933,9.73076923 9.73076923,7.83658933 9.73076923,5.5 C9.73076923,3.16341067 7.83658933,1.26923077 5.5,1.26923077 Z M5.5,2.37675282 C5.8504884,2.37675282 6.13461538,2.6608798 6.13461538,3.0113682 L6.13461538,3.0113682 L6.134,4.865 L7.9886318,4.86538462 C8.30725762,4.86538462 8.57103929,5.10020031 8.61636632,5.40622119 L8.62324718,5.5 C8.62324718,5.8504884 8.3391202,6.13461538 7.9886318,6.13461538 L7.9886318,6.13461538 L6.134,6.134 L6.13461538,7.9886318 C6.13461538,8.30725762 5.89979969,8.57103929 5.59377881,8.61636632 L5.5,8.62324718 C5.1495116,8.62324718 4.86538462,8.3391202 4.86538462,7.9886318 L4.86538462,7.9886318 L4.865,6.134 L3.0113682,6.13461538 C2.69274238,6.13461538 2.42896071,5.89979969 2.38363368,5.59377881 L2.37675282,5.5 C2.37675282,5.1495116 2.6608798,4.86538462 3.0113682,4.86538462 L3.0113682,4.86538462 L4.865,4.865 L4.86538462,3.0113682 C4.86538462,2.69274238 5.10020031,2.42896071 5.40622119,2.38363368 Z" transform="rotate(45 1.61 14.89)"/>
</svg>