<svg xmlns="http://www.w3.org/2000/svg" width="22" height="22" viewBox="0 0 22 22">
  <g fill="none" fill-rule="evenodd">
    <path fill="#C5D2DD" d="M17.4323057,10.6476251 C17.6046634,10.8596595 17.5985803,11.1651937 17.4179195,11.3701996 C15.2952123,13.7789535 13.1569125,15.0083291 10.9999998,15.0083291 C8.83831148,15.0083291 6.69880589,13.7381212 4.57625634,11.2509505 C4.39757537,11.0415749 4.39779748,10.7333167 4.57678001,10.5241988 C6.54605901,8.22335154 8.68186204,7.03167615 10.9712983,6.99258192 C13.2765938,6.95321688 15.4344861,8.18990808 17.4323057,10.6476251 Z M16.1377259,10.8511399 C14.4729059,8.97983267 12.7604302,8.0807966 10.9903967,8.11102155 C9.16911012,8.14212169 7.42483009,9.05628778 5.74684816,10.8895804 C7.56226424,12.9046394 9.31478346,13.8897264 10.9999998,13.8897264 C12.6487605,13.8897264 14.3585672,12.9808756 16.1270545,11.1240188 L16.2565607,10.9864588 L16.1377259,10.8511399 Z"/>
    <path fill="#C5D2DD" d="M10.9999998,8.6006811 C12.3251086,8.6006811 13.3993215,9.67489401 13.3993215,11.0000028 C13.3993215,12.3251116 12.3251086,13.3993245 10.9999998,13.3993245 C9.674891,13.3993245 8.60067809,12.3251116 8.60067809,11.0000028 C8.60067809,9.67489401 9.674891,8.6006811 10.9999998,8.6006811 Z M10.9999998,9.71928378 C10.2926782,9.71928378 9.71928077,10.2926812 9.71928077,11.0000028 C9.71928077,11.7073244 10.2926782,12.2807218 10.9999998,12.2807218 C11.7073214,12.2807218 12.2807188,11.7073244 12.2807188,11.0000028 C12.2807188,10.2926812 11.7073214,9.71928378 10.9999998,9.71928378 Z"/>
  </g>
</svg>