<svg viewBox="0 0 30 25" xmlns="http://www.w3.org/2000/svg">
  <g stroke="#7B9FA1" fill="none" fill-rule="evenodd">
    <path d="M9.884 1.763s-2.787 2.34-4.11 6.422c-1.322 4.084.433 8.063 1.41 9.226 1.41 1.683 3.66 4.364 8.644 4.643 4.983.28 8.7-2.84 8.7-2.84"/>
    <path d="M13.93 3.858S12.258 5.26 11.464 7.71c-.793 2.45.26 4.84.846 5.537.847 1.01 2.197 2.617 5.187 2.785 2.99.167 5.22-1.703 5.22-1.703"/>
    <path d="M17.71 3.917s-.976.82-1.44 2.248c-.462 1.43.152 2.822.494 3.23.494.588 1.28 1.526 3.026 1.624 1.744.096 3.044-.995 3.044-.995"/>
  </g>
</svg>
