<svg viewBox="0 0 25 25" xmlns="http://www.w3.org/2000/svg">
  <g fill="none" fill-rule="evenodd" stroke="none">
    <path fill="#7B9FA1" d="m 18,11 1,0 0,3 -1,0 z m 2,0 1,0 0,3 -1,0 z m 2,0 1,0 0,3 -1,0 z m -6,1 1,0 0,2 -1,0 z m -2,0 1,0 0,2 -1,0 z m -2,2 1,0 0,2 -1,0 z m -6,0 1,0 0,2 -1,0 z m -2,0 1,0 0,3 -1,0 z m 4,0 1,0 0,3 -1,0 z m 2,0 1,0 0,3 -1,0 z"/>
    <path d="m 2,14 1,0 0,3 -1,0 z" stroke="#979797" stroke-width=".01" fill="#7B9FA1"/>
    <path d="m 2,14 3.72,-4 5.117,6 1.86,0 6.047,-7 1.86,3 1.396,0" stroke="#7B9FA1"/>
    <path d="M 3,15.59 9.166,10 16.016,16 22,16" stroke="#7B9FA1" stroke-width=".5" stroke-dasharray="1"/>
  </g>
</svg>
